M48
; DRILL file {KiCad 8.0.5} date 2024-10-15T23:52:14+0400
; FORMAT={-:-/ absolute / inch / decimal}
; #@! TF.CreationDate,2024-10-15T23:52:14+04:00
; #@! TF.GenerationSoftware,Kicad,Pcbnew,8.0.5
; #@! TF.FileFunction,Plated,1,4,PTH
FMAT,2
INCH
; #@! TA.AperFunction,Plated,PTH,ViaDrill
T1C0.0118
; #@! TA.AperFunction,Plated,PTH,ComponentDrill
T2C0.0197
; #@! TA.AperFunction,Plated,PTH,ComponentDrill
T3C0.0236
; #@! TA.AperFunction,Plated,PTH,ComponentDrill
T4C0.0394
; #@! TA.AperFunction,Plated,PTH,ComponentDrill
T5C0.1260
%
G90
G05
T1
X4.0157Y-3.7165
X4.0157Y-3.8937
X4.0996Y-4.0067
X4.1355Y-3.1754
X4.1355Y-3.4274
X4.2172Y-3.1383
X4.2172Y-3.479
X4.2378Y-3.7
X4.2378Y-3.7415
X4.2378Y-3.7831
X4.2461Y-3.309
X4.3843Y-3.5453
X4.3843Y-3.5453
X4.3849Y-3.9346
X4.385Y-3.3461
X4.3864Y-3.9921
X4.3874Y-3.2717
X4.4501Y-4.002
X4.4524Y-3.937
X4.5272Y-3.9346
X4.5516Y-3.7421
X4.5516Y-3.8327
X4.5594Y-4.002
X4.565Y-4.2345
X4.7272Y-3.3173
X4.7571Y-3.7862
X4.7571Y-4.2575
X4.822Y-3.7031
X4.8272Y-3.3173
X4.8278Y-3.8803
X4.8278Y-4.1634
X4.8297Y-3.9378
X4.8772Y-3.3173
X4.8791Y-3.625
X4.8927Y-4.0484
X4.9272Y-3.3173
X4.9362Y-3.7016
X4.9409Y-3.9772
X5.1379Y-3.4382
X5.1379Y-3.4957
X5.1381Y-3.3232
X5.1381Y-3.3807
X5.3689Y-3.3224
X5.3697Y-3.3807
X5.3728Y-3.4386
X5.3752Y-3.4961
X5.5047Y-4.1561
X5.5047Y-4.2171
X5.5087Y-3.4453
X5.5087Y-3.5028
X5.5697Y-3.5031
X5.5764Y-3.6539
X5.5819Y-3.9433
X5.5819Y-3.9748
X5.5839Y-3.828
X5.5843Y-3.8949
X5.5843Y-3.8594
X5.5858Y-4.0906
X5.5862Y-4.0591
X5.6024Y-3.63
X5.6232Y-4.2634
X5.6232Y-4.3254
X5.626Y-4.1197
X5.6339Y-3.6295
X5.6578Y-4.1202
X5.6654Y-3.6294
X5.6807Y-4.2644
X5.6807Y-4.3254
X5.6893Y-4.1208
X5.6968Y-3.6317
X5.7211Y-4.1216
X5.7524Y-4.4604
X5.7526Y-4.1218
X5.7669Y-4.2709
X5.7841Y-4.1221
X5.8409Y-4.1114
X5.8434Y-3.5098
X5.8535Y-4.3378
X5.8677Y-4.4602
X5.8724Y-4.1118
X5.8749Y-3.5089
X5.9064Y-3.5091
X5.9379Y-3.5081
X5.9594Y-4.1236
X5.9807Y-4.2671
X5.9807Y-4.3281
X5.9909Y-4.1232
X6.0382Y-4.3283
X6.0582Y-4.0433
X6.0586Y-4.1062
X6.0591Y-4.0748
X6.0594Y-4.0114
X6.0598Y-3.9799
X6.0961Y-4.3283
X6.1941Y-3.5652
X6.1941Y-3.6262
X6.1961Y-4.0864
X6.1965Y-4.1843
X6.2516Y-3.5652
X6.8398Y-4.3539
X6.8406Y-4.4108
X6.8429Y-3.372
X6.8433Y-3.4295
X6.8433Y-3.8618
X6.8437Y-3.8043
X6.8437Y-3.9193
X6.8445Y-3.9768
X6.9449Y-4.4685
X6.9451Y-4.2957
X7.0372Y-3.3268
X7.0372Y-3.4744
X7.0386Y-3.7665
X7.0386Y-4.0126
X7.039Y-4.3091
X7.039Y-4.4567
T2
X4.3787Y-3.0997
X4.3787Y-4.6856
X4.4064Y-3.0329
X4.4064Y-3.1665
X4.4064Y-4.6188
X4.4064Y-4.7524
X4.4732Y-3.0052
X4.4732Y-3.1942
X4.4732Y-4.5911
X4.4732Y-4.7801
X4.54Y-3.0329
X4.54Y-3.1665
X4.54Y-4.6188
X4.54Y-4.7524
X4.5677Y-3.0997
X4.5677Y-4.6856
X6.811Y-3.0997
X6.8307Y-4.685
X6.8387Y-3.0329
X6.8387Y-3.1665
X6.8584Y-4.6182
X6.8584Y-4.7519
X6.9055Y-3.0052
X6.9055Y-3.1942
X6.9252Y-4.5906
X6.9252Y-4.7795
X6.9723Y-3.0329
X6.9723Y-3.1665
X6.992Y-4.6182
X6.992Y-4.7519
X7.0Y-3.0997
X7.0197Y-4.685
T4
X4.7504Y-3.0495
X4.7504Y-3.1495
X4.7508Y-4.6358
X4.7508Y-4.7358
X4.8504Y-3.0495
X4.8504Y-3.1495
X4.8508Y-4.6358
X4.8508Y-4.7358
X4.9504Y-3.0495
X4.9504Y-3.1495
X4.9508Y-4.6358
X4.9508Y-4.7358
X5.0504Y-3.0495
X5.0504Y-3.1495
X5.0508Y-4.6358
X5.0508Y-4.7358
X5.1504Y-3.0495
X5.1504Y-3.1495
X5.1508Y-4.6358
X5.1508Y-4.7358
X5.2504Y-3.0495
X5.2504Y-3.1495
X5.2508Y-4.6358
X5.2508Y-4.7358
X5.3504Y-3.0495
X5.3504Y-3.1495
X5.3508Y-4.6358
X5.3508Y-4.7358
X5.4504Y-3.0495
X5.4504Y-3.1495
X5.4508Y-4.6358
X5.4508Y-4.7358
X5.5504Y-3.0495
X5.5504Y-3.1495
X5.5508Y-4.6358
X5.5508Y-4.7358
X5.6504Y-3.0495
X5.6504Y-3.1495
X5.6508Y-4.6358
X5.6508Y-4.7358
X5.7504Y-3.0495
X5.7504Y-3.1495
X5.7508Y-4.6358
X5.7508Y-4.7358
X5.8504Y-3.0495
X5.8504Y-3.1495
X5.8508Y-4.6358
X5.8508Y-4.7358
X5.9504Y-3.0495
X5.9504Y-3.1495
X5.9508Y-4.6358
X5.9508Y-4.7358
X6.0504Y-3.0495
X6.0504Y-3.1495
X6.0508Y-4.6358
X6.0508Y-4.7358
X6.1504Y-3.0495
X6.1504Y-3.1495
X6.1508Y-4.6358
X6.1508Y-4.7358
X6.2504Y-3.0495
X6.2504Y-3.1495
X6.2508Y-4.6358
X6.2508Y-4.7358
X6.3504Y-3.0495
X6.3504Y-3.1495
X6.3508Y-4.6358
X6.3508Y-4.7358
X6.4504Y-3.0495
X6.4504Y-3.1495
X6.4508Y-4.6358
X6.4508Y-4.7358
X6.5504Y-3.0495
X6.5504Y-3.1495
X6.5508Y-4.6358
X6.5508Y-4.7358
X6.6504Y-3.0495
X6.6504Y-3.1495
X6.6508Y-4.6358
X6.6508Y-4.7358
T5
X4.4732Y-3.0997
X4.4732Y-4.6856
X6.9055Y-3.0997
X6.9252Y-4.685
T3
G00X3.9576Y-3.1313
M15
G01X3.934Y-3.1313
M16
G05
G00X3.9576Y-3.4715
M15
G01X3.934Y-3.4715
M16
G05
G00X4.132Y-3.1313
M15
G01X4.0887Y-3.1313
M16
G05
G00X4.132Y-3.4715
M15
G01X4.0887Y-3.4715
M16
G05
T4
G00X4.1307Y-4.278
M15
G01X4.1307Y-4.3646
M16
G05
G00X4.3079Y-4.5102
M15
G01X4.2213Y-4.5102
M16
G05
G00X4.3787Y-4.2701
M15
G01X4.3787Y-4.3724
M16
G05
M30
