%TF.GenerationSoftware,KiCad,Pcbnew,8.0.5*%
%TF.CreationDate,2024-10-15T23:52:28+04:00*%
%TF.ProjectId,AuroraF4,4175726f-7261-4463-942e-6b696361645f,v1.0.1*%
%TF.SameCoordinates,Original*%
%TF.FileFunction,Copper,L4,Bot*%
%TF.FilePolarity,Positive*%
%FSLAX46Y46*%
G04 Gerber Fmt 4.6, Leading zero omitted, Abs format (unit mm)*
G04 Created by KiCad (PCBNEW 8.0.5) date 2024-10-15 23:52:28*
%MOMM*%
%LPD*%
G01*
G04 APERTURE LIST*
%TA.AperFunction,ComponentPad*%
%ADD10R,2.000000X4.600000*%
%TD*%
%TA.AperFunction,ComponentPad*%
%ADD11O,2.000000X4.200000*%
%TD*%
%TA.AperFunction,ComponentPad*%
%ADD12O,4.200000X2.000000*%
%TD*%
%TA.AperFunction,ComponentPad*%
%ADD13C,0.800000*%
%TD*%
%TA.AperFunction,ComponentPad*%
%ADD14C,6.400000*%
%TD*%
%TA.AperFunction,ComponentPad*%
%ADD15R,1.700000X1.700000*%
%TD*%
%TA.AperFunction,ComponentPad*%
%ADD16O,1.700000X1.700000*%
%TD*%
%TA.AperFunction,ComponentPad*%
%ADD17O,2.100000X1.000000*%
%TD*%
%TA.AperFunction,ComponentPad*%
%ADD18O,1.600000X1.000000*%
%TD*%
%TA.AperFunction,ViaPad*%
%ADD19C,0.600000*%
%TD*%
%TA.AperFunction,Conductor*%
%ADD20C,0.126000*%
%TD*%
G04 APERTURE END LIST*
D10*
%TO.P,POWER,1*%
%TO.N,+12V*%
X111220000Y-109760000D03*
D11*
%TO.P,POWER,2*%
%TO.N,GND*%
X104920000Y-109760000D03*
D12*
%TO.P,POWER,3*%
%TO.N,N/C*%
X108320000Y-114560000D03*
%TD*%
D13*
%TO.P,H4,1,1*%
%TO.N,GND*%
X116020000Y-119015000D03*
X115317056Y-120712056D03*
X115317056Y-117317944D03*
X113620000Y-121415000D03*
D14*
X113620000Y-119015000D03*
D13*
X113620000Y-116615000D03*
X111922944Y-120712056D03*
X111922944Y-117317944D03*
X111220000Y-119015000D03*
%TD*%
D15*
%TO.P,J9,1,Pin_1*%
%TO.N,GND*%
X168920000Y-77457056D03*
D16*
%TO.P,J9,2,Pin_2*%
%TO.N,+3.3V*%
X168920000Y-79997056D03*
%TO.P,J9,3,Pin_3*%
%TO.N,PE9*%
X166380000Y-77457056D03*
%TO.P,J9,4,Pin_4*%
%TO.N,PE8*%
X166380000Y-79997056D03*
%TO.P,J9,5,Pin_5*%
%TO.N,+3.3V*%
X163840000Y-77457056D03*
%TO.P,J9,6,Pin_6*%
%TO.N,PE10*%
X163840000Y-79997056D03*
%TO.P,J9,7,Pin_7*%
%TO.N,PE11*%
X161300000Y-77457056D03*
%TO.P,J9,8,Pin_8*%
%TO.N,PE12*%
X161300000Y-79997056D03*
%TO.P,J9,9,Pin_9*%
%TO.N,PE13*%
X158760000Y-77457056D03*
%TO.P,J9,10,Pin_10*%
%TO.N,PE14*%
X158760000Y-79997056D03*
%TO.P,J9,11,Pin_11*%
%TO.N,PE15*%
X156220000Y-77457056D03*
%TO.P,J9,12,Pin_12*%
%TO.N,PB10*%
X156220000Y-79997056D03*
%TO.P,J9,13,Pin_13*%
%TO.N,PB11*%
X153680000Y-77457056D03*
%TO.P,J9,14,Pin_14*%
%TO.N,PB12*%
X153680000Y-79997056D03*
%TO.P,J9,15,Pin_15*%
%TO.N,PB13*%
X151140000Y-77457056D03*
%TO.P,J9,16,Pin_16*%
%TO.N,PB14*%
X151140000Y-79997056D03*
%TO.P,J9,17,Pin_17*%
%TO.N,PB15*%
X148600000Y-77457056D03*
%TO.P,J9,18,Pin_18*%
%TO.N,PD8*%
X148600000Y-79997056D03*
%TO.P,J9,19,Pin_19*%
%TO.N,GND*%
X146060000Y-77457056D03*
%TO.P,J9,20,Pin_20*%
X146060000Y-79997056D03*
%TO.P,J9,21,Pin_21*%
X143520000Y-77457056D03*
%TO.P,J9,22,Pin_22*%
X143520000Y-79997056D03*
%TO.P,J9,23,Pin_23*%
%TO.N,PD9*%
X140980000Y-77457056D03*
%TO.P,J9,24,Pin_24*%
%TO.N,PC6*%
X140980000Y-79997056D03*
%TO.P,J9,25,Pin_25*%
%TO.N,PC7*%
X138440000Y-77457056D03*
%TO.P,J9,26,Pin_26*%
%TO.N,PC8*%
X138440000Y-79997056D03*
%TO.P,J9,27,Pin_27*%
%TO.N,PC9*%
X135900000Y-77457056D03*
%TO.P,J9,28,Pin_28*%
%TO.N,PA8*%
X135900000Y-79997056D03*
%TO.P,J9,29,Pin_29*%
%TO.N,PA9*%
X133360000Y-77457056D03*
%TO.P,J9,30,Pin_30*%
%TO.N,PA10*%
X133360000Y-79997056D03*
%TO.P,J9,31,Pin_31*%
%TO.N,PC10*%
X130820000Y-77457056D03*
%TO.P,J9,32,Pin_32*%
%TO.N,PC11*%
X130820000Y-79997056D03*
%TO.P,J9,33,Pin_33*%
%TO.N,PC12*%
X128280000Y-77457056D03*
%TO.P,J9,34,Pin_34*%
%TO.N,PD0*%
X128280000Y-79997056D03*
%TO.P,J9,35,Pin_35*%
%TO.N,PD1*%
X125740000Y-77457056D03*
%TO.P,J9,36,Pin_36*%
%TO.N,PD2*%
X125740000Y-79997056D03*
%TO.P,J9,37,Pin_37*%
%TO.N,PD3*%
X123200000Y-77457056D03*
%TO.P,J9,38,Pin_38*%
%TO.N,PD4*%
X123200000Y-79997056D03*
%TO.P,J9,39,Pin_39*%
%TO.N,GND*%
X120660000Y-77457056D03*
%TO.P,J9,40,Pin_40*%
X120660000Y-79997056D03*
%TD*%
D15*
%TO.P,J7,1,Pin_1*%
%TO.N,+3.3V*%
X120670000Y-120290000D03*
D16*
%TO.P,J7,2,Pin_2*%
%TO.N,GND*%
X120670000Y-117750000D03*
%TO.P,J7,3,Pin_3*%
%TO.N,PB4*%
X123210000Y-120290000D03*
%TO.P,J7,4,Pin_4*%
%TO.N,PD7*%
X123210000Y-117750000D03*
%TO.P,J7,5,Pin_5*%
%TO.N,PB8*%
X125750000Y-120290000D03*
%TO.P,J7,6,Pin_6*%
%TO.N,PB5*%
X125750000Y-117750000D03*
%TO.P,J7,7,Pin_7*%
%TO.N,PE0*%
X128290000Y-120290000D03*
%TO.P,J7,8,Pin_8*%
%TO.N,PB9*%
X128290000Y-117750000D03*
%TO.P,J7,9,Pin_9*%
%TO.N,PE2*%
X130830000Y-120290000D03*
%TO.P,J7,10,Pin_10*%
%TO.N,PE1*%
X130830000Y-117750000D03*
%TO.P,J7,11,Pin_11*%
%TO.N,PE4*%
X133370000Y-120290000D03*
%TO.P,J7,12,Pin_12*%
%TO.N,PE3*%
X133370000Y-117750000D03*
%TO.P,J7,13,Pin_13*%
%TO.N,PE6*%
X135910000Y-120290000D03*
%TO.P,J7,14,Pin_14*%
%TO.N,PE5*%
X135910000Y-117750000D03*
%TO.P,J7,15,Pin_15*%
%TO.N,PC14*%
X138450000Y-120290000D03*
%TO.P,J7,16,Pin_16*%
%TO.N,PC13*%
X138450000Y-117750000D03*
%TO.P,J7,17,Pin_17*%
%TO.N,PC0*%
X140990000Y-120290000D03*
%TO.P,J7,18,Pin_18*%
%TO.N,PC15*%
X140990000Y-117750000D03*
%TO.P,J7,19,Pin_19*%
%TO.N,GND*%
X143530000Y-120290000D03*
%TO.P,J7,20,Pin_20*%
X143530000Y-117750000D03*
%TO.P,J7,21,Pin_21*%
X146070000Y-120290000D03*
%TO.P,J7,22,Pin_22*%
X146070000Y-117750000D03*
%TO.P,J7,23,Pin_23*%
X148610000Y-120290000D03*
%TO.P,J7,24,Pin_24*%
X148610000Y-117750000D03*
%TO.P,J7,25,Pin_25*%
%TO.N,PC2*%
X151150000Y-120290000D03*
%TO.P,J7,26,Pin_26*%
%TO.N,PC1*%
X151150000Y-117750000D03*
%TO.P,J7,27,Pin_27*%
%TO.N,PA0*%
X153690000Y-120290000D03*
%TO.P,J7,28,Pin_28*%
%TO.N,PC3*%
X153690000Y-117750000D03*
%TO.P,J7,29,Pin_29*%
%TO.N,PA2*%
X156230000Y-120290000D03*
%TO.P,J7,30,Pin_30*%
%TO.N,PA1*%
X156230000Y-117750000D03*
%TO.P,J7,31,Pin_31*%
%TO.N,PA4*%
X158770000Y-120290000D03*
%TO.P,J7,32,Pin_32*%
%TO.N,PA3*%
X158770000Y-117750000D03*
%TO.P,J7,33,Pin_33*%
%TO.N,PC5*%
X161310000Y-120290000D03*
%TO.P,J7,34,Pin_34*%
%TO.N,PC4*%
X161310000Y-117750000D03*
%TO.P,J7,35,Pin_35*%
%TO.N,PB1*%
X163850000Y-120290000D03*
%TO.P,J7,36,Pin_36*%
%TO.N,PB0*%
X163850000Y-117750000D03*
%TO.P,J7,37,Pin_37*%
%TO.N,PE7*%
X166390000Y-120290000D03*
%TO.P,J7,38,Pin_38*%
%TO.N,PB2*%
X166390000Y-117750000D03*
%TO.P,J7,39,Pin_39*%
%TO.N,GND*%
X168930000Y-120290000D03*
%TO.P,J7,40,Pin_40*%
X168930000Y-117750000D03*
%TD*%
D13*
%TO.P,H2,1,1*%
%TO.N,GND*%
X173000000Y-78732056D03*
X173702944Y-77035000D03*
X173702944Y-80429112D03*
X175400000Y-76332056D03*
D14*
X175400000Y-78732056D03*
D13*
X175400000Y-81132056D03*
X177097056Y-77035000D03*
X177097056Y-80429112D03*
X177800000Y-78732056D03*
%TD*%
%TO.P,H1,1,1*%
%TO.N,GND*%
X111220000Y-78732056D03*
X111922944Y-77035000D03*
X111922944Y-80429112D03*
X113620000Y-76332056D03*
D14*
X113620000Y-78732056D03*
D13*
X113620000Y-81132056D03*
X115317056Y-77035000D03*
X115317056Y-80429112D03*
X116020000Y-78732056D03*
%TD*%
%TO.P,H3,1,1*%
%TO.N,GND*%
X178300000Y-119000000D03*
X177597056Y-120697056D03*
X177597056Y-117302944D03*
X175900000Y-121400000D03*
D14*
X175900000Y-119000000D03*
D13*
X175900000Y-116600000D03*
X174202944Y-120697056D03*
X174202944Y-117302944D03*
X173500000Y-119000000D03*
%TD*%
D17*
%TO.P,J5,S1,SHIELD*%
%TO.N,unconnected-(J5-SHIELD-PadS1)_3*%
X104402500Y-79535000D03*
D18*
%TO.N,unconnected-(J5-SHIELD-PadS1)_2*%
X100222500Y-79535000D03*
D17*
%TO.N,unconnected-(J5-SHIELD-PadS1)*%
X104402500Y-88175000D03*
D18*
%TO.N,unconnected-(J5-SHIELD-PadS1)_1*%
X100222500Y-88175000D03*
%TD*%
D19*
%TO.N,GND*%
X146916576Y-104700730D03*
X142830000Y-109865000D03*
%TO.N,+3.3V*%
X142830000Y-108290000D03*
X144290000Y-108315000D03*
%TO.N,SWDIO*%
X125380000Y-94020000D03*
%TO.N,SWCLK*%
X123930000Y-92075000D03*
X141640000Y-92810000D03*
%TO.N,GND*%
X153370000Y-109940000D03*
%TO.N,+3.3VA*%
X115810000Y-101650000D03*
X152169914Y-104728061D03*
%TO.N,GND*%
X157390000Y-106280000D03*
X151370000Y-104740000D03*
X153889322Y-104298652D03*
%TO.N,SWDIO*%
X143101270Y-92190271D03*
%TO.N,GND*%
X141880000Y-103900000D03*
X124275000Y-102830000D03*
%TO.N,+3.3V*%
X122625000Y-105750000D03*
%TO.N,GND*%
X120830000Y-108140000D03*
X115950000Y-107557500D03*
%TO.N,+3.3V*%
X107640000Y-96090000D03*
X107640000Y-95035000D03*
X107640000Y-93980000D03*
%TO.N,GND*%
X111415000Y-101400000D03*
%TO.N,+3.3V*%
X111377500Y-99940000D03*
X113032500Y-101650000D03*
X113090000Y-100000000D03*
X102000000Y-94400000D03*
X115610000Y-95050000D03*
X178745000Y-88250000D03*
X157380000Y-103795000D03*
X157330000Y-92105000D03*
X141470000Y-88980000D03*
X125150000Y-84260000D03*
X122625000Y-98560000D03*
%TO.N,GND*%
X122675000Y-100020000D03*
%TO.N,+3.3V*%
X139820000Y-105565000D03*
X151910000Y-108385000D03*
X178790000Y-113200000D03*
X176405000Y-109110000D03*
X176400000Y-113500000D03*
X178780000Y-101920000D03*
%TO.N,GND*%
X154840000Y-109940000D03*
X146110000Y-113295000D03*
X149040000Y-113290000D03*
X151910000Y-109935000D03*
X139820000Y-107115000D03*
X144290000Y-109865000D03*
X146480000Y-108480000D03*
X148680000Y-110180000D03*
X178790000Y-109450000D03*
X178780000Y-95670000D03*
X178745000Y-84500000D03*
X158790000Y-90555000D03*
X157330000Y-90555000D03*
X142301349Y-92201694D03*
X139920000Y-88970000D03*
X139920000Y-87510000D03*
X130502500Y-88790000D03*
X130502500Y-87330000D03*
X130507500Y-85870000D03*
X130507500Y-84410000D03*
X120070000Y-84260000D03*
X123880000Y-84260000D03*
X122610000Y-84260000D03*
X120830000Y-96170000D03*
X114990000Y-99940000D03*
X102000000Y-98900000D03*
X115610000Y-97350000D03*
X111360000Y-90050000D03*
X111360000Y-90050000D03*
X107117500Y-79712500D03*
X107850000Y-84047500D03*
X107117500Y-88367500D03*
X105042500Y-87055000D03*
X105042500Y-80655000D03*
%TO.N,PC0*%
X149159934Y-104440525D03*
%TO.N,PC15*%
X146116602Y-104693987D03*
%TO.N,PC14*%
X145316614Y-104689165D03*
%TO.N,PC13*%
X144509259Y-104667777D03*
%TO.N,PE6*%
X143709390Y-104653186D03*
%TO.N,PE5*%
X142900000Y-104640000D03*
%TO.N,NRST*%
X125500000Y-101020000D03*
X148360000Y-104430000D03*
%TO.N,BOOT0*%
X104130000Y-101770000D03*
X141890000Y-103100000D03*
%TO.N,SWO*%
X122480000Y-94060000D03*
X141840000Y-98930000D03*
%TO.N,USART2_RX*%
X173820000Y-87110000D03*
X141841427Y-98029921D03*
%TO.N,USART2_TX*%
X173810000Y-85650000D03*
X141830000Y-97230000D03*
%TO.N,I2C1_SCL*%
X173730000Y-110590000D03*
%TO.N,I2C1_SDA*%
X173750000Y-112035000D03*
X141780000Y-100960003D03*
%TO.N,I2C1_SCL*%
X141780000Y-100160000D03*
%TO.N,USB_D+*%
X111380000Y-84990000D03*
X143901263Y-92186390D03*
%TO.N,USB_D-*%
X111440000Y-83100000D03*
X144699109Y-92245084D03*
%TO.N,LED_BLUE*%
X136370000Y-84390000D03*
X150822366Y-89105423D03*
%TO.N,LED_RED*%
X136390000Y-85870000D03*
X150022599Y-89131395D03*
%TO.N,LED_YELLOW*%
X136470000Y-87340000D03*
X149222620Y-89125282D03*
%TO.N,LED_GREEN*%
X136530000Y-88800000D03*
X148423000Y-89150000D03*
%TO.N,SPI1_NSS*%
X153901997Y-103498750D03*
X173830000Y-96630000D03*
%TO.N,SPI1_SCK*%
X173850000Y-101010000D03*
X153877860Y-102699111D03*
%TO.N,SPI1_MISO*%
X173830000Y-99550000D03*
X153908733Y-101889923D03*
%TO.N,SPI1_MOSI*%
X153920000Y-101090000D03*
X173820000Y-98090000D03*
%TD*%
D20*
%TO.N,USART2_TX*%
X142066921Y-97466921D02*
X141830000Y-97230000D01*
X142311630Y-97703921D02*
X142074630Y-97466921D01*
X142074630Y-97466921D02*
X142066921Y-97466921D01*
X167410000Y-95460000D02*
X165166079Y-97703921D01*
X165166079Y-97703921D02*
X142311630Y-97703921D01*
X167410000Y-87010000D02*
X167410000Y-95460000D01*
X168770000Y-85650000D02*
X167410000Y-87010000D01*
X173810000Y-85650000D02*
X168770000Y-85650000D01*
%TO.N,SPI1_NSS*%
X154461250Y-103498750D02*
X153901997Y-103498750D01*
X154720000Y-103240000D02*
X154461250Y-103498750D01*
X154720000Y-103120000D02*
X154720000Y-103240000D01*
X154770000Y-103070000D02*
X154720000Y-103120000D01*
X168050000Y-101710000D02*
X166690000Y-103070000D01*
X168050000Y-100760000D02*
X168050000Y-101710000D01*
X168310000Y-100500000D02*
X168050000Y-100760000D01*
X166690000Y-103070000D02*
X154770000Y-103070000D01*
X171380000Y-100500000D02*
X168310000Y-100500000D01*
X174750000Y-101460000D02*
X174350000Y-101860000D01*
X171620000Y-100740000D02*
X171380000Y-100500000D01*
X174350000Y-101860000D02*
X172340000Y-101860000D01*
X174750000Y-97840000D02*
X174750000Y-101460000D01*
X174420000Y-97510000D02*
X174750000Y-97840000D01*
X172340000Y-101860000D02*
X171620000Y-101140000D01*
X173830000Y-97240000D02*
X174100000Y-97510000D01*
X173830000Y-96630000D02*
X173830000Y-97240000D01*
X171620000Y-101140000D02*
X171620000Y-100740000D01*
X174100000Y-97510000D02*
X174420000Y-97510000D01*
%TO.N,SPI1_SCK*%
X167440000Y-101480000D02*
X166380000Y-102540000D01*
X167440000Y-100450000D02*
X167440000Y-101480000D01*
X171870000Y-100020000D02*
X167870000Y-100020000D01*
X154036971Y-102540000D02*
X153877860Y-102699111D01*
X172200000Y-100350000D02*
X171870000Y-100020000D01*
X172200000Y-100610000D02*
X172200000Y-100350000D01*
X167870000Y-100020000D02*
X167440000Y-100450000D01*
X172600000Y-101010000D02*
X172200000Y-100610000D01*
X173850000Y-101010000D02*
X172600000Y-101010000D01*
X166380000Y-102540000D02*
X154036971Y-102540000D01*
%TO.N,SPI1_MISO*%
X154021810Y-102003000D02*
X153908733Y-101889923D01*
X166027000Y-102003000D02*
X154021810Y-102003000D01*
X166820000Y-101210000D02*
X166027000Y-102003000D01*
X167440000Y-99550000D02*
X166820000Y-100170000D01*
X166820000Y-100170000D02*
X166820000Y-101210000D01*
X173830000Y-99550000D02*
X167440000Y-99550000D01*
%TO.N,SPI1_MOSI*%
X154250000Y-101420000D02*
X153920000Y-101090000D01*
X165740000Y-101420000D02*
X154250000Y-101420000D01*
X166240000Y-100920000D02*
X165740000Y-101420000D01*
X166240000Y-99820000D02*
X166240000Y-100920000D01*
X166970000Y-99090000D02*
X166240000Y-99820000D01*
X172210000Y-98750000D02*
X171870000Y-99090000D01*
X172570000Y-98090000D02*
X172210000Y-98450000D01*
X171870000Y-99090000D02*
X166970000Y-99090000D01*
X172210000Y-98450000D02*
X172210000Y-98750000D01*
X173820000Y-98090000D02*
X172570000Y-98090000D01*
%TO.N,USART2_RX*%
X169100000Y-87110000D02*
X168290000Y-87920000D01*
X173820000Y-87110000D02*
X169100000Y-87110000D01*
X168290000Y-95930000D02*
X166190079Y-98029921D01*
X166190079Y-98029921D02*
X141841427Y-98029921D01*
X168290000Y-87920000D02*
X168290000Y-95930000D01*
%TO.N,I2C1_SDA*%
X151560003Y-100960003D02*
X141780000Y-100960003D01*
X152750000Y-102150000D02*
X151560003Y-100960003D01*
X152750000Y-104810000D02*
X152750000Y-102150000D01*
X153390000Y-105450000D02*
X152750000Y-104810000D01*
X167200000Y-110530000D02*
X167200000Y-106300000D01*
X168690000Y-112020000D02*
X167200000Y-110530000D01*
X173750000Y-112035000D02*
X173735000Y-112020000D01*
X167200000Y-106300000D02*
X166350000Y-105450000D01*
X173735000Y-112020000D02*
X168690000Y-112020000D01*
X166350000Y-105450000D02*
X153390000Y-105450000D01*
%TO.N,I2C1_SCL*%
X151720000Y-100160000D02*
X141780000Y-100160000D01*
X153210000Y-101650000D02*
X151720000Y-100160000D01*
X153210000Y-104630000D02*
X153210000Y-101650000D01*
X167810000Y-105990000D02*
X166810000Y-104990000D01*
X166810000Y-104990000D02*
X153570000Y-104990000D01*
X167810000Y-109630000D02*
X167810000Y-105990000D01*
X153570000Y-104990000D02*
X153210000Y-104630000D01*
X168770000Y-110590000D02*
X167810000Y-109630000D01*
X173730000Y-110590000D02*
X168770000Y-110590000D01*
%TO.N,PC14*%
X138450000Y-119110000D02*
X138450000Y-120290000D01*
X138620000Y-118940000D02*
X138450000Y-119110000D01*
X139140000Y-118940000D02*
X138620000Y-118940000D01*
X139710000Y-108350000D02*
X139710000Y-118370000D01*
X140060000Y-108000000D02*
X139710000Y-108350000D01*
X140390000Y-108000000D02*
X140060000Y-108000000D01*
X140680000Y-106960000D02*
X140680000Y-107710000D01*
X139710000Y-118370000D02*
X139140000Y-118940000D01*
X141320000Y-106320000D02*
X140680000Y-106960000D01*
X140680000Y-107710000D02*
X140390000Y-108000000D01*
X144600000Y-106320000D02*
X141320000Y-106320000D01*
X145316614Y-105603386D02*
X144600000Y-106320000D01*
X145316614Y-104689165D02*
X145316614Y-105603386D01*
%TO.N,PC15*%
X145070000Y-107090000D02*
X142220000Y-107090000D01*
X140990000Y-108320000D02*
X140990000Y-117750000D01*
X146116602Y-106043398D02*
X145070000Y-107090000D01*
X142220000Y-107090000D02*
X140990000Y-108320000D01*
X146116602Y-104693987D02*
X146116602Y-106043398D01*
%TO.N,PC13*%
X138450000Y-107050000D02*
X138450000Y-117750000D01*
X140470000Y-106290000D02*
X139210000Y-106290000D01*
X144180000Y-105700000D02*
X141060000Y-105700000D01*
X144509259Y-105370741D02*
X144180000Y-105700000D01*
X139210000Y-106290000D02*
X138450000Y-107050000D01*
X144509259Y-104667777D02*
X144509259Y-105370741D01*
X141060000Y-105700000D02*
X140470000Y-106290000D01*
%TO.N,PE6*%
X136597000Y-118863000D02*
X136110000Y-118863000D01*
X136110000Y-118863000D02*
X135910000Y-119063000D01*
X142423797Y-104960000D02*
X138940000Y-104960000D01*
X143159576Y-105203000D02*
X142666797Y-105203000D01*
X137170000Y-106730000D02*
X137170000Y-118290000D01*
X143709390Y-104653186D02*
X143159576Y-105203000D01*
X137170000Y-118290000D02*
X136597000Y-118863000D01*
X142666797Y-105203000D02*
X142423797Y-104960000D01*
X135910000Y-119063000D02*
X135910000Y-120290000D01*
X138940000Y-104960000D02*
X137170000Y-106730000D01*
%TO.N,PC0*%
X141660000Y-118880000D02*
X141210000Y-118880000D01*
X142103000Y-118437000D02*
X141660000Y-118880000D01*
X142103000Y-117288980D02*
X142103000Y-118437000D01*
X141850000Y-117035980D02*
X142103000Y-117288980D01*
X145840000Y-107580000D02*
X142540000Y-107580000D01*
X142540000Y-107580000D02*
X141850000Y-108270000D01*
X148920000Y-105140000D02*
X147470000Y-105140000D01*
X141850000Y-108270000D02*
X141850000Y-117035980D01*
X147160000Y-105450000D02*
X147160000Y-106260000D01*
X140990000Y-119100000D02*
X140990000Y-120290000D01*
X147160000Y-106260000D02*
X145840000Y-107580000D01*
X141210000Y-118880000D02*
X140990000Y-119100000D01*
X149159934Y-104900066D02*
X148920000Y-105140000D01*
X149159934Y-104440525D02*
X149159934Y-104900066D01*
X147470000Y-105140000D02*
X147160000Y-105450000D01*
%TO.N,SWCLK*%
X141320000Y-93560000D02*
X141640000Y-93240000D01*
X125716203Y-93560000D02*
X141320000Y-93560000D01*
X141640000Y-93240000D02*
X141640000Y-92810000D01*
X124417000Y-93457000D02*
X125613203Y-93457000D01*
X123930000Y-92970000D02*
X124417000Y-93457000D01*
X125613203Y-93457000D02*
X125716203Y-93560000D01*
X123930000Y-92075000D02*
X123930000Y-92970000D01*
%TO.N,SWDIO*%
X142330000Y-94010000D02*
X143101270Y-93238730D01*
X125390000Y-94010000D02*
X142330000Y-94010000D01*
X125380000Y-94020000D02*
X125390000Y-94010000D01*
X143101270Y-93238730D02*
X143101270Y-92190271D01*
%TO.N,USB_D-*%
X127200000Y-88830000D02*
X127200000Y-84280000D01*
X126020000Y-83100000D02*
X111440000Y-83100000D01*
X127970000Y-89600000D02*
X127200000Y-88830000D01*
X143540000Y-89600000D02*
X127970000Y-89600000D01*
X144360000Y-90420000D02*
X143540000Y-89600000D01*
X144360000Y-91848924D02*
X144360000Y-90420000D01*
X144464263Y-91953187D02*
X144360000Y-91848924D01*
X127200000Y-84280000D02*
X126020000Y-83100000D01*
X144464263Y-92010238D02*
X144464263Y-91953187D01*
X144699109Y-92245084D02*
X144464263Y-92010238D01*
%TO.N,USB_D+*%
X111810000Y-84990000D02*
X111380000Y-84990000D01*
X111990000Y-84810000D02*
X111810000Y-84990000D01*
X111990000Y-83680000D02*
X111990000Y-84810000D01*
X112244000Y-83426000D02*
X111990000Y-83680000D01*
X125884966Y-83426000D02*
X112244000Y-83426000D01*
X126874000Y-84415034D02*
X125884966Y-83426000D01*
X127834966Y-89926000D02*
X126874000Y-88965034D01*
X143404966Y-89926000D02*
X127834966Y-89926000D01*
X144034000Y-90555034D02*
X143404966Y-89926000D01*
X144034000Y-92053653D02*
X144034000Y-90555034D01*
X143901263Y-92186390D02*
X144034000Y-92053653D01*
X126874000Y-88965034D02*
X126874000Y-84415034D01*
%TO.N,PE5*%
X135910000Y-106480000D02*
X135910000Y-117750000D01*
X137926000Y-104464000D02*
X135910000Y-106480000D01*
X142900000Y-104640000D02*
X142724000Y-104464000D01*
X142724000Y-104464000D02*
X137926000Y-104464000D01*
%TO.N,BOOT0*%
X139620000Y-103740000D02*
X140260000Y-103100000D01*
X105040000Y-103740000D02*
X139620000Y-103740000D01*
X104130000Y-102830000D02*
X105040000Y-103740000D01*
X104130000Y-101770000D02*
X104130000Y-102830000D01*
X140260000Y-103100000D02*
X141890000Y-103100000D01*
%TO.N,SWO*%
X124910000Y-98510000D02*
X125330000Y-98930000D01*
X124910000Y-98230000D02*
X124910000Y-98510000D01*
X122860000Y-97860000D02*
X124540000Y-97860000D01*
X124540000Y-97860000D02*
X124910000Y-98230000D01*
X125330000Y-98930000D02*
X141840000Y-98930000D01*
X122480000Y-97480000D02*
X122860000Y-97860000D01*
X122480000Y-94060000D02*
X122480000Y-97480000D01*
%TO.N,NRST*%
X147630000Y-102980000D02*
X148360000Y-103710000D01*
X142470000Y-102400000D02*
X143050000Y-102980000D01*
X143050000Y-102980000D02*
X147630000Y-102980000D01*
X140940000Y-102400000D02*
X142470000Y-102400000D01*
X140720000Y-102180000D02*
X140940000Y-102400000D01*
X140720000Y-101650000D02*
X140720000Y-102180000D01*
X148360000Y-103710000D02*
X148360000Y-104430000D01*
X140100000Y-101030000D02*
X140720000Y-101650000D01*
X125510000Y-101030000D02*
X140100000Y-101030000D01*
X125500000Y-101020000D02*
X125510000Y-101030000D01*
%TO.N,LED_BLUE*%
X149280000Y-84290000D02*
X137890000Y-84290000D01*
X137790000Y-84390000D02*
X136370000Y-84390000D01*
X150792827Y-89075884D02*
X150792827Y-85802827D01*
X150822366Y-89105423D02*
X150792827Y-89075884D01*
X150792827Y-85802827D02*
X149280000Y-84290000D01*
X137890000Y-84290000D02*
X137790000Y-84390000D01*
%TO.N,LED_RED*%
X137390000Y-85870000D02*
X136390000Y-85870000D01*
X138420000Y-84840000D02*
X137390000Y-85870000D01*
X148740000Y-84840000D02*
X138420000Y-84840000D01*
X150040000Y-86140000D02*
X148740000Y-84840000D01*
X150040000Y-89113994D02*
X150040000Y-86140000D01*
X150022599Y-89131395D02*
X150040000Y-89113994D01*
%TO.N,LED_YELLOW*%
X137590000Y-87340000D02*
X136470000Y-87340000D01*
X137970000Y-86960000D02*
X137590000Y-87340000D01*
X137970000Y-86170000D02*
X137970000Y-86960000D01*
X138620000Y-85520000D02*
X137970000Y-86170000D01*
X148240000Y-85520000D02*
X138620000Y-85520000D01*
X149222620Y-86502620D02*
X148240000Y-85520000D01*
X149222620Y-89125282D02*
X149222620Y-86502620D01*
%TO.N,LED_GREEN*%
X136540000Y-88810000D02*
X136530000Y-88800000D01*
X137680000Y-88810000D02*
X136540000Y-88810000D01*
X138900000Y-86020000D02*
X138460000Y-86460000D01*
X138460000Y-88030000D02*
X137680000Y-88810000D01*
X148423000Y-86833000D02*
X147610000Y-86020000D01*
X148423000Y-89150000D02*
X148423000Y-86833000D01*
X147610000Y-86020000D02*
X138900000Y-86020000D01*
X138460000Y-86460000D02*
X138460000Y-88030000D01*
%TD*%
%TA.AperFunction,Conductor*%
%TO.N,GND*%
G36*
X145604075Y-120097007D02*
G01*
X145570000Y-120224174D01*
X145570000Y-120355826D01*
X145604075Y-120482993D01*
X145636988Y-120540000D01*
X143963012Y-120540000D01*
X143995925Y-120482993D01*
X144030000Y-120355826D01*
X144030000Y-120224174D01*
X143995925Y-120097007D01*
X143963012Y-120040000D01*
X145636988Y-120040000D01*
X145604075Y-120097007D01*
G37*
%TD.AperFunction*%
%TA.AperFunction,Conductor*%
G36*
X148144075Y-120097007D02*
G01*
X148110000Y-120224174D01*
X148110000Y-120355826D01*
X148144075Y-120482993D01*
X148176988Y-120540000D01*
X146503012Y-120540000D01*
X146535925Y-120482993D01*
X146570000Y-120355826D01*
X146570000Y-120224174D01*
X146535925Y-120097007D01*
X146503012Y-120040000D01*
X148176988Y-120040000D01*
X148144075Y-120097007D01*
G37*
%TD.AperFunction*%
%TA.AperFunction,Conductor*%
G36*
X143780000Y-119856988D02*
G01*
X143722993Y-119824075D01*
X143595826Y-119790000D01*
X143464174Y-119790000D01*
X143337007Y-119824075D01*
X143280000Y-119856988D01*
X143280000Y-118183012D01*
X143337007Y-118215925D01*
X143464174Y-118250000D01*
X143595826Y-118250000D01*
X143722993Y-118215925D01*
X143780000Y-118183012D01*
X143780000Y-119856988D01*
G37*
%TD.AperFunction*%
%TA.AperFunction,Conductor*%
G36*
X146320000Y-119856988D02*
G01*
X146262993Y-119824075D01*
X146135826Y-119790000D01*
X146004174Y-119790000D01*
X145877007Y-119824075D01*
X145820000Y-119856988D01*
X145820000Y-118183012D01*
X145877007Y-118215925D01*
X146004174Y-118250000D01*
X146135826Y-118250000D01*
X146262993Y-118215925D01*
X146320000Y-118183012D01*
X146320000Y-119856988D01*
G37*
%TD.AperFunction*%
%TA.AperFunction,Conductor*%
G36*
X148860000Y-119856988D02*
G01*
X148802993Y-119824075D01*
X148675826Y-119790000D01*
X148544174Y-119790000D01*
X148417007Y-119824075D01*
X148360000Y-119856988D01*
X148360000Y-118183012D01*
X148417007Y-118215925D01*
X148544174Y-118250000D01*
X148675826Y-118250000D01*
X148802993Y-118215925D01*
X148860000Y-118183012D01*
X148860000Y-119856988D01*
G37*
%TD.AperFunction*%
%TA.AperFunction,Conductor*%
G36*
X169180000Y-119856988D02*
G01*
X169122993Y-119824075D01*
X168995826Y-119790000D01*
X168864174Y-119790000D01*
X168737007Y-119824075D01*
X168680000Y-119856988D01*
X168680000Y-118183012D01*
X168737007Y-118215925D01*
X168864174Y-118250000D01*
X168995826Y-118250000D01*
X169122993Y-118215925D01*
X169180000Y-118183012D01*
X169180000Y-119856988D01*
G37*
%TD.AperFunction*%
%TA.AperFunction,Conductor*%
G36*
X145604075Y-117557007D02*
G01*
X145570000Y-117684174D01*
X145570000Y-117815826D01*
X145604075Y-117942993D01*
X145636988Y-118000000D01*
X143963012Y-118000000D01*
X143995925Y-117942993D01*
X144030000Y-117815826D01*
X144030000Y-117684174D01*
X143995925Y-117557007D01*
X143963012Y-117500000D01*
X145636988Y-117500000D01*
X145604075Y-117557007D01*
G37*
%TD.AperFunction*%
%TA.AperFunction,Conductor*%
G36*
X148144075Y-117557007D02*
G01*
X148110000Y-117684174D01*
X148110000Y-117815826D01*
X148144075Y-117942993D01*
X148176988Y-118000000D01*
X146503012Y-118000000D01*
X146535925Y-117942993D01*
X146570000Y-117815826D01*
X146570000Y-117684174D01*
X146535925Y-117557007D01*
X146503012Y-117500000D01*
X148176988Y-117500000D01*
X148144075Y-117557007D01*
G37*
%TD.AperFunction*%
%TA.AperFunction,Conductor*%
G36*
X140059539Y-106873185D02*
G01*
X140105294Y-106925989D01*
X140116500Y-106977500D01*
X140116500Y-107312500D01*
X140096815Y-107379539D01*
X140044011Y-107425294D01*
X139992500Y-107436500D01*
X139985814Y-107436500D01*
X139842497Y-107474902D01*
X139758323Y-107523500D01*
X139736163Y-107536294D01*
X139714004Y-107549087D01*
X139714001Y-107549089D01*
X139259090Y-108004000D01*
X139259083Y-108004009D01*
X139244886Y-108028600D01*
X139194319Y-108076815D01*
X139125712Y-108090037D01*
X139060847Y-108064069D01*
X139020319Y-108007154D01*
X139013500Y-107966599D01*
X139013500Y-107334771D01*
X139033185Y-107267732D01*
X139049819Y-107247090D01*
X139407090Y-106889819D01*
X139468413Y-106856334D01*
X139494771Y-106853500D01*
X139992500Y-106853500D01*
X140059539Y-106873185D01*
G37*
%TD.AperFunction*%
%TA.AperFunction,Conductor*%
G36*
X142751296Y-103458217D02*
G01*
X142832493Y-103505096D01*
X142832494Y-103505096D01*
X142832497Y-103505098D01*
X142975814Y-103543500D01*
X147345229Y-103543500D01*
X147412268Y-103563185D01*
X147432910Y-103579819D01*
X147679803Y-103826712D01*
X147713288Y-103888035D01*
X147708304Y-103957727D01*
X147697116Y-103980365D01*
X147634211Y-104080476D01*
X147574631Y-104250745D01*
X147574630Y-104250750D01*
X147558199Y-104396591D01*
X147554435Y-104430000D01*
X147555405Y-104438615D01*
X147543353Y-104507435D01*
X147496005Y-104558816D01*
X147432186Y-104576500D01*
X147395814Y-104576500D01*
X147264245Y-104611753D01*
X147252493Y-104614903D01*
X147124006Y-104689085D01*
X147117558Y-104694034D01*
X147116743Y-104692972D01*
X147062847Y-104722397D01*
X146993156Y-104717406D01*
X146937226Y-104675530D01*
X146913280Y-104615111D01*
X146901971Y-104514737D01*
X146901970Y-104514732D01*
X146872320Y-104429997D01*
X146842391Y-104344465D01*
X146816817Y-104303765D01*
X146783503Y-104250745D01*
X146746418Y-104191725D01*
X146618864Y-104064171D01*
X146615807Y-104062250D01*
X146466125Y-103968198D01*
X146295856Y-103908618D01*
X146295851Y-103908617D01*
X146116606Y-103888422D01*
X146116598Y-103888422D01*
X145937352Y-103908617D01*
X145937344Y-103908619D01*
X145762894Y-103969662D01*
X145693116Y-103973223D01*
X145668138Y-103964340D01*
X145666131Y-103963373D01*
X145495876Y-103903798D01*
X145495863Y-103903795D01*
X145316618Y-103883600D01*
X145316610Y-103883600D01*
X145137364Y-103903795D01*
X145137359Y-103903796D01*
X144975751Y-103960346D01*
X144905972Y-103963907D01*
X144868825Y-103948298D01*
X144858784Y-103941989D01*
X144688513Y-103882408D01*
X144688508Y-103882407D01*
X144509263Y-103862212D01*
X144509255Y-103862212D01*
X144330009Y-103882407D01*
X144330001Y-103882409D01*
X144166254Y-103939707D01*
X144096476Y-103943268D01*
X144065303Y-103930169D01*
X144065184Y-103930417D01*
X144060329Y-103928078D01*
X144059327Y-103927658D01*
X144058912Y-103927397D01*
X144058911Y-103927396D01*
X144058907Y-103927394D01*
X143888652Y-103867819D01*
X143888639Y-103867816D01*
X143709394Y-103847621D01*
X143709386Y-103847621D01*
X143530140Y-103867816D01*
X143530132Y-103867818D01*
X143358834Y-103927758D01*
X143289056Y-103931319D01*
X143251907Y-103915709D01*
X143249524Y-103914212D01*
X143249518Y-103914209D01*
X143079262Y-103854633D01*
X143079249Y-103854630D01*
X142900004Y-103834435D01*
X142899996Y-103834435D01*
X142720753Y-103854630D01*
X142720747Y-103854631D01*
X142609546Y-103893542D01*
X142568592Y-103900500D01*
X142520940Y-103900500D01*
X142453901Y-103880815D01*
X142408146Y-103828011D01*
X142398202Y-103758853D01*
X142427227Y-103695297D01*
X142433259Y-103688819D01*
X142473183Y-103648895D01*
X142519816Y-103602262D01*
X142584303Y-103499630D01*
X142636636Y-103453341D01*
X142705690Y-103442692D01*
X142751296Y-103458217D01*
G37*
%TD.AperFunction*%
%TA.AperFunction,Conductor*%
G36*
X145594075Y-79804063D02*
G01*
X145560000Y-79931230D01*
X145560000Y-80062882D01*
X145594075Y-80190049D01*
X145626988Y-80247056D01*
X143953012Y-80247056D01*
X143985925Y-80190049D01*
X144020000Y-80062882D01*
X144020000Y-79931230D01*
X143985925Y-79804063D01*
X143953012Y-79747056D01*
X145626988Y-79747056D01*
X145594075Y-79804063D01*
G37*
%TD.AperFunction*%
%TA.AperFunction,Conductor*%
G36*
X120910000Y-79564044D02*
G01*
X120852993Y-79531131D01*
X120725826Y-79497056D01*
X120594174Y-79497056D01*
X120467007Y-79531131D01*
X120410000Y-79564044D01*
X120410000Y-77890068D01*
X120467007Y-77922981D01*
X120594174Y-77957056D01*
X120725826Y-77957056D01*
X120852993Y-77922981D01*
X120910000Y-77890068D01*
X120910000Y-79564044D01*
G37*
%TD.AperFunction*%
%TA.AperFunction,Conductor*%
G36*
X143770000Y-79564044D02*
G01*
X143712993Y-79531131D01*
X143585826Y-79497056D01*
X143454174Y-79497056D01*
X143327007Y-79531131D01*
X143270000Y-79564044D01*
X143270000Y-77890068D01*
X143327007Y-77922981D01*
X143454174Y-77957056D01*
X143585826Y-77957056D01*
X143712993Y-77922981D01*
X143770000Y-77890068D01*
X143770000Y-79564044D01*
G37*
%TD.AperFunction*%
%TA.AperFunction,Conductor*%
G36*
X146310000Y-79564044D02*
G01*
X146252993Y-79531131D01*
X146125826Y-79497056D01*
X145994174Y-79497056D01*
X145867007Y-79531131D01*
X145810000Y-79564044D01*
X145810000Y-77890068D01*
X145867007Y-77922981D01*
X145994174Y-77957056D01*
X146125826Y-77957056D01*
X146252993Y-77922981D01*
X146310000Y-77890068D01*
X146310000Y-79564044D01*
G37*
%TD.AperFunction*%
%TA.AperFunction,Conductor*%
G36*
X145594075Y-77264063D02*
G01*
X145560000Y-77391230D01*
X145560000Y-77522882D01*
X145594075Y-77650049D01*
X145626988Y-77707056D01*
X143953012Y-77707056D01*
X143985925Y-77650049D01*
X144020000Y-77522882D01*
X144020000Y-77391230D01*
X143985925Y-77264063D01*
X143953012Y-77207056D01*
X145626988Y-77207056D01*
X145594075Y-77264063D01*
G37*
%TD.AperFunction*%
%TA.AperFunction,Conductor*%
G36*
X180123243Y-74260669D02*
G01*
X180145186Y-74261820D01*
X180427046Y-74276592D01*
X180439953Y-74277949D01*
X180571089Y-74298718D01*
X180737209Y-74325028D01*
X180749896Y-74327724D01*
X181040625Y-74405625D01*
X181052965Y-74409635D01*
X181333938Y-74517490D01*
X181345790Y-74522767D01*
X181613968Y-74659411D01*
X181625199Y-74665896D01*
X181691389Y-74708880D01*
X181877608Y-74829812D01*
X181888109Y-74837441D01*
X182122010Y-75026850D01*
X182131655Y-75035535D01*
X182344464Y-75248344D01*
X182353149Y-75257989D01*
X182542558Y-75491890D01*
X182550187Y-75502391D01*
X182714101Y-75754796D01*
X182720591Y-75766036D01*
X182857231Y-76034206D01*
X182862510Y-76046064D01*
X182970363Y-76327033D01*
X182974374Y-76339376D01*
X183052273Y-76630097D01*
X183054971Y-76642794D01*
X183102050Y-76940046D01*
X183103407Y-76952953D01*
X183119330Y-77256756D01*
X183119500Y-77263246D01*
X183119500Y-120496753D01*
X183119330Y-120503243D01*
X183103407Y-120807046D01*
X183102050Y-120819953D01*
X183054971Y-121117205D01*
X183052273Y-121129902D01*
X182974374Y-121420623D01*
X182970363Y-121432966D01*
X182862510Y-121713935D01*
X182857231Y-121725793D01*
X182720591Y-121993963D01*
X182714101Y-122005203D01*
X182550187Y-122257608D01*
X182542558Y-122268109D01*
X182353149Y-122502010D01*
X182344464Y-122511655D01*
X182131655Y-122724464D01*
X182122010Y-122733149D01*
X181888109Y-122922558D01*
X181877608Y-122930187D01*
X181625203Y-123094101D01*
X181613963Y-123100591D01*
X181345793Y-123237231D01*
X181333935Y-123242510D01*
X181052966Y-123350363D01*
X181040623Y-123354374D01*
X180749902Y-123432273D01*
X180737205Y-123434971D01*
X180439953Y-123482050D01*
X180427046Y-123483407D01*
X180123244Y-123499330D01*
X180116754Y-123499500D01*
X102003246Y-123499500D01*
X101996756Y-123499330D01*
X101692953Y-123483407D01*
X101680046Y-123482050D01*
X101382794Y-123434971D01*
X101370097Y-123432273D01*
X101079376Y-123354374D01*
X101067033Y-123350363D01*
X100786064Y-123242510D01*
X100774206Y-123237231D01*
X100506036Y-123100591D01*
X100494796Y-123094101D01*
X100242391Y-122930187D01*
X100231890Y-122922558D01*
X99997989Y-122733149D01*
X99988344Y-122724464D01*
X99775535Y-122511655D01*
X99766850Y-122502010D01*
X99577441Y-122268109D01*
X99569812Y-122257608D01*
X99538044Y-122208689D01*
X99405896Y-122005199D01*
X99399408Y-121993963D01*
X99262768Y-121725793D01*
X99257489Y-121713935D01*
X99229299Y-121640498D01*
X99149635Y-121432965D01*
X99145625Y-121420623D01*
X99083260Y-121187876D01*
X99067724Y-121129896D01*
X99065028Y-121117205D01*
X99017949Y-120819953D01*
X99016592Y-120807046D01*
X99000670Y-120503243D01*
X99000500Y-120496753D01*
X99000500Y-119014999D01*
X109914922Y-119014999D01*
X109914922Y-119015000D01*
X109935219Y-119402287D01*
X109995886Y-119785323D01*
X109995887Y-119785330D01*
X110096262Y-120159936D01*
X110235244Y-120521994D01*
X110411310Y-120867543D01*
X110622531Y-121192793D01*
X110831095Y-121450350D01*
X110831096Y-121450350D01*
X112325748Y-119955698D01*
X112399588Y-120057330D01*
X112577670Y-120235412D01*
X112679300Y-120309251D01*
X111184648Y-121803903D01*
X111184649Y-121803904D01*
X111442206Y-122012468D01*
X111767456Y-122223689D01*
X112113005Y-122399755D01*
X112475063Y-122538737D01*
X112849669Y-122639112D01*
X112849676Y-122639113D01*
X113232712Y-122699780D01*
X113619999Y-122720078D01*
X113620001Y-122720078D01*
X114007287Y-122699780D01*
X114390323Y-122639113D01*
X114390330Y-122639112D01*
X114764936Y-122538737D01*
X115126994Y-122399755D01*
X115472543Y-122223689D01*
X115797783Y-122012476D01*
X115797785Y-122012475D01*
X116055349Y-121803902D01*
X114560698Y-120309251D01*
X114662330Y-120235412D01*
X114840412Y-120057330D01*
X114914251Y-119955698D01*
X116408902Y-121450349D01*
X116617475Y-121192785D01*
X116617476Y-121192783D01*
X116828689Y-120867543D01*
X117004755Y-120521994D01*
X117143737Y-120159936D01*
X117244112Y-119785330D01*
X117244113Y-119785323D01*
X117304780Y-119402287D01*
X117325078Y-119015000D01*
X117325078Y-119014999D01*
X117304780Y-118627712D01*
X117244113Y-118244676D01*
X117244112Y-118244669D01*
X117143737Y-117870063D01*
X117004755Y-117508005D01*
X116828689Y-117162456D01*
X116617468Y-116837206D01*
X116408904Y-116579649D01*
X116408903Y-116579648D01*
X114914251Y-118074300D01*
X114840412Y-117972670D01*
X114662330Y-117794588D01*
X114560698Y-117720748D01*
X116055350Y-116226096D01*
X116055350Y-116226095D01*
X115797793Y-116017531D01*
X115472543Y-115806310D01*
X115126994Y-115630244D01*
X114764936Y-115491262D01*
X114390330Y-115390887D01*
X114390323Y-115390886D01*
X114007287Y-115330219D01*
X113620001Y-115309922D01*
X113619999Y-115309922D01*
X113232712Y-115330219D01*
X112849676Y-115390886D01*
X112849669Y-115390887D01*
X112475063Y-115491262D01*
X112113005Y-115630244D01*
X111767456Y-115806310D01*
X111442206Y-116017531D01*
X111184648Y-116226095D01*
X111184648Y-116226096D01*
X112679301Y-117720748D01*
X112577670Y-117794588D01*
X112399588Y-117972670D01*
X112325748Y-118074300D01*
X110831096Y-116579648D01*
X110831095Y-116579648D01*
X110622531Y-116837206D01*
X110411310Y-117162456D01*
X110235244Y-117508005D01*
X110096262Y-117870063D01*
X109995887Y-118244669D01*
X109995886Y-118244676D01*
X109935219Y-118627712D01*
X109914922Y-119014999D01*
X99000500Y-119014999D01*
X99000500Y-114441902D01*
X105719500Y-114441902D01*
X105719500Y-114678097D01*
X105756446Y-114911368D01*
X105829433Y-115135996D01*
X105936657Y-115346433D01*
X106075483Y-115537510D01*
X106242490Y-115704517D01*
X106433567Y-115843343D01*
X106532991Y-115894002D01*
X106644003Y-115950566D01*
X106644005Y-115950566D01*
X106644008Y-115950568D01*
X106764412Y-115989689D01*
X106868631Y-116023553D01*
X107101903Y-116060500D01*
X107101908Y-116060500D01*
X109538097Y-116060500D01*
X109771368Y-116023553D01*
X109789902Y-116017531D01*
X109995992Y-115950568D01*
X110206433Y-115843343D01*
X110397510Y-115704517D01*
X110564517Y-115537510D01*
X110703343Y-115346433D01*
X110810568Y-115135992D01*
X110883553Y-114911368D01*
X110920500Y-114678097D01*
X110920500Y-114441902D01*
X110883553Y-114208631D01*
X110810566Y-113984003D01*
X110703342Y-113773566D01*
X110564517Y-113582490D01*
X110397510Y-113415483D01*
X110206433Y-113276657D01*
X109995996Y-113169433D01*
X109771368Y-113096446D01*
X109538097Y-113059500D01*
X109538092Y-113059500D01*
X107101908Y-113059500D01*
X107101903Y-113059500D01*
X106868631Y-113096446D01*
X106644003Y-113169433D01*
X106433566Y-113276657D01*
X106372885Y-113320745D01*
X106242490Y-113415483D01*
X106242488Y-113415485D01*
X106242487Y-113415485D01*
X106075485Y-113582487D01*
X106075485Y-113582488D01*
X106075483Y-113582490D01*
X106015862Y-113664550D01*
X105936657Y-113773566D01*
X105829433Y-113984003D01*
X105756446Y-114208631D01*
X105719500Y-114441902D01*
X99000500Y-114441902D01*
X99000500Y-108541947D01*
X103420000Y-108541947D01*
X103420000Y-109510000D01*
X104420000Y-109510000D01*
X104420000Y-110010000D01*
X103420000Y-110010000D01*
X103420000Y-110978052D01*
X103456934Y-111211247D01*
X103529897Y-111435802D01*
X103637085Y-111646171D01*
X103775866Y-111837186D01*
X103942813Y-112004133D01*
X104133828Y-112142914D01*
X104344195Y-112250102D01*
X104568744Y-112323063D01*
X104568750Y-112323065D01*
X104670000Y-112339101D01*
X104670000Y-111293012D01*
X104727007Y-111325925D01*
X104854174Y-111360000D01*
X104985826Y-111360000D01*
X105112993Y-111325925D01*
X105170000Y-111293012D01*
X105170000Y-112339100D01*
X105271249Y-112323065D01*
X105271255Y-112323063D01*
X105495804Y-112250102D01*
X105706171Y-112142914D01*
X105897186Y-112004133D01*
X106064133Y-111837186D01*
X106202914Y-111646171D01*
X106310102Y-111435802D01*
X106383065Y-111211247D01*
X106420000Y-110978052D01*
X106420000Y-110010000D01*
X105420000Y-110010000D01*
X105420000Y-109510000D01*
X106420000Y-109510000D01*
X106420000Y-108541947D01*
X106383065Y-108308752D01*
X106310102Y-108084197D01*
X106202914Y-107873828D01*
X106064133Y-107682813D01*
X105897186Y-107515866D01*
X105754413Y-107412135D01*
X109719500Y-107412135D01*
X109719500Y-112107870D01*
X109719501Y-112107876D01*
X109725908Y-112167483D01*
X109776202Y-112302328D01*
X109776206Y-112302335D01*
X109862452Y-112417544D01*
X109862455Y-112417547D01*
X109977664Y-112503793D01*
X109977671Y-112503797D01*
X110112517Y-112554091D01*
X110112516Y-112554091D01*
X110119444Y-112554835D01*
X110172127Y-112560500D01*
X112267872Y-112560499D01*
X112327483Y-112554091D01*
X112462331Y-112503796D01*
X112577546Y-112417546D01*
X112663796Y-112302331D01*
X112714091Y-112167483D01*
X112720500Y-112107873D01*
X112720499Y-107412128D01*
X112714091Y-107352517D01*
X112707472Y-107334771D01*
X112663797Y-107217671D01*
X112663793Y-107217664D01*
X112577547Y-107102455D01*
X112577544Y-107102452D01*
X112462335Y-107016206D01*
X112462328Y-107016202D01*
X112327482Y-106965908D01*
X112327483Y-106965908D01*
X112267883Y-106959501D01*
X112267881Y-106959500D01*
X112267873Y-106959500D01*
X112267864Y-106959500D01*
X110172129Y-106959500D01*
X110172123Y-106959501D01*
X110112516Y-106965908D01*
X109977671Y-107016202D01*
X109977664Y-107016206D01*
X109862455Y-107102452D01*
X109862452Y-107102455D01*
X109776206Y-107217664D01*
X109776202Y-107217671D01*
X109725908Y-107352517D01*
X109719501Y-107412116D01*
X109719501Y-107412123D01*
X109719500Y-107412135D01*
X105754413Y-107412135D01*
X105706171Y-107377085D01*
X105495802Y-107269897D01*
X105271247Y-107196934D01*
X105170000Y-107180897D01*
X105170000Y-108226988D01*
X105112993Y-108194075D01*
X104985826Y-108160000D01*
X104854174Y-108160000D01*
X104727007Y-108194075D01*
X104670000Y-108226988D01*
X104670000Y-107180897D01*
X104568752Y-107196934D01*
X104344197Y-107269897D01*
X104133828Y-107377085D01*
X103942813Y-107515866D01*
X103775866Y-107682813D01*
X103637085Y-107873828D01*
X103529897Y-108084197D01*
X103456934Y-108308752D01*
X103420000Y-108541947D01*
X99000500Y-108541947D01*
X99000500Y-105749996D01*
X121819435Y-105749996D01*
X121819435Y-105750003D01*
X121839630Y-105929249D01*
X121839631Y-105929254D01*
X121899211Y-106099523D01*
X121995184Y-106252262D01*
X122122738Y-106379816D01*
X122275478Y-106475789D01*
X122445745Y-106535368D01*
X122445750Y-106535369D01*
X122624996Y-106555565D01*
X122625000Y-106555565D01*
X122625004Y-106555565D01*
X122804249Y-106535369D01*
X122804252Y-106535368D01*
X122804255Y-106535368D01*
X122974522Y-106475789D01*
X123127262Y-106379816D01*
X123254816Y-106252262D01*
X123350789Y-106099522D01*
X123410368Y-105929255D01*
X123410369Y-105929249D01*
X123430565Y-105750003D01*
X123430565Y-105749996D01*
X123410369Y-105570750D01*
X123410368Y-105570745D01*
X123350789Y-105400478D01*
X123254816Y-105247738D01*
X123127262Y-105120184D01*
X123021858Y-105053954D01*
X122974523Y-105024211D01*
X122804254Y-104964631D01*
X122804249Y-104964630D01*
X122625004Y-104944435D01*
X122624996Y-104944435D01*
X122445750Y-104964630D01*
X122445745Y-104964631D01*
X122275476Y-105024211D01*
X122122737Y-105120184D01*
X121995184Y-105247737D01*
X121899211Y-105400476D01*
X121839631Y-105570745D01*
X121839630Y-105570750D01*
X121819435Y-105749996D01*
X99000500Y-105749996D01*
X99000500Y-101769996D01*
X103324435Y-101769996D01*
X103324435Y-101770003D01*
X103344630Y-101949249D01*
X103344631Y-101949254D01*
X103404211Y-102119523D01*
X103500184Y-102272262D01*
X103530181Y-102302259D01*
X103563666Y-102363582D01*
X103566500Y-102389940D01*
X103566500Y-102755814D01*
X103566500Y-102904186D01*
X103604902Y-103047503D01*
X103604903Y-103047506D01*
X103657047Y-103137821D01*
X103679088Y-103175997D01*
X104694003Y-104190912D01*
X104773012Y-104236528D01*
X104822493Y-104265096D01*
X104822494Y-104265096D01*
X104822497Y-104265098D01*
X104965814Y-104303500D01*
X105114186Y-104303500D01*
X136990229Y-104303500D01*
X137057268Y-104323185D01*
X137103023Y-104375989D01*
X137112967Y-104445147D01*
X137083942Y-104508703D01*
X137077910Y-104515181D01*
X135459090Y-106134000D01*
X135459086Y-106134006D01*
X135384903Y-106262493D01*
X135384902Y-106262497D01*
X135346500Y-106405814D01*
X135346500Y-106405816D01*
X135346500Y-116443655D01*
X135326815Y-116510694D01*
X135274906Y-116556037D01*
X135232168Y-116575966D01*
X135038597Y-116711505D01*
X134871505Y-116878597D01*
X134741575Y-117064158D01*
X134686998Y-117107783D01*
X134617500Y-117114977D01*
X134555145Y-117083454D01*
X134538425Y-117064158D01*
X134408494Y-116878597D01*
X134241402Y-116711506D01*
X134241395Y-116711501D01*
X134047834Y-116575967D01*
X134047830Y-116575965D01*
X133933500Y-116522652D01*
X133833663Y-116476097D01*
X133833659Y-116476096D01*
X133833655Y-116476094D01*
X133605413Y-116414938D01*
X133605403Y-116414936D01*
X133370001Y-116394341D01*
X133369999Y-116394341D01*
X133134596Y-116414936D01*
X133134586Y-116414938D01*
X132906344Y-116476094D01*
X132906335Y-116476098D01*
X132692171Y-116575964D01*
X132692169Y-116575965D01*
X132498597Y-116711505D01*
X132331505Y-116878597D01*
X132201575Y-117064158D01*
X132146998Y-117107783D01*
X132077500Y-117114977D01*
X132015145Y-117083454D01*
X131998425Y-117064158D01*
X131868494Y-116878597D01*
X131701402Y-116711506D01*
X131701395Y-116711501D01*
X131507834Y-116575967D01*
X131507830Y-116575965D01*
X131393500Y-116522652D01*
X131293663Y-116476097D01*
X131293659Y-116476096D01*
X131293655Y-116476094D01*
X131065413Y-116414938D01*
X131065403Y-116414936D01*
X130830001Y-116394341D01*
X130829999Y-116394341D01*
X130594596Y-116414936D01*
X130594586Y-116414938D01*
X130366344Y-116476094D01*
X130366335Y-116476098D01*
X130152171Y-116575964D01*
X130152169Y-116575965D01*
X129958597Y-116711505D01*
X129791505Y-116878597D01*
X129661575Y-117064158D01*
X129606998Y-117107783D01*
X129537500Y-117114977D01*
X129475145Y-117083454D01*
X129458425Y-117064158D01*
X129328494Y-116878597D01*
X129161402Y-116711506D01*
X129161395Y-116711501D01*
X128967834Y-116575967D01*
X128967830Y-116575965D01*
X128853500Y-116522652D01*
X128753663Y-116476097D01*
X128753659Y-116476096D01*
X128753655Y-116476094D01*
X128525413Y-116414938D01*
X128525403Y-116414936D01*
X128290001Y-116394341D01*
X128289999Y-116394341D01*
X128054596Y-116414936D01*
X128054586Y-116414938D01*
X127826344Y-116476094D01*
X127826335Y-116476098D01*
X127612171Y-116575964D01*
X127612169Y-116575965D01*
X127418597Y-116711505D01*
X127251505Y-116878597D01*
X127121575Y-117064158D01*
X127066998Y-117107783D01*
X126997500Y-117114977D01*
X126935145Y-117083454D01*
X126918425Y-117064158D01*
X126788494Y-116878597D01*
X126621402Y-116711506D01*
X126621395Y-116711501D01*
X126427834Y-116575967D01*
X126427830Y-116575965D01*
X126313500Y-116522652D01*
X126213663Y-116476097D01*
X126213659Y-116476096D01*
X126213655Y-116476094D01*
X125985413Y-116414938D01*
X125985403Y-116414936D01*
X125750001Y-116394341D01*
X125749999Y-116394341D01*
X125514596Y-116414936D01*
X125514586Y-116414938D01*
X125286344Y-116476094D01*
X125286335Y-116476098D01*
X125072171Y-116575964D01*
X125072169Y-116575965D01*
X124878597Y-116711505D01*
X124711505Y-116878597D01*
X124581575Y-117064158D01*
X124526998Y-117107783D01*
X124457500Y-117114977D01*
X124395145Y-117083454D01*
X124378425Y-117064158D01*
X124248494Y-116878597D01*
X124081402Y-116711506D01*
X124081395Y-116711501D01*
X123887834Y-116575967D01*
X123887830Y-116575965D01*
X123773500Y-116522652D01*
X123673663Y-116476097D01*
X123673659Y-116476096D01*
X123673655Y-116476094D01*
X123445413Y-116414938D01*
X123445403Y-116414936D01*
X123210001Y-116394341D01*
X123209999Y-116394341D01*
X122974596Y-116414936D01*
X122974586Y-116414938D01*
X122746344Y-116476094D01*
X122746335Y-116476098D01*
X122532171Y-116575964D01*
X122532169Y-116575965D01*
X122338597Y-116711505D01*
X122171508Y-116878594D01*
X122041269Y-117064595D01*
X121986692Y-117108219D01*
X121917193Y-117115412D01*
X121854839Y-117083890D01*
X121838119Y-117064594D01*
X121708113Y-116878926D01*
X121708108Y-116878920D01*
X121541082Y-116711894D01*
X121347578Y-116576399D01*
X121133492Y-116476570D01*
X121133486Y-116476567D01*
X120920000Y-116419364D01*
X120920000Y-117316988D01*
X120862993Y-117284075D01*
X120735826Y-117250000D01*
X120604174Y-117250000D01*
X120477007Y-117284075D01*
X120420000Y-117316988D01*
X120420000Y-116419364D01*
X120419999Y-116419364D01*
X120206513Y-116476567D01*
X120206507Y-116476570D01*
X119992422Y-116576399D01*
X119992420Y-116576400D01*
X119798926Y-116711886D01*
X119798920Y-116711891D01*
X119631891Y-116878920D01*
X119631886Y-116878926D01*
X119496400Y-117072420D01*
X119496399Y-117072422D01*
X119396570Y-117286507D01*
X119396567Y-117286513D01*
X119339364Y-117499999D01*
X119339364Y-117500000D01*
X120236988Y-117500000D01*
X120204075Y-117557007D01*
X120170000Y-117684174D01*
X120170000Y-117815826D01*
X120204075Y-117942993D01*
X120236988Y-118000000D01*
X119339364Y-118000000D01*
X119396567Y-118213486D01*
X119396570Y-118213492D01*
X119496399Y-118427578D01*
X119631894Y-118621082D01*
X119753946Y-118743134D01*
X119787431Y-118804457D01*
X119782447Y-118874149D01*
X119740575Y-118930082D01*
X119709598Y-118946997D01*
X119577671Y-118996202D01*
X119577664Y-118996206D01*
X119462455Y-119082452D01*
X119462452Y-119082455D01*
X119376206Y-119197664D01*
X119376202Y-119197671D01*
X119325908Y-119332517D01*
X119319501Y-119392116D01*
X119319500Y-119392135D01*
X119319500Y-121187870D01*
X119319501Y-121187876D01*
X119325908Y-121247483D01*
X119376202Y-121382328D01*
X119376206Y-121382335D01*
X119462452Y-121497544D01*
X119462455Y-121497547D01*
X119577664Y-121583793D01*
X119577671Y-121583797D01*
X119712517Y-121634091D01*
X119712516Y-121634091D01*
X119719444Y-121634835D01*
X119772127Y-121640500D01*
X121567872Y-121640499D01*
X121627483Y-121634091D01*
X121762331Y-121583796D01*
X121877546Y-121497546D01*
X121963796Y-121382331D01*
X122012810Y-121250916D01*
X122054681Y-121194984D01*
X122120145Y-121170566D01*
X122188418Y-121185417D01*
X122216673Y-121206569D01*
X122338599Y-121328495D01*
X122435384Y-121396265D01*
X122532165Y-121464032D01*
X122532167Y-121464033D01*
X122532170Y-121464035D01*
X122746337Y-121563903D01*
X122974592Y-121625063D01*
X123151034Y-121640500D01*
X123209999Y-121645659D01*
X123210000Y-121645659D01*
X123210001Y-121645659D01*
X123268966Y-121640500D01*
X123445408Y-121625063D01*
X123673663Y-121563903D01*
X123887830Y-121464035D01*
X124081401Y-121328495D01*
X124248495Y-121161401D01*
X124378425Y-120975842D01*
X124433002Y-120932217D01*
X124502500Y-120925023D01*
X124564855Y-120956546D01*
X124581575Y-120975842D01*
X124711281Y-121161082D01*
X124711505Y-121161401D01*
X124878599Y-121328495D01*
X124975384Y-121396265D01*
X125072165Y-121464032D01*
X125072167Y-121464033D01*
X125072170Y-121464035D01*
X125286337Y-121563903D01*
X125514592Y-121625063D01*
X125691034Y-121640500D01*
X125749999Y-121645659D01*
X125750000Y-121645659D01*
X125750001Y-121645659D01*
X125808966Y-121640500D01*
X125985408Y-121625063D01*
X126213663Y-121563903D01*
X126427830Y-121464035D01*
X126621401Y-121328495D01*
X126788495Y-121161401D01*
X126918425Y-120975842D01*
X126973002Y-120932217D01*
X127042500Y-120925023D01*
X127104855Y-120956546D01*
X127121575Y-120975842D01*
X127251281Y-121161082D01*
X127251505Y-121161401D01*
X127418599Y-121328495D01*
X127515384Y-121396265D01*
X127612165Y-121464032D01*
X127612167Y-121464033D01*
X127612170Y-121464035D01*
X127826337Y-121563903D01*
X128054592Y-121625063D01*
X128231034Y-121640500D01*
X128289999Y-121645659D01*
X128290000Y-121645659D01*
X128290001Y-121645659D01*
X128348966Y-121640500D01*
X128525408Y-121625063D01*
X128753663Y-121563903D01*
X128967830Y-121464035D01*
X129161401Y-121328495D01*
X129328495Y-121161401D01*
X129458425Y-120975842D01*
X129513002Y-120932217D01*
X129582500Y-120925023D01*
X129644855Y-120956546D01*
X129661575Y-120975842D01*
X129791281Y-121161082D01*
X129791505Y-121161401D01*
X129958599Y-121328495D01*
X130055384Y-121396265D01*
X130152165Y-121464032D01*
X130152167Y-121464033D01*
X130152170Y-121464035D01*
X130366337Y-121563903D01*
X130594592Y-121625063D01*
X130771034Y-121640500D01*
X130829999Y-121645659D01*
X130830000Y-121645659D01*
X130830001Y-121645659D01*
X130888966Y-121640500D01*
X131065408Y-121625063D01*
X131293663Y-121563903D01*
X131507830Y-121464035D01*
X131701401Y-121328495D01*
X131868495Y-121161401D01*
X131998425Y-120975842D01*
X132053002Y-120932217D01*
X132122500Y-120925023D01*
X132184855Y-120956546D01*
X132201575Y-120975842D01*
X132331281Y-121161082D01*
X132331505Y-121161401D01*
X132498599Y-121328495D01*
X132595384Y-121396265D01*
X132692165Y-121464032D01*
X132692167Y-121464033D01*
X132692170Y-121464035D01*
X132906337Y-121563903D01*
X133134592Y-121625063D01*
X133311034Y-121640500D01*
X133369999Y-121645659D01*
X133370000Y-121645659D01*
X133370001Y-121645659D01*
X133428966Y-121640500D01*
X133605408Y-121625063D01*
X133833663Y-121563903D01*
X134047830Y-121464035D01*
X134241401Y-121328495D01*
X134408495Y-121161401D01*
X134538425Y-120975842D01*
X134593002Y-120932217D01*
X134662500Y-120925023D01*
X134724855Y-120956546D01*
X134741575Y-120975842D01*
X134871281Y-121161082D01*
X134871505Y-121161401D01*
X135038599Y-121328495D01*
X135135384Y-121396265D01*
X135232165Y-121464032D01*
X135232167Y-121464033D01*
X135232170Y-121464035D01*
X135446337Y-121563903D01*
X135674592Y-121625063D01*
X135851034Y-121640500D01*
X135909999Y-121645659D01*
X135910000Y-121645659D01*
X135910001Y-121645659D01*
X135968966Y-121640500D01*
X136145408Y-121625063D01*
X136373663Y-121563903D01*
X136587830Y-121464035D01*
X136781401Y-121328495D01*
X136948495Y-121161401D01*
X137078425Y-120975842D01*
X137133002Y-120932217D01*
X137202500Y-120925023D01*
X137264855Y-120956546D01*
X137281575Y-120975842D01*
X137411281Y-121161082D01*
X137411505Y-121161401D01*
X137578599Y-121328495D01*
X137675384Y-121396265D01*
X137772165Y-121464032D01*
X137772167Y-121464033D01*
X137772170Y-121464035D01*
X137986337Y-121563903D01*
X138214592Y-121625063D01*
X138391034Y-121640500D01*
X138449999Y-121645659D01*
X138450000Y-121645659D01*
X138450001Y-121645659D01*
X138508966Y-121640500D01*
X138685408Y-121625063D01*
X138913663Y-121563903D01*
X139127830Y-121464035D01*
X139321401Y-121328495D01*
X139488495Y-121161401D01*
X139618425Y-120975842D01*
X139673002Y-120932217D01*
X139742500Y-120925023D01*
X139804855Y-120956546D01*
X139821575Y-120975842D01*
X139951281Y-121161082D01*
X139951505Y-121161401D01*
X140118599Y-121328495D01*
X140215384Y-121396265D01*
X140312165Y-121464032D01*
X140312167Y-121464033D01*
X140312170Y-121464035D01*
X140526337Y-121563903D01*
X140754592Y-121625063D01*
X140931034Y-121640500D01*
X140989999Y-121645659D01*
X140990000Y-121645659D01*
X140990001Y-121645659D01*
X141048966Y-121640500D01*
X141225408Y-121625063D01*
X141453663Y-121563903D01*
X141667830Y-121464035D01*
X141861401Y-121328495D01*
X142028495Y-121161401D01*
X142158730Y-120975405D01*
X142213307Y-120931781D01*
X142282805Y-120924587D01*
X142345160Y-120956110D01*
X142361879Y-120975405D01*
X142491890Y-121161078D01*
X142658917Y-121328105D01*
X142852421Y-121463600D01*
X143066507Y-121563429D01*
X143066516Y-121563433D01*
X143280000Y-121620634D01*
X143280000Y-120723012D01*
X143337007Y-120755925D01*
X143464174Y-120790000D01*
X143595826Y-120790000D01*
X143722993Y-120755925D01*
X143780000Y-120723012D01*
X143780000Y-121620633D01*
X143993483Y-121563433D01*
X143993492Y-121563429D01*
X144207578Y-121463600D01*
X144401082Y-121328105D01*
X144568105Y-121161082D01*
X144698425Y-120974968D01*
X144753002Y-120931344D01*
X144822501Y-120924151D01*
X144884855Y-120955673D01*
X144901575Y-120974968D01*
X145031894Y-121161082D01*
X145198917Y-121328105D01*
X145392421Y-121463600D01*
X145606507Y-121563429D01*
X145606516Y-121563433D01*
X145820000Y-121620634D01*
X145820000Y-120723012D01*
X145877007Y-120755925D01*
X146004174Y-120790000D01*
X146135826Y-120790000D01*
X146262993Y-120755925D01*
X146320000Y-120723012D01*
X146320000Y-121620633D01*
X146533483Y-121563433D01*
X146533492Y-121563429D01*
X146747578Y-121463600D01*
X146941082Y-121328105D01*
X147108105Y-121161082D01*
X147238425Y-120974968D01*
X147293002Y-120931344D01*
X147362501Y-120924151D01*
X147424855Y-120955673D01*
X147441575Y-120974968D01*
X147571894Y-121161082D01*
X147738917Y-121328105D01*
X147932421Y-121463600D01*
X148146507Y-121563429D01*
X148146516Y-121563433D01*
X148360000Y-121620634D01*
X148360000Y-120723012D01*
X148417007Y-120755925D01*
X148544174Y-120790000D01*
X148675826Y-120790000D01*
X148802993Y-120755925D01*
X148860000Y-120723012D01*
X148860000Y-121620633D01*
X149073483Y-121563433D01*
X149073492Y-121563429D01*
X149287578Y-121463600D01*
X149481082Y-121328105D01*
X149648105Y-121161082D01*
X149778119Y-120975405D01*
X149832696Y-120931781D01*
X149902195Y-120924588D01*
X149964549Y-120956110D01*
X149981269Y-120975405D01*
X150111505Y-121161401D01*
X150278599Y-121328495D01*
X150375384Y-121396265D01*
X150472165Y-121464032D01*
X150472167Y-121464033D01*
X150472170Y-121464035D01*
X150686337Y-121563903D01*
X150914592Y-121625063D01*
X151091034Y-121640500D01*
X151149999Y-121645659D01*
X151150000Y-121645659D01*
X151150001Y-121645659D01*
X151208966Y-121640500D01*
X151385408Y-121625063D01*
X151613663Y-121563903D01*
X151827830Y-121464035D01*
X152021401Y-121328495D01*
X152188495Y-121161401D01*
X152318425Y-120975842D01*
X152373002Y-120932217D01*
X152442500Y-120925023D01*
X152504855Y-120956546D01*
X152521575Y-120975842D01*
X152651281Y-121161082D01*
X152651505Y-121161401D01*
X152818599Y-121328495D01*
X152915384Y-121396265D01*
X153012165Y-121464032D01*
X153012167Y-121464033D01*
X153012170Y-121464035D01*
X153226337Y-121563903D01*
X153454592Y-121625063D01*
X153631034Y-121640500D01*
X153689999Y-121645659D01*
X153690000Y-121645659D01*
X153690001Y-121645659D01*
X153748966Y-121640500D01*
X153925408Y-121625063D01*
X154153663Y-121563903D01*
X154367830Y-121464035D01*
X154561401Y-121328495D01*
X154728495Y-121161401D01*
X154858425Y-120975842D01*
X154913002Y-120932217D01*
X154982500Y-120925023D01*
X155044855Y-120956546D01*
X155061575Y-120975842D01*
X155191281Y-121161082D01*
X155191505Y-121161401D01*
X155358599Y-121328495D01*
X155455384Y-121396265D01*
X155552165Y-121464032D01*
X155552167Y-121464033D01*
X155552170Y-121464035D01*
X155766337Y-121563903D01*
X155994592Y-121625063D01*
X156171034Y-121640500D01*
X156229999Y-121645659D01*
X156230000Y-121645659D01*
X156230001Y-121645659D01*
X156288966Y-121640500D01*
X156465408Y-121625063D01*
X156693663Y-121563903D01*
X156907830Y-121464035D01*
X157101401Y-121328495D01*
X157268495Y-121161401D01*
X157398425Y-120975842D01*
X157453002Y-120932217D01*
X157522500Y-120925023D01*
X157584855Y-120956546D01*
X157601575Y-120975842D01*
X157731281Y-121161082D01*
X157731505Y-121161401D01*
X157898599Y-121328495D01*
X157995384Y-121396265D01*
X158092165Y-121464032D01*
X158092167Y-121464033D01*
X158092170Y-121464035D01*
X158306337Y-121563903D01*
X158534592Y-121625063D01*
X158711034Y-121640500D01*
X158769999Y-121645659D01*
X158770000Y-121645659D01*
X158770001Y-121645659D01*
X158828966Y-121640500D01*
X159005408Y-121625063D01*
X159233663Y-121563903D01*
X159447830Y-121464035D01*
X159641401Y-121328495D01*
X159808495Y-121161401D01*
X159938425Y-120975842D01*
X159993002Y-120932217D01*
X160062500Y-120925023D01*
X160124855Y-120956546D01*
X160141575Y-120975842D01*
X160271281Y-121161082D01*
X160271505Y-121161401D01*
X160438599Y-121328495D01*
X160535384Y-121396265D01*
X160632165Y-121464032D01*
X160632167Y-121464033D01*
X160632170Y-121464035D01*
X160846337Y-121563903D01*
X161074592Y-121625063D01*
X161251034Y-121640500D01*
X161309999Y-121645659D01*
X161310000Y-121645659D01*
X161310001Y-121645659D01*
X161368966Y-121640500D01*
X161545408Y-121625063D01*
X161773663Y-121563903D01*
X161987830Y-121464035D01*
X162181401Y-121328495D01*
X162348495Y-121161401D01*
X162478425Y-120975842D01*
X162533002Y-120932217D01*
X162602500Y-120925023D01*
X162664855Y-120956546D01*
X162681575Y-120975842D01*
X162811281Y-121161082D01*
X162811505Y-121161401D01*
X162978599Y-121328495D01*
X163075384Y-121396265D01*
X163172165Y-121464032D01*
X163172167Y-121464033D01*
X163172170Y-121464035D01*
X163386337Y-121563903D01*
X163614592Y-121625063D01*
X163791034Y-121640500D01*
X163849999Y-121645659D01*
X163850000Y-121645659D01*
X163850001Y-121645659D01*
X163908966Y-121640500D01*
X164085408Y-121625063D01*
X164313663Y-121563903D01*
X164527830Y-121464035D01*
X164721401Y-121328495D01*
X164888495Y-121161401D01*
X165018425Y-120975842D01*
X165073002Y-120932217D01*
X165142500Y-120925023D01*
X165204855Y-120956546D01*
X165221575Y-120975842D01*
X165351281Y-121161082D01*
X165351505Y-121161401D01*
X165518599Y-121328495D01*
X165615384Y-121396265D01*
X165712165Y-121464032D01*
X165712167Y-121464033D01*
X165712170Y-121464035D01*
X165926337Y-121563903D01*
X166154592Y-121625063D01*
X166331034Y-121640500D01*
X166389999Y-121645659D01*
X166390000Y-121645659D01*
X166390001Y-121645659D01*
X166448966Y-121640500D01*
X166625408Y-121625063D01*
X166853663Y-121563903D01*
X167067830Y-121464035D01*
X167261401Y-121328495D01*
X167428495Y-121161401D01*
X167558730Y-120975405D01*
X167613307Y-120931781D01*
X167682805Y-120924587D01*
X167745160Y-120956110D01*
X167761879Y-120975405D01*
X167891890Y-121161078D01*
X168058917Y-121328105D01*
X168252421Y-121463600D01*
X168466507Y-121563429D01*
X168466516Y-121563433D01*
X168680000Y-121620634D01*
X168680000Y-120723012D01*
X168737007Y-120755925D01*
X168864174Y-120790000D01*
X168995826Y-120790000D01*
X169122993Y-120755925D01*
X169180000Y-120723012D01*
X169180000Y-121620634D01*
X169393483Y-121563433D01*
X169393492Y-121563429D01*
X169607578Y-121463600D01*
X169801082Y-121328105D01*
X169968105Y-121161082D01*
X170103600Y-120967578D01*
X170203429Y-120753492D01*
X170203432Y-120753486D01*
X170260636Y-120540000D01*
X169363012Y-120540000D01*
X169395925Y-120482993D01*
X169430000Y-120355826D01*
X169430000Y-120224174D01*
X169395925Y-120097007D01*
X169363012Y-120040000D01*
X170260636Y-120040000D01*
X170260635Y-120039999D01*
X170203432Y-119826513D01*
X170203429Y-119826507D01*
X170103600Y-119612422D01*
X170103599Y-119612420D01*
X169968113Y-119418926D01*
X169968108Y-119418920D01*
X169801082Y-119251894D01*
X169614968Y-119121575D01*
X169571344Y-119066998D01*
X169564410Y-118999999D01*
X172194922Y-118999999D01*
X172194922Y-119000000D01*
X172215219Y-119387287D01*
X172275886Y-119770323D01*
X172275887Y-119770330D01*
X172376262Y-120144936D01*
X172515244Y-120506994D01*
X172691310Y-120852543D01*
X172902531Y-121177793D01*
X173111095Y-121435350D01*
X173111096Y-121435350D01*
X174605748Y-119940698D01*
X174679588Y-120042330D01*
X174857670Y-120220412D01*
X174959300Y-120294251D01*
X173464648Y-121788903D01*
X173464649Y-121788904D01*
X173722206Y-121997468D01*
X174047456Y-122208689D01*
X174393005Y-122384755D01*
X174755063Y-122523737D01*
X175129669Y-122624112D01*
X175129676Y-122624113D01*
X175512712Y-122684780D01*
X175899999Y-122705078D01*
X175900001Y-122705078D01*
X176287287Y-122684780D01*
X176670323Y-122624113D01*
X176670330Y-122624112D01*
X177044936Y-122523737D01*
X177406994Y-122384755D01*
X177752543Y-122208689D01*
X178077783Y-121997476D01*
X178077785Y-121997475D01*
X178335349Y-121788902D01*
X176840698Y-120294251D01*
X176942330Y-120220412D01*
X177120412Y-120042330D01*
X177194251Y-119940698D01*
X178688902Y-121435349D01*
X178897475Y-121177785D01*
X178897476Y-121177783D01*
X179108689Y-120852543D01*
X179284755Y-120506994D01*
X179423737Y-120144936D01*
X179524112Y-119770330D01*
X179524113Y-119770323D01*
X179584780Y-119387287D01*
X179605078Y-119000000D01*
X179605078Y-118999999D01*
X179584780Y-118612712D01*
X179524113Y-118229676D01*
X179524112Y-118229669D01*
X179423737Y-117855063D01*
X179284755Y-117493005D01*
X179108689Y-117147456D01*
X178897468Y-116822206D01*
X178688904Y-116564649D01*
X178688903Y-116564648D01*
X177194251Y-118059300D01*
X177120412Y-117957670D01*
X176942330Y-117779588D01*
X176840698Y-117705748D01*
X178335350Y-116211096D01*
X178335350Y-116211095D01*
X178077793Y-116002531D01*
X177752543Y-115791310D01*
X177406994Y-115615244D01*
X177044936Y-115476262D01*
X176670330Y-115375887D01*
X176670323Y-115375886D01*
X176287287Y-115315219D01*
X175900001Y-115294922D01*
X175899999Y-115294922D01*
X175512712Y-115315219D01*
X175129676Y-115375886D01*
X175129669Y-115375887D01*
X174755063Y-115476262D01*
X174393005Y-115615244D01*
X174047456Y-115791310D01*
X173722206Y-116002531D01*
X173464648Y-116211095D01*
X173464648Y-116211096D01*
X174959301Y-117705748D01*
X174857670Y-117779588D01*
X174679588Y-117957670D01*
X174605748Y-118059300D01*
X173111096Y-116564648D01*
X173111095Y-116564648D01*
X172902531Y-116822206D01*
X172691310Y-117147456D01*
X172515244Y-117493005D01*
X172376262Y-117855063D01*
X172275887Y-118229669D01*
X172275886Y-118229676D01*
X172215219Y-118612712D01*
X172194922Y-118999999D01*
X169564410Y-118999999D01*
X169564151Y-118997499D01*
X169595673Y-118935145D01*
X169614968Y-118918425D01*
X169801082Y-118788105D01*
X169968105Y-118621082D01*
X170103600Y-118427578D01*
X170203429Y-118213492D01*
X170203432Y-118213486D01*
X170260636Y-118000000D01*
X169363012Y-118000000D01*
X169395925Y-117942993D01*
X169430000Y-117815826D01*
X169430000Y-117684174D01*
X169395925Y-117557007D01*
X169363012Y-117500000D01*
X170260636Y-117500000D01*
X170260635Y-117499999D01*
X170203432Y-117286513D01*
X170203429Y-117286507D01*
X170103600Y-117072422D01*
X170103599Y-117072420D01*
X169968113Y-116878926D01*
X169968108Y-116878920D01*
X169801082Y-116711894D01*
X169607578Y-116576399D01*
X169393492Y-116476570D01*
X169393486Y-116476567D01*
X169180000Y-116419364D01*
X169180000Y-117316988D01*
X169122993Y-117284075D01*
X168995826Y-117250000D01*
X168864174Y-117250000D01*
X168737007Y-117284075D01*
X168680000Y-117316988D01*
X168680000Y-116419364D01*
X168679999Y-116419364D01*
X168466513Y-116476567D01*
X168466507Y-116476570D01*
X168252422Y-116576399D01*
X168252420Y-116576400D01*
X168058926Y-116711886D01*
X168058920Y-116711891D01*
X167891891Y-116878920D01*
X167891890Y-116878922D01*
X167761880Y-117064595D01*
X167707303Y-117108219D01*
X167637804Y-117115412D01*
X167575450Y-117083890D01*
X167558730Y-117064594D01*
X167428494Y-116878597D01*
X167261402Y-116711506D01*
X167261395Y-116711501D01*
X167067834Y-116575967D01*
X167067830Y-116575965D01*
X166953500Y-116522652D01*
X166853663Y-116476097D01*
X166853659Y-116476096D01*
X166853655Y-116476094D01*
X166625413Y-116414938D01*
X166625403Y-116414936D01*
X166390001Y-116394341D01*
X166389999Y-116394341D01*
X166154596Y-116414936D01*
X166154586Y-116414938D01*
X165926344Y-116476094D01*
X165926335Y-116476098D01*
X165712171Y-116575964D01*
X165712169Y-116575965D01*
X165518597Y-116711505D01*
X165351505Y-116878597D01*
X165221575Y-117064158D01*
X165166998Y-117107783D01*
X165097500Y-117114977D01*
X165035145Y-117083454D01*
X165018425Y-117064158D01*
X164888494Y-116878597D01*
X164721402Y-116711506D01*
X164721395Y-116711501D01*
X164527834Y-116575967D01*
X164527830Y-116575965D01*
X164413500Y-116522652D01*
X164313663Y-116476097D01*
X164313659Y-116476096D01*
X164313655Y-116476094D01*
X164085413Y-116414938D01*
X164085403Y-116414936D01*
X163850001Y-116394341D01*
X163849999Y-116394341D01*
X163614596Y-116414936D01*
X163614586Y-116414938D01*
X163386344Y-116476094D01*
X163386335Y-116476098D01*
X163172171Y-116575964D01*
X163172169Y-116575965D01*
X162978597Y-116711505D01*
X162811505Y-116878597D01*
X162681575Y-117064158D01*
X162626998Y-117107783D01*
X162557500Y-117114977D01*
X162495145Y-117083454D01*
X162478425Y-117064158D01*
X162348494Y-116878597D01*
X162181402Y-116711506D01*
X162181395Y-116711501D01*
X161987834Y-116575967D01*
X161987830Y-116575965D01*
X161873500Y-116522652D01*
X161773663Y-116476097D01*
X161773659Y-116476096D01*
X161773655Y-116476094D01*
X161545413Y-116414938D01*
X161545403Y-116414936D01*
X161310001Y-116394341D01*
X161309999Y-116394341D01*
X161074596Y-116414936D01*
X161074586Y-116414938D01*
X160846344Y-116476094D01*
X160846335Y-116476098D01*
X160632171Y-116575964D01*
X160632169Y-116575965D01*
X160438597Y-116711505D01*
X160271505Y-116878597D01*
X160141575Y-117064158D01*
X160086998Y-117107783D01*
X160017500Y-117114977D01*
X159955145Y-117083454D01*
X159938425Y-117064158D01*
X159808494Y-116878597D01*
X159641402Y-116711506D01*
X159641395Y-116711501D01*
X159447834Y-116575967D01*
X159447830Y-116575965D01*
X159333500Y-116522652D01*
X159233663Y-116476097D01*
X159233659Y-116476096D01*
X159233655Y-116476094D01*
X159005413Y-116414938D01*
X159005403Y-116414936D01*
X158770001Y-116394341D01*
X158769999Y-116394341D01*
X158534596Y-116414936D01*
X158534586Y-116414938D01*
X158306344Y-116476094D01*
X158306335Y-116476098D01*
X158092171Y-116575964D01*
X158092169Y-116575965D01*
X157898597Y-116711505D01*
X157731505Y-116878597D01*
X157601575Y-117064158D01*
X157546998Y-117107783D01*
X157477500Y-117114977D01*
X157415145Y-117083454D01*
X157398425Y-117064158D01*
X157268494Y-116878597D01*
X157101402Y-116711506D01*
X157101395Y-116711501D01*
X156907834Y-116575967D01*
X156907830Y-116575965D01*
X156793500Y-116522652D01*
X156693663Y-116476097D01*
X156693659Y-116476096D01*
X156693655Y-116476094D01*
X156465413Y-116414938D01*
X156465403Y-116414936D01*
X156230001Y-116394341D01*
X156229999Y-116394341D01*
X155994596Y-116414936D01*
X155994586Y-116414938D01*
X155766344Y-116476094D01*
X155766335Y-116476098D01*
X155552171Y-116575964D01*
X155552169Y-116575965D01*
X155358597Y-116711505D01*
X155191505Y-116878597D01*
X155061575Y-117064158D01*
X155006998Y-117107783D01*
X154937500Y-117114977D01*
X154875145Y-117083454D01*
X154858425Y-117064158D01*
X154728494Y-116878597D01*
X154561402Y-116711506D01*
X154561395Y-116711501D01*
X154367834Y-116575967D01*
X154367830Y-116575965D01*
X154253500Y-116522652D01*
X154153663Y-116476097D01*
X154153659Y-116476096D01*
X154153655Y-116476094D01*
X153925413Y-116414938D01*
X153925403Y-116414936D01*
X153690001Y-116394341D01*
X153689999Y-116394341D01*
X153454596Y-116414936D01*
X153454586Y-116414938D01*
X153226344Y-116476094D01*
X153226335Y-116476098D01*
X153012171Y-116575964D01*
X153012169Y-116575965D01*
X152818597Y-116711505D01*
X152651505Y-116878597D01*
X152521575Y-117064158D01*
X152466998Y-117107783D01*
X152397500Y-117114977D01*
X152335145Y-117083454D01*
X152318425Y-117064158D01*
X152188494Y-116878597D01*
X152021402Y-116711506D01*
X152021395Y-116711501D01*
X151827834Y-116575967D01*
X151827830Y-116575965D01*
X151713500Y-116522652D01*
X151613663Y-116476097D01*
X151613659Y-116476096D01*
X151613655Y-116476094D01*
X151385413Y-116414938D01*
X151385403Y-116414936D01*
X151150001Y-116394341D01*
X151149999Y-116394341D01*
X150914596Y-116414936D01*
X150914586Y-116414938D01*
X150686344Y-116476094D01*
X150686335Y-116476098D01*
X150472171Y-116575964D01*
X150472169Y-116575965D01*
X150278597Y-116711505D01*
X150111508Y-116878594D01*
X149981269Y-117064595D01*
X149926692Y-117108219D01*
X149857193Y-117115412D01*
X149794839Y-117083890D01*
X149778119Y-117064594D01*
X149648113Y-116878926D01*
X149648108Y-116878920D01*
X149481082Y-116711894D01*
X149287578Y-116576399D01*
X149073492Y-116476570D01*
X149073486Y-116476567D01*
X148860000Y-116419364D01*
X148860000Y-117316988D01*
X148802993Y-117284075D01*
X148675826Y-117250000D01*
X148544174Y-117250000D01*
X148417007Y-117284075D01*
X148360000Y-117316988D01*
X148360000Y-116419364D01*
X148359999Y-116419364D01*
X148146513Y-116476567D01*
X148146507Y-116476570D01*
X147932422Y-116576399D01*
X147932420Y-116576400D01*
X147738926Y-116711886D01*
X147738920Y-116711891D01*
X147571891Y-116878920D01*
X147571890Y-116878922D01*
X147441575Y-117065031D01*
X147386998Y-117108655D01*
X147317499Y-117115848D01*
X147255145Y-117084326D01*
X147238425Y-117065031D01*
X147108109Y-116878922D01*
X147108108Y-116878920D01*
X146941082Y-116711894D01*
X146747578Y-116576399D01*
X146533492Y-116476570D01*
X146533486Y-116476567D01*
X146320000Y-116419364D01*
X146320000Y-117316988D01*
X146262993Y-117284075D01*
X146135826Y-117250000D01*
X146004174Y-117250000D01*
X145877007Y-117284075D01*
X145820000Y-117316988D01*
X145820000Y-116419364D01*
X145819999Y-116419364D01*
X145606513Y-116476567D01*
X145606507Y-116476570D01*
X145392422Y-116576399D01*
X145392420Y-116576400D01*
X145198926Y-116711886D01*
X145198920Y-116711891D01*
X145031891Y-116878920D01*
X145031890Y-116878922D01*
X144901575Y-117065031D01*
X144846998Y-117108655D01*
X144777499Y-117115848D01*
X144715145Y-117084326D01*
X144698425Y-117065031D01*
X144568109Y-116878922D01*
X144568108Y-116878920D01*
X144401082Y-116711894D01*
X144207578Y-116576399D01*
X143993492Y-116476570D01*
X143993486Y-116476567D01*
X143780000Y-116419364D01*
X143780000Y-117316988D01*
X143722993Y-117284075D01*
X143595826Y-117250000D01*
X143464174Y-117250000D01*
X143337007Y-117284075D01*
X143280000Y-117316988D01*
X143280000Y-116419364D01*
X143279999Y-116419364D01*
X143066513Y-116476567D01*
X143066507Y-116476570D01*
X142852422Y-116576399D01*
X142852420Y-116576400D01*
X142658926Y-116711886D01*
X142658919Y-116711892D01*
X142625180Y-116745631D01*
X142563856Y-116779116D01*
X142494165Y-116774130D01*
X142438232Y-116732258D01*
X142413816Y-116666793D01*
X142413500Y-116657949D01*
X142413500Y-113499996D01*
X175594435Y-113499996D01*
X175594435Y-113500003D01*
X175614630Y-113679249D01*
X175614631Y-113679254D01*
X175674211Y-113849523D01*
X175758711Y-113984003D01*
X175770184Y-114002262D01*
X175897738Y-114129816D01*
X176050478Y-114225789D01*
X176220745Y-114285368D01*
X176220750Y-114285369D01*
X176399996Y-114305565D01*
X176400000Y-114305565D01*
X176400004Y-114305565D01*
X176579249Y-114285369D01*
X176579252Y-114285368D01*
X176579255Y-114285368D01*
X176749522Y-114225789D01*
X176902262Y-114129816D01*
X177029816Y-114002262D01*
X177125789Y-113849522D01*
X177185368Y-113679255D01*
X177199985Y-113549523D01*
X177205565Y-113500003D01*
X177205565Y-113499996D01*
X177185369Y-113320750D01*
X177185368Y-113320745D01*
X177169941Y-113276657D01*
X177143116Y-113199996D01*
X177984435Y-113199996D01*
X177984435Y-113200003D01*
X178004630Y-113379249D01*
X178004631Y-113379254D01*
X178064211Y-113549523D01*
X178084926Y-113582490D01*
X178160184Y-113702262D01*
X178287738Y-113829816D01*
X178440478Y-113925789D01*
X178606844Y-113984003D01*
X178610745Y-113985368D01*
X178610750Y-113985369D01*
X178789996Y-114005565D01*
X178790000Y-114005565D01*
X178790004Y-114005565D01*
X178969249Y-113985369D01*
X178969252Y-113985368D01*
X178969255Y-113985368D01*
X179139522Y-113925789D01*
X179292262Y-113829816D01*
X179419816Y-113702262D01*
X179515789Y-113549522D01*
X179575368Y-113379255D01*
X179581960Y-113320750D01*
X179595565Y-113200003D01*
X179595565Y-113199996D01*
X179575369Y-113020750D01*
X179575368Y-113020745D01*
X179515789Y-112850478D01*
X179419816Y-112697738D01*
X179292262Y-112570184D01*
X179276850Y-112560500D01*
X179139523Y-112474211D01*
X178969254Y-112414631D01*
X178969249Y-112414630D01*
X178790004Y-112394435D01*
X178789996Y-112394435D01*
X178610750Y-112414630D01*
X178610745Y-112414631D01*
X178440476Y-112474211D01*
X178287737Y-112570184D01*
X178160184Y-112697737D01*
X178064211Y-112850476D01*
X178004631Y-113020745D01*
X178004630Y-113020750D01*
X177984435Y-113199996D01*
X177143116Y-113199996D01*
X177125789Y-113150478D01*
X177029816Y-112997738D01*
X176902262Y-112870184D01*
X176822982Y-112820369D01*
X176749523Y-112774211D01*
X176579254Y-112714631D01*
X176579249Y-112714630D01*
X176400004Y-112694435D01*
X176399996Y-112694435D01*
X176220750Y-112714630D01*
X176220745Y-112714631D01*
X176050476Y-112774211D01*
X175897737Y-112870184D01*
X175770184Y-112997737D01*
X175674211Y-113150476D01*
X175614631Y-113320745D01*
X175614630Y-113320750D01*
X175594435Y-113499996D01*
X142413500Y-113499996D01*
X142413500Y-109167114D01*
X142433185Y-109100075D01*
X142485989Y-109054320D01*
X142555147Y-109044376D01*
X142578455Y-109050073D01*
X142650737Y-109075366D01*
X142650743Y-109075367D01*
X142650745Y-109075368D01*
X142650746Y-109075368D01*
X142650750Y-109075369D01*
X142829996Y-109095565D01*
X142830000Y-109095565D01*
X142830004Y-109095565D01*
X143009249Y-109075369D01*
X143009252Y-109075368D01*
X143009255Y-109075368D01*
X143179522Y-109015789D01*
X143332262Y-108919816D01*
X143459816Y-108792262D01*
X143459819Y-108792256D01*
X143463269Y-108788807D01*
X143524592Y-108755322D01*
X143594284Y-108760306D01*
X143650218Y-108802177D01*
X143655943Y-108810513D01*
X143660184Y-108817262D01*
X143787738Y-108944816D01*
X143940478Y-109040789D01*
X144039299Y-109075368D01*
X144110745Y-109100368D01*
X144110750Y-109100369D01*
X144289996Y-109120565D01*
X144290000Y-109120565D01*
X144290004Y-109120565D01*
X144469249Y-109100369D01*
X144469252Y-109100368D01*
X144469255Y-109100368D01*
X144639522Y-109040789D01*
X144792262Y-108944816D01*
X144919816Y-108817262D01*
X145015789Y-108664522D01*
X145075368Y-108494255D01*
X145075369Y-108494249D01*
X145087679Y-108384996D01*
X151104435Y-108384996D01*
X151104435Y-108385003D01*
X151124630Y-108564249D01*
X151124631Y-108564254D01*
X151184211Y-108734523D01*
X151236200Y-108817262D01*
X151280184Y-108887262D01*
X151407738Y-109014816D01*
X151463849Y-109050073D01*
X151543894Y-109100369D01*
X151560478Y-109110789D01*
X151721446Y-109167114D01*
X151730745Y-109170368D01*
X151730750Y-109170369D01*
X151909996Y-109190565D01*
X151910000Y-109190565D01*
X151910004Y-109190565D01*
X152089249Y-109170369D01*
X152089252Y-109170368D01*
X152089255Y-109170368D01*
X152259522Y-109110789D01*
X152412262Y-109014816D01*
X152539816Y-108887262D01*
X152635789Y-108734522D01*
X152695368Y-108564255D01*
X152695453Y-108563500D01*
X152715565Y-108385003D01*
X152715565Y-108384996D01*
X152695369Y-108205750D01*
X152695368Y-108205745D01*
X152679361Y-108160000D01*
X152635789Y-108035478D01*
X152539816Y-107882738D01*
X152412262Y-107755184D01*
X152259523Y-107659211D01*
X152089254Y-107599631D01*
X152089249Y-107599630D01*
X151910004Y-107579435D01*
X151909996Y-107579435D01*
X151730750Y-107599630D01*
X151730745Y-107599631D01*
X151560476Y-107659211D01*
X151407737Y-107755184D01*
X151280184Y-107882737D01*
X151184211Y-108035476D01*
X151124631Y-108205745D01*
X151124630Y-108205750D01*
X151104435Y-108384996D01*
X145087679Y-108384996D01*
X145095565Y-108315003D01*
X145095565Y-108314995D01*
X145091778Y-108281383D01*
X145103833Y-108212561D01*
X145151182Y-108161182D01*
X145214998Y-108143500D01*
X145914183Y-108143500D01*
X145914186Y-108143500D01*
X146057503Y-108105098D01*
X146185997Y-108030912D01*
X147610912Y-106605997D01*
X147650457Y-106537503D01*
X147685098Y-106477503D01*
X147723500Y-106334186D01*
X147723500Y-105827500D01*
X147743185Y-105760461D01*
X147795989Y-105714706D01*
X147847500Y-105703500D01*
X148994183Y-105703500D01*
X148994186Y-105703500D01*
X149137503Y-105665098D01*
X149265997Y-105590912D01*
X149610846Y-105246063D01*
X149631253Y-105210717D01*
X149685032Y-105117569D01*
X149702077Y-105053952D01*
X149734171Y-104998365D01*
X149789750Y-104942787D01*
X149885723Y-104790047D01*
X149945302Y-104619780D01*
X149945852Y-104614902D01*
X149965499Y-104440528D01*
X149965499Y-104440521D01*
X149945303Y-104261275D01*
X149945302Y-104261270D01*
X149920683Y-104190912D01*
X149885723Y-104091003D01*
X149879108Y-104080476D01*
X149843525Y-104023846D01*
X149789750Y-103938263D01*
X149662196Y-103810709D01*
X149637194Y-103794999D01*
X149509457Y-103714736D01*
X149339188Y-103655156D01*
X149339183Y-103655155D01*
X149159938Y-103634960D01*
X149159930Y-103634960D01*
X149036245Y-103648895D01*
X148967423Y-103636840D01*
X148916044Y-103589491D01*
X148902588Y-103557773D01*
X148885098Y-103492497D01*
X148810912Y-103364003D01*
X148705997Y-103259088D01*
X147975997Y-102529088D01*
X147937821Y-102507047D01*
X147847506Y-102454903D01*
X147847507Y-102454903D01*
X147835754Y-102451753D01*
X147704186Y-102416500D01*
X147704183Y-102416500D01*
X143334771Y-102416500D01*
X143267732Y-102396815D01*
X143247090Y-102380181D01*
X142815999Y-101949090D01*
X142815997Y-101949088D01*
X142754778Y-101913743D01*
X142687506Y-101874903D01*
X142687507Y-101874903D01*
X142675754Y-101871753D01*
X142544186Y-101836500D01*
X142544183Y-101836500D01*
X142320085Y-101836500D01*
X142253046Y-101816815D01*
X142207291Y-101764011D01*
X142197347Y-101694853D01*
X142226372Y-101631297D01*
X142254113Y-101607506D01*
X142282262Y-101589819D01*
X142312259Y-101559822D01*
X142373582Y-101526337D01*
X142399940Y-101523503D01*
X151275232Y-101523503D01*
X151342271Y-101543188D01*
X151362913Y-101559822D01*
X152150181Y-102347090D01*
X152183666Y-102408413D01*
X152186500Y-102434771D01*
X152186500Y-103809813D01*
X152166815Y-103876852D01*
X152114011Y-103922607D01*
X152076384Y-103933033D01*
X151990663Y-103942691D01*
X151990659Y-103942692D01*
X151820390Y-104002272D01*
X151667651Y-104098245D01*
X151540098Y-104225798D01*
X151444125Y-104378537D01*
X151384545Y-104548806D01*
X151384544Y-104548811D01*
X151364349Y-104728057D01*
X151364349Y-104728064D01*
X151384544Y-104907310D01*
X151384545Y-104907315D01*
X151444125Y-105077584D01*
X151469251Y-105117571D01*
X151540098Y-105230323D01*
X151667652Y-105357877D01*
X151820392Y-105453850D01*
X151920425Y-105488853D01*
X151990659Y-105513429D01*
X151990664Y-105513430D01*
X152169910Y-105533626D01*
X152169914Y-105533626D01*
X152169918Y-105533626D01*
X152349163Y-105513430D01*
X152349166Y-105513429D01*
X152349169Y-105513429D01*
X152349170Y-105513428D01*
X152349173Y-105513428D01*
X152419403Y-105488853D01*
X152503309Y-105459492D01*
X152573086Y-105455930D01*
X152631944Y-105488853D01*
X152939088Y-105795997D01*
X153044003Y-105900912D01*
X153093093Y-105929254D01*
X153172493Y-105975096D01*
X153172494Y-105975096D01*
X153172497Y-105975098D01*
X153315814Y-106013500D01*
X166065229Y-106013500D01*
X166132268Y-106033185D01*
X166152910Y-106049819D01*
X166600181Y-106497090D01*
X166633666Y-106558413D01*
X166636500Y-106584771D01*
X166636500Y-110455814D01*
X166636500Y-110604186D01*
X166674902Y-110747503D01*
X166674903Y-110747506D01*
X166727047Y-110837821D01*
X166749088Y-110875997D01*
X168239088Y-112365997D01*
X168344003Y-112470912D01*
X168400955Y-112503793D01*
X168472493Y-112545096D01*
X168472494Y-112545096D01*
X168472497Y-112545098D01*
X168615814Y-112583500D01*
X173115060Y-112583500D01*
X173182099Y-112603185D01*
X173202741Y-112619819D01*
X173247738Y-112664816D01*
X173400478Y-112760789D01*
X173570745Y-112820368D01*
X173570750Y-112820369D01*
X173749996Y-112840565D01*
X173750000Y-112840565D01*
X173750004Y-112840565D01*
X173929249Y-112820369D01*
X173929252Y-112820368D01*
X173929255Y-112820368D01*
X174099522Y-112760789D01*
X174252262Y-112664816D01*
X174379816Y-112537262D01*
X174475789Y-112384522D01*
X174535368Y-112214255D01*
X174547354Y-112107876D01*
X174555565Y-112035003D01*
X174555565Y-112034996D01*
X174535369Y-111855750D01*
X174535368Y-111855745D01*
X174475788Y-111685476D01*
X174379815Y-111532737D01*
X174252262Y-111405184D01*
X174246816Y-111400841D01*
X174248747Y-111398418D01*
X174211528Y-111356374D01*
X174200852Y-111287324D01*
X174229201Y-111223465D01*
X174236065Y-111216012D01*
X174359816Y-111092262D01*
X174455789Y-110939522D01*
X174515368Y-110769255D01*
X174535565Y-110590000D01*
X174515368Y-110410745D01*
X174455789Y-110240478D01*
X174359816Y-110087738D01*
X174232262Y-109960184D01*
X174079523Y-109864211D01*
X173909254Y-109804631D01*
X173909249Y-109804630D01*
X173730004Y-109784435D01*
X173729996Y-109784435D01*
X173550750Y-109804630D01*
X173550745Y-109804631D01*
X173380476Y-109864211D01*
X173227737Y-109960184D01*
X173197741Y-109990181D01*
X173136418Y-110023666D01*
X173110060Y-110026500D01*
X169054771Y-110026500D01*
X168987732Y-110006815D01*
X168967090Y-109990181D01*
X168409819Y-109432910D01*
X168376334Y-109371587D01*
X168373500Y-109345229D01*
X168373500Y-109109996D01*
X175599435Y-109109996D01*
X175599435Y-109110003D01*
X175619630Y-109289249D01*
X175619631Y-109289254D01*
X175679211Y-109459523D01*
X175710928Y-109510000D01*
X175775184Y-109612262D01*
X175902738Y-109739816D01*
X176055478Y-109835789D01*
X176225745Y-109895368D01*
X176225750Y-109895369D01*
X176404996Y-109915565D01*
X176405000Y-109915565D01*
X176405004Y-109915565D01*
X176584249Y-109895369D01*
X176584252Y-109895368D01*
X176584255Y-109895368D01*
X176754522Y-109835789D01*
X176907262Y-109739816D01*
X177034816Y-109612262D01*
X177130789Y-109459522D01*
X177190368Y-109289255D01*
X177203763Y-109170369D01*
X177210565Y-109110003D01*
X177210565Y-109109996D01*
X177190369Y-108930750D01*
X177190368Y-108930745D01*
X177175153Y-108887262D01*
X177130789Y-108760478D01*
X177127549Y-108755322D01*
X177034815Y-108607737D01*
X176907262Y-108480184D01*
X176754523Y-108384211D01*
X176584254Y-108324631D01*
X176584249Y-108324630D01*
X176405004Y-108304435D01*
X176404996Y-108304435D01*
X176225750Y-108324630D01*
X176225745Y-108324631D01*
X176055476Y-108384211D01*
X175902737Y-108480184D01*
X175775184Y-108607737D01*
X175679211Y-108760476D01*
X175619631Y-108930745D01*
X175619630Y-108930750D01*
X175599435Y-109109996D01*
X168373500Y-109109996D01*
X168373500Y-105915816D01*
X168373500Y-105915814D01*
X168355621Y-105849088D01*
X168335099Y-105772498D01*
X168260912Y-105644003D01*
X167155997Y-104539088D01*
X167103369Y-104508703D01*
X167027506Y-104464903D01*
X167027507Y-104464903D01*
X167015754Y-104461753D01*
X166884186Y-104426500D01*
X166884183Y-104426500D01*
X158152972Y-104426500D01*
X158085933Y-104406815D01*
X158040178Y-104354011D01*
X158030234Y-104284853D01*
X158047978Y-104236528D01*
X158105788Y-104144523D01*
X158105789Y-104144522D01*
X158165368Y-103974255D01*
X158165369Y-103974249D01*
X158185565Y-103795003D01*
X158185565Y-103794999D01*
X158182904Y-103771385D01*
X158194958Y-103702563D01*
X158242306Y-103651183D01*
X158306124Y-103633500D01*
X166764183Y-103633500D01*
X166764186Y-103633500D01*
X166907503Y-103595098D01*
X167035997Y-103520912D01*
X168500912Y-102055998D01*
X168575098Y-101927503D01*
X168578785Y-101913743D01*
X168613500Y-101784186D01*
X168613500Y-101187500D01*
X168633185Y-101120461D01*
X168685989Y-101074706D01*
X168737500Y-101063500D01*
X170932500Y-101063500D01*
X170999539Y-101083185D01*
X171045294Y-101135989D01*
X171056500Y-101187500D01*
X171056500Y-101214186D01*
X171094902Y-101357503D01*
X171094903Y-101357506D01*
X171147047Y-101447821D01*
X171169088Y-101485997D01*
X171889088Y-102205997D01*
X171994003Y-102310912D01*
X172084321Y-102363057D01*
X172122493Y-102385096D01*
X172122494Y-102385096D01*
X172122497Y-102385098D01*
X172265814Y-102423500D01*
X172265817Y-102423500D01*
X174424183Y-102423500D01*
X174424186Y-102423500D01*
X174567503Y-102385098D01*
X174695997Y-102310912D01*
X175086914Y-101919996D01*
X177974435Y-101919996D01*
X177974435Y-101920003D01*
X177994630Y-102099249D01*
X177994631Y-102099254D01*
X178054211Y-102269523D01*
X178134627Y-102397503D01*
X178150184Y-102422262D01*
X178277738Y-102549816D01*
X178430478Y-102645789D01*
X178600745Y-102705368D01*
X178600750Y-102705369D01*
X178779996Y-102725565D01*
X178780000Y-102725565D01*
X178780004Y-102725565D01*
X178959249Y-102705369D01*
X178959252Y-102705368D01*
X178959255Y-102705368D01*
X179129522Y-102645789D01*
X179282262Y-102549816D01*
X179409816Y-102422262D01*
X179505789Y-102269522D01*
X179565368Y-102099255D01*
X179582269Y-101949254D01*
X179585565Y-101920003D01*
X179585565Y-101919996D01*
X179565369Y-101740750D01*
X179565368Y-101740745D01*
X179533615Y-101650000D01*
X179505789Y-101570478D01*
X179499093Y-101559822D01*
X179452706Y-101485997D01*
X179409816Y-101417738D01*
X179282262Y-101290184D01*
X179129523Y-101194211D01*
X178959254Y-101134631D01*
X178959249Y-101134630D01*
X178780004Y-101114435D01*
X178779996Y-101114435D01*
X178600750Y-101134630D01*
X178600745Y-101134631D01*
X178430476Y-101194211D01*
X178277737Y-101290184D01*
X178150184Y-101417737D01*
X178054211Y-101570476D01*
X177994631Y-101740745D01*
X177994630Y-101740750D01*
X177974435Y-101919996D01*
X175086914Y-101919996D01*
X175200912Y-101805998D01*
X175275098Y-101677503D01*
X175278422Y-101665098D01*
X175313500Y-101534186D01*
X175313500Y-97765814D01*
X175275098Y-97622497D01*
X175275096Y-97622494D01*
X175275096Y-97622492D01*
X175275095Y-97622491D01*
X175252980Y-97584187D01*
X175252978Y-97584185D01*
X175241845Y-97564902D01*
X175200912Y-97494002D01*
X174765997Y-97059088D01*
X174656928Y-96996117D01*
X174608713Y-96945549D01*
X174595491Y-96876942D01*
X174601887Y-96847780D01*
X174615368Y-96809255D01*
X174625446Y-96719816D01*
X174635565Y-96630003D01*
X174635565Y-96629996D01*
X174615369Y-96450750D01*
X174615368Y-96450745D01*
X174555788Y-96280476D01*
X174472235Y-96147503D01*
X174459816Y-96127738D01*
X174332262Y-96000184D01*
X174179523Y-95904211D01*
X174009254Y-95844631D01*
X174009249Y-95844630D01*
X173830004Y-95824435D01*
X173829996Y-95824435D01*
X173650750Y-95844630D01*
X173650745Y-95844631D01*
X173480476Y-95904211D01*
X173327737Y-96000184D01*
X173200184Y-96127737D01*
X173104211Y-96280476D01*
X173044631Y-96450745D01*
X173044630Y-96450750D01*
X173024435Y-96629996D01*
X173024435Y-96630003D01*
X173044630Y-96809249D01*
X173044631Y-96809254D01*
X173104211Y-96979523D01*
X173200184Y-97132262D01*
X173230181Y-97162259D01*
X173263666Y-97223582D01*
X173266500Y-97249940D01*
X173266500Y-97314186D01*
X173281564Y-97370408D01*
X173279902Y-97440256D01*
X173240740Y-97498119D01*
X173176512Y-97525623D01*
X173161790Y-97526500D01*
X172495814Y-97526500D01*
X172364245Y-97561753D01*
X172352493Y-97564903D01*
X172240203Y-97629735D01*
X172240201Y-97629736D01*
X172224006Y-97639085D01*
X172224001Y-97639089D01*
X171759090Y-98104000D01*
X171759086Y-98104006D01*
X171684903Y-98232493D01*
X171684902Y-98232497D01*
X171646500Y-98375814D01*
X171646500Y-98375816D01*
X171646500Y-98402500D01*
X171626815Y-98469539D01*
X171574011Y-98515294D01*
X171522500Y-98526500D01*
X166895814Y-98526500D01*
X166789024Y-98555114D01*
X166719174Y-98553451D01*
X166661312Y-98514288D01*
X166633808Y-98450059D01*
X166645395Y-98381157D01*
X166669247Y-98347661D01*
X168740912Y-96275997D01*
X168796862Y-96179088D01*
X168815098Y-96147503D01*
X168853500Y-96004186D01*
X168853500Y-88249996D01*
X177939435Y-88249996D01*
X177939435Y-88250003D01*
X177959630Y-88429249D01*
X177959631Y-88429254D01*
X178019211Y-88599523D01*
X178115184Y-88752262D01*
X178242738Y-88879816D01*
X178272658Y-88898616D01*
X178387450Y-88970745D01*
X178395478Y-88975789D01*
X178512724Y-89016815D01*
X178565745Y-89035368D01*
X178565750Y-89035369D01*
X178744996Y-89055565D01*
X178745000Y-89055565D01*
X178745004Y-89055565D01*
X178924249Y-89035369D01*
X178924252Y-89035368D01*
X178924255Y-89035368D01*
X179094522Y-88975789D01*
X179247262Y-88879816D01*
X179374816Y-88752262D01*
X179470789Y-88599522D01*
X179530368Y-88429255D01*
X179530369Y-88429249D01*
X179550565Y-88250003D01*
X179550565Y-88249996D01*
X179530369Y-88070750D01*
X179530368Y-88070745D01*
X179484554Y-87939817D01*
X179470789Y-87900478D01*
X179459907Y-87883160D01*
X179374815Y-87747737D01*
X179247262Y-87620184D01*
X179094523Y-87524211D01*
X178924254Y-87464631D01*
X178924249Y-87464630D01*
X178745004Y-87444435D01*
X178744996Y-87444435D01*
X178565750Y-87464630D01*
X178565745Y-87464631D01*
X178395476Y-87524211D01*
X178242737Y-87620184D01*
X178115184Y-87747737D01*
X178019211Y-87900476D01*
X177959631Y-88070745D01*
X177959630Y-88070750D01*
X177939435Y-88249996D01*
X168853500Y-88249996D01*
X168853500Y-88204771D01*
X168873185Y-88137732D01*
X168889819Y-88117090D01*
X169297090Y-87709819D01*
X169358413Y-87676334D01*
X169384771Y-87673500D01*
X173200060Y-87673500D01*
X173267099Y-87693185D01*
X173287741Y-87709819D01*
X173317738Y-87739816D01*
X173470478Y-87835789D01*
X173605857Y-87883160D01*
X173640745Y-87895368D01*
X173640750Y-87895369D01*
X173819996Y-87915565D01*
X173820000Y-87915565D01*
X173820004Y-87915565D01*
X173999249Y-87895369D01*
X173999252Y-87895368D01*
X173999255Y-87895368D01*
X174169522Y-87835789D01*
X174322262Y-87739816D01*
X174449816Y-87612262D01*
X174545789Y-87459522D01*
X174605368Y-87289255D01*
X174605468Y-87288368D01*
X174625565Y-87110003D01*
X174625565Y-87109996D01*
X174605369Y-86930750D01*
X174605368Y-86930745D01*
X174572823Y-86837738D01*
X174545789Y-86760478D01*
X174543487Y-86756815D01*
X174488458Y-86669236D01*
X174449816Y-86607738D01*
X174322262Y-86480184D01*
X174316816Y-86475841D01*
X174317966Y-86474398D01*
X174277823Y-86429014D01*
X174267174Y-86359960D01*
X174295549Y-86296112D01*
X174309317Y-86282760D01*
X174312259Y-86279817D01*
X174312262Y-86279816D01*
X174439816Y-86152262D01*
X174535789Y-85999522D01*
X174595368Y-85829255D01*
X174599164Y-85795565D01*
X174615565Y-85650003D01*
X174615565Y-85649996D01*
X174595369Y-85470750D01*
X174595368Y-85470745D01*
X174537896Y-85306500D01*
X174535789Y-85300478D01*
X174439816Y-85147738D01*
X174312262Y-85020184D01*
X174311675Y-85019815D01*
X174159523Y-84924211D01*
X173989254Y-84864631D01*
X173989249Y-84864630D01*
X173810004Y-84844435D01*
X173809996Y-84844435D01*
X173630750Y-84864630D01*
X173630745Y-84864631D01*
X173460476Y-84924211D01*
X173307737Y-85020184D01*
X173277741Y-85050181D01*
X173216418Y-85083666D01*
X173190060Y-85086500D01*
X168695814Y-85086500D01*
X168618110Y-85107321D01*
X168552495Y-85124902D01*
X168552490Y-85124905D01*
X168424008Y-85199083D01*
X168424000Y-85199089D01*
X167064003Y-86559088D01*
X166959090Y-86664000D01*
X166959086Y-86664006D01*
X166884903Y-86792493D01*
X166884902Y-86792497D01*
X166846500Y-86935814D01*
X166846500Y-86935816D01*
X166846500Y-95175229D01*
X166826815Y-95242268D01*
X166810181Y-95262910D01*
X164968989Y-97104102D01*
X164907666Y-97137587D01*
X164881308Y-97140421D01*
X142734723Y-97140421D01*
X142667684Y-97120736D01*
X142621929Y-97067932D01*
X142618286Y-97057101D01*
X142617668Y-97057318D01*
X142596253Y-96996117D01*
X142555789Y-96880478D01*
X142535238Y-96847772D01*
X142459815Y-96727737D01*
X142332262Y-96600184D01*
X142179523Y-96504211D01*
X142009254Y-96444631D01*
X142009249Y-96444630D01*
X141830004Y-96424435D01*
X141829996Y-96424435D01*
X141650750Y-96444630D01*
X141650745Y-96444631D01*
X141480476Y-96504211D01*
X141327737Y-96600184D01*
X141200184Y-96727737D01*
X141104211Y-96880476D01*
X141044631Y-97050745D01*
X141044630Y-97050750D01*
X141024435Y-97229996D01*
X141024435Y-97230003D01*
X141044630Y-97409249D01*
X141044631Y-97409254D01*
X141104213Y-97579529D01*
X141107231Y-97585795D01*
X141105280Y-97586734D01*
X141121452Y-97643959D01*
X141114500Y-97683649D01*
X141056059Y-97850663D01*
X141056057Y-97850671D01*
X141035862Y-98029917D01*
X141035862Y-98029924D01*
X141056057Y-98209169D01*
X141057367Y-98214906D01*
X141053094Y-98284645D01*
X141011796Y-98341003D01*
X140946585Y-98366087D01*
X140936476Y-98366500D01*
X125614771Y-98366500D01*
X125547732Y-98346815D01*
X125527090Y-98330181D01*
X125509819Y-98312910D01*
X125476334Y-98251587D01*
X125473500Y-98225229D01*
X125473500Y-98155816D01*
X125473500Y-98155814D01*
X125435098Y-98012497D01*
X125427356Y-97999088D01*
X125396519Y-97945677D01*
X125360912Y-97884003D01*
X125255997Y-97779088D01*
X124885997Y-97409088D01*
X124818998Y-97370406D01*
X124757506Y-97334903D01*
X124757507Y-97334903D01*
X124745754Y-97331753D01*
X124614186Y-97296500D01*
X124614183Y-97296500D01*
X123167500Y-97296500D01*
X123100461Y-97276815D01*
X123054706Y-97224011D01*
X123043500Y-97172500D01*
X123043500Y-94679940D01*
X123063185Y-94612901D01*
X123079819Y-94592259D01*
X123092829Y-94579249D01*
X123109816Y-94562262D01*
X123205789Y-94409522D01*
X123265368Y-94239255D01*
X123274382Y-94159254D01*
X123285565Y-94060003D01*
X123285565Y-94059996D01*
X123265369Y-93880750D01*
X123265368Y-93880745D01*
X123205789Y-93710478D01*
X123109816Y-93557738D01*
X122982262Y-93430184D01*
X122829523Y-93334211D01*
X122659254Y-93274631D01*
X122659249Y-93274630D01*
X122480004Y-93254435D01*
X122479996Y-93254435D01*
X122300750Y-93274630D01*
X122300745Y-93274631D01*
X122130476Y-93334211D01*
X121977737Y-93430184D01*
X121850184Y-93557737D01*
X121754211Y-93710476D01*
X121694631Y-93880745D01*
X121694630Y-93880750D01*
X121674435Y-94059996D01*
X121674435Y-94060003D01*
X121694630Y-94239249D01*
X121694631Y-94239254D01*
X121754211Y-94409523D01*
X121850184Y-94562262D01*
X121880181Y-94592259D01*
X121913666Y-94653582D01*
X121916500Y-94679940D01*
X121916500Y-97405814D01*
X121916500Y-97554186D01*
X121939249Y-97639085D01*
X121954903Y-97697506D01*
X122002005Y-97779088D01*
X122029088Y-97825997D01*
X122029090Y-97825999D01*
X122040325Y-97837234D01*
X122073810Y-97898557D01*
X122068826Y-97968249D01*
X122040326Y-98012595D01*
X121995184Y-98057737D01*
X121899211Y-98210476D01*
X121839631Y-98380745D01*
X121839630Y-98380750D01*
X121819435Y-98559996D01*
X121819435Y-98560003D01*
X121839630Y-98739249D01*
X121839631Y-98739254D01*
X121899211Y-98909523D01*
X121995184Y-99062262D01*
X122122738Y-99189816D01*
X122213080Y-99246582D01*
X122265505Y-99279523D01*
X122275478Y-99285789D01*
X122345195Y-99310184D01*
X122445745Y-99345368D01*
X122445750Y-99345369D01*
X122624996Y-99365565D01*
X122625000Y-99365565D01*
X122625004Y-99365565D01*
X122804249Y-99345369D01*
X122804252Y-99345368D01*
X122804255Y-99345368D01*
X122974522Y-99285789D01*
X123127262Y-99189816D01*
X123254816Y-99062262D01*
X123350789Y-98909522D01*
X123410368Y-98739255D01*
X123411692Y-98727503D01*
X123430565Y-98560003D01*
X123430565Y-98553036D01*
X123432184Y-98553036D01*
X123442773Y-98492567D01*
X123490120Y-98441185D01*
X123553941Y-98423500D01*
X124222500Y-98423500D01*
X124289539Y-98443185D01*
X124335294Y-98495989D01*
X124346500Y-98547500D01*
X124346500Y-98584186D01*
X124380336Y-98710461D01*
X124384903Y-98727506D01*
X124429715Y-98805121D01*
X124459088Y-98855997D01*
X124879088Y-99275997D01*
X124984003Y-99380912D01*
X125072944Y-99432262D01*
X125112493Y-99455096D01*
X125112494Y-99455096D01*
X125112497Y-99455098D01*
X125255814Y-99493500D01*
X141029020Y-99493500D01*
X141096059Y-99513185D01*
X141141814Y-99565989D01*
X141151758Y-99635147D01*
X141134014Y-99683472D01*
X141054211Y-99810476D01*
X140994631Y-99980745D01*
X140994630Y-99980750D01*
X140974435Y-100159996D01*
X140974435Y-100160003D01*
X140994630Y-100339249D01*
X140994633Y-100339262D01*
X141056510Y-100516094D01*
X141054366Y-100516843D01*
X141063960Y-100575161D01*
X141055612Y-100603595D01*
X141056510Y-100603909D01*
X140994633Y-100780740D01*
X140994630Y-100780752D01*
X140988325Y-100836717D01*
X140961258Y-100901131D01*
X140903663Y-100940686D01*
X140833826Y-100942823D01*
X140777424Y-100910514D01*
X140445999Y-100579090D01*
X140445997Y-100579088D01*
X140317503Y-100504902D01*
X140174186Y-100466500D01*
X140174183Y-100466500D01*
X126129940Y-100466500D01*
X126062901Y-100446815D01*
X126042259Y-100430181D01*
X126002262Y-100390184D01*
X125849523Y-100294211D01*
X125679254Y-100234631D01*
X125679249Y-100234630D01*
X125500004Y-100214435D01*
X125499996Y-100214435D01*
X125320750Y-100234630D01*
X125320745Y-100234631D01*
X125150476Y-100294211D01*
X124997737Y-100390184D01*
X124870184Y-100517737D01*
X124774211Y-100670476D01*
X124714631Y-100840745D01*
X124714630Y-100840750D01*
X124694435Y-101019996D01*
X124694435Y-101020003D01*
X124714630Y-101199249D01*
X124714631Y-101199254D01*
X124774211Y-101369523D01*
X124837817Y-101470750D01*
X124870184Y-101522262D01*
X124997738Y-101649816D01*
X125069414Y-101694853D01*
X125149812Y-101745371D01*
X125150478Y-101745789D01*
X125320745Y-101805368D01*
X125320750Y-101805369D01*
X125499996Y-101825565D01*
X125500000Y-101825565D01*
X125500004Y-101825565D01*
X125679249Y-101805369D01*
X125679252Y-101805368D01*
X125679255Y-101805368D01*
X125849522Y-101745789D01*
X126002262Y-101649816D01*
X126022259Y-101629819D01*
X126083582Y-101596334D01*
X126109940Y-101593500D01*
X139815229Y-101593500D01*
X139882268Y-101613185D01*
X139902910Y-101629819D01*
X140120181Y-101847090D01*
X140153666Y-101908413D01*
X140156500Y-101934771D01*
X140156500Y-102105814D01*
X140156500Y-102254186D01*
X140163368Y-102279816D01*
X140196949Y-102405143D01*
X140195286Y-102474992D01*
X140156123Y-102532855D01*
X140109269Y-102557010D01*
X140042497Y-102574902D01*
X139971812Y-102615712D01*
X139914003Y-102649088D01*
X139914000Y-102649090D01*
X139422910Y-103140181D01*
X139361587Y-103173666D01*
X139335229Y-103176500D01*
X105324771Y-103176500D01*
X105257732Y-103156815D01*
X105237090Y-103140181D01*
X104729819Y-102632910D01*
X104696334Y-102571587D01*
X104693500Y-102545229D01*
X104693500Y-102389940D01*
X104713185Y-102322901D01*
X104729819Y-102302259D01*
X104759816Y-102272262D01*
X104855789Y-102119522D01*
X104915368Y-101949255D01*
X104918664Y-101920003D01*
X104935565Y-101770003D01*
X104935565Y-101769996D01*
X104915369Y-101590750D01*
X104915368Y-101590745D01*
X104855788Y-101420476D01*
X104780388Y-101300478D01*
X104759816Y-101267738D01*
X104632262Y-101140184D01*
X104623426Y-101134632D01*
X104479523Y-101044211D01*
X104309254Y-100984631D01*
X104309249Y-100984630D01*
X104130004Y-100964435D01*
X104129996Y-100964435D01*
X103950750Y-100984630D01*
X103950745Y-100984631D01*
X103780476Y-101044211D01*
X103627737Y-101140184D01*
X103500184Y-101267737D01*
X103404211Y-101420476D01*
X103344631Y-101590745D01*
X103344630Y-101590750D01*
X103324435Y-101769996D01*
X99000500Y-101769996D01*
X99000500Y-99939996D01*
X110571935Y-99939996D01*
X110571935Y-99940003D01*
X110592130Y-100119249D01*
X110592131Y-100119254D01*
X110651711Y-100289523D01*
X110708678Y-100380184D01*
X110747684Y-100442262D01*
X110875238Y-100569816D01*
X111027978Y-100665789D01*
X111167395Y-100714573D01*
X111198245Y-100725368D01*
X111198250Y-100725369D01*
X111377496Y-100745565D01*
X111377500Y-100745565D01*
X111377504Y-100745565D01*
X111556749Y-100725369D01*
X111556752Y-100725368D01*
X111556755Y-100725368D01*
X111727022Y-100665789D01*
X111879762Y-100569816D01*
X112007316Y-100442262D01*
X112103289Y-100289522D01*
X112105069Y-100284435D01*
X112106209Y-100281178D01*
X112146928Y-100224400D01*
X112211879Y-100198650D01*
X112280441Y-100212103D01*
X112330846Y-100260487D01*
X112340293Y-100281172D01*
X112364209Y-100349519D01*
X112364211Y-100349522D01*
X112460184Y-100502262D01*
X112587738Y-100629816D01*
X112704721Y-100703321D01*
X112751011Y-100755654D01*
X112761660Y-100824708D01*
X112733284Y-100888556D01*
X112688390Y-100919397D01*
X112689253Y-100921188D01*
X112682983Y-100924207D01*
X112530237Y-101020184D01*
X112402684Y-101147737D01*
X112306711Y-101300476D01*
X112247131Y-101470745D01*
X112247130Y-101470750D01*
X112226935Y-101649996D01*
X112226935Y-101650003D01*
X112247130Y-101829249D01*
X112247131Y-101829254D01*
X112306711Y-101999523D01*
X112369377Y-102099254D01*
X112402684Y-102152262D01*
X112530238Y-102279816D01*
X112565956Y-102302259D01*
X112663550Y-102363582D01*
X112682978Y-102375789D01*
X112815790Y-102422262D01*
X112853245Y-102435368D01*
X112853250Y-102435369D01*
X113032496Y-102455565D01*
X113032500Y-102455565D01*
X113032504Y-102455565D01*
X113211749Y-102435369D01*
X113211752Y-102435368D01*
X113211755Y-102435368D01*
X113382022Y-102375789D01*
X113534762Y-102279816D01*
X113662316Y-102152262D01*
X113758289Y-101999522D01*
X113817868Y-101829255D01*
X113819270Y-101816815D01*
X113838065Y-101650003D01*
X113838065Y-101649996D01*
X115004435Y-101649996D01*
X115004435Y-101650003D01*
X115024630Y-101829249D01*
X115024631Y-101829254D01*
X115084211Y-101999523D01*
X115146877Y-102099254D01*
X115180184Y-102152262D01*
X115307738Y-102279816D01*
X115343456Y-102302259D01*
X115441050Y-102363582D01*
X115460478Y-102375789D01*
X115593290Y-102422262D01*
X115630745Y-102435368D01*
X115630750Y-102435369D01*
X115809996Y-102455565D01*
X115810000Y-102455565D01*
X115810004Y-102455565D01*
X115989249Y-102435369D01*
X115989252Y-102435368D01*
X115989255Y-102435368D01*
X116159522Y-102375789D01*
X116312262Y-102279816D01*
X116439816Y-102152262D01*
X116535789Y-101999522D01*
X116595368Y-101829255D01*
X116596770Y-101816815D01*
X116615565Y-101650003D01*
X116615565Y-101649996D01*
X116595369Y-101470750D01*
X116595368Y-101470745D01*
X116559949Y-101369523D01*
X116535789Y-101300478D01*
X116515216Y-101267737D01*
X116472186Y-101199254D01*
X116439816Y-101147738D01*
X116312262Y-101020184D01*
X116311963Y-101019996D01*
X116159523Y-100924211D01*
X115989254Y-100864631D01*
X115989249Y-100864630D01*
X115810004Y-100844435D01*
X115809996Y-100844435D01*
X115630750Y-100864630D01*
X115630745Y-100864631D01*
X115460476Y-100924211D01*
X115307737Y-101020184D01*
X115180184Y-101147737D01*
X115084211Y-101300476D01*
X115024631Y-101470745D01*
X115024630Y-101470750D01*
X115004435Y-101649996D01*
X113838065Y-101649996D01*
X113817869Y-101470750D01*
X113817868Y-101470745D01*
X113782449Y-101369523D01*
X113758289Y-101300478D01*
X113737716Y-101267737D01*
X113694686Y-101199254D01*
X113662316Y-101147738D01*
X113534762Y-101020184D01*
X113417778Y-100946678D01*
X113371488Y-100894344D01*
X113360840Y-100825291D01*
X113389215Y-100761442D01*
X113434112Y-100730610D01*
X113433247Y-100728812D01*
X113439516Y-100725792D01*
X113439519Y-100725789D01*
X113439522Y-100725789D01*
X113592262Y-100629816D01*
X113719816Y-100502262D01*
X113815789Y-100349522D01*
X113875368Y-100179255D01*
X113877537Y-100160003D01*
X113895565Y-100000003D01*
X113895565Y-99999996D01*
X113875369Y-99820750D01*
X113875368Y-99820745D01*
X113849149Y-99745816D01*
X113815789Y-99650478D01*
X113719816Y-99497738D01*
X113592262Y-99370184D01*
X113496773Y-99310184D01*
X113439523Y-99274211D01*
X113269254Y-99214631D01*
X113269249Y-99214630D01*
X113090004Y-99194435D01*
X113089996Y-99194435D01*
X112910750Y-99214630D01*
X112910745Y-99214631D01*
X112740476Y-99274211D01*
X112587737Y-99370184D01*
X112460184Y-99497737D01*
X112364209Y-99650480D01*
X112361287Y-99658831D01*
X112320564Y-99715605D01*
X112255610Y-99741350D01*
X112187049Y-99727892D01*
X112136648Y-99679503D01*
X112127205Y-99658826D01*
X112103289Y-99590478D01*
X112091386Y-99571534D01*
X112007316Y-99437738D01*
X111879762Y-99310184D01*
X111840936Y-99285788D01*
X111727023Y-99214211D01*
X111556754Y-99154631D01*
X111556749Y-99154630D01*
X111377504Y-99134435D01*
X111377496Y-99134435D01*
X111198250Y-99154630D01*
X111198245Y-99154631D01*
X111027976Y-99214211D01*
X110875237Y-99310184D01*
X110747684Y-99437737D01*
X110651711Y-99590476D01*
X110592131Y-99760745D01*
X110592130Y-99760750D01*
X110571935Y-99939996D01*
X99000500Y-99939996D01*
X99000500Y-98218995D01*
X99539499Y-98218995D01*
X99566418Y-98354322D01*
X99566421Y-98354332D01*
X99619221Y-98481804D01*
X99619228Y-98481817D01*
X99695885Y-98596541D01*
X99695888Y-98596545D01*
X99793454Y-98694111D01*
X99793458Y-98694114D01*
X99908182Y-98770771D01*
X99908195Y-98770778D01*
X100035667Y-98823578D01*
X100035672Y-98823580D01*
X100035676Y-98823580D01*
X100035677Y-98823581D01*
X100171004Y-98850500D01*
X100171007Y-98850500D01*
X100308995Y-98850500D01*
X100400041Y-98832389D01*
X100444328Y-98823580D01*
X100571811Y-98770775D01*
X100686542Y-98694114D01*
X100784114Y-98596542D01*
X100860775Y-98481811D01*
X100913580Y-98354328D01*
X100940500Y-98218993D01*
X100940500Y-98081007D01*
X100940500Y-98081004D01*
X100913581Y-97945677D01*
X100913580Y-97945676D01*
X100913580Y-97945672D01*
X100905480Y-97926117D01*
X100860778Y-97818195D01*
X100860771Y-97818182D01*
X100784114Y-97703458D01*
X100784111Y-97703454D01*
X100686545Y-97605888D01*
X100686541Y-97605885D01*
X100571817Y-97529228D01*
X100571804Y-97529221D01*
X100444332Y-97476421D01*
X100444322Y-97476418D01*
X100308995Y-97449500D01*
X100308993Y-97449500D01*
X100171007Y-97449500D01*
X100171005Y-97449500D01*
X100035677Y-97476418D01*
X100035667Y-97476421D01*
X99908195Y-97529221D01*
X99908182Y-97529228D01*
X99793458Y-97605885D01*
X99793454Y-97605888D01*
X99695888Y-97703454D01*
X99695885Y-97703458D01*
X99619228Y-97818182D01*
X99619221Y-97818195D01*
X99566421Y-97945667D01*
X99566418Y-97945677D01*
X99539500Y-98081004D01*
X99539500Y-98081007D01*
X99539500Y-98218993D01*
X99539500Y-98218995D01*
X99539499Y-98218995D01*
X99000500Y-98218995D01*
X99000500Y-95218995D01*
X99539499Y-95218995D01*
X99566418Y-95354322D01*
X99566421Y-95354332D01*
X99619221Y-95481804D01*
X99619228Y-95481817D01*
X99695885Y-95596541D01*
X99695888Y-95596545D01*
X99793454Y-95694111D01*
X99793458Y-95694114D01*
X99908182Y-95770771D01*
X99908195Y-95770778D01*
X100035667Y-95823578D01*
X100035672Y-95823580D01*
X100035676Y-95823580D01*
X100035677Y-95823581D01*
X100171004Y-95850500D01*
X100171007Y-95850500D01*
X100308995Y-95850500D01*
X100400041Y-95832389D01*
X100444328Y-95823580D01*
X100571811Y-95770775D01*
X100686542Y-95694114D01*
X100784114Y-95596542D01*
X100860775Y-95481811D01*
X100913580Y-95354328D01*
X100922389Y-95310041D01*
X100940500Y-95218995D01*
X100940500Y-95081004D01*
X100913581Y-94945677D01*
X100913580Y-94945676D01*
X100913580Y-94945672D01*
X100895599Y-94902262D01*
X100860778Y-94818195D01*
X100860771Y-94818182D01*
X100784114Y-94703458D01*
X100784111Y-94703454D01*
X100686545Y-94605888D01*
X100686541Y-94605885D01*
X100571817Y-94529228D01*
X100571804Y-94529221D01*
X100444332Y-94476421D01*
X100444322Y-94476418D01*
X100308995Y-94449500D01*
X100308993Y-94449500D01*
X100171007Y-94449500D01*
X100171005Y-94449500D01*
X100035677Y-94476418D01*
X100035667Y-94476421D01*
X99908195Y-94529221D01*
X99908182Y-94529228D01*
X99793458Y-94605885D01*
X99793454Y-94605888D01*
X99695888Y-94703454D01*
X99695885Y-94703458D01*
X99619228Y-94818182D01*
X99619221Y-94818195D01*
X99566421Y-94945667D01*
X99566418Y-94945677D01*
X99539500Y-95081004D01*
X99539500Y-95081007D01*
X99539500Y-95218993D01*
X99539500Y-95218995D01*
X99539499Y-95218995D01*
X99000500Y-95218995D01*
X99000500Y-94399996D01*
X101194435Y-94399996D01*
X101194435Y-94400003D01*
X101214630Y-94579249D01*
X101214631Y-94579254D01*
X101274211Y-94749523D01*
X101350384Y-94870750D01*
X101370184Y-94902262D01*
X101497738Y-95029816D01*
X101650478Y-95125789D01*
X101820745Y-95185368D01*
X101820750Y-95185369D01*
X101999996Y-95205565D01*
X102000000Y-95205565D01*
X102000004Y-95205565D01*
X102179249Y-95185369D01*
X102179252Y-95185368D01*
X102179255Y-95185368D01*
X102349522Y-95125789D01*
X102502262Y-95029816D01*
X102629816Y-94902262D01*
X102725789Y-94749522D01*
X102785368Y-94579255D01*
X102785697Y-94576334D01*
X102805565Y-94400003D01*
X102805565Y-94399996D01*
X102785369Y-94220750D01*
X102785368Y-94220745D01*
X102725788Y-94050476D01*
X102681501Y-93979994D01*
X106834435Y-93979994D01*
X106834435Y-93980003D01*
X106854630Y-94159249D01*
X106854631Y-94159254D01*
X106914211Y-94329523D01*
X106984589Y-94441528D01*
X107003589Y-94508765D01*
X106984589Y-94573472D01*
X106914211Y-94685476D01*
X106854631Y-94855745D01*
X106854630Y-94855750D01*
X106834435Y-95034996D01*
X106834435Y-95035003D01*
X106854630Y-95214249D01*
X106854631Y-95214254D01*
X106914211Y-95384523D01*
X106984589Y-95496528D01*
X107003589Y-95563765D01*
X106984589Y-95628472D01*
X106914211Y-95740476D01*
X106854631Y-95910745D01*
X106854630Y-95910750D01*
X106834435Y-96089996D01*
X106834435Y-96090003D01*
X106854630Y-96269249D01*
X106854631Y-96269254D01*
X106914211Y-96439523D01*
X107010184Y-96592262D01*
X107137738Y-96719816D01*
X107150346Y-96727738D01*
X107280077Y-96809254D01*
X107290478Y-96815789D01*
X107460745Y-96875368D01*
X107460750Y-96875369D01*
X107639996Y-96895565D01*
X107640000Y-96895565D01*
X107640004Y-96895565D01*
X107819249Y-96875369D01*
X107819252Y-96875368D01*
X107819255Y-96875368D01*
X107989522Y-96815789D01*
X108142262Y-96719816D01*
X108269816Y-96592262D01*
X108365789Y-96439522D01*
X108425368Y-96269255D01*
X108425369Y-96269249D01*
X108445565Y-96090003D01*
X108445565Y-96089996D01*
X108425369Y-95910750D01*
X108425368Y-95910745D01*
X108365788Y-95740475D01*
X108321546Y-95670066D01*
X108295410Y-95628471D01*
X108276410Y-95561236D01*
X108295410Y-95496528D01*
X108365789Y-95384522D01*
X108425368Y-95214255D01*
X108435336Y-95125788D01*
X108443876Y-95049996D01*
X114804435Y-95049996D01*
X114804435Y-95050003D01*
X114824630Y-95229249D01*
X114824631Y-95229254D01*
X114884211Y-95399523D01*
X114935920Y-95481817D01*
X114980184Y-95552262D01*
X115107738Y-95679816D01*
X115260478Y-95775789D01*
X115397051Y-95823578D01*
X115430745Y-95835368D01*
X115430750Y-95835369D01*
X115609996Y-95855565D01*
X115610000Y-95855565D01*
X115610004Y-95855565D01*
X115789249Y-95835369D01*
X115789252Y-95835368D01*
X115789255Y-95835368D01*
X115959522Y-95775789D01*
X116112262Y-95679816D01*
X116239816Y-95552262D01*
X116335789Y-95399522D01*
X116395368Y-95229255D01*
X116396524Y-95218995D01*
X116415565Y-95050003D01*
X116415565Y-95049996D01*
X116395369Y-94870750D01*
X116395368Y-94870745D01*
X116372492Y-94805369D01*
X116335789Y-94700478D01*
X116239816Y-94547738D01*
X116112262Y-94420184D01*
X116080144Y-94400003D01*
X115959523Y-94324211D01*
X115789254Y-94264631D01*
X115789249Y-94264630D01*
X115610004Y-94244435D01*
X115609996Y-94244435D01*
X115430750Y-94264630D01*
X115430745Y-94264631D01*
X115260476Y-94324211D01*
X115107737Y-94420184D01*
X114980184Y-94547737D01*
X114884211Y-94700476D01*
X114824631Y-94870745D01*
X114824630Y-94870750D01*
X114804435Y-95049996D01*
X108443876Y-95049996D01*
X108445565Y-95035003D01*
X108445565Y-95034996D01*
X108425369Y-94855750D01*
X108425368Y-94855745D01*
X108365788Y-94685475D01*
X108315777Y-94605885D01*
X108295410Y-94573471D01*
X108276410Y-94506236D01*
X108295410Y-94441528D01*
X108365789Y-94329522D01*
X108425368Y-94159255D01*
X108428595Y-94130617D01*
X108445565Y-93980003D01*
X108445565Y-93979994D01*
X108425369Y-93800750D01*
X108425368Y-93800745D01*
X108393782Y-93710478D01*
X108365789Y-93630478D01*
X108269816Y-93477738D01*
X108142262Y-93350184D01*
X108087854Y-93315997D01*
X107989523Y-93254211D01*
X107819254Y-93194631D01*
X107819249Y-93194630D01*
X107640004Y-93174435D01*
X107639996Y-93174435D01*
X107460750Y-93194630D01*
X107460745Y-93194631D01*
X107290476Y-93254211D01*
X107137737Y-93350184D01*
X107010184Y-93477737D01*
X106914211Y-93630476D01*
X106854631Y-93800745D01*
X106854630Y-93800750D01*
X106834435Y-93979994D01*
X102681501Y-93979994D01*
X102636209Y-93907913D01*
X102629816Y-93897738D01*
X102502262Y-93770184D01*
X102407241Y-93710478D01*
X102349523Y-93674211D01*
X102179254Y-93614631D01*
X102179249Y-93614630D01*
X102000004Y-93594435D01*
X101999996Y-93594435D01*
X101820750Y-93614630D01*
X101820745Y-93614631D01*
X101650476Y-93674211D01*
X101497737Y-93770184D01*
X101370184Y-93897737D01*
X101274211Y-94050476D01*
X101214631Y-94220745D01*
X101214630Y-94220750D01*
X101194435Y-94399996D01*
X99000500Y-94399996D01*
X99000500Y-88967284D01*
X99020185Y-88900245D01*
X99072989Y-88854490D01*
X99142147Y-88844546D01*
X99205703Y-88873571D01*
X99212181Y-88879603D01*
X99284714Y-88952136D01*
X99284718Y-88952139D01*
X99448579Y-89061628D01*
X99448592Y-89061635D01*
X99630660Y-89137049D01*
X99630665Y-89137051D01*
X99630669Y-89137051D01*
X99630670Y-89137052D01*
X99823956Y-89175500D01*
X99823959Y-89175500D01*
X100621043Y-89175500D01*
X100751082Y-89149632D01*
X100814335Y-89137051D01*
X100996414Y-89061632D01*
X101160282Y-88952139D01*
X101299639Y-88812782D01*
X101409132Y-88648914D01*
X101484551Y-88466835D01*
X101523000Y-88273543D01*
X102851999Y-88273543D01*
X102890447Y-88466829D01*
X102890450Y-88466839D01*
X102965864Y-88648907D01*
X102965871Y-88648920D01*
X103075360Y-88812781D01*
X103075363Y-88812785D01*
X103214714Y-88952136D01*
X103214718Y-88952139D01*
X103378579Y-89061628D01*
X103378592Y-89061635D01*
X103560660Y-89137049D01*
X103560665Y-89137051D01*
X103560669Y-89137051D01*
X103560670Y-89137052D01*
X103753956Y-89175500D01*
X103753959Y-89175500D01*
X105051043Y-89175500D01*
X105181082Y-89149632D01*
X105244335Y-89137051D01*
X105426414Y-89061632D01*
X105590282Y-88952139D01*
X105729639Y-88812782D01*
X105839132Y-88648914D01*
X105914551Y-88466835D01*
X105953000Y-88273541D01*
X105953000Y-88076459D01*
X105953000Y-88076456D01*
X105914552Y-87883170D01*
X105914551Y-87883169D01*
X105914551Y-87883165D01*
X105914549Y-87883160D01*
X105839135Y-87701092D01*
X105839128Y-87701079D01*
X105729639Y-87537218D01*
X105729636Y-87537214D01*
X105590285Y-87397863D01*
X105590281Y-87397860D01*
X105426420Y-87288371D01*
X105426407Y-87288364D01*
X105244339Y-87212950D01*
X105244329Y-87212947D01*
X105051043Y-87174500D01*
X105051041Y-87174500D01*
X104533833Y-87174500D01*
X104466794Y-87154815D01*
X104421039Y-87102011D01*
X104411095Y-87032853D01*
X104426447Y-86988499D01*
X104438778Y-86967140D01*
X104438777Y-86967140D01*
X104438781Y-86967135D01*
X104478000Y-86820766D01*
X104478000Y-86669234D01*
X104438781Y-86522865D01*
X104363015Y-86391635D01*
X104255865Y-86284485D01*
X104190250Y-86246602D01*
X104124636Y-86208719D01*
X104051450Y-86189109D01*
X103978266Y-86169500D01*
X103826734Y-86169500D01*
X103680363Y-86208719D01*
X103549135Y-86284485D01*
X103549132Y-86284487D01*
X103441987Y-86391632D01*
X103441985Y-86391635D01*
X103366219Y-86522863D01*
X103327000Y-86669234D01*
X103327000Y-86820765D01*
X103366219Y-86967136D01*
X103379695Y-86990476D01*
X103441985Y-87098365D01*
X103441986Y-87098366D01*
X103446049Y-87105403D01*
X103443720Y-87106747D01*
X103464145Y-87159584D01*
X103450103Y-87228029D01*
X103401287Y-87278016D01*
X103388028Y-87284456D01*
X103378594Y-87288363D01*
X103378579Y-87288371D01*
X103214718Y-87397860D01*
X103214714Y-87397863D01*
X103075363Y-87537214D01*
X103075360Y-87537218D01*
X102965871Y-87701079D01*
X102965864Y-87701092D01*
X102890450Y-87883160D01*
X102890447Y-87883170D01*
X102852000Y-88076456D01*
X102852000Y-88076459D01*
X102852000Y-88273541D01*
X102852000Y-88273543D01*
X102851999Y-88273543D01*
X101523000Y-88273543D01*
X101523000Y-88273541D01*
X101523000Y-88076459D01*
X101523000Y-88076456D01*
X101484552Y-87883170D01*
X101484551Y-87883169D01*
X101484551Y-87883165D01*
X101484549Y-87883160D01*
X101409135Y-87701092D01*
X101409128Y-87701079D01*
X101299639Y-87537218D01*
X101299636Y-87537214D01*
X101160285Y-87397863D01*
X101160281Y-87397860D01*
X100996420Y-87288371D01*
X100996407Y-87288364D01*
X100814339Y-87212950D01*
X100814329Y-87212947D01*
X100621043Y-87174500D01*
X100621041Y-87174500D01*
X99823959Y-87174500D01*
X99823957Y-87174500D01*
X99630670Y-87212947D01*
X99630660Y-87212950D01*
X99448592Y-87288364D01*
X99448579Y-87288371D01*
X99284718Y-87397860D01*
X99284714Y-87397863D01*
X99212181Y-87470397D01*
X99150858Y-87503882D01*
X99081166Y-87498898D01*
X99025233Y-87457026D01*
X99000816Y-87391562D01*
X99000500Y-87382716D01*
X99000500Y-80327284D01*
X99020185Y-80260245D01*
X99072989Y-80214490D01*
X99142147Y-80204546D01*
X99205703Y-80233571D01*
X99212181Y-80239603D01*
X99284714Y-80312136D01*
X99284718Y-80312139D01*
X99448579Y-80421628D01*
X99448592Y-80421635D01*
X99630660Y-80497049D01*
X99630665Y-80497051D01*
X99630669Y-80497051D01*
X99630670Y-80497052D01*
X99823956Y-80535500D01*
X99823959Y-80535500D01*
X100621043Y-80535500D01*
X100776962Y-80504485D01*
X100814335Y-80497051D01*
X100996414Y-80421632D01*
X101160282Y-80312139D01*
X101299639Y-80172782D01*
X101409132Y-80008914D01*
X101484551Y-79826835D01*
X101523000Y-79633543D01*
X102851999Y-79633543D01*
X102890447Y-79826829D01*
X102890450Y-79826839D01*
X102965864Y-80008907D01*
X102965871Y-80008920D01*
X103075360Y-80172781D01*
X103075363Y-80172785D01*
X103214714Y-80312136D01*
X103214718Y-80312139D01*
X103378579Y-80421628D01*
X103378583Y-80421630D01*
X103378586Y-80421632D01*
X103388023Y-80425541D01*
X103442427Y-80469378D01*
X103464495Y-80535672D01*
X103447219Y-80603372D01*
X103444065Y-80608032D01*
X103366219Y-80742863D01*
X103327000Y-80889234D01*
X103327000Y-81040765D01*
X103366219Y-81187136D01*
X103404102Y-81252750D01*
X103441985Y-81318365D01*
X103549135Y-81425515D01*
X103680365Y-81501281D01*
X103826734Y-81540500D01*
X103826736Y-81540500D01*
X103978264Y-81540500D01*
X103978266Y-81540500D01*
X104124635Y-81501281D01*
X104255865Y-81425515D01*
X104363015Y-81318365D01*
X104438781Y-81187135D01*
X104478000Y-81040766D01*
X104478000Y-80889234D01*
X104438781Y-80742865D01*
X104438778Y-80742859D01*
X104426447Y-80721501D01*
X104409973Y-80653602D01*
X104432825Y-80587574D01*
X104487745Y-80544383D01*
X104533833Y-80535500D01*
X105051043Y-80535500D01*
X105206962Y-80504485D01*
X105244335Y-80497051D01*
X105426414Y-80421632D01*
X105590282Y-80312139D01*
X105729639Y-80172782D01*
X105839132Y-80008914D01*
X105914551Y-79826835D01*
X105953000Y-79633541D01*
X105953000Y-79436459D01*
X105953000Y-79436456D01*
X105914552Y-79243170D01*
X105914551Y-79243169D01*
X105914551Y-79243165D01*
X105865878Y-79125656D01*
X105839135Y-79061092D01*
X105839128Y-79061079D01*
X105729639Y-78897218D01*
X105729636Y-78897214D01*
X105590285Y-78757863D01*
X105590281Y-78757860D01*
X105551661Y-78732055D01*
X109914922Y-78732055D01*
X109914922Y-78732056D01*
X109935219Y-79119343D01*
X109995886Y-79502379D01*
X109995887Y-79502386D01*
X110096262Y-79876992D01*
X110235244Y-80239050D01*
X110411310Y-80584599D01*
X110622531Y-80909849D01*
X110831095Y-81167406D01*
X110831096Y-81167406D01*
X112325748Y-79672754D01*
X112399588Y-79774386D01*
X112577670Y-79952468D01*
X112679300Y-80026307D01*
X111184648Y-81520959D01*
X111184649Y-81520960D01*
X111442206Y-81729524D01*
X111767456Y-81940745D01*
X112113005Y-82116811D01*
X112475063Y-82255793D01*
X112612895Y-82292725D01*
X112672556Y-82329090D01*
X112703085Y-82391937D01*
X112694790Y-82461312D01*
X112650305Y-82515190D01*
X112583753Y-82536465D01*
X112580802Y-82536500D01*
X112059940Y-82536500D01*
X111992901Y-82516815D01*
X111972259Y-82500181D01*
X111942262Y-82470184D01*
X111789523Y-82374211D01*
X111619254Y-82314631D01*
X111619249Y-82314630D01*
X111440004Y-82294435D01*
X111439996Y-82294435D01*
X111260750Y-82314630D01*
X111260745Y-82314631D01*
X111090476Y-82374211D01*
X110937737Y-82470184D01*
X110810184Y-82597737D01*
X110714211Y-82750476D01*
X110654631Y-82920745D01*
X110654630Y-82920750D01*
X110634435Y-83099996D01*
X110634435Y-83100003D01*
X110654630Y-83279249D01*
X110654631Y-83279254D01*
X110714211Y-83449523D01*
X110810184Y-83602262D01*
X110937738Y-83729816D01*
X111090478Y-83825789D01*
X111260745Y-83885368D01*
X111316383Y-83891636D01*
X111380795Y-83918701D01*
X111420352Y-83976294D01*
X111426500Y-84014856D01*
X111426500Y-84068382D01*
X111406815Y-84135421D01*
X111354011Y-84181176D01*
X111316384Y-84191602D01*
X111200749Y-84204630D01*
X111200745Y-84204631D01*
X111030476Y-84264211D01*
X110877737Y-84360184D01*
X110750184Y-84487737D01*
X110654211Y-84640476D01*
X110594631Y-84810745D01*
X110594630Y-84810750D01*
X110574435Y-84989996D01*
X110574435Y-84990003D01*
X110594630Y-85169249D01*
X110594631Y-85169254D01*
X110654211Y-85339523D01*
X110727919Y-85456827D01*
X110750184Y-85492262D01*
X110877738Y-85619816D01*
X111030478Y-85715789D01*
X111067213Y-85728643D01*
X111200745Y-85775368D01*
X111200750Y-85775369D01*
X111379996Y-85795565D01*
X111380000Y-85795565D01*
X111380004Y-85795565D01*
X111559249Y-85775369D01*
X111559252Y-85775368D01*
X111559255Y-85775368D01*
X111729522Y-85715789D01*
X111882262Y-85619816D01*
X111948652Y-85553424D01*
X112004244Y-85521329D01*
X112027503Y-85515098D01*
X112155997Y-85440912D01*
X112440912Y-85155998D01*
X112515098Y-85027503D01*
X112542775Y-84924211D01*
X112553500Y-84884186D01*
X112553500Y-84113500D01*
X112573185Y-84046461D01*
X112625989Y-84000706D01*
X112677500Y-83989500D01*
X124236157Y-83989500D01*
X124303196Y-84009185D01*
X124348951Y-84061989D01*
X124359377Y-84127384D01*
X124344435Y-84259997D01*
X124344435Y-84260003D01*
X124364630Y-84439249D01*
X124364631Y-84439254D01*
X124424211Y-84609523D01*
X124505895Y-84739522D01*
X124520184Y-84762262D01*
X124647738Y-84889816D01*
X124800478Y-84985789D01*
X124910133Y-85024159D01*
X124970745Y-85045368D01*
X124970750Y-85045369D01*
X125149996Y-85065565D01*
X125150000Y-85065565D01*
X125150004Y-85065565D01*
X125329249Y-85045369D01*
X125329252Y-85045368D01*
X125329255Y-85045368D01*
X125499522Y-84985789D01*
X125652262Y-84889816D01*
X125779816Y-84762262D01*
X125875789Y-84609522D01*
X125913204Y-84502595D01*
X125953924Y-84445820D01*
X126018876Y-84420072D01*
X126087438Y-84433528D01*
X126117926Y-84455869D01*
X126274181Y-84612124D01*
X126307666Y-84673447D01*
X126310500Y-84699805D01*
X126310500Y-88890848D01*
X126310500Y-89039220D01*
X126348902Y-89182537D01*
X126348903Y-89182540D01*
X126401047Y-89272855D01*
X126423088Y-89311031D01*
X127384054Y-90271997D01*
X127488969Y-90376912D01*
X127579287Y-90429057D01*
X127617459Y-90451096D01*
X127617460Y-90451096D01*
X127617463Y-90451098D01*
X127760780Y-90489500D01*
X143120195Y-90489500D01*
X143187234Y-90509185D01*
X143207876Y-90525819D01*
X143434181Y-90752124D01*
X143467666Y-90813447D01*
X143470500Y-90839805D01*
X143470500Y-91296615D01*
X143450815Y-91363654D01*
X143398011Y-91409409D01*
X143328853Y-91419353D01*
X143305548Y-91413658D01*
X143280526Y-91404903D01*
X143280519Y-91404901D01*
X143101274Y-91384706D01*
X143101266Y-91384706D01*
X142922020Y-91404901D01*
X142922015Y-91404902D01*
X142751746Y-91464482D01*
X142599007Y-91560455D01*
X142471454Y-91688008D01*
X142375481Y-91840747D01*
X142315901Y-92011016D01*
X142315900Y-92011020D01*
X142308716Y-92074787D01*
X142281649Y-92139201D01*
X142224054Y-92178756D01*
X142154217Y-92180893D01*
X142119524Y-92165897D01*
X141989522Y-92084211D01*
X141819254Y-92024631D01*
X141819249Y-92024630D01*
X141640004Y-92004435D01*
X141639996Y-92004435D01*
X141460750Y-92024630D01*
X141460745Y-92024631D01*
X141290476Y-92084211D01*
X141137737Y-92180184D01*
X141010184Y-92307737D01*
X140914211Y-92460476D01*
X140854631Y-92630745D01*
X140854630Y-92630750D01*
X140834435Y-92809996D01*
X140834435Y-92810004D01*
X140839912Y-92858617D01*
X140827857Y-92927439D01*
X140780508Y-92978818D01*
X140716692Y-92996500D01*
X125975819Y-92996500D01*
X125913819Y-92979887D01*
X125830709Y-92931903D01*
X125830710Y-92931903D01*
X125814050Y-92927439D01*
X125687389Y-92893500D01*
X125687386Y-92893500D01*
X124701771Y-92893500D01*
X124634732Y-92873815D01*
X124614090Y-92857181D01*
X124534674Y-92777765D01*
X124501189Y-92716442D01*
X124506173Y-92646750D01*
X124534671Y-92602406D01*
X124559816Y-92577262D01*
X124655789Y-92424522D01*
X124715368Y-92254255D01*
X124716401Y-92245087D01*
X124735565Y-92075003D01*
X124735565Y-92074996D01*
X124715369Y-91895750D01*
X124715368Y-91895745D01*
X124661858Y-91742822D01*
X124655789Y-91725478D01*
X124559816Y-91572738D01*
X124432262Y-91445184D01*
X124279523Y-91349211D01*
X124109254Y-91289631D01*
X124109249Y-91289630D01*
X123930004Y-91269435D01*
X123929996Y-91269435D01*
X123750750Y-91289630D01*
X123750745Y-91289631D01*
X123580476Y-91349211D01*
X123427737Y-91445184D01*
X123300184Y-91572737D01*
X123204211Y-91725476D01*
X123144631Y-91895745D01*
X123144630Y-91895750D01*
X123124435Y-92074996D01*
X123124435Y-92075003D01*
X123144630Y-92254249D01*
X123144631Y-92254254D01*
X123204211Y-92424523D01*
X123300184Y-92577262D01*
X123330181Y-92607259D01*
X123363666Y-92668582D01*
X123366500Y-92694940D01*
X123366500Y-92895814D01*
X123366500Y-93044186D01*
X123404902Y-93187503D01*
X123404903Y-93187506D01*
X123416366Y-93207360D01*
X123479088Y-93315997D01*
X124071003Y-93907912D01*
X124161321Y-93960057D01*
X124199493Y-93982096D01*
X124199494Y-93982096D01*
X124199497Y-93982098D01*
X124342814Y-94020500D01*
X124463678Y-94020500D01*
X124530717Y-94040185D01*
X124576472Y-94092989D01*
X124586898Y-94130617D01*
X124594630Y-94199249D01*
X124654210Y-94369521D01*
X124721380Y-94476421D01*
X124750184Y-94522262D01*
X124877738Y-94649816D01*
X125030478Y-94745789D01*
X125200745Y-94805368D01*
X125200750Y-94805369D01*
X125379996Y-94825565D01*
X125380000Y-94825565D01*
X125380004Y-94825565D01*
X125559249Y-94805369D01*
X125559252Y-94805368D01*
X125559255Y-94805368D01*
X125729522Y-94745789D01*
X125882262Y-94649816D01*
X125922259Y-94609819D01*
X125983582Y-94576334D01*
X126009940Y-94573500D01*
X142404183Y-94573500D01*
X142404186Y-94573500D01*
X142547503Y-94535098D01*
X142675997Y-94460912D01*
X143552182Y-93584728D01*
X143626368Y-93456233D01*
X143664770Y-93312916D01*
X143664770Y-93104065D01*
X143684455Y-93037026D01*
X143737259Y-92991271D01*
X143802653Y-92980845D01*
X143901259Y-92991955D01*
X143901263Y-92991955D01*
X143901267Y-92991955D01*
X144080512Y-92971759D01*
X144080515Y-92971758D01*
X144080518Y-92971758D01*
X144080519Y-92971757D01*
X144080522Y-92971757D01*
X144116329Y-92959226D01*
X144197884Y-92930689D01*
X144267660Y-92927127D01*
X144304810Y-92942738D01*
X144349584Y-92970872D01*
X144519854Y-93030452D01*
X144519859Y-93030453D01*
X144699105Y-93050649D01*
X144699109Y-93050649D01*
X144699113Y-93050649D01*
X144878358Y-93030453D01*
X144878361Y-93030452D01*
X144878364Y-93030452D01*
X145048631Y-92970873D01*
X145201371Y-92874900D01*
X145328925Y-92747346D01*
X145424898Y-92594606D01*
X145484477Y-92424339D01*
X145484478Y-92424333D01*
X145504674Y-92245087D01*
X145504674Y-92245080D01*
X145488890Y-92104996D01*
X156524435Y-92104996D01*
X156524435Y-92105003D01*
X156544630Y-92284249D01*
X156544631Y-92284254D01*
X156604211Y-92454523D01*
X156698550Y-92604662D01*
X156700184Y-92607262D01*
X156827738Y-92734816D01*
X156896091Y-92777765D01*
X156947392Y-92810000D01*
X156980478Y-92830789D01*
X157055902Y-92857181D01*
X157150745Y-92890368D01*
X157150750Y-92890369D01*
X157329996Y-92910565D01*
X157330000Y-92910565D01*
X157330004Y-92910565D01*
X157509249Y-92890369D01*
X157509252Y-92890368D01*
X157509255Y-92890368D01*
X157679522Y-92830789D01*
X157832262Y-92734816D01*
X157959816Y-92607262D01*
X158055789Y-92454522D01*
X158115368Y-92284255D01*
X158118748Y-92254255D01*
X158135565Y-92105003D01*
X158135565Y-92104996D01*
X158115369Y-91925750D01*
X158115368Y-91925745D01*
X158104872Y-91895750D01*
X158055789Y-91755478D01*
X158036937Y-91725476D01*
X157959815Y-91602737D01*
X157832262Y-91475184D01*
X157679523Y-91379211D01*
X157509254Y-91319631D01*
X157509249Y-91319630D01*
X157330004Y-91299435D01*
X157329996Y-91299435D01*
X157150750Y-91319630D01*
X157150745Y-91319631D01*
X156980476Y-91379211D01*
X156827737Y-91475184D01*
X156700184Y-91602737D01*
X156604211Y-91755476D01*
X156544631Y-91925745D01*
X156544630Y-91925750D01*
X156524435Y-92104996D01*
X145488890Y-92104996D01*
X145484478Y-92065834D01*
X145484477Y-92065829D01*
X145424898Y-91895562D01*
X145328925Y-91742822D01*
X145201371Y-91615268D01*
X145133685Y-91572738D01*
X145048633Y-91519296D01*
X145048632Y-91519295D01*
X145006544Y-91504568D01*
X144949769Y-91463846D01*
X144924022Y-91398893D01*
X144923500Y-91387527D01*
X144923500Y-90345816D01*
X144923500Y-90345814D01*
X144885098Y-90202497D01*
X144810912Y-90074003D01*
X144705997Y-89969088D01*
X143885997Y-89149088D01*
X143847821Y-89127047D01*
X143757506Y-89074903D01*
X143757507Y-89074903D01*
X143745754Y-89071753D01*
X143614186Y-89036500D01*
X143614183Y-89036500D01*
X142392744Y-89036500D01*
X142325705Y-89016815D01*
X142279950Y-88964011D01*
X142269524Y-88926383D01*
X142255369Y-88800750D01*
X142255368Y-88800745D01*
X142202240Y-88648914D01*
X142195789Y-88630478D01*
X142189676Y-88620750D01*
X142142223Y-88545228D01*
X142099816Y-88477738D01*
X141972262Y-88350184D01*
X141819523Y-88254211D01*
X141649254Y-88194631D01*
X141649249Y-88194630D01*
X141470004Y-88174435D01*
X141469996Y-88174435D01*
X141290750Y-88194630D01*
X141290745Y-88194631D01*
X141120476Y-88254211D01*
X140967737Y-88350184D01*
X140840184Y-88477737D01*
X140744211Y-88630476D01*
X140684631Y-88800745D01*
X140684630Y-88800750D01*
X140670476Y-88926383D01*
X140643410Y-88990797D01*
X140585815Y-89030352D01*
X140547256Y-89036500D01*
X138549771Y-89036500D01*
X138482732Y-89016815D01*
X138436977Y-88964011D01*
X138427033Y-88894853D01*
X138456058Y-88831297D01*
X138462090Y-88824819D01*
X138683749Y-88603160D01*
X138910912Y-88375997D01*
X138985099Y-88247502D01*
X139023500Y-88104186D01*
X139023500Y-87955814D01*
X139023500Y-86744771D01*
X139043185Y-86677732D01*
X139059819Y-86657090D01*
X139097090Y-86619819D01*
X139158413Y-86586334D01*
X139184771Y-86583500D01*
X147325229Y-86583500D01*
X147392268Y-86603185D01*
X147412910Y-86619819D01*
X147823181Y-87030090D01*
X147856666Y-87091413D01*
X147859500Y-87117771D01*
X147859500Y-88530060D01*
X147839815Y-88597099D01*
X147823181Y-88617741D01*
X147793184Y-88647737D01*
X147697211Y-88800476D01*
X147637631Y-88970745D01*
X147637630Y-88970750D01*
X147617435Y-89149996D01*
X147617435Y-89150003D01*
X147637630Y-89329249D01*
X147637631Y-89329254D01*
X147697211Y-89499523D01*
X147765174Y-89607685D01*
X147793184Y-89652262D01*
X147920738Y-89779816D01*
X148001614Y-89830634D01*
X148034139Y-89851071D01*
X148073478Y-89875789D01*
X148190575Y-89916763D01*
X148243745Y-89935368D01*
X148243750Y-89935369D01*
X148422996Y-89955565D01*
X148423000Y-89955565D01*
X148423004Y-89955565D01*
X148602249Y-89935369D01*
X148602251Y-89935368D01*
X148602255Y-89935368D01*
X148602258Y-89935366D01*
X148602262Y-89935366D01*
X148672892Y-89910651D01*
X148772522Y-89875789D01*
X148783198Y-89869080D01*
X148850432Y-89850077D01*
X148890125Y-89857029D01*
X148966998Y-89883928D01*
X149043360Y-89910649D01*
X149043370Y-89910651D01*
X149222616Y-89930847D01*
X149222620Y-89930847D01*
X149222624Y-89930847D01*
X149401869Y-89910651D01*
X149401871Y-89910650D01*
X149401875Y-89910650D01*
X149401878Y-89910648D01*
X149401882Y-89910648D01*
X149574768Y-89850152D01*
X149644547Y-89846590D01*
X149669525Y-89855473D01*
X149673073Y-89857182D01*
X149673077Y-89857184D01*
X149673080Y-89857185D01*
X149843336Y-89916761D01*
X149843342Y-89916762D01*
X149843344Y-89916763D01*
X149843345Y-89916763D01*
X149843349Y-89916764D01*
X150022595Y-89936960D01*
X150022599Y-89936960D01*
X150022603Y-89936960D01*
X150201848Y-89916764D01*
X150201850Y-89916763D01*
X150201854Y-89916763D01*
X150201857Y-89916761D01*
X150201861Y-89916761D01*
X150252899Y-89898901D01*
X150372121Y-89857184D01*
X150384132Y-89849636D01*
X150451367Y-89830634D01*
X150491062Y-89837587D01*
X150643103Y-89890789D01*
X150643109Y-89890790D01*
X150643111Y-89890791D01*
X150643112Y-89890791D01*
X150643116Y-89890792D01*
X150822362Y-89910988D01*
X150822366Y-89910988D01*
X150822370Y-89910988D01*
X151001615Y-89890792D01*
X151001618Y-89890791D01*
X151001621Y-89890791D01*
X151171888Y-89831212D01*
X151324628Y-89735239D01*
X151452182Y-89607685D01*
X151548155Y-89454945D01*
X151607734Y-89284678D01*
X151619242Y-89182540D01*
X151627931Y-89105426D01*
X151627931Y-89105419D01*
X151607735Y-88926173D01*
X151607734Y-88926168D01*
X151591440Y-88879603D01*
X151548155Y-88755901D01*
X151545868Y-88752262D01*
X151480934Y-88648920D01*
X151452182Y-88603161D01*
X151392646Y-88543625D01*
X151359161Y-88482302D01*
X151356327Y-88455944D01*
X151356327Y-85728643D01*
X151356327Y-85728641D01*
X151317925Y-85585324D01*
X151280978Y-85521329D01*
X151243743Y-85456835D01*
X151243737Y-85456827D01*
X149625999Y-83839090D01*
X149625997Y-83839088D01*
X149497503Y-83764902D01*
X149354186Y-83726500D01*
X137964186Y-83726500D01*
X137815814Y-83726500D01*
X137729823Y-83749541D01*
X137672495Y-83764902D01*
X137672494Y-83764903D01*
X137628712Y-83790181D01*
X137599902Y-83806815D01*
X137594581Y-83809887D01*
X137532581Y-83826500D01*
X136989940Y-83826500D01*
X136922901Y-83806815D01*
X136902259Y-83790181D01*
X136872262Y-83760184D01*
X136719523Y-83664211D01*
X136549254Y-83604631D01*
X136549249Y-83604630D01*
X136370004Y-83584435D01*
X136369996Y-83584435D01*
X136190750Y-83604630D01*
X136190745Y-83604631D01*
X136020476Y-83664211D01*
X135867737Y-83760184D01*
X135740184Y-83887737D01*
X135644211Y-84040476D01*
X135584631Y-84210745D01*
X135584630Y-84210750D01*
X135564435Y-84389996D01*
X135564435Y-84390003D01*
X135584630Y-84569249D01*
X135584631Y-84569254D01*
X135644211Y-84739523D01*
X135740184Y-84892262D01*
X135867740Y-85019818D01*
X135885997Y-85031289D01*
X135932289Y-85083623D01*
X135942938Y-85152676D01*
X135914563Y-85216525D01*
X135892811Y-85235374D01*
X135893184Y-85235841D01*
X135887737Y-85240184D01*
X135760184Y-85367737D01*
X135664211Y-85520476D01*
X135604631Y-85690745D01*
X135604630Y-85690750D01*
X135584435Y-85869996D01*
X135584435Y-85870003D01*
X135604630Y-86049249D01*
X135604631Y-86049254D01*
X135664211Y-86219523D01*
X135745791Y-86349356D01*
X135760184Y-86372262D01*
X135887738Y-86499816D01*
X135934401Y-86529136D01*
X135980692Y-86581471D01*
X135991340Y-86650524D01*
X135962965Y-86714373D01*
X135956111Y-86721811D01*
X135840183Y-86837739D01*
X135744211Y-86990476D01*
X135684631Y-87160745D01*
X135684630Y-87160750D01*
X135664435Y-87339996D01*
X135664435Y-87340003D01*
X135684630Y-87519249D01*
X135684631Y-87519254D01*
X135744211Y-87689523D01*
X135840184Y-87842262D01*
X135967737Y-87969815D01*
X135967740Y-87969817D01*
X135995978Y-87987561D01*
X136042269Y-88039896D01*
X136052916Y-88108950D01*
X136024540Y-88172798D01*
X136017687Y-88180235D01*
X135900183Y-88297739D01*
X135804211Y-88450476D01*
X135744631Y-88620745D01*
X135744630Y-88620750D01*
X135724435Y-88799996D01*
X135724435Y-88800002D01*
X135735546Y-88898616D01*
X135723492Y-88967438D01*
X135676142Y-89018818D01*
X135612326Y-89036500D01*
X128254772Y-89036500D01*
X128187733Y-89016815D01*
X128167091Y-89000181D01*
X127799819Y-88632909D01*
X127766334Y-88571586D01*
X127763500Y-88545228D01*
X127763500Y-84205816D01*
X127763500Y-84205814D01*
X127725098Y-84062497D01*
X127650912Y-83934003D01*
X127545997Y-83829088D01*
X126365997Y-82649088D01*
X126327821Y-82627047D01*
X126237506Y-82574903D01*
X126237507Y-82574903D01*
X126225754Y-82571753D01*
X126094186Y-82536500D01*
X126094183Y-82536500D01*
X114659198Y-82536500D01*
X114592159Y-82516815D01*
X114546404Y-82464011D01*
X114536460Y-82394853D01*
X114565485Y-82331297D01*
X114624263Y-82293523D01*
X114627105Y-82292725D01*
X114764936Y-82255793D01*
X115126994Y-82116811D01*
X115472543Y-81940745D01*
X115797783Y-81729532D01*
X115797785Y-81729531D01*
X116055349Y-81520958D01*
X114560698Y-80026307D01*
X114662330Y-79952468D01*
X114840412Y-79774386D01*
X114914251Y-79672754D01*
X116408902Y-81167405D01*
X116617475Y-80909841D01*
X116617476Y-80909839D01*
X116828689Y-80584599D01*
X117004755Y-80239050D01*
X117143737Y-79876992D01*
X117244112Y-79502386D01*
X117244113Y-79502379D01*
X117304780Y-79119343D01*
X117325078Y-78732056D01*
X117325078Y-78732055D01*
X117304780Y-78344768D01*
X117244113Y-77961732D01*
X117244112Y-77961725D01*
X117143737Y-77587119D01*
X117004755Y-77225061D01*
X116995580Y-77207055D01*
X119329364Y-77207055D01*
X119329364Y-77207056D01*
X120226988Y-77207056D01*
X120194075Y-77264063D01*
X120160000Y-77391230D01*
X120160000Y-77522882D01*
X120194075Y-77650049D01*
X120226988Y-77707056D01*
X119329364Y-77707056D01*
X119386567Y-77920542D01*
X119386570Y-77920548D01*
X119486399Y-78134634D01*
X119621894Y-78328138D01*
X119788917Y-78495161D01*
X119975031Y-78625481D01*
X120018656Y-78680059D01*
X120025848Y-78749557D01*
X119994326Y-78811912D01*
X119975031Y-78828631D01*
X119788922Y-78958946D01*
X119788920Y-78958947D01*
X119621891Y-79125976D01*
X119621886Y-79125982D01*
X119486400Y-79319476D01*
X119486399Y-79319478D01*
X119386570Y-79533563D01*
X119386567Y-79533569D01*
X119329364Y-79747055D01*
X119329364Y-79747056D01*
X120226988Y-79747056D01*
X120194075Y-79804063D01*
X120160000Y-79931230D01*
X120160000Y-80062882D01*
X120194075Y-80190049D01*
X120226988Y-80247056D01*
X119329364Y-80247056D01*
X119386567Y-80460542D01*
X119386570Y-80460548D01*
X119486399Y-80674634D01*
X119621894Y-80868138D01*
X119788917Y-81035161D01*
X119982421Y-81170656D01*
X120196507Y-81270485D01*
X120196516Y-81270489D01*
X120410000Y-81327690D01*
X120410000Y-80430068D01*
X120467007Y-80462981D01*
X120594174Y-80497056D01*
X120725826Y-80497056D01*
X120852993Y-80462981D01*
X120910000Y-80430068D01*
X120910000Y-81327689D01*
X121123483Y-81270489D01*
X121123492Y-81270485D01*
X121337578Y-81170656D01*
X121531082Y-81035161D01*
X121698105Y-80868138D01*
X121828119Y-80682461D01*
X121882696Y-80638837D01*
X121952195Y-80631644D01*
X122014549Y-80663166D01*
X122031269Y-80682461D01*
X122161505Y-80868457D01*
X122328599Y-81035551D01*
X122336047Y-81040766D01*
X122522165Y-81171088D01*
X122522167Y-81171089D01*
X122522170Y-81171091D01*
X122736337Y-81270959D01*
X122964592Y-81332119D01*
X123152918Y-81348595D01*
X123199999Y-81352715D01*
X123200000Y-81352715D01*
X123200001Y-81352715D01*
X123239234Y-81349282D01*
X123435408Y-81332119D01*
X123663663Y-81270959D01*
X123877830Y-81171091D01*
X124071401Y-81035551D01*
X124238495Y-80868457D01*
X124368425Y-80682898D01*
X124423002Y-80639273D01*
X124492500Y-80632079D01*
X124554855Y-80663602D01*
X124571575Y-80682898D01*
X124701500Y-80868451D01*
X124701505Y-80868457D01*
X124868599Y-81035551D01*
X124876047Y-81040766D01*
X125062165Y-81171088D01*
X125062167Y-81171089D01*
X125062170Y-81171091D01*
X125276337Y-81270959D01*
X125504592Y-81332119D01*
X125692918Y-81348595D01*
X125739999Y-81352715D01*
X125740000Y-81352715D01*
X125740001Y-81352715D01*
X125779234Y-81349282D01*
X125975408Y-81332119D01*
X126203663Y-81270959D01*
X126417830Y-81171091D01*
X126611401Y-81035551D01*
X126778495Y-80868457D01*
X126908425Y-80682898D01*
X126963002Y-80639273D01*
X127032500Y-80632079D01*
X127094855Y-80663602D01*
X127111575Y-80682898D01*
X127241500Y-80868451D01*
X127241505Y-80868457D01*
X127408599Y-81035551D01*
X127416047Y-81040766D01*
X127602165Y-81171088D01*
X127602167Y-81171089D01*
X127602170Y-81171091D01*
X127816337Y-81270959D01*
X128044592Y-81332119D01*
X128232918Y-81348595D01*
X128279999Y-81352715D01*
X128280000Y-81352715D01*
X128280001Y-81352715D01*
X128319234Y-81349282D01*
X128515408Y-81332119D01*
X128743663Y-81270959D01*
X128957830Y-81171091D01*
X129151401Y-81035551D01*
X129318495Y-80868457D01*
X129448425Y-80682898D01*
X129503002Y-80639273D01*
X129572500Y-80632079D01*
X129634855Y-80663602D01*
X129651575Y-80682898D01*
X129781500Y-80868451D01*
X129781505Y-80868457D01*
X129948599Y-81035551D01*
X129956047Y-81040766D01*
X130142165Y-81171088D01*
X130142167Y-81171089D01*
X130142170Y-81171091D01*
X130356337Y-81270959D01*
X130584592Y-81332119D01*
X130772918Y-81348595D01*
X130819999Y-81352715D01*
X130820000Y-81352715D01*
X130820001Y-81352715D01*
X130859234Y-81349282D01*
X131055408Y-81332119D01*
X131283663Y-81270959D01*
X131497830Y-81171091D01*
X131691401Y-81035551D01*
X131858495Y-80868457D01*
X131988425Y-80682898D01*
X132043002Y-80639273D01*
X132112500Y-80632079D01*
X132174855Y-80663602D01*
X132191575Y-80682898D01*
X132321500Y-80868451D01*
X132321505Y-80868457D01*
X132488599Y-81035551D01*
X132496047Y-81040766D01*
X132682165Y-81171088D01*
X132682167Y-81171089D01*
X132682170Y-81171091D01*
X132896337Y-81270959D01*
X133124592Y-81332119D01*
X133312918Y-81348595D01*
X133359999Y-81352715D01*
X133360000Y-81352715D01*
X133360001Y-81352715D01*
X133399234Y-81349282D01*
X133595408Y-81332119D01*
X133823663Y-81270959D01*
X134037830Y-81171091D01*
X134231401Y-81035551D01*
X134398495Y-80868457D01*
X134528425Y-80682898D01*
X134583002Y-80639273D01*
X134652500Y-80632079D01*
X134714855Y-80663602D01*
X134731575Y-80682898D01*
X134861500Y-80868451D01*
X134861505Y-80868457D01*
X135028599Y-81035551D01*
X135036047Y-81040766D01*
X135222165Y-81171088D01*
X135222167Y-81171089D01*
X135222170Y-81171091D01*
X135436337Y-81270959D01*
X135664592Y-81332119D01*
X135852918Y-81348595D01*
X135899999Y-81352715D01*
X135900000Y-81352715D01*
X135900001Y-81352715D01*
X135939234Y-81349282D01*
X136135408Y-81332119D01*
X136363663Y-81270959D01*
X136577830Y-81171091D01*
X136771401Y-81035551D01*
X136938495Y-80868457D01*
X137068425Y-80682898D01*
X137123002Y-80639273D01*
X137192500Y-80632079D01*
X137254855Y-80663602D01*
X137271575Y-80682898D01*
X137401500Y-80868451D01*
X137401505Y-80868457D01*
X137568599Y-81035551D01*
X137576047Y-81040766D01*
X137762165Y-81171088D01*
X137762167Y-81171089D01*
X137762170Y-81171091D01*
X137976337Y-81270959D01*
X138204592Y-81332119D01*
X138392918Y-81348595D01*
X138439999Y-81352715D01*
X138440000Y-81352715D01*
X138440001Y-81352715D01*
X138479234Y-81349282D01*
X138675408Y-81332119D01*
X138903663Y-81270959D01*
X139117830Y-81171091D01*
X139311401Y-81035551D01*
X139478495Y-80868457D01*
X139608425Y-80682898D01*
X139663002Y-80639273D01*
X139732500Y-80632079D01*
X139794855Y-80663602D01*
X139811575Y-80682898D01*
X139941500Y-80868451D01*
X139941505Y-80868457D01*
X140108599Y-81035551D01*
X140116047Y-81040766D01*
X140302165Y-81171088D01*
X140302167Y-81171089D01*
X140302170Y-81171091D01*
X140516337Y-81270959D01*
X140744592Y-81332119D01*
X140932918Y-81348595D01*
X140979999Y-81352715D01*
X140980000Y-81352715D01*
X140980001Y-81352715D01*
X141019234Y-81349282D01*
X141215408Y-81332119D01*
X141443663Y-81270959D01*
X141657830Y-81171091D01*
X141851401Y-81035551D01*
X142018495Y-80868457D01*
X142148730Y-80682461D01*
X142203307Y-80638837D01*
X142272805Y-80631643D01*
X142335160Y-80663166D01*
X142351879Y-80682461D01*
X142481890Y-80868134D01*
X142648917Y-81035161D01*
X142842421Y-81170656D01*
X143056507Y-81270485D01*
X143056516Y-81270489D01*
X143270000Y-81327690D01*
X143270000Y-80430068D01*
X143327007Y-80462981D01*
X143454174Y-80497056D01*
X143585826Y-80497056D01*
X143712993Y-80462981D01*
X143770000Y-80430068D01*
X143770000Y-81327689D01*
X143983483Y-81270489D01*
X143983492Y-81270485D01*
X144197578Y-81170656D01*
X144391082Y-81035161D01*
X144558105Y-80868138D01*
X144688425Y-80682024D01*
X144743002Y-80638400D01*
X144812501Y-80631207D01*
X144874855Y-80662729D01*
X144891575Y-80682024D01*
X145021894Y-80868138D01*
X145188917Y-81035161D01*
X145382421Y-81170656D01*
X145596507Y-81270485D01*
X145596516Y-81270489D01*
X145810000Y-81327690D01*
X145810000Y-80430068D01*
X145867007Y-80462981D01*
X145994174Y-80497056D01*
X146125826Y-80497056D01*
X146252993Y-80462981D01*
X146310000Y-80430068D01*
X146310000Y-81327689D01*
X146523483Y-81270489D01*
X146523492Y-81270485D01*
X146737578Y-81170656D01*
X146931082Y-81035161D01*
X147098105Y-80868138D01*
X147228119Y-80682461D01*
X147282696Y-80638837D01*
X147352195Y-80631644D01*
X147414549Y-80663166D01*
X147431269Y-80682461D01*
X147561505Y-80868457D01*
X147728599Y-81035551D01*
X147736047Y-81040766D01*
X147922165Y-81171088D01*
X147922167Y-81171089D01*
X147922170Y-81171091D01*
X148136337Y-81270959D01*
X148364592Y-81332119D01*
X148552918Y-81348595D01*
X148599999Y-81352715D01*
X148600000Y-81352715D01*
X148600001Y-81352715D01*
X148639234Y-81349282D01*
X148835408Y-81332119D01*
X149063663Y-81270959D01*
X149277830Y-81171091D01*
X149471401Y-81035551D01*
X149638495Y-80868457D01*
X149768425Y-80682898D01*
X149823002Y-80639273D01*
X149892500Y-80632079D01*
X149954855Y-80663602D01*
X149971575Y-80682898D01*
X150101500Y-80868451D01*
X150101505Y-80868457D01*
X150268599Y-81035551D01*
X150276047Y-81040766D01*
X150462165Y-81171088D01*
X150462167Y-81171089D01*
X150462170Y-81171091D01*
X150676337Y-81270959D01*
X150904592Y-81332119D01*
X151092918Y-81348595D01*
X151139999Y-81352715D01*
X151140000Y-81352715D01*
X151140001Y-81352715D01*
X151179234Y-81349282D01*
X151375408Y-81332119D01*
X151603663Y-81270959D01*
X151817830Y-81171091D01*
X152011401Y-81035551D01*
X152178495Y-80868457D01*
X152308425Y-80682898D01*
X152363002Y-80639273D01*
X152432500Y-80632079D01*
X152494855Y-80663602D01*
X152511575Y-80682898D01*
X152641500Y-80868451D01*
X152641505Y-80868457D01*
X152808599Y-81035551D01*
X152816047Y-81040766D01*
X153002165Y-81171088D01*
X153002167Y-81171089D01*
X153002170Y-81171091D01*
X153216337Y-81270959D01*
X153444592Y-81332119D01*
X153632918Y-81348595D01*
X153679999Y-81352715D01*
X153680000Y-81352715D01*
X153680001Y-81352715D01*
X153719234Y-81349282D01*
X153915408Y-81332119D01*
X154143663Y-81270959D01*
X154357830Y-81171091D01*
X154551401Y-81035551D01*
X154718495Y-80868457D01*
X154848425Y-80682898D01*
X154903002Y-80639273D01*
X154972500Y-80632079D01*
X155034855Y-80663602D01*
X155051575Y-80682898D01*
X155181500Y-80868451D01*
X155181505Y-80868457D01*
X155348599Y-81035551D01*
X155356047Y-81040766D01*
X155542165Y-81171088D01*
X155542167Y-81171089D01*
X155542170Y-81171091D01*
X155756337Y-81270959D01*
X155984592Y-81332119D01*
X156172918Y-81348595D01*
X156219999Y-81352715D01*
X156220000Y-81352715D01*
X156220001Y-81352715D01*
X156259234Y-81349282D01*
X156455408Y-81332119D01*
X156683663Y-81270959D01*
X156897830Y-81171091D01*
X157091401Y-81035551D01*
X157258495Y-80868457D01*
X157388425Y-80682898D01*
X157443002Y-80639273D01*
X157512500Y-80632079D01*
X157574855Y-80663602D01*
X157591575Y-80682898D01*
X157721500Y-80868451D01*
X157721505Y-80868457D01*
X157888599Y-81035551D01*
X157896047Y-81040766D01*
X158082165Y-81171088D01*
X158082167Y-81171089D01*
X158082170Y-81171091D01*
X158296337Y-81270959D01*
X158524592Y-81332119D01*
X158712918Y-81348595D01*
X158759999Y-81352715D01*
X158760000Y-81352715D01*
X158760001Y-81352715D01*
X158799234Y-81349282D01*
X158995408Y-81332119D01*
X159223663Y-81270959D01*
X159437830Y-81171091D01*
X159631401Y-81035551D01*
X159798495Y-80868457D01*
X159928425Y-80682898D01*
X159983002Y-80639273D01*
X160052500Y-80632079D01*
X160114855Y-80663602D01*
X160131575Y-80682898D01*
X160261500Y-80868451D01*
X160261505Y-80868457D01*
X160428599Y-81035551D01*
X160436047Y-81040766D01*
X160622165Y-81171088D01*
X160622167Y-81171089D01*
X160622170Y-81171091D01*
X160836337Y-81270959D01*
X161064592Y-81332119D01*
X161252918Y-81348595D01*
X161299999Y-81352715D01*
X161300000Y-81352715D01*
X161300001Y-81352715D01*
X161339234Y-81349282D01*
X161535408Y-81332119D01*
X161763663Y-81270959D01*
X161977830Y-81171091D01*
X162171401Y-81035551D01*
X162338495Y-80868457D01*
X162468425Y-80682898D01*
X162523002Y-80639273D01*
X162592500Y-80632079D01*
X162654855Y-80663602D01*
X162671575Y-80682898D01*
X162801500Y-80868451D01*
X162801505Y-80868457D01*
X162968599Y-81035551D01*
X162976047Y-81040766D01*
X163162165Y-81171088D01*
X163162167Y-81171089D01*
X163162170Y-81171091D01*
X163376337Y-81270959D01*
X163604592Y-81332119D01*
X163792918Y-81348595D01*
X163839999Y-81352715D01*
X163840000Y-81352715D01*
X163840001Y-81352715D01*
X163879234Y-81349282D01*
X164075408Y-81332119D01*
X164303663Y-81270959D01*
X164517830Y-81171091D01*
X164711401Y-81035551D01*
X164878495Y-80868457D01*
X165008425Y-80682898D01*
X165063002Y-80639273D01*
X165132500Y-80632079D01*
X165194855Y-80663602D01*
X165211575Y-80682898D01*
X165341500Y-80868451D01*
X165341505Y-80868457D01*
X165508599Y-81035551D01*
X165516047Y-81040766D01*
X165702165Y-81171088D01*
X165702167Y-81171089D01*
X165702170Y-81171091D01*
X165916337Y-81270959D01*
X166144592Y-81332119D01*
X166332918Y-81348595D01*
X166379999Y-81352715D01*
X166380000Y-81352715D01*
X166380001Y-81352715D01*
X166419234Y-81349282D01*
X166615408Y-81332119D01*
X166843663Y-81270959D01*
X167057830Y-81171091D01*
X167251401Y-81035551D01*
X167418495Y-80868457D01*
X167548425Y-80682898D01*
X167603002Y-80639273D01*
X167672500Y-80632079D01*
X167734855Y-80663602D01*
X167751575Y-80682898D01*
X167881500Y-80868451D01*
X167881505Y-80868457D01*
X168048599Y-81035551D01*
X168056047Y-81040766D01*
X168242165Y-81171088D01*
X168242167Y-81171089D01*
X168242170Y-81171091D01*
X168456337Y-81270959D01*
X168684592Y-81332119D01*
X168872918Y-81348595D01*
X168919999Y-81352715D01*
X168920000Y-81352715D01*
X168920001Y-81352715D01*
X168959234Y-81349282D01*
X169155408Y-81332119D01*
X169383663Y-81270959D01*
X169597830Y-81171091D01*
X169791401Y-81035551D01*
X169958495Y-80868457D01*
X170094035Y-80674886D01*
X170193903Y-80460719D01*
X170255063Y-80232464D01*
X170275659Y-79997056D01*
X170255063Y-79761648D01*
X170193903Y-79533393D01*
X170094035Y-79319227D01*
X170088730Y-79311651D01*
X169958496Y-79125656D01*
X169918449Y-79085609D01*
X169836179Y-79003339D01*
X169802696Y-78942019D01*
X169807680Y-78872327D01*
X169849551Y-78816393D01*
X169880529Y-78799478D01*
X170012086Y-78750410D01*
X170012093Y-78750406D01*
X170036607Y-78732055D01*
X171694922Y-78732055D01*
X171694922Y-78732056D01*
X171715219Y-79119343D01*
X171775886Y-79502379D01*
X171775887Y-79502386D01*
X171876262Y-79876992D01*
X172015244Y-80239050D01*
X172191310Y-80584599D01*
X172402531Y-80909849D01*
X172611095Y-81167406D01*
X172611096Y-81167406D01*
X174105748Y-79672754D01*
X174179588Y-79774386D01*
X174357670Y-79952468D01*
X174459300Y-80026307D01*
X172964648Y-81520959D01*
X172964649Y-81520960D01*
X173222206Y-81729524D01*
X173547456Y-81940745D01*
X173893005Y-82116811D01*
X174255063Y-82255793D01*
X174629669Y-82356168D01*
X174629676Y-82356169D01*
X175012712Y-82416836D01*
X175399999Y-82437134D01*
X175400001Y-82437134D01*
X175787287Y-82416836D01*
X176170323Y-82356169D01*
X176170330Y-82356168D01*
X176544936Y-82255793D01*
X176906994Y-82116811D01*
X177252543Y-81940745D01*
X177577783Y-81729532D01*
X177577785Y-81729531D01*
X177835349Y-81520958D01*
X176340698Y-80026307D01*
X176442330Y-79952468D01*
X176620412Y-79774386D01*
X176694251Y-79672754D01*
X178188902Y-81167405D01*
X178397475Y-80909841D01*
X178397476Y-80909839D01*
X178608689Y-80584599D01*
X178784755Y-80239050D01*
X178923737Y-79876992D01*
X179024112Y-79502386D01*
X179024113Y-79502379D01*
X179084780Y-79119343D01*
X179105078Y-78732056D01*
X179105078Y-78732055D01*
X179084780Y-78344768D01*
X179024113Y-77961732D01*
X179024112Y-77961725D01*
X178923737Y-77587119D01*
X178784755Y-77225061D01*
X178608689Y-76879512D01*
X178397468Y-76554262D01*
X178188904Y-76296705D01*
X178188903Y-76296704D01*
X176694251Y-77791356D01*
X176620412Y-77689726D01*
X176442330Y-77511644D01*
X176340698Y-77437804D01*
X177835350Y-75943152D01*
X177835350Y-75943151D01*
X177577793Y-75734587D01*
X177252543Y-75523366D01*
X176906994Y-75347300D01*
X176544936Y-75208318D01*
X176170330Y-75107943D01*
X176170323Y-75107942D01*
X175787287Y-75047275D01*
X175400001Y-75026978D01*
X175399999Y-75026978D01*
X175012712Y-75047275D01*
X174629676Y-75107942D01*
X174629669Y-75107943D01*
X174255063Y-75208318D01*
X173893005Y-75347300D01*
X173547456Y-75523366D01*
X173222206Y-75734587D01*
X172964648Y-75943151D01*
X172964648Y-75943152D01*
X174459301Y-77437804D01*
X174357670Y-77511644D01*
X174179588Y-77689726D01*
X174105748Y-77791356D01*
X172611096Y-76296704D01*
X172611095Y-76296704D01*
X172402531Y-76554262D01*
X172191310Y-76879512D01*
X172015244Y-77225061D01*
X171876262Y-77587119D01*
X171775887Y-77961725D01*
X171775886Y-77961732D01*
X171715219Y-78344768D01*
X171694922Y-78732055D01*
X170036607Y-78732055D01*
X170127187Y-78664246D01*
X170127190Y-78664243D01*
X170213350Y-78549149D01*
X170213354Y-78549142D01*
X170263596Y-78414435D01*
X170263598Y-78414428D01*
X170269999Y-78354900D01*
X170270000Y-78354883D01*
X170270000Y-77707056D01*
X169353012Y-77707056D01*
X169385925Y-77650049D01*
X169420000Y-77522882D01*
X169420000Y-77391230D01*
X169385925Y-77264063D01*
X169353012Y-77207056D01*
X170270000Y-77207056D01*
X170270000Y-76559228D01*
X170269999Y-76559211D01*
X170263598Y-76499683D01*
X170263596Y-76499676D01*
X170213354Y-76364969D01*
X170213350Y-76364962D01*
X170127190Y-76249868D01*
X170127187Y-76249865D01*
X170012093Y-76163705D01*
X170012086Y-76163701D01*
X169877379Y-76113459D01*
X169877372Y-76113457D01*
X169817844Y-76107056D01*
X169170000Y-76107056D01*
X169170000Y-77024044D01*
X169112993Y-76991131D01*
X168985826Y-76957056D01*
X168854174Y-76957056D01*
X168727007Y-76991131D01*
X168670000Y-77024044D01*
X168670000Y-76107056D01*
X168022155Y-76107056D01*
X167962627Y-76113457D01*
X167962620Y-76113459D01*
X167827913Y-76163701D01*
X167827906Y-76163705D01*
X167712812Y-76249865D01*
X167712809Y-76249868D01*
X167626649Y-76364962D01*
X167626645Y-76364969D01*
X167577578Y-76496526D01*
X167535707Y-76552460D01*
X167470242Y-76576877D01*
X167401969Y-76562025D01*
X167373715Y-76540875D01*
X167329366Y-76496526D01*
X167251401Y-76418561D01*
X167251397Y-76418558D01*
X167251396Y-76418557D01*
X167057834Y-76283023D01*
X167057830Y-76283021D01*
X166980735Y-76247071D01*
X166843663Y-76183153D01*
X166843659Y-76183152D01*
X166843655Y-76183150D01*
X166615413Y-76121994D01*
X166615403Y-76121992D01*
X166380001Y-76101397D01*
X166379999Y-76101397D01*
X166144596Y-76121992D01*
X166144586Y-76121994D01*
X165916344Y-76183150D01*
X165916335Y-76183154D01*
X165702171Y-76283020D01*
X165702169Y-76283021D01*
X165508597Y-76418561D01*
X165341505Y-76585653D01*
X165211575Y-76771214D01*
X165156998Y-76814839D01*
X165087500Y-76822033D01*
X165025145Y-76790510D01*
X165008425Y-76771214D01*
X164878494Y-76585653D01*
X164711402Y-76418562D01*
X164711395Y-76418557D01*
X164517834Y-76283023D01*
X164517830Y-76283021D01*
X164440735Y-76247071D01*
X164303663Y-76183153D01*
X164303659Y-76183152D01*
X164303655Y-76183150D01*
X164075413Y-76121994D01*
X164075403Y-76121992D01*
X163840001Y-76101397D01*
X163839999Y-76101397D01*
X163604596Y-76121992D01*
X163604586Y-76121994D01*
X163376344Y-76183150D01*
X163376335Y-76183154D01*
X163162171Y-76283020D01*
X163162169Y-76283021D01*
X162968597Y-76418561D01*
X162801505Y-76585653D01*
X162671575Y-76771214D01*
X162616998Y-76814839D01*
X162547500Y-76822033D01*
X162485145Y-76790510D01*
X162468425Y-76771214D01*
X162338494Y-76585653D01*
X162171402Y-76418562D01*
X162171395Y-76418557D01*
X161977834Y-76283023D01*
X161977830Y-76283021D01*
X161900735Y-76247071D01*
X161763663Y-76183153D01*
X161763659Y-76183152D01*
X161763655Y-76183150D01*
X161535413Y-76121994D01*
X161535403Y-76121992D01*
X161300001Y-76101397D01*
X161299999Y-76101397D01*
X161064596Y-76121992D01*
X161064586Y-76121994D01*
X160836344Y-76183150D01*
X160836335Y-76183154D01*
X160622171Y-76283020D01*
X160622169Y-76283021D01*
X160428597Y-76418561D01*
X160261505Y-76585653D01*
X160131575Y-76771214D01*
X160076998Y-76814839D01*
X160007500Y-76822033D01*
X159945145Y-76790510D01*
X159928425Y-76771214D01*
X159798494Y-76585653D01*
X159631402Y-76418562D01*
X159631395Y-76418557D01*
X159437834Y-76283023D01*
X159437830Y-76283021D01*
X159360735Y-76247071D01*
X159223663Y-76183153D01*
X159223659Y-76183152D01*
X159223655Y-76183150D01*
X158995413Y-76121994D01*
X158995403Y-76121992D01*
X158760001Y-76101397D01*
X158759999Y-76101397D01*
X158524596Y-76121992D01*
X158524586Y-76121994D01*
X158296344Y-76183150D01*
X158296335Y-76183154D01*
X158082171Y-76283020D01*
X158082169Y-76283021D01*
X157888597Y-76418561D01*
X157721505Y-76585653D01*
X157591575Y-76771214D01*
X157536998Y-76814839D01*
X157467500Y-76822033D01*
X157405145Y-76790510D01*
X157388425Y-76771214D01*
X157258494Y-76585653D01*
X157091402Y-76418562D01*
X157091395Y-76418557D01*
X156897834Y-76283023D01*
X156897830Y-76283021D01*
X156820735Y-76247071D01*
X156683663Y-76183153D01*
X156683659Y-76183152D01*
X156683655Y-76183150D01*
X156455413Y-76121994D01*
X156455403Y-76121992D01*
X156220001Y-76101397D01*
X156219999Y-76101397D01*
X155984596Y-76121992D01*
X155984586Y-76121994D01*
X155756344Y-76183150D01*
X155756335Y-76183154D01*
X155542171Y-76283020D01*
X155542169Y-76283021D01*
X155348597Y-76418561D01*
X155181505Y-76585653D01*
X155051575Y-76771214D01*
X154996998Y-76814839D01*
X154927500Y-76822033D01*
X154865145Y-76790510D01*
X154848425Y-76771214D01*
X154718494Y-76585653D01*
X154551402Y-76418562D01*
X154551395Y-76418557D01*
X154357834Y-76283023D01*
X154357830Y-76283021D01*
X154280735Y-76247071D01*
X154143663Y-76183153D01*
X154143659Y-76183152D01*
X154143655Y-76183150D01*
X153915413Y-76121994D01*
X153915403Y-76121992D01*
X153680001Y-76101397D01*
X153679999Y-76101397D01*
X153444596Y-76121992D01*
X153444586Y-76121994D01*
X153216344Y-76183150D01*
X153216335Y-76183154D01*
X153002171Y-76283020D01*
X153002169Y-76283021D01*
X152808597Y-76418561D01*
X152641505Y-76585653D01*
X152511575Y-76771214D01*
X152456998Y-76814839D01*
X152387500Y-76822033D01*
X152325145Y-76790510D01*
X152308425Y-76771214D01*
X152178494Y-76585653D01*
X152011402Y-76418562D01*
X152011395Y-76418557D01*
X151817834Y-76283023D01*
X151817830Y-76283021D01*
X151740735Y-76247071D01*
X151603663Y-76183153D01*
X151603659Y-76183152D01*
X151603655Y-76183150D01*
X151375413Y-76121994D01*
X151375403Y-76121992D01*
X151140001Y-76101397D01*
X151139999Y-76101397D01*
X150904596Y-76121992D01*
X150904586Y-76121994D01*
X150676344Y-76183150D01*
X150676335Y-76183154D01*
X150462171Y-76283020D01*
X150462169Y-76283021D01*
X150268597Y-76418561D01*
X150101505Y-76585653D01*
X149971575Y-76771214D01*
X149916998Y-76814839D01*
X149847500Y-76822033D01*
X149785145Y-76790510D01*
X149768425Y-76771214D01*
X149638494Y-76585653D01*
X149471402Y-76418562D01*
X149471395Y-76418557D01*
X149277834Y-76283023D01*
X149277830Y-76283021D01*
X149200735Y-76247071D01*
X149063663Y-76183153D01*
X149063659Y-76183152D01*
X149063655Y-76183150D01*
X148835413Y-76121994D01*
X148835403Y-76121992D01*
X148600001Y-76101397D01*
X148599999Y-76101397D01*
X148364596Y-76121992D01*
X148364586Y-76121994D01*
X148136344Y-76183150D01*
X148136335Y-76183154D01*
X147922171Y-76283020D01*
X147922169Y-76283021D01*
X147728597Y-76418561D01*
X147561508Y-76585650D01*
X147431269Y-76771651D01*
X147376692Y-76815275D01*
X147307193Y-76822468D01*
X147244839Y-76790946D01*
X147228119Y-76771650D01*
X147098113Y-76585982D01*
X147098108Y-76585976D01*
X146931082Y-76418950D01*
X146737578Y-76283455D01*
X146523492Y-76183626D01*
X146523486Y-76183623D01*
X146310000Y-76126420D01*
X146310000Y-77024044D01*
X146252993Y-76991131D01*
X146125826Y-76957056D01*
X145994174Y-76957056D01*
X145867007Y-76991131D01*
X145810000Y-77024044D01*
X145810000Y-76126420D01*
X145809999Y-76126420D01*
X145596513Y-76183623D01*
X145596507Y-76183626D01*
X145382422Y-76283455D01*
X145382420Y-76283456D01*
X145188926Y-76418942D01*
X145188920Y-76418947D01*
X145021891Y-76585976D01*
X145021890Y-76585978D01*
X144891575Y-76772087D01*
X144836998Y-76815711D01*
X144767499Y-76822904D01*
X144705145Y-76791382D01*
X144688425Y-76772087D01*
X144558109Y-76585978D01*
X144558108Y-76585976D01*
X144391082Y-76418950D01*
X144197578Y-76283455D01*
X143983492Y-76183626D01*
X143983486Y-76183623D01*
X143770000Y-76126420D01*
X143770000Y-77024044D01*
X143712993Y-76991131D01*
X143585826Y-76957056D01*
X143454174Y-76957056D01*
X143327007Y-76991131D01*
X143270000Y-77024044D01*
X143270000Y-76126420D01*
X143269999Y-76126420D01*
X143056513Y-76183623D01*
X143056507Y-76183626D01*
X142842422Y-76283455D01*
X142842420Y-76283456D01*
X142648926Y-76418942D01*
X142648920Y-76418947D01*
X142481891Y-76585976D01*
X142481890Y-76585978D01*
X142351880Y-76771651D01*
X142297303Y-76815275D01*
X142227804Y-76822468D01*
X142165450Y-76790946D01*
X142148730Y-76771650D01*
X142018494Y-76585653D01*
X141851402Y-76418562D01*
X141851395Y-76418557D01*
X141657834Y-76283023D01*
X141657830Y-76283021D01*
X141580735Y-76247071D01*
X141443663Y-76183153D01*
X141443659Y-76183152D01*
X141443655Y-76183150D01*
X141215413Y-76121994D01*
X141215403Y-76121992D01*
X140980001Y-76101397D01*
X140979999Y-76101397D01*
X140744596Y-76121992D01*
X140744586Y-76121994D01*
X140516344Y-76183150D01*
X140516335Y-76183154D01*
X140302171Y-76283020D01*
X140302169Y-76283021D01*
X140108597Y-76418561D01*
X139941505Y-76585653D01*
X139811575Y-76771214D01*
X139756998Y-76814839D01*
X139687500Y-76822033D01*
X139625145Y-76790510D01*
X139608425Y-76771214D01*
X139478494Y-76585653D01*
X139311402Y-76418562D01*
X139311395Y-76418557D01*
X139117834Y-76283023D01*
X139117830Y-76283021D01*
X139040735Y-76247071D01*
X138903663Y-76183153D01*
X138903659Y-76183152D01*
X138903655Y-76183150D01*
X138675413Y-76121994D01*
X138675403Y-76121992D01*
X138440001Y-76101397D01*
X138439999Y-76101397D01*
X138204596Y-76121992D01*
X138204586Y-76121994D01*
X137976344Y-76183150D01*
X137976335Y-76183154D01*
X137762171Y-76283020D01*
X137762169Y-76283021D01*
X137568597Y-76418561D01*
X137401505Y-76585653D01*
X137271575Y-76771214D01*
X137216998Y-76814839D01*
X137147500Y-76822033D01*
X137085145Y-76790510D01*
X137068425Y-76771214D01*
X136938494Y-76585653D01*
X136771402Y-76418562D01*
X136771395Y-76418557D01*
X136577834Y-76283023D01*
X136577830Y-76283021D01*
X136500735Y-76247071D01*
X136363663Y-76183153D01*
X136363659Y-76183152D01*
X136363655Y-76183150D01*
X136135413Y-76121994D01*
X136135403Y-76121992D01*
X135900001Y-76101397D01*
X135899999Y-76101397D01*
X135664596Y-76121992D01*
X135664586Y-76121994D01*
X135436344Y-76183150D01*
X135436335Y-76183154D01*
X135222171Y-76283020D01*
X135222169Y-76283021D01*
X135028597Y-76418561D01*
X134861505Y-76585653D01*
X134731575Y-76771214D01*
X134676998Y-76814839D01*
X134607500Y-76822033D01*
X134545145Y-76790510D01*
X134528425Y-76771214D01*
X134398494Y-76585653D01*
X134231402Y-76418562D01*
X134231395Y-76418557D01*
X134037834Y-76283023D01*
X134037830Y-76283021D01*
X133960735Y-76247071D01*
X133823663Y-76183153D01*
X133823659Y-76183152D01*
X133823655Y-76183150D01*
X133595413Y-76121994D01*
X133595403Y-76121992D01*
X133360001Y-76101397D01*
X133359999Y-76101397D01*
X133124596Y-76121992D01*
X133124586Y-76121994D01*
X132896344Y-76183150D01*
X132896335Y-76183154D01*
X132682171Y-76283020D01*
X132682169Y-76283021D01*
X132488597Y-76418561D01*
X132321505Y-76585653D01*
X132191575Y-76771214D01*
X132136998Y-76814839D01*
X132067500Y-76822033D01*
X132005145Y-76790510D01*
X131988425Y-76771214D01*
X131858494Y-76585653D01*
X131691402Y-76418562D01*
X131691395Y-76418557D01*
X131497834Y-76283023D01*
X131497830Y-76283021D01*
X131420735Y-76247071D01*
X131283663Y-76183153D01*
X131283659Y-76183152D01*
X131283655Y-76183150D01*
X131055413Y-76121994D01*
X131055403Y-76121992D01*
X130820001Y-76101397D01*
X130819999Y-76101397D01*
X130584596Y-76121992D01*
X130584586Y-76121994D01*
X130356344Y-76183150D01*
X130356335Y-76183154D01*
X130142171Y-76283020D01*
X130142169Y-76283021D01*
X129948597Y-76418561D01*
X129781505Y-76585653D01*
X129651575Y-76771214D01*
X129596998Y-76814839D01*
X129527500Y-76822033D01*
X129465145Y-76790510D01*
X129448425Y-76771214D01*
X129318494Y-76585653D01*
X129151402Y-76418562D01*
X129151395Y-76418557D01*
X128957834Y-76283023D01*
X128957830Y-76283021D01*
X128880735Y-76247071D01*
X128743663Y-76183153D01*
X128743659Y-76183152D01*
X128743655Y-76183150D01*
X128515413Y-76121994D01*
X128515403Y-76121992D01*
X128280001Y-76101397D01*
X128279999Y-76101397D01*
X128044596Y-76121992D01*
X128044586Y-76121994D01*
X127816344Y-76183150D01*
X127816335Y-76183154D01*
X127602171Y-76283020D01*
X127602169Y-76283021D01*
X127408597Y-76418561D01*
X127241505Y-76585653D01*
X127111575Y-76771214D01*
X127056998Y-76814839D01*
X126987500Y-76822033D01*
X126925145Y-76790510D01*
X126908425Y-76771214D01*
X126778494Y-76585653D01*
X126611402Y-76418562D01*
X126611395Y-76418557D01*
X126417834Y-76283023D01*
X126417830Y-76283021D01*
X126340735Y-76247071D01*
X126203663Y-76183153D01*
X126203659Y-76183152D01*
X126203655Y-76183150D01*
X125975413Y-76121994D01*
X125975403Y-76121992D01*
X125740001Y-76101397D01*
X125739999Y-76101397D01*
X125504596Y-76121992D01*
X125504586Y-76121994D01*
X125276344Y-76183150D01*
X125276335Y-76183154D01*
X125062171Y-76283020D01*
X125062169Y-76283021D01*
X124868597Y-76418561D01*
X124701505Y-76585653D01*
X124571575Y-76771214D01*
X124516998Y-76814839D01*
X124447500Y-76822033D01*
X124385145Y-76790510D01*
X124368425Y-76771214D01*
X124238494Y-76585653D01*
X124071402Y-76418562D01*
X124071395Y-76418557D01*
X123877834Y-76283023D01*
X123877830Y-76283021D01*
X123800735Y-76247071D01*
X123663663Y-76183153D01*
X123663659Y-76183152D01*
X123663655Y-76183150D01*
X123435413Y-76121994D01*
X123435403Y-76121992D01*
X123200001Y-76101397D01*
X123199999Y-76101397D01*
X122964596Y-76121992D01*
X122964586Y-76121994D01*
X122736344Y-76183150D01*
X122736335Y-76183154D01*
X122522171Y-76283020D01*
X122522169Y-76283021D01*
X122328597Y-76418561D01*
X122161508Y-76585650D01*
X122031269Y-76771651D01*
X121976692Y-76815275D01*
X121907193Y-76822468D01*
X121844839Y-76790946D01*
X121828119Y-76771650D01*
X121698113Y-76585982D01*
X121698108Y-76585976D01*
X121531082Y-76418950D01*
X121337578Y-76283455D01*
X121123492Y-76183626D01*
X121123486Y-76183623D01*
X120910000Y-76126420D01*
X120910000Y-77024044D01*
X120852993Y-76991131D01*
X120725826Y-76957056D01*
X120594174Y-76957056D01*
X120467007Y-76991131D01*
X120410000Y-77024044D01*
X120410000Y-76126420D01*
X120409999Y-76126420D01*
X120196513Y-76183623D01*
X120196507Y-76183626D01*
X119982422Y-76283455D01*
X119982420Y-76283456D01*
X119788926Y-76418942D01*
X119788920Y-76418947D01*
X119621891Y-76585976D01*
X119621886Y-76585982D01*
X119486400Y-76779476D01*
X119486399Y-76779478D01*
X119386570Y-76993563D01*
X119386567Y-76993569D01*
X119329364Y-77207055D01*
X116995580Y-77207055D01*
X116828689Y-76879512D01*
X116617468Y-76554262D01*
X116408904Y-76296705D01*
X116408903Y-76296704D01*
X114914251Y-77791356D01*
X114840412Y-77689726D01*
X114662330Y-77511644D01*
X114560698Y-77437804D01*
X116055350Y-75943152D01*
X116055350Y-75943151D01*
X115797793Y-75734587D01*
X115472543Y-75523366D01*
X115126994Y-75347300D01*
X114764936Y-75208318D01*
X114390330Y-75107943D01*
X114390323Y-75107942D01*
X114007287Y-75047275D01*
X113620001Y-75026978D01*
X113619999Y-75026978D01*
X113232712Y-75047275D01*
X112849676Y-75107942D01*
X112849669Y-75107943D01*
X112475063Y-75208318D01*
X112113005Y-75347300D01*
X111767456Y-75523366D01*
X111442206Y-75734587D01*
X111184648Y-75943151D01*
X111184648Y-75943152D01*
X112679301Y-77437804D01*
X112577670Y-77511644D01*
X112399588Y-77689726D01*
X112325748Y-77791356D01*
X110831096Y-76296704D01*
X110831095Y-76296704D01*
X110622531Y-76554262D01*
X110411310Y-76879512D01*
X110235244Y-77225061D01*
X110096262Y-77587119D01*
X109995887Y-77961725D01*
X109995886Y-77961732D01*
X109935219Y-78344768D01*
X109914922Y-78732055D01*
X105551661Y-78732055D01*
X105426420Y-78648371D01*
X105426407Y-78648364D01*
X105244339Y-78572950D01*
X105244329Y-78572947D01*
X105051043Y-78534500D01*
X105051041Y-78534500D01*
X103753959Y-78534500D01*
X103753957Y-78534500D01*
X103560670Y-78572947D01*
X103560660Y-78572950D01*
X103378592Y-78648364D01*
X103378579Y-78648371D01*
X103214718Y-78757860D01*
X103214714Y-78757863D01*
X103075363Y-78897214D01*
X103075360Y-78897218D01*
X102965871Y-79061079D01*
X102965864Y-79061092D01*
X102890450Y-79243160D01*
X102890447Y-79243170D01*
X102852000Y-79436456D01*
X102852000Y-79436459D01*
X102852000Y-79633541D01*
X102852000Y-79633543D01*
X102851999Y-79633543D01*
X101523000Y-79633543D01*
X101523000Y-79633541D01*
X101523000Y-79436459D01*
X101523000Y-79436456D01*
X101484552Y-79243170D01*
X101484551Y-79243169D01*
X101484551Y-79243165D01*
X101435878Y-79125656D01*
X101409135Y-79061092D01*
X101409128Y-79061079D01*
X101299639Y-78897218D01*
X101299636Y-78897214D01*
X101160285Y-78757863D01*
X101160281Y-78757860D01*
X100996420Y-78648371D01*
X100996407Y-78648364D01*
X100814339Y-78572950D01*
X100814329Y-78572947D01*
X100621043Y-78534500D01*
X100621041Y-78534500D01*
X99823959Y-78534500D01*
X99823957Y-78534500D01*
X99630670Y-78572947D01*
X99630660Y-78572950D01*
X99448592Y-78648364D01*
X99448579Y-78648371D01*
X99284718Y-78757860D01*
X99284714Y-78757863D01*
X99212181Y-78830397D01*
X99150858Y-78863882D01*
X99081166Y-78858898D01*
X99025233Y-78817026D01*
X99000816Y-78751562D01*
X99000500Y-78742716D01*
X99000500Y-76827212D01*
X99000501Y-76827209D01*
X99000500Y-76765065D01*
X99000726Y-76757579D01*
X99008436Y-76630097D01*
X99018269Y-76467514D01*
X99020074Y-76452654D01*
X99071778Y-76170506D01*
X99075352Y-76156004D01*
X99160693Y-75882129D01*
X99166000Y-75868137D01*
X99283722Y-75606566D01*
X99290674Y-75593321D01*
X99439067Y-75347846D01*
X99447572Y-75335526D01*
X99547232Y-75208318D01*
X99624470Y-75109729D01*
X99634385Y-75098537D01*
X99837225Y-74895695D01*
X99848415Y-74885781D01*
X100074225Y-74708870D01*
X100086521Y-74700383D01*
X100332018Y-74551974D01*
X100345246Y-74545032D01*
X100606836Y-74427299D01*
X100620795Y-74422004D01*
X100894681Y-74336659D01*
X100909196Y-74333081D01*
X101191342Y-74281375D01*
X101206199Y-74279571D01*
X101495933Y-74262045D01*
X101503420Y-74261820D01*
X101565893Y-74261820D01*
X101567860Y-74261561D01*
X101584046Y-74260500D01*
X180054108Y-74260500D01*
X180116754Y-74260500D01*
X180123243Y-74260669D01*
G37*
%TD.AperFunction*%
%TD*%
M02*
