%TF.GenerationSoftware,KiCad,Pcbnew,8.0.5*%
%TF.CreationDate,2024-10-15T23:52:28+04:00*%
%TF.ProjectId,AuroraF4,4175726f-7261-4463-942e-6b696361645f,v1.0.1*%
%TF.SameCoordinates,Original*%
%TF.FileFunction,Soldermask,Top*%
%TF.FilePolarity,Negative*%
%FSLAX46Y46*%
G04 Gerber Fmt 4.6, Leading zero omitted, Abs format (unit mm)*
G04 Created by KiCad (PCBNEW 8.0.5) date 2024-10-15 23:52:28*
%MOMM*%
%LPD*%
G01*
G04 APERTURE LIST*
G04 Aperture macros list*
%AMRoundRect*
0 Rectangle with rounded corners*
0 $1 Rounding radius*
0 $2 $3 $4 $5 $6 $7 $8 $9 X,Y pos of 4 corners*
0 Add a 4 corners polygon primitive as box body*
4,1,4,$2,$3,$4,$5,$6,$7,$8,$9,$2,$3,0*
0 Add four circle primitives for the rounded corners*
1,1,$1+$1,$2,$3*
1,1,$1+$1,$4,$5*
1,1,$1+$1,$6,$7*
1,1,$1+$1,$8,$9*
0 Add four rect primitives between the rounded corners*
20,1,$1+$1,$2,$3,$4,$5,0*
20,1,$1+$1,$4,$5,$6,$7,0*
20,1,$1+$1,$6,$7,$8,$9,0*
20,1,$1+$1,$8,$9,$2,$3,0*%
G04 Aperture macros list end*
%ADD10R,0.900000X1.700000*%
%ADD11RoundRect,0.200000X-0.200000X-0.275000X0.200000X-0.275000X0.200000X0.275000X-0.200000X0.275000X0*%
%ADD12RoundRect,0.200000X0.200000X0.275000X-0.200000X0.275000X-0.200000X-0.275000X0.200000X-0.275000X0*%
%ADD13RoundRect,0.225000X0.225000X0.250000X-0.225000X0.250000X-0.225000X-0.250000X0.225000X-0.250000X0*%
%ADD14R,0.740000X2.400000*%
%ADD15RoundRect,0.200000X0.600000X0.200000X-0.600000X0.200000X-0.600000X-0.200000X0.600000X-0.200000X0*%
%ADD16RoundRect,0.525000X-0.975000X-0.525000X0.975000X-0.525000X0.975000X0.525000X-0.975000X0.525000X0*%
%ADD17RoundRect,0.200000X-0.275000X0.200000X-0.275000X-0.200000X0.275000X-0.200000X0.275000X0.200000X0*%
%ADD18R,0.800000X1.000000*%
%ADD19C,0.900000*%
%ADD20R,1.500000X0.700000*%
%ADD21RoundRect,0.250000X-0.250000X-0.475000X0.250000X-0.475000X0.250000X0.475000X-0.250000X0.475000X0*%
%ADD22RoundRect,0.218750X-0.218750X-0.256250X0.218750X-0.256250X0.218750X0.256250X-0.218750X0.256250X0*%
%ADD23RoundRect,0.225000X0.375000X-0.225000X0.375000X0.225000X-0.375000X0.225000X-0.375000X-0.225000X0*%
%ADD24R,2.000000X4.600000*%
%ADD25O,2.000000X4.200000*%
%ADD26O,4.200000X2.000000*%
%ADD27RoundRect,0.225000X0.250000X-0.225000X0.250000X0.225000X-0.250000X0.225000X-0.250000X-0.225000X0*%
%ADD28C,0.800000*%
%ADD29C,6.400000*%
%ADD30RoundRect,0.225000X-0.250000X0.225000X-0.250000X-0.225000X0.250000X-0.225000X0.250000X0.225000X0*%
%ADD31R,1.700000X1.700000*%
%ADD32O,1.700000X1.700000*%
%ADD33RoundRect,0.250000X0.250000X0.475000X-0.250000X0.475000X-0.250000X-0.475000X0.250000X-0.475000X0*%
%ADD34RoundRect,0.218750X-0.381250X0.218750X-0.381250X-0.218750X0.381250X-0.218750X0.381250X0.218750X0*%
%ADD35RoundRect,0.200000X0.275000X-0.200000X0.275000X0.200000X-0.275000X0.200000X-0.275000X-0.200000X0*%
%ADD36R,1.400000X1.200000*%
%ADD37RoundRect,0.375000X0.625000X0.375000X-0.625000X0.375000X-0.625000X-0.375000X0.625000X-0.375000X0*%
%ADD38RoundRect,0.500000X0.500000X1.400000X-0.500000X1.400000X-0.500000X-1.400000X0.500000X-1.400000X0*%
%ADD39RoundRect,0.150000X-0.512500X-0.150000X0.512500X-0.150000X0.512500X0.150000X-0.512500X0.150000X0*%
%ADD40RoundRect,0.250000X0.625000X-0.375000X0.625000X0.375000X-0.625000X0.375000X-0.625000X-0.375000X0*%
%ADD41RoundRect,0.150000X0.150000X-0.587500X0.150000X0.587500X-0.150000X0.587500X-0.150000X-0.587500X0*%
%ADD42RoundRect,0.075000X0.725000X-0.075000X0.725000X0.075000X-0.725000X0.075000X-0.725000X-0.075000X0*%
%ADD43RoundRect,0.075000X0.075000X-0.725000X0.075000X0.725000X-0.075000X0.725000X-0.075000X-0.725000X0*%
%ADD44C,0.650000*%
%ADD45RoundRect,0.150000X-0.500000X0.150000X-0.500000X-0.150000X0.500000X-0.150000X0.500000X0.150000X0*%
%ADD46RoundRect,0.075000X-0.575000X0.075000X-0.575000X-0.075000X0.575000X-0.075000X0.575000X0.075000X0*%
%ADD47O,2.100000X1.000000*%
%ADD48O,1.600000X1.000000*%
G04 APERTURE END LIST*
D10*
%TO.C,USR*%
X120830000Y-108140000D03*
X124230000Y-108140000D03*
%TD*%
%TO.C,RST*%
X120830000Y-96170000D03*
X124230000Y-96170000D03*
%TD*%
D11*
%TO.C,R6*%
X122625000Y-102830000D03*
X124275000Y-102830000D03*
%TD*%
D12*
%TO.C,R5*%
X122625000Y-105750000D03*
X124275000Y-105750000D03*
%TD*%
%TO.C,R4*%
X124275000Y-98560000D03*
X122625000Y-98560000D03*
%TD*%
D13*
%TO.C,C18*%
X124225000Y-104290000D03*
X122675000Y-104290000D03*
%TD*%
%TO.C,C17*%
X124225000Y-100020000D03*
X122675000Y-100020000D03*
%TD*%
D14*
%TO.C,J2*%
X120070000Y-88160000D03*
X120070000Y-84260000D03*
X121340000Y-88160000D03*
X121340000Y-84260000D03*
X122610000Y-88160000D03*
X122610000Y-84260000D03*
X123880000Y-88160000D03*
X123880000Y-84260000D03*
X125150000Y-88160000D03*
X125150000Y-84260000D03*
%TD*%
D15*
%TO.C,J3*%
X178790000Y-113200000D03*
X178790000Y-111950000D03*
X178790000Y-110700000D03*
X178790000Y-109450000D03*
D16*
X181290000Y-106950000D03*
X181290000Y-115650000D03*
%TD*%
D15*
%TO.C,J1*%
X178780000Y-101920000D03*
X178780000Y-100670000D03*
X178780000Y-99420000D03*
X178780000Y-98170000D03*
X178780000Y-96920000D03*
X178780000Y-95670000D03*
D16*
X181280000Y-93170000D03*
X181280000Y-104420000D03*
%TD*%
D12*
%TO.C,R27*%
X135080000Y-88790000D03*
X133430000Y-88790000D03*
%TD*%
%TO.C,R26*%
X135080000Y-87330000D03*
X133430000Y-87330000D03*
%TD*%
%TO.C,R25*%
X135080000Y-85870000D03*
X133430000Y-85870000D03*
%TD*%
%TO.C,R24*%
X135080000Y-84410000D03*
X133430000Y-84410000D03*
%TD*%
D17*
%TO.C,R8*%
X123930000Y-92825000D03*
X123930000Y-91175000D03*
%TD*%
D18*
%TO.C,BOOT1*%
X101350000Y-93000000D03*
X99140000Y-93000000D03*
D19*
X100240000Y-95150000D03*
X100240000Y-98150000D03*
D18*
X101350000Y-100300000D03*
X99140000Y-100300000D03*
D20*
X102000000Y-94400000D03*
X102000000Y-97400000D03*
X102000000Y-98900000D03*
%TD*%
D21*
%TO.C,C15*%
X114990000Y-99940000D03*
X113090000Y-99940000D03*
%TD*%
D17*
%TO.C,R17*%
X107117500Y-79712500D03*
X107117500Y-81362500D03*
%TD*%
D22*
%TO.C,D4*%
X132077500Y-88790000D03*
X130502500Y-88790000D03*
%TD*%
D23*
%TO.C,D6*%
X112330000Y-87430000D03*
X112330000Y-84130000D03*
%TD*%
D17*
%TO.C,R9*%
X122470000Y-92810000D03*
X122470000Y-91160000D03*
%TD*%
D22*
%TO.C,L1*%
X114607500Y-101650000D03*
X113032500Y-101650000D03*
%TD*%
D24*
%TO.C,POWER*%
X111220000Y-109760000D03*
D25*
X104920000Y-109760000D03*
D26*
X108320000Y-114560000D03*
%TD*%
D27*
%TO.C,C6*%
X157330000Y-92105000D03*
X157330000Y-90555000D03*
%TD*%
D11*
%TO.C,R12*%
X174750000Y-113500000D03*
X176400000Y-113500000D03*
%TD*%
D28*
%TO.C,H4*%
X116020000Y-119015000D03*
X115317056Y-120712056D03*
X115317056Y-117317944D03*
X113620000Y-121415000D03*
D29*
X113620000Y-119015000D03*
D28*
X113620000Y-116615000D03*
X111922944Y-120712056D03*
X111922944Y-117317944D03*
X111220000Y-119015000D03*
%TD*%
D30*
%TO.C,C9*%
X142830000Y-109865000D03*
X142830000Y-108315000D03*
%TD*%
%TO.C,C12*%
X149040000Y-113290000D03*
X149040000Y-111740000D03*
%TD*%
D31*
%TO.C,J9*%
X168920000Y-77457056D03*
D32*
X168920000Y-79997056D03*
X166380000Y-77457056D03*
X166380000Y-79997056D03*
X163840000Y-77457056D03*
X163840000Y-79997056D03*
X161300000Y-77457056D03*
X161300000Y-79997056D03*
X158760000Y-77457056D03*
X158760000Y-79997056D03*
X156220000Y-77457056D03*
X156220000Y-79997056D03*
X153680000Y-77457056D03*
X153680000Y-79997056D03*
X151140000Y-77457056D03*
X151140000Y-79997056D03*
X148600000Y-77457056D03*
X148600000Y-79997056D03*
X146060000Y-77457056D03*
X146060000Y-79997056D03*
X143520000Y-77457056D03*
X143520000Y-79997056D03*
X140980000Y-77457056D03*
X140980000Y-79997056D03*
X138440000Y-77457056D03*
X138440000Y-79997056D03*
X135900000Y-77457056D03*
X135900000Y-79997056D03*
X133360000Y-77457056D03*
X133360000Y-79997056D03*
X130820000Y-77457056D03*
X130820000Y-79997056D03*
X128280000Y-77457056D03*
X128280000Y-79997056D03*
X125740000Y-77457056D03*
X125740000Y-79997056D03*
X123200000Y-77457056D03*
X123200000Y-79997056D03*
X120660000Y-77457056D03*
X120660000Y-79997056D03*
%TD*%
D33*
%TO.C,C14*%
X113260000Y-90050000D03*
X111360000Y-90050000D03*
%TD*%
D34*
%TO.C,FB1*%
X115980000Y-110735000D03*
X115980000Y-112860000D03*
%TD*%
D17*
%TO.C,R10*%
X120080000Y-92835000D03*
X120080000Y-91185000D03*
%TD*%
D22*
%TO.C,D5*%
X111377500Y-99940000D03*
X109802500Y-99940000D03*
%TD*%
D12*
%TO.C,R16*%
X176455000Y-87110000D03*
X174805000Y-87110000D03*
%TD*%
D11*
%TO.C,R11*%
X176405000Y-109110000D03*
X174755000Y-109110000D03*
%TD*%
D17*
%TO.C,R7*%
X125400000Y-92825000D03*
X125400000Y-91175000D03*
%TD*%
D12*
%TO.C,R19*%
X109765000Y-101400000D03*
X111415000Y-101400000D03*
%TD*%
D31*
%TO.C,J7*%
X120670000Y-120290000D03*
D32*
X120670000Y-117750000D03*
X123210000Y-120290000D03*
X123210000Y-117750000D03*
X125750000Y-120290000D03*
X125750000Y-117750000D03*
X128290000Y-120290000D03*
X128290000Y-117750000D03*
X130830000Y-120290000D03*
X130830000Y-117750000D03*
X133370000Y-120290000D03*
X133370000Y-117750000D03*
X135910000Y-120290000D03*
X135910000Y-117750000D03*
X138450000Y-120290000D03*
X138450000Y-117750000D03*
X140990000Y-120290000D03*
X140990000Y-117750000D03*
X143530000Y-120290000D03*
X143530000Y-117750000D03*
X146070000Y-120290000D03*
X146070000Y-117750000D03*
X148610000Y-120290000D03*
X148610000Y-117750000D03*
X151150000Y-120290000D03*
X151150000Y-117750000D03*
X153690000Y-120290000D03*
X153690000Y-117750000D03*
X156230000Y-120290000D03*
X156230000Y-117750000D03*
X158770000Y-120290000D03*
X158770000Y-117750000D03*
X161310000Y-120290000D03*
X161310000Y-117750000D03*
X163850000Y-120290000D03*
X163850000Y-117750000D03*
X166390000Y-120290000D03*
X166390000Y-117750000D03*
X168930000Y-120290000D03*
X168930000Y-117750000D03*
%TD*%
D28*
%TO.C,H2*%
X173000000Y-78732056D03*
X173702944Y-77035000D03*
X173702944Y-80429112D03*
X175400000Y-76332056D03*
D29*
X175400000Y-78732056D03*
D28*
X175400000Y-81132056D03*
X177097056Y-77035000D03*
X177097056Y-80429112D03*
X177800000Y-78732056D03*
%TD*%
D30*
%TO.C,C11*%
X154840000Y-109940000D03*
X154840000Y-108390000D03*
%TD*%
D22*
%TO.C,D3*%
X132077500Y-87330000D03*
X130502500Y-87330000D03*
%TD*%
D30*
%TO.C,C10*%
X153370000Y-108390000D03*
X153370000Y-109940000D03*
%TD*%
D35*
%TO.C,R18*%
X107117500Y-88367500D03*
X107117500Y-86717500D03*
%TD*%
D12*
%TO.C,R20*%
X176465000Y-98090000D03*
X174815000Y-98090000D03*
%TD*%
D35*
%TO.C,R1*%
X104100000Y-100405000D03*
X104100000Y-98755000D03*
%TD*%
D36*
%TO.C,Y1*%
X146480000Y-110180000D03*
X148680000Y-110180000D03*
X148680000Y-108480000D03*
X146480000Y-108480000D03*
%TD*%
D22*
%TO.C,D1*%
X132082500Y-84410000D03*
X130507500Y-84410000D03*
%TD*%
D37*
%TO.C,U4*%
X115610000Y-97350000D03*
X115610000Y-95050000D03*
D38*
X109310000Y-95050000D03*
D37*
X115610000Y-92750000D03*
%TD*%
D12*
%TO.C,R13*%
X176465000Y-101010000D03*
X174815000Y-101010000D03*
%TD*%
D28*
%TO.C,H1*%
X111220000Y-78732056D03*
X111922944Y-77035000D03*
X111922944Y-80429112D03*
X113620000Y-76332056D03*
D29*
X113620000Y-78732056D03*
D28*
X113620000Y-81132056D03*
X115317056Y-77035000D03*
X115317056Y-80429112D03*
X116020000Y-78732056D03*
%TD*%
D13*
%TO.C,C5*%
X141470000Y-88970000D03*
X139920000Y-88970000D03*
%TD*%
D12*
%TO.C,R14*%
X176465000Y-99550000D03*
X174815000Y-99550000D03*
%TD*%
D39*
%TO.C,U3*%
X107850000Y-83097500D03*
X107850000Y-84047500D03*
X107850000Y-84997500D03*
X110125000Y-84997500D03*
X110125000Y-84047500D03*
X110125000Y-83097500D03*
%TD*%
D40*
%TO.C,F1*%
X114060000Y-108400000D03*
X114060000Y-105600000D03*
%TD*%
D17*
%TO.C,R2*%
X147580000Y-113340000D03*
X147580000Y-111690000D03*
%TD*%
D30*
%TO.C,C13*%
X146110000Y-113295000D03*
X146110000Y-111745000D03*
%TD*%
%TO.C,C7*%
X157380000Y-103795000D03*
X157380000Y-105345000D03*
%TD*%
D12*
%TO.C,R15*%
X176450000Y-85650000D03*
X174800000Y-85650000D03*
%TD*%
D41*
%TO.C,Q1*%
X115950000Y-107557500D03*
X117850000Y-107557500D03*
X116900000Y-105682500D03*
%TD*%
D22*
%TO.C,D2*%
X132082500Y-85870000D03*
X130507500Y-85870000D03*
%TD*%
D12*
%TO.C,R22*%
X176400000Y-112035000D03*
X174750000Y-112035000D03*
%TD*%
D30*
%TO.C,C8*%
X151910000Y-108385000D03*
X151910000Y-109935000D03*
%TD*%
D27*
%TO.C,C3*%
X158790000Y-92105000D03*
X158790000Y-90555000D03*
%TD*%
D13*
%TO.C,C2*%
X141470000Y-87510000D03*
X139920000Y-87510000D03*
%TD*%
D30*
%TO.C,C1*%
X144290000Y-108315000D03*
X144290000Y-109865000D03*
%TD*%
D12*
%TO.C,R23*%
X176405000Y-110575000D03*
X174755000Y-110575000D03*
%TD*%
D28*
%TO.C,H3*%
X178300000Y-119000000D03*
X177597056Y-120697056D03*
X177597056Y-117302944D03*
X175900000Y-121400000D03*
D29*
X175900000Y-119000000D03*
D28*
X175900000Y-116600000D03*
X174202944Y-120697056D03*
X174202944Y-117302944D03*
X173500000Y-119000000D03*
%TD*%
D12*
%TO.C,R21*%
X176465000Y-96630000D03*
X174815000Y-96630000D03*
%TD*%
D30*
%TO.C,C4*%
X139820000Y-105565000D03*
X139820000Y-107115000D03*
%TD*%
D42*
%TO.C,U1*%
X140185000Y-104430000D03*
X140185000Y-103930000D03*
X140185000Y-103430000D03*
X140185000Y-102930000D03*
X140185000Y-102430000D03*
X140185000Y-101930000D03*
X140185000Y-101430000D03*
X140185000Y-100930000D03*
X140185000Y-100430000D03*
X140185000Y-99930000D03*
X140185000Y-99430000D03*
X140185000Y-98930000D03*
X140185000Y-98430000D03*
X140185000Y-97930000D03*
X140185000Y-97430000D03*
X140185000Y-96930000D03*
X140185000Y-96430000D03*
X140185000Y-95930000D03*
X140185000Y-95430000D03*
X140185000Y-94930000D03*
X140185000Y-94430000D03*
X140185000Y-93930000D03*
X140185000Y-93430000D03*
X140185000Y-92930000D03*
X140185000Y-92430000D03*
D43*
X141860000Y-90755000D03*
X142360000Y-90755000D03*
X142860000Y-90755000D03*
X143360000Y-90755000D03*
X143860000Y-90755000D03*
X144360000Y-90755000D03*
X144860000Y-90755000D03*
X145360000Y-90755000D03*
X145860000Y-90755000D03*
X146360000Y-90755000D03*
X146860000Y-90755000D03*
X147360000Y-90755000D03*
X147860000Y-90755000D03*
X148360000Y-90755000D03*
X148860000Y-90755000D03*
X149360000Y-90755000D03*
X149860000Y-90755000D03*
X150360000Y-90755000D03*
X150860000Y-90755000D03*
X151360000Y-90755000D03*
X151860000Y-90755000D03*
X152360000Y-90755000D03*
X152860000Y-90755000D03*
X153360000Y-90755000D03*
X153860000Y-90755000D03*
D42*
X155535000Y-92430000D03*
X155535000Y-92930000D03*
X155535000Y-93430000D03*
X155535000Y-93930000D03*
X155535000Y-94430000D03*
X155535000Y-94930000D03*
X155535000Y-95430000D03*
X155535000Y-95930000D03*
X155535000Y-96430000D03*
X155535000Y-96930000D03*
X155535000Y-97430000D03*
X155535000Y-97930000D03*
X155535000Y-98430000D03*
X155535000Y-98930000D03*
X155535000Y-99430000D03*
X155535000Y-99930000D03*
X155535000Y-100430000D03*
X155535000Y-100930000D03*
X155535000Y-101430000D03*
X155535000Y-101930000D03*
X155535000Y-102430000D03*
X155535000Y-102930000D03*
X155535000Y-103430000D03*
X155535000Y-103930000D03*
X155535000Y-104430000D03*
D43*
X153860000Y-106105000D03*
X153360000Y-106105000D03*
X152860000Y-106105000D03*
X152360000Y-106105000D03*
X151860000Y-106105000D03*
X151360000Y-106105000D03*
X150860000Y-106105000D03*
X150360000Y-106105000D03*
X149860000Y-106105000D03*
X149360000Y-106105000D03*
X148860000Y-106105000D03*
X148360000Y-106105000D03*
X147860000Y-106105000D03*
X147360000Y-106105000D03*
X146860000Y-106105000D03*
X146360000Y-106105000D03*
X145860000Y-106105000D03*
X145360000Y-106105000D03*
X144860000Y-106105000D03*
X144360000Y-106105000D03*
X143860000Y-106105000D03*
X143360000Y-106105000D03*
X142860000Y-106105000D03*
X142360000Y-106105000D03*
X141860000Y-106105000D03*
%TD*%
D15*
%TO.C,J4*%
X178745000Y-88250000D03*
X178745000Y-87000000D03*
X178745000Y-85750000D03*
X178745000Y-84500000D03*
D16*
X181245000Y-82000000D03*
X181245000Y-90700000D03*
%TD*%
D44*
%TO.C,J5*%
X103902500Y-80965000D03*
X103902500Y-86745000D03*
D45*
X105042500Y-80655000D03*
X105042500Y-81455000D03*
D46*
X105042500Y-82605000D03*
X105042500Y-83605000D03*
X105042500Y-84105000D03*
X105042500Y-85105000D03*
D45*
X105042500Y-86255000D03*
X105042500Y-87055000D03*
X105042500Y-87055000D03*
X105042500Y-86255000D03*
D46*
X105042500Y-85605000D03*
X105042500Y-84605000D03*
X105042500Y-83105000D03*
X105042500Y-82105000D03*
D45*
X105042500Y-81455000D03*
X105042500Y-80655000D03*
D47*
X104402500Y-79535000D03*
D48*
X100222500Y-79535000D03*
D47*
X104402500Y-88175000D03*
D48*
X100222500Y-88175000D03*
%TD*%
M02*
