%TF.GenerationSoftware,KiCad,Pcbnew,8.0.5*%
%TF.CreationDate,2024-10-15T23:52:28+04:00*%
%TF.ProjectId,AuroraF4,4175726f-7261-4463-942e-6b696361645f,v1.0.1*%
%TF.SameCoordinates,Original*%
%TF.FileFunction,Copper,L3,Inr*%
%TF.FilePolarity,Positive*%
%FSLAX46Y46*%
G04 Gerber Fmt 4.6, Leading zero omitted, Abs format (unit mm)*
G04 Created by KiCad (PCBNEW 8.0.5) date 2024-10-15 23:52:28*
%MOMM*%
%LPD*%
G01*
G04 APERTURE LIST*
%TA.AperFunction,ComponentPad*%
%ADD10R,2.000000X4.600000*%
%TD*%
%TA.AperFunction,ComponentPad*%
%ADD11O,2.000000X4.200000*%
%TD*%
%TA.AperFunction,ComponentPad*%
%ADD12O,4.200000X2.000000*%
%TD*%
%TA.AperFunction,ComponentPad*%
%ADD13C,0.800000*%
%TD*%
%TA.AperFunction,ComponentPad*%
%ADD14C,6.400000*%
%TD*%
%TA.AperFunction,ComponentPad*%
%ADD15R,1.700000X1.700000*%
%TD*%
%TA.AperFunction,ComponentPad*%
%ADD16O,1.700000X1.700000*%
%TD*%
%TA.AperFunction,ComponentPad*%
%ADD17O,2.100000X1.000000*%
%TD*%
%TA.AperFunction,ComponentPad*%
%ADD18O,1.600000X1.000000*%
%TD*%
%TA.AperFunction,ViaPad*%
%ADD19C,0.600000*%
%TD*%
G04 APERTURE END LIST*
D10*
%TO.N,+12V*%
%TO.C,POWER*%
X111220000Y-109760000D03*
D11*
%TO.N,GND*%
X104920000Y-109760000D03*
D12*
%TO.N,N/C*%
X108320000Y-114560000D03*
%TD*%
D13*
%TO.N,GND*%
%TO.C,H4*%
X116020000Y-119015000D03*
X115317056Y-120712056D03*
X115317056Y-117317944D03*
X113620000Y-121415000D03*
D14*
X113620000Y-119015000D03*
D13*
X113620000Y-116615000D03*
X111922944Y-120712056D03*
X111922944Y-117317944D03*
X111220000Y-119015000D03*
%TD*%
D15*
%TO.N,GND*%
%TO.C,J9*%
X168920000Y-77457056D03*
D16*
%TO.N,+3.3V*%
X168920000Y-79997056D03*
%TO.N,PE9*%
X166380000Y-77457056D03*
%TO.N,PE8*%
X166380000Y-79997056D03*
%TO.N,+3.3V*%
X163840000Y-77457056D03*
%TO.N,PE10*%
X163840000Y-79997056D03*
%TO.N,PE11*%
X161300000Y-77457056D03*
%TO.N,PE12*%
X161300000Y-79997056D03*
%TO.N,PE13*%
X158760000Y-77457056D03*
%TO.N,PE14*%
X158760000Y-79997056D03*
%TO.N,PE15*%
X156220000Y-77457056D03*
%TO.N,PB10*%
X156220000Y-79997056D03*
%TO.N,PB11*%
X153680000Y-77457056D03*
%TO.N,PB12*%
X153680000Y-79997056D03*
%TO.N,PB13*%
X151140000Y-77457056D03*
%TO.N,PB14*%
X151140000Y-79997056D03*
%TO.N,PB15*%
X148600000Y-77457056D03*
%TO.N,PD8*%
X148600000Y-79997056D03*
%TO.N,GND*%
X146060000Y-77457056D03*
X146060000Y-79997056D03*
X143520000Y-77457056D03*
X143520000Y-79997056D03*
%TO.N,PD9*%
X140980000Y-77457056D03*
%TO.N,PC6*%
X140980000Y-79997056D03*
%TO.N,PC7*%
X138440000Y-77457056D03*
%TO.N,PC8*%
X138440000Y-79997056D03*
%TO.N,PC9*%
X135900000Y-77457056D03*
%TO.N,PA8*%
X135900000Y-79997056D03*
%TO.N,PA9*%
X133360000Y-77457056D03*
%TO.N,PA10*%
X133360000Y-79997056D03*
%TO.N,PC10*%
X130820000Y-77457056D03*
%TO.N,PC11*%
X130820000Y-79997056D03*
%TO.N,PC12*%
X128280000Y-77457056D03*
%TO.N,PD0*%
X128280000Y-79997056D03*
%TO.N,PD1*%
X125740000Y-77457056D03*
%TO.N,PD2*%
X125740000Y-79997056D03*
%TO.N,PD3*%
X123200000Y-77457056D03*
%TO.N,PD4*%
X123200000Y-79997056D03*
%TO.N,GND*%
X120660000Y-77457056D03*
X120660000Y-79997056D03*
%TD*%
D15*
%TO.N,+3.3V*%
%TO.C,J7*%
X120670000Y-120290000D03*
D16*
%TO.N,GND*%
X120670000Y-117750000D03*
%TO.N,PB4*%
X123210000Y-120290000D03*
%TO.N,PD7*%
X123210000Y-117750000D03*
%TO.N,PB8*%
X125750000Y-120290000D03*
%TO.N,PB5*%
X125750000Y-117750000D03*
%TO.N,PE0*%
X128290000Y-120290000D03*
%TO.N,PB9*%
X128290000Y-117750000D03*
%TO.N,PE2*%
X130830000Y-120290000D03*
%TO.N,PE1*%
X130830000Y-117750000D03*
%TO.N,PE4*%
X133370000Y-120290000D03*
%TO.N,PE3*%
X133370000Y-117750000D03*
%TO.N,PE6*%
X135910000Y-120290000D03*
%TO.N,PE5*%
X135910000Y-117750000D03*
%TO.N,PC14*%
X138450000Y-120290000D03*
%TO.N,PC13*%
X138450000Y-117750000D03*
%TO.N,PC0*%
X140990000Y-120290000D03*
%TO.N,PC15*%
X140990000Y-117750000D03*
%TO.N,GND*%
X143530000Y-120290000D03*
X143530000Y-117750000D03*
X146070000Y-120290000D03*
X146070000Y-117750000D03*
X148610000Y-120290000D03*
X148610000Y-117750000D03*
%TO.N,PC2*%
X151150000Y-120290000D03*
%TO.N,PC1*%
X151150000Y-117750000D03*
%TO.N,PA0*%
X153690000Y-120290000D03*
%TO.N,PC3*%
X153690000Y-117750000D03*
%TO.N,PA2*%
X156230000Y-120290000D03*
%TO.N,PA1*%
X156230000Y-117750000D03*
%TO.N,PA4*%
X158770000Y-120290000D03*
%TO.N,PA3*%
X158770000Y-117750000D03*
%TO.N,PC5*%
X161310000Y-120290000D03*
%TO.N,PC4*%
X161310000Y-117750000D03*
%TO.N,PB1*%
X163850000Y-120290000D03*
%TO.N,PB0*%
X163850000Y-117750000D03*
%TO.N,PE7*%
X166390000Y-120290000D03*
%TO.N,PB2*%
X166390000Y-117750000D03*
%TO.N,GND*%
X168930000Y-120290000D03*
X168930000Y-117750000D03*
%TD*%
D13*
%TO.N,GND*%
%TO.C,H2*%
X173000000Y-78732056D03*
X173702944Y-77035000D03*
X173702944Y-80429112D03*
X175400000Y-76332056D03*
D14*
X175400000Y-78732056D03*
D13*
X175400000Y-81132056D03*
X177097056Y-77035000D03*
X177097056Y-80429112D03*
X177800000Y-78732056D03*
%TD*%
%TO.N,GND*%
%TO.C,H1*%
X111220000Y-78732056D03*
X111922944Y-77035000D03*
X111922944Y-80429112D03*
X113620000Y-76332056D03*
D14*
X113620000Y-78732056D03*
D13*
X113620000Y-81132056D03*
X115317056Y-77035000D03*
X115317056Y-80429112D03*
X116020000Y-78732056D03*
%TD*%
%TO.N,GND*%
%TO.C,H3*%
X178300000Y-119000000D03*
X177597056Y-120697056D03*
X177597056Y-117302944D03*
X175900000Y-121400000D03*
D14*
X175900000Y-119000000D03*
D13*
X175900000Y-116600000D03*
X174202944Y-120697056D03*
X174202944Y-117302944D03*
X173500000Y-119000000D03*
%TD*%
D17*
%TO.N,unconnected-(J5-SHIELD-PadS1)_3*%
%TO.C,J5*%
X104402500Y-79535000D03*
D18*
%TO.N,unconnected-(J5-SHIELD-PadS1)_2*%
X100222500Y-79535000D03*
D17*
%TO.N,unconnected-(J5-SHIELD-PadS1)*%
X104402500Y-88175000D03*
D18*
%TO.N,unconnected-(J5-SHIELD-PadS1)_1*%
X100222500Y-88175000D03*
%TD*%
D19*
%TO.N,GND*%
X146916576Y-104700730D03*
X142830000Y-109865000D03*
%TO.N,+3.3V*%
X142830000Y-108290000D03*
X144290000Y-108315000D03*
%TO.N,SWDIO*%
X125380000Y-94020000D03*
%TO.N,SWCLK*%
X123930000Y-92075000D03*
X141640000Y-92810000D03*
%TO.N,GND*%
X153370000Y-109940000D03*
%TO.N,+3.3VA*%
X115810000Y-101650000D03*
X152169914Y-104728061D03*
%TO.N,GND*%
X157390000Y-106280000D03*
X151370000Y-104740000D03*
X153889322Y-104298652D03*
%TO.N,SWDIO*%
X143101270Y-92190271D03*
%TO.N,GND*%
X141880000Y-103900000D03*
X124275000Y-102830000D03*
%TO.N,+3.3V*%
X122625000Y-105750000D03*
%TO.N,GND*%
X120830000Y-108140000D03*
X115950000Y-107557500D03*
%TO.N,+3.3V*%
X107640000Y-96090000D03*
X107640000Y-95035000D03*
X107640000Y-93980000D03*
%TO.N,GND*%
X111415000Y-101400000D03*
%TO.N,+3.3V*%
X111377500Y-99940000D03*
X113032500Y-101650000D03*
X113090000Y-100000000D03*
X102000000Y-94400000D03*
X115610000Y-95050000D03*
X178745000Y-88250000D03*
X157380000Y-103795000D03*
X157330000Y-92105000D03*
X141470000Y-88980000D03*
X125150000Y-84260000D03*
X122625000Y-98560000D03*
%TO.N,GND*%
X122675000Y-100020000D03*
%TO.N,+3.3V*%
X139820000Y-105565000D03*
X151910000Y-108385000D03*
X178790000Y-113200000D03*
X176405000Y-109110000D03*
X176400000Y-113500000D03*
X178780000Y-101920000D03*
%TO.N,GND*%
X154840000Y-109940000D03*
X146110000Y-113295000D03*
X149040000Y-113290000D03*
X151910000Y-109935000D03*
X139820000Y-107115000D03*
X144290000Y-109865000D03*
X146480000Y-108480000D03*
X148680000Y-110180000D03*
X178790000Y-109450000D03*
X178780000Y-95670000D03*
X178745000Y-84500000D03*
X158790000Y-90555000D03*
X157330000Y-90555000D03*
X142301349Y-92201694D03*
X139920000Y-88970000D03*
X139920000Y-87510000D03*
X130502500Y-88790000D03*
X130502500Y-87330000D03*
X130507500Y-85870000D03*
X130507500Y-84410000D03*
X120070000Y-84260000D03*
X123880000Y-84260000D03*
X122610000Y-84260000D03*
X120830000Y-96170000D03*
X114990000Y-99940000D03*
X102000000Y-98900000D03*
X115610000Y-97350000D03*
X111360000Y-90050000D03*
X111360000Y-90050000D03*
X107117500Y-79712500D03*
X107850000Y-84047500D03*
X107117500Y-88367500D03*
X105042500Y-87055000D03*
X105042500Y-80655000D03*
%TO.N,PC0*%
X149159934Y-104440525D03*
%TO.N,PC15*%
X146116602Y-104693987D03*
%TO.N,PC14*%
X145316614Y-104689165D03*
%TO.N,PC13*%
X144509259Y-104667777D03*
%TO.N,PE6*%
X143709390Y-104653186D03*
%TO.N,PE5*%
X142900000Y-104640000D03*
%TO.N,NRST*%
X125500000Y-101020000D03*
X148360000Y-104430000D03*
%TO.N,BOOT0*%
X104130000Y-101770000D03*
X141890000Y-103100000D03*
%TO.N,SWO*%
X122480000Y-94060000D03*
X141840000Y-98930000D03*
%TO.N,USART2_RX*%
X173820000Y-87110000D03*
X141841427Y-98029921D03*
%TO.N,USART2_TX*%
X173810000Y-85650000D03*
X141830000Y-97230000D03*
%TO.N,I2C1_SCL*%
X173730000Y-110590000D03*
%TO.N,I2C1_SDA*%
X173750000Y-112035000D03*
X141780000Y-100960003D03*
%TO.N,I2C1_SCL*%
X141780000Y-100160000D03*
%TO.N,USB_D+*%
X111380000Y-84990000D03*
X143901263Y-92186390D03*
%TO.N,USB_D-*%
X111440000Y-83100000D03*
X144699109Y-92245084D03*
%TO.N,LED_BLUE*%
X136370000Y-84390000D03*
X150822366Y-89105423D03*
%TO.N,LED_RED*%
X136390000Y-85870000D03*
X150022599Y-89131395D03*
%TO.N,LED_YELLOW*%
X136470000Y-87340000D03*
X149222620Y-89125282D03*
%TO.N,LED_GREEN*%
X136530000Y-88800000D03*
X148423000Y-89150000D03*
%TO.N,SPI1_NSS*%
X153901997Y-103498750D03*
X173830000Y-96630000D03*
%TO.N,SPI1_SCK*%
X173850000Y-101010000D03*
X153877860Y-102699111D03*
%TO.N,SPI1_MISO*%
X173830000Y-99550000D03*
X153908733Y-101889923D03*
%TO.N,SPI1_MOSI*%
X153920000Y-101090000D03*
X173820000Y-98090000D03*
%TD*%
%TA.AperFunction,Conductor*%
%TO.N,+3.3V*%
G36*
X180123243Y-74260669D02*
G01*
X180145186Y-74261820D01*
X180427046Y-74276592D01*
X180439953Y-74277949D01*
X180571089Y-74298718D01*
X180737209Y-74325028D01*
X180749896Y-74327724D01*
X181040625Y-74405625D01*
X181052965Y-74409635D01*
X181333938Y-74517490D01*
X181345790Y-74522767D01*
X181613968Y-74659411D01*
X181625199Y-74665896D01*
X181691389Y-74708880D01*
X181877608Y-74829812D01*
X181888109Y-74837441D01*
X182122010Y-75026850D01*
X182131655Y-75035535D01*
X182344464Y-75248344D01*
X182353149Y-75257989D01*
X182542558Y-75491890D01*
X182550187Y-75502391D01*
X182714101Y-75754796D01*
X182720591Y-75766036D01*
X182857231Y-76034206D01*
X182862510Y-76046064D01*
X182970363Y-76327033D01*
X182974374Y-76339376D01*
X183052273Y-76630097D01*
X183054971Y-76642794D01*
X183102050Y-76940046D01*
X183103407Y-76952953D01*
X183119330Y-77256756D01*
X183119500Y-77263246D01*
X183119500Y-120496753D01*
X183119330Y-120503243D01*
X183103407Y-120807046D01*
X183102050Y-120819953D01*
X183054971Y-121117205D01*
X183052273Y-121129902D01*
X182974374Y-121420623D01*
X182970363Y-121432966D01*
X182862510Y-121713935D01*
X182857231Y-121725793D01*
X182720591Y-121993963D01*
X182714101Y-122005203D01*
X182550187Y-122257608D01*
X182542558Y-122268109D01*
X182353149Y-122502010D01*
X182344464Y-122511655D01*
X182131655Y-122724464D01*
X182122010Y-122733149D01*
X181888109Y-122922558D01*
X181877608Y-122930187D01*
X181625203Y-123094101D01*
X181613963Y-123100591D01*
X181345793Y-123237231D01*
X181333935Y-123242510D01*
X181052966Y-123350363D01*
X181040623Y-123354374D01*
X180749902Y-123432273D01*
X180737205Y-123434971D01*
X180439953Y-123482050D01*
X180427046Y-123483407D01*
X180123244Y-123499330D01*
X180116754Y-123499500D01*
X102003246Y-123499500D01*
X101996756Y-123499330D01*
X101692953Y-123483407D01*
X101680046Y-123482050D01*
X101382794Y-123434971D01*
X101370097Y-123432273D01*
X101079376Y-123354374D01*
X101067033Y-123350363D01*
X100786064Y-123242510D01*
X100774206Y-123237231D01*
X100506036Y-123100591D01*
X100494796Y-123094101D01*
X100242391Y-122930187D01*
X100231890Y-122922558D01*
X99997989Y-122733149D01*
X99988344Y-122724464D01*
X99775535Y-122511655D01*
X99766850Y-122502010D01*
X99577441Y-122268109D01*
X99569812Y-122257608D01*
X99538325Y-122209122D01*
X99405896Y-122005199D01*
X99399408Y-121993963D01*
X99262768Y-121725793D01*
X99257489Y-121713935D01*
X99149636Y-121432966D01*
X99145625Y-121420623D01*
X99082498Y-121185030D01*
X99067724Y-121129896D01*
X99065028Y-121117205D01*
X99017949Y-120819953D01*
X99016592Y-120807046D01*
X99000670Y-120503243D01*
X99000500Y-120496753D01*
X99000500Y-119014999D01*
X109914422Y-119014999D01*
X109914422Y-119015000D01*
X109932526Y-119360447D01*
X109934722Y-119402338D01*
X109995398Y-119785433D01*
X110068883Y-120059685D01*
X110095788Y-120160094D01*
X110234787Y-120522197D01*
X110410877Y-120867793D01*
X110622122Y-121193082D01*
X110803363Y-121416895D01*
X110866219Y-121494516D01*
X111140484Y-121768781D01*
X111308375Y-121904737D01*
X111441917Y-122012877D01*
X111603195Y-122117612D01*
X111767211Y-122224125D01*
X112112806Y-122400214D01*
X112474913Y-122539214D01*
X112849567Y-122639602D01*
X113232662Y-122700278D01*
X113598576Y-122719455D01*
X113619999Y-122720578D01*
X113620000Y-122720578D01*
X113620001Y-122720578D01*
X113640301Y-122719514D01*
X114007338Y-122700278D01*
X114390433Y-122639602D01*
X114765087Y-122539214D01*
X115127194Y-122400214D01*
X115472789Y-122224125D01*
X115798084Y-122012876D01*
X116099516Y-121768781D01*
X116373781Y-121494516D01*
X116617876Y-121193084D01*
X116829125Y-120867789D01*
X117005214Y-120522194D01*
X117144214Y-120160087D01*
X117244602Y-119785433D01*
X117305278Y-119402338D01*
X117325578Y-119015000D01*
X117305278Y-118627662D01*
X117244602Y-118244567D01*
X117144214Y-117869913D01*
X117098183Y-117749999D01*
X119314341Y-117749999D01*
X119314341Y-117750000D01*
X119334936Y-117985403D01*
X119334938Y-117985413D01*
X119396094Y-118213655D01*
X119396096Y-118213659D01*
X119396097Y-118213663D01*
X119476004Y-118385023D01*
X119495965Y-118427830D01*
X119495967Y-118427834D01*
X119604281Y-118582521D01*
X119631501Y-118621396D01*
X119631506Y-118621402D01*
X119753818Y-118743714D01*
X119787303Y-118805037D01*
X119782319Y-118874729D01*
X119740447Y-118930662D01*
X119709471Y-118947577D01*
X119577912Y-118996646D01*
X119577906Y-118996649D01*
X119462812Y-119082809D01*
X119462809Y-119082812D01*
X119376649Y-119197906D01*
X119376645Y-119197913D01*
X119326403Y-119332620D01*
X119326401Y-119332627D01*
X119320000Y-119392155D01*
X119320000Y-120040000D01*
X120236988Y-120040000D01*
X120204075Y-120097007D01*
X120170000Y-120224174D01*
X120170000Y-120355826D01*
X120204075Y-120482993D01*
X120236988Y-120540000D01*
X119320000Y-120540000D01*
X119320000Y-121187844D01*
X119326401Y-121247372D01*
X119326403Y-121247379D01*
X119376645Y-121382086D01*
X119376649Y-121382093D01*
X119462809Y-121497187D01*
X119462812Y-121497190D01*
X119577906Y-121583350D01*
X119577913Y-121583354D01*
X119712620Y-121633596D01*
X119712627Y-121633598D01*
X119772155Y-121639999D01*
X119772172Y-121640000D01*
X120420000Y-121640000D01*
X120420000Y-120723012D01*
X120477007Y-120755925D01*
X120604174Y-120790000D01*
X120735826Y-120790000D01*
X120862993Y-120755925D01*
X120920000Y-120723012D01*
X120920000Y-121640000D01*
X121567828Y-121640000D01*
X121567844Y-121639999D01*
X121627372Y-121633598D01*
X121627379Y-121633596D01*
X121762086Y-121583354D01*
X121762093Y-121583350D01*
X121877187Y-121497190D01*
X121877190Y-121497187D01*
X121963350Y-121382093D01*
X121963354Y-121382086D01*
X122012422Y-121250529D01*
X122054293Y-121194595D01*
X122119757Y-121170178D01*
X122188030Y-121185030D01*
X122216285Y-121206181D01*
X122338599Y-121328495D01*
X122415135Y-121382086D01*
X122532165Y-121464032D01*
X122532167Y-121464033D01*
X122532170Y-121464035D01*
X122746337Y-121563903D01*
X122974592Y-121625063D01*
X123145319Y-121640000D01*
X123209999Y-121645659D01*
X123210000Y-121645659D01*
X123210001Y-121645659D01*
X123274681Y-121640000D01*
X123445408Y-121625063D01*
X123673663Y-121563903D01*
X123887830Y-121464035D01*
X124081401Y-121328495D01*
X124248495Y-121161401D01*
X124378425Y-120975842D01*
X124433002Y-120932217D01*
X124502500Y-120925023D01*
X124564855Y-120956546D01*
X124581575Y-120975842D01*
X124711500Y-121161395D01*
X124711505Y-121161401D01*
X124878599Y-121328495D01*
X124955135Y-121382086D01*
X125072165Y-121464032D01*
X125072167Y-121464033D01*
X125072170Y-121464035D01*
X125286337Y-121563903D01*
X125514592Y-121625063D01*
X125685319Y-121640000D01*
X125749999Y-121645659D01*
X125750000Y-121645659D01*
X125750001Y-121645659D01*
X125814681Y-121640000D01*
X125985408Y-121625063D01*
X126213663Y-121563903D01*
X126427830Y-121464035D01*
X126621401Y-121328495D01*
X126788495Y-121161401D01*
X126918425Y-120975842D01*
X126973002Y-120932217D01*
X127042500Y-120925023D01*
X127104855Y-120956546D01*
X127121575Y-120975842D01*
X127251500Y-121161395D01*
X127251505Y-121161401D01*
X127418599Y-121328495D01*
X127495135Y-121382086D01*
X127612165Y-121464032D01*
X127612167Y-121464033D01*
X127612170Y-121464035D01*
X127826337Y-121563903D01*
X128054592Y-121625063D01*
X128225319Y-121640000D01*
X128289999Y-121645659D01*
X128290000Y-121645659D01*
X128290001Y-121645659D01*
X128354681Y-121640000D01*
X128525408Y-121625063D01*
X128753663Y-121563903D01*
X128967830Y-121464035D01*
X129161401Y-121328495D01*
X129328495Y-121161401D01*
X129458425Y-120975842D01*
X129513002Y-120932217D01*
X129582500Y-120925023D01*
X129644855Y-120956546D01*
X129661575Y-120975842D01*
X129791500Y-121161395D01*
X129791505Y-121161401D01*
X129958599Y-121328495D01*
X130035135Y-121382086D01*
X130152165Y-121464032D01*
X130152167Y-121464033D01*
X130152170Y-121464035D01*
X130366337Y-121563903D01*
X130594592Y-121625063D01*
X130765319Y-121640000D01*
X130829999Y-121645659D01*
X130830000Y-121645659D01*
X130830001Y-121645659D01*
X130894681Y-121640000D01*
X131065408Y-121625063D01*
X131293663Y-121563903D01*
X131507830Y-121464035D01*
X131701401Y-121328495D01*
X131868495Y-121161401D01*
X131998425Y-120975842D01*
X132053002Y-120932217D01*
X132122500Y-120925023D01*
X132184855Y-120956546D01*
X132201575Y-120975842D01*
X132331500Y-121161395D01*
X132331505Y-121161401D01*
X132498599Y-121328495D01*
X132575135Y-121382086D01*
X132692165Y-121464032D01*
X132692167Y-121464033D01*
X132692170Y-121464035D01*
X132906337Y-121563903D01*
X133134592Y-121625063D01*
X133305319Y-121640000D01*
X133369999Y-121645659D01*
X133370000Y-121645659D01*
X133370001Y-121645659D01*
X133434681Y-121640000D01*
X133605408Y-121625063D01*
X133833663Y-121563903D01*
X134047830Y-121464035D01*
X134241401Y-121328495D01*
X134408495Y-121161401D01*
X134538425Y-120975842D01*
X134593002Y-120932217D01*
X134662500Y-120925023D01*
X134724855Y-120956546D01*
X134741575Y-120975842D01*
X134871500Y-121161395D01*
X134871505Y-121161401D01*
X135038599Y-121328495D01*
X135115135Y-121382086D01*
X135232165Y-121464032D01*
X135232167Y-121464033D01*
X135232170Y-121464035D01*
X135446337Y-121563903D01*
X135674592Y-121625063D01*
X135845319Y-121640000D01*
X135909999Y-121645659D01*
X135910000Y-121645659D01*
X135910001Y-121645659D01*
X135974681Y-121640000D01*
X136145408Y-121625063D01*
X136373663Y-121563903D01*
X136587830Y-121464035D01*
X136781401Y-121328495D01*
X136948495Y-121161401D01*
X137078425Y-120975842D01*
X137133002Y-120932217D01*
X137202500Y-120925023D01*
X137264855Y-120956546D01*
X137281575Y-120975842D01*
X137411500Y-121161395D01*
X137411505Y-121161401D01*
X137578599Y-121328495D01*
X137655135Y-121382086D01*
X137772165Y-121464032D01*
X137772167Y-121464033D01*
X137772170Y-121464035D01*
X137986337Y-121563903D01*
X138214592Y-121625063D01*
X138385319Y-121640000D01*
X138449999Y-121645659D01*
X138450000Y-121645659D01*
X138450001Y-121645659D01*
X138514681Y-121640000D01*
X138685408Y-121625063D01*
X138913663Y-121563903D01*
X139127830Y-121464035D01*
X139321401Y-121328495D01*
X139488495Y-121161401D01*
X139618425Y-120975842D01*
X139673002Y-120932217D01*
X139742500Y-120925023D01*
X139804855Y-120956546D01*
X139821575Y-120975842D01*
X139951500Y-121161395D01*
X139951505Y-121161401D01*
X140118599Y-121328495D01*
X140195135Y-121382086D01*
X140312165Y-121464032D01*
X140312167Y-121464033D01*
X140312170Y-121464035D01*
X140526337Y-121563903D01*
X140754592Y-121625063D01*
X140925319Y-121640000D01*
X140989999Y-121645659D01*
X140990000Y-121645659D01*
X140990001Y-121645659D01*
X141054681Y-121640000D01*
X141225408Y-121625063D01*
X141453663Y-121563903D01*
X141667830Y-121464035D01*
X141861401Y-121328495D01*
X142028495Y-121161401D01*
X142158425Y-120975842D01*
X142213002Y-120932217D01*
X142282500Y-120925023D01*
X142344855Y-120956546D01*
X142361575Y-120975842D01*
X142491500Y-121161395D01*
X142491505Y-121161401D01*
X142658599Y-121328495D01*
X142735135Y-121382086D01*
X142852165Y-121464032D01*
X142852167Y-121464033D01*
X142852170Y-121464035D01*
X143066337Y-121563903D01*
X143294592Y-121625063D01*
X143465319Y-121640000D01*
X143529999Y-121645659D01*
X143530000Y-121645659D01*
X143530001Y-121645659D01*
X143594681Y-121640000D01*
X143765408Y-121625063D01*
X143993663Y-121563903D01*
X144207830Y-121464035D01*
X144401401Y-121328495D01*
X144568495Y-121161401D01*
X144698425Y-120975842D01*
X144753002Y-120932217D01*
X144822500Y-120925023D01*
X144884855Y-120956546D01*
X144901575Y-120975842D01*
X145031500Y-121161395D01*
X145031505Y-121161401D01*
X145198599Y-121328495D01*
X145275135Y-121382086D01*
X145392165Y-121464032D01*
X145392167Y-121464033D01*
X145392170Y-121464035D01*
X145606337Y-121563903D01*
X145834592Y-121625063D01*
X146005319Y-121640000D01*
X146069999Y-121645659D01*
X146070000Y-121645659D01*
X146070001Y-121645659D01*
X146134681Y-121640000D01*
X146305408Y-121625063D01*
X146533663Y-121563903D01*
X146747830Y-121464035D01*
X146941401Y-121328495D01*
X147108495Y-121161401D01*
X147238425Y-120975842D01*
X147293002Y-120932217D01*
X147362500Y-120925023D01*
X147424855Y-120956546D01*
X147441575Y-120975842D01*
X147571500Y-121161395D01*
X147571505Y-121161401D01*
X147738599Y-121328495D01*
X147815135Y-121382086D01*
X147932165Y-121464032D01*
X147932167Y-121464033D01*
X147932170Y-121464035D01*
X148146337Y-121563903D01*
X148374592Y-121625063D01*
X148545319Y-121640000D01*
X148609999Y-121645659D01*
X148610000Y-121645659D01*
X148610001Y-121645659D01*
X148674681Y-121640000D01*
X148845408Y-121625063D01*
X149073663Y-121563903D01*
X149287830Y-121464035D01*
X149481401Y-121328495D01*
X149648495Y-121161401D01*
X149778425Y-120975842D01*
X149833002Y-120932217D01*
X149902500Y-120925023D01*
X149964855Y-120956546D01*
X149981575Y-120975842D01*
X150111500Y-121161395D01*
X150111505Y-121161401D01*
X150278599Y-121328495D01*
X150355135Y-121382086D01*
X150472165Y-121464032D01*
X150472167Y-121464033D01*
X150472170Y-121464035D01*
X150686337Y-121563903D01*
X150914592Y-121625063D01*
X151085319Y-121640000D01*
X151149999Y-121645659D01*
X151150000Y-121645659D01*
X151150001Y-121645659D01*
X151214681Y-121640000D01*
X151385408Y-121625063D01*
X151613663Y-121563903D01*
X151827830Y-121464035D01*
X152021401Y-121328495D01*
X152188495Y-121161401D01*
X152318425Y-120975842D01*
X152373002Y-120932217D01*
X152442500Y-120925023D01*
X152504855Y-120956546D01*
X152521575Y-120975842D01*
X152651500Y-121161395D01*
X152651505Y-121161401D01*
X152818599Y-121328495D01*
X152895135Y-121382086D01*
X153012165Y-121464032D01*
X153012167Y-121464033D01*
X153012170Y-121464035D01*
X153226337Y-121563903D01*
X153454592Y-121625063D01*
X153625319Y-121640000D01*
X153689999Y-121645659D01*
X153690000Y-121645659D01*
X153690001Y-121645659D01*
X153754681Y-121640000D01*
X153925408Y-121625063D01*
X154153663Y-121563903D01*
X154367830Y-121464035D01*
X154561401Y-121328495D01*
X154728495Y-121161401D01*
X154858425Y-120975842D01*
X154913002Y-120932217D01*
X154982500Y-120925023D01*
X155044855Y-120956546D01*
X155061575Y-120975842D01*
X155191500Y-121161395D01*
X155191505Y-121161401D01*
X155358599Y-121328495D01*
X155435135Y-121382086D01*
X155552165Y-121464032D01*
X155552167Y-121464033D01*
X155552170Y-121464035D01*
X155766337Y-121563903D01*
X155994592Y-121625063D01*
X156165319Y-121640000D01*
X156229999Y-121645659D01*
X156230000Y-121645659D01*
X156230001Y-121645659D01*
X156294681Y-121640000D01*
X156465408Y-121625063D01*
X156693663Y-121563903D01*
X156907830Y-121464035D01*
X157101401Y-121328495D01*
X157268495Y-121161401D01*
X157398425Y-120975842D01*
X157453002Y-120932217D01*
X157522500Y-120925023D01*
X157584855Y-120956546D01*
X157601575Y-120975842D01*
X157731500Y-121161395D01*
X157731505Y-121161401D01*
X157898599Y-121328495D01*
X157975135Y-121382086D01*
X158092165Y-121464032D01*
X158092167Y-121464033D01*
X158092170Y-121464035D01*
X158306337Y-121563903D01*
X158534592Y-121625063D01*
X158705319Y-121640000D01*
X158769999Y-121645659D01*
X158770000Y-121645659D01*
X158770001Y-121645659D01*
X158834681Y-121640000D01*
X159005408Y-121625063D01*
X159233663Y-121563903D01*
X159447830Y-121464035D01*
X159641401Y-121328495D01*
X159808495Y-121161401D01*
X159938425Y-120975842D01*
X159993002Y-120932217D01*
X160062500Y-120925023D01*
X160124855Y-120956546D01*
X160141575Y-120975842D01*
X160271500Y-121161395D01*
X160271505Y-121161401D01*
X160438599Y-121328495D01*
X160515135Y-121382086D01*
X160632165Y-121464032D01*
X160632167Y-121464033D01*
X160632170Y-121464035D01*
X160846337Y-121563903D01*
X161074592Y-121625063D01*
X161245319Y-121640000D01*
X161309999Y-121645659D01*
X161310000Y-121645659D01*
X161310001Y-121645659D01*
X161374681Y-121640000D01*
X161545408Y-121625063D01*
X161773663Y-121563903D01*
X161987830Y-121464035D01*
X162181401Y-121328495D01*
X162348495Y-121161401D01*
X162478425Y-120975842D01*
X162533002Y-120932217D01*
X162602500Y-120925023D01*
X162664855Y-120956546D01*
X162681575Y-120975842D01*
X162811500Y-121161395D01*
X162811505Y-121161401D01*
X162978599Y-121328495D01*
X163055135Y-121382086D01*
X163172165Y-121464032D01*
X163172167Y-121464033D01*
X163172170Y-121464035D01*
X163386337Y-121563903D01*
X163614592Y-121625063D01*
X163785319Y-121640000D01*
X163849999Y-121645659D01*
X163850000Y-121645659D01*
X163850001Y-121645659D01*
X163914681Y-121640000D01*
X164085408Y-121625063D01*
X164313663Y-121563903D01*
X164527830Y-121464035D01*
X164721401Y-121328495D01*
X164888495Y-121161401D01*
X165018425Y-120975842D01*
X165073002Y-120932217D01*
X165142500Y-120925023D01*
X165204855Y-120956546D01*
X165221575Y-120975842D01*
X165351500Y-121161395D01*
X165351505Y-121161401D01*
X165518599Y-121328495D01*
X165595135Y-121382086D01*
X165712165Y-121464032D01*
X165712167Y-121464033D01*
X165712170Y-121464035D01*
X165926337Y-121563903D01*
X166154592Y-121625063D01*
X166325319Y-121640000D01*
X166389999Y-121645659D01*
X166390000Y-121645659D01*
X166390001Y-121645659D01*
X166454681Y-121640000D01*
X166625408Y-121625063D01*
X166853663Y-121563903D01*
X167067830Y-121464035D01*
X167261401Y-121328495D01*
X167428495Y-121161401D01*
X167558425Y-120975842D01*
X167613002Y-120932217D01*
X167682500Y-120925023D01*
X167744855Y-120956546D01*
X167761575Y-120975842D01*
X167891500Y-121161395D01*
X167891505Y-121161401D01*
X168058599Y-121328495D01*
X168135135Y-121382086D01*
X168252165Y-121464032D01*
X168252167Y-121464033D01*
X168252170Y-121464035D01*
X168466337Y-121563903D01*
X168694592Y-121625063D01*
X168865319Y-121640000D01*
X168929999Y-121645659D01*
X168930000Y-121645659D01*
X168930001Y-121645659D01*
X168994681Y-121640000D01*
X169165408Y-121625063D01*
X169393663Y-121563903D01*
X169607830Y-121464035D01*
X169801401Y-121328495D01*
X169968495Y-121161401D01*
X170104035Y-120967830D01*
X170203903Y-120753663D01*
X170265063Y-120525408D01*
X170285659Y-120290000D01*
X170265063Y-120054592D01*
X170203903Y-119826337D01*
X170104035Y-119612171D01*
X170098425Y-119604158D01*
X169968494Y-119418597D01*
X169801402Y-119251506D01*
X169801396Y-119251501D01*
X169615842Y-119121575D01*
X169572217Y-119066998D01*
X169565282Y-118999999D01*
X172194422Y-118999999D01*
X172194422Y-119000000D01*
X172214722Y-119387339D01*
X172250332Y-119612171D01*
X172275398Y-119770433D01*
X172367051Y-120112489D01*
X172375788Y-120145094D01*
X172514787Y-120507197D01*
X172690877Y-120852793D01*
X172902122Y-121178082D01*
X173023927Y-121328498D01*
X173146219Y-121479516D01*
X173420484Y-121753781D01*
X173439011Y-121768784D01*
X173721917Y-121997877D01*
X173906293Y-122117612D01*
X174047211Y-122209125D01*
X174392806Y-122385214D01*
X174754913Y-122524214D01*
X175129567Y-122624602D01*
X175512662Y-122685278D01*
X175878576Y-122704455D01*
X175899999Y-122705578D01*
X175900000Y-122705578D01*
X175900001Y-122705578D01*
X175920301Y-122704514D01*
X176287338Y-122685278D01*
X176670433Y-122624602D01*
X177045087Y-122524214D01*
X177407194Y-122385214D01*
X177752789Y-122209125D01*
X178078084Y-121997876D01*
X178379516Y-121753781D01*
X178653781Y-121479516D01*
X178897876Y-121178084D01*
X179109125Y-120852789D01*
X179285214Y-120507194D01*
X179424214Y-120145087D01*
X179524602Y-119770433D01*
X179585278Y-119387338D01*
X179605578Y-119000000D01*
X179585278Y-118612662D01*
X179524602Y-118229567D01*
X179424214Y-117854913D01*
X179285214Y-117492806D01*
X179109125Y-117147211D01*
X179067721Y-117083454D01*
X178897877Y-116821917D01*
X178665928Y-116535484D01*
X178653781Y-116520484D01*
X178379516Y-116246219D01*
X178345164Y-116218401D01*
X178078082Y-116002122D01*
X177752793Y-115790877D01*
X177407197Y-115614787D01*
X177045094Y-115475788D01*
X177045087Y-115475786D01*
X176670433Y-115375398D01*
X176670429Y-115375397D01*
X176670428Y-115375397D01*
X176287339Y-115314722D01*
X175900001Y-115294422D01*
X175899999Y-115294422D01*
X175512660Y-115314722D01*
X175129572Y-115375397D01*
X175129570Y-115375397D01*
X174754905Y-115475788D01*
X174392802Y-115614787D01*
X174047206Y-115790877D01*
X173721917Y-116002122D01*
X173420488Y-116246215D01*
X173420480Y-116246222D01*
X173146222Y-116520480D01*
X173146215Y-116520488D01*
X172902122Y-116821917D01*
X172690877Y-117147206D01*
X172514787Y-117492802D01*
X172375788Y-117854905D01*
X172275397Y-118229570D01*
X172275397Y-118229572D01*
X172214722Y-118612660D01*
X172194422Y-118999999D01*
X169565282Y-118999999D01*
X169565023Y-118997500D01*
X169596546Y-118935145D01*
X169615842Y-118918425D01*
X169727500Y-118840241D01*
X169801401Y-118788495D01*
X169968495Y-118621401D01*
X170104035Y-118427830D01*
X170203903Y-118213663D01*
X170265063Y-117985408D01*
X170285659Y-117750000D01*
X170265063Y-117514592D01*
X170203903Y-117286337D01*
X170104035Y-117072171D01*
X170098425Y-117064158D01*
X169968494Y-116878597D01*
X169801402Y-116711506D01*
X169801395Y-116711501D01*
X169607834Y-116575967D01*
X169607830Y-116575965D01*
X169521018Y-116535484D01*
X169393663Y-116476097D01*
X169393659Y-116476096D01*
X169393655Y-116476094D01*
X169165413Y-116414938D01*
X169165403Y-116414936D01*
X168930001Y-116394341D01*
X168929999Y-116394341D01*
X168694596Y-116414936D01*
X168694586Y-116414938D01*
X168466344Y-116476094D01*
X168466335Y-116476098D01*
X168252171Y-116575964D01*
X168252169Y-116575965D01*
X168058597Y-116711505D01*
X167891505Y-116878597D01*
X167761575Y-117064158D01*
X167706998Y-117107783D01*
X167637500Y-117114977D01*
X167575145Y-117083454D01*
X167558425Y-117064158D01*
X167428494Y-116878597D01*
X167261402Y-116711506D01*
X167261395Y-116711501D01*
X167067834Y-116575967D01*
X167067830Y-116575965D01*
X166981018Y-116535484D01*
X166853663Y-116476097D01*
X166853659Y-116476096D01*
X166853655Y-116476094D01*
X166625413Y-116414938D01*
X166625403Y-116414936D01*
X166390001Y-116394341D01*
X166389999Y-116394341D01*
X166154596Y-116414936D01*
X166154586Y-116414938D01*
X165926344Y-116476094D01*
X165926335Y-116476098D01*
X165712171Y-116575964D01*
X165712169Y-116575965D01*
X165518597Y-116711505D01*
X165351505Y-116878597D01*
X165221575Y-117064158D01*
X165166998Y-117107783D01*
X165097500Y-117114977D01*
X165035145Y-117083454D01*
X165018425Y-117064158D01*
X164888494Y-116878597D01*
X164721402Y-116711506D01*
X164721395Y-116711501D01*
X164527834Y-116575967D01*
X164527830Y-116575965D01*
X164441018Y-116535484D01*
X164313663Y-116476097D01*
X164313659Y-116476096D01*
X164313655Y-116476094D01*
X164085413Y-116414938D01*
X164085403Y-116414936D01*
X163850001Y-116394341D01*
X163849999Y-116394341D01*
X163614596Y-116414936D01*
X163614586Y-116414938D01*
X163386344Y-116476094D01*
X163386335Y-116476098D01*
X163172171Y-116575964D01*
X163172169Y-116575965D01*
X162978597Y-116711505D01*
X162811505Y-116878597D01*
X162681575Y-117064158D01*
X162626998Y-117107783D01*
X162557500Y-117114977D01*
X162495145Y-117083454D01*
X162478425Y-117064158D01*
X162348494Y-116878597D01*
X162181402Y-116711506D01*
X162181395Y-116711501D01*
X161987834Y-116575967D01*
X161987830Y-116575965D01*
X161901018Y-116535484D01*
X161773663Y-116476097D01*
X161773659Y-116476096D01*
X161773655Y-116476094D01*
X161545413Y-116414938D01*
X161545403Y-116414936D01*
X161310001Y-116394341D01*
X161309999Y-116394341D01*
X161074596Y-116414936D01*
X161074586Y-116414938D01*
X160846344Y-116476094D01*
X160846335Y-116476098D01*
X160632171Y-116575964D01*
X160632169Y-116575965D01*
X160438597Y-116711505D01*
X160271505Y-116878597D01*
X160141575Y-117064158D01*
X160086998Y-117107783D01*
X160017500Y-117114977D01*
X159955145Y-117083454D01*
X159938425Y-117064158D01*
X159808494Y-116878597D01*
X159641402Y-116711506D01*
X159641395Y-116711501D01*
X159447834Y-116575967D01*
X159447830Y-116575965D01*
X159361018Y-116535484D01*
X159233663Y-116476097D01*
X159233659Y-116476096D01*
X159233655Y-116476094D01*
X159005413Y-116414938D01*
X159005403Y-116414936D01*
X158770001Y-116394341D01*
X158769999Y-116394341D01*
X158534596Y-116414936D01*
X158534586Y-116414938D01*
X158306344Y-116476094D01*
X158306335Y-116476098D01*
X158092171Y-116575964D01*
X158092169Y-116575965D01*
X157898597Y-116711505D01*
X157731505Y-116878597D01*
X157601575Y-117064158D01*
X157546998Y-117107783D01*
X157477500Y-117114977D01*
X157415145Y-117083454D01*
X157398425Y-117064158D01*
X157268494Y-116878597D01*
X157101402Y-116711506D01*
X157101395Y-116711501D01*
X156907834Y-116575967D01*
X156907830Y-116575965D01*
X156821018Y-116535484D01*
X156693663Y-116476097D01*
X156693659Y-116476096D01*
X156693655Y-116476094D01*
X156465413Y-116414938D01*
X156465403Y-116414936D01*
X156230001Y-116394341D01*
X156229999Y-116394341D01*
X155994596Y-116414936D01*
X155994586Y-116414938D01*
X155766344Y-116476094D01*
X155766335Y-116476098D01*
X155552171Y-116575964D01*
X155552169Y-116575965D01*
X155358597Y-116711505D01*
X155191505Y-116878597D01*
X155061575Y-117064158D01*
X155006998Y-117107783D01*
X154937500Y-117114977D01*
X154875145Y-117083454D01*
X154858425Y-117064158D01*
X154728494Y-116878597D01*
X154561402Y-116711506D01*
X154561395Y-116711501D01*
X154367834Y-116575967D01*
X154367830Y-116575965D01*
X154281018Y-116535484D01*
X154153663Y-116476097D01*
X154153659Y-116476096D01*
X154153655Y-116476094D01*
X153925413Y-116414938D01*
X153925403Y-116414936D01*
X153690001Y-116394341D01*
X153689999Y-116394341D01*
X153454596Y-116414936D01*
X153454586Y-116414938D01*
X153226344Y-116476094D01*
X153226335Y-116476098D01*
X153012171Y-116575964D01*
X153012169Y-116575965D01*
X152818597Y-116711505D01*
X152651505Y-116878597D01*
X152521575Y-117064158D01*
X152466998Y-117107783D01*
X152397500Y-117114977D01*
X152335145Y-117083454D01*
X152318425Y-117064158D01*
X152188494Y-116878597D01*
X152021402Y-116711506D01*
X152021395Y-116711501D01*
X151827834Y-116575967D01*
X151827830Y-116575965D01*
X151741018Y-116535484D01*
X151613663Y-116476097D01*
X151613659Y-116476096D01*
X151613655Y-116476094D01*
X151385413Y-116414938D01*
X151385403Y-116414936D01*
X151150001Y-116394341D01*
X151149999Y-116394341D01*
X150914596Y-116414936D01*
X150914586Y-116414938D01*
X150686344Y-116476094D01*
X150686335Y-116476098D01*
X150472171Y-116575964D01*
X150472169Y-116575965D01*
X150278597Y-116711505D01*
X150111505Y-116878597D01*
X149981575Y-117064158D01*
X149926998Y-117107783D01*
X149857500Y-117114977D01*
X149795145Y-117083454D01*
X149778425Y-117064158D01*
X149648494Y-116878597D01*
X149481402Y-116711506D01*
X149481395Y-116711501D01*
X149287834Y-116575967D01*
X149287830Y-116575965D01*
X149201018Y-116535484D01*
X149073663Y-116476097D01*
X149073659Y-116476096D01*
X149073655Y-116476094D01*
X148845413Y-116414938D01*
X148845403Y-116414936D01*
X148610001Y-116394341D01*
X148609999Y-116394341D01*
X148374596Y-116414936D01*
X148374586Y-116414938D01*
X148146344Y-116476094D01*
X148146335Y-116476098D01*
X147932171Y-116575964D01*
X147932169Y-116575965D01*
X147738597Y-116711505D01*
X147571505Y-116878597D01*
X147441575Y-117064158D01*
X147386998Y-117107783D01*
X147317500Y-117114977D01*
X147255145Y-117083454D01*
X147238425Y-117064158D01*
X147108494Y-116878597D01*
X146941402Y-116711506D01*
X146941395Y-116711501D01*
X146747834Y-116575967D01*
X146747830Y-116575965D01*
X146661018Y-116535484D01*
X146533663Y-116476097D01*
X146533659Y-116476096D01*
X146533655Y-116476094D01*
X146305413Y-116414938D01*
X146305403Y-116414936D01*
X146070001Y-116394341D01*
X146069999Y-116394341D01*
X145834596Y-116414936D01*
X145834586Y-116414938D01*
X145606344Y-116476094D01*
X145606335Y-116476098D01*
X145392171Y-116575964D01*
X145392169Y-116575965D01*
X145198597Y-116711505D01*
X145031505Y-116878597D01*
X144901575Y-117064158D01*
X144846998Y-117107783D01*
X144777500Y-117114977D01*
X144715145Y-117083454D01*
X144698425Y-117064158D01*
X144568494Y-116878597D01*
X144401402Y-116711506D01*
X144401395Y-116711501D01*
X144207834Y-116575967D01*
X144207830Y-116575965D01*
X144121018Y-116535484D01*
X143993663Y-116476097D01*
X143993659Y-116476096D01*
X143993655Y-116476094D01*
X143765413Y-116414938D01*
X143765403Y-116414936D01*
X143530001Y-116394341D01*
X143529999Y-116394341D01*
X143294596Y-116414936D01*
X143294586Y-116414938D01*
X143066344Y-116476094D01*
X143066335Y-116476098D01*
X142852171Y-116575964D01*
X142852169Y-116575965D01*
X142658597Y-116711505D01*
X142491505Y-116878597D01*
X142361575Y-117064158D01*
X142306998Y-117107783D01*
X142237500Y-117114977D01*
X142175145Y-117083454D01*
X142158425Y-117064158D01*
X142028494Y-116878597D01*
X141861402Y-116711506D01*
X141861395Y-116711501D01*
X141667834Y-116575967D01*
X141667830Y-116575965D01*
X141581018Y-116535484D01*
X141453663Y-116476097D01*
X141453659Y-116476096D01*
X141453655Y-116476094D01*
X141225413Y-116414938D01*
X141225403Y-116414936D01*
X140990001Y-116394341D01*
X140989999Y-116394341D01*
X140754596Y-116414936D01*
X140754586Y-116414938D01*
X140526344Y-116476094D01*
X140526335Y-116476098D01*
X140312171Y-116575964D01*
X140312169Y-116575965D01*
X140118597Y-116711505D01*
X139951505Y-116878597D01*
X139821575Y-117064158D01*
X139766998Y-117107783D01*
X139697500Y-117114977D01*
X139635145Y-117083454D01*
X139618425Y-117064158D01*
X139488494Y-116878597D01*
X139321402Y-116711506D01*
X139321395Y-116711501D01*
X139127834Y-116575967D01*
X139127830Y-116575965D01*
X139041018Y-116535484D01*
X138913663Y-116476097D01*
X138913659Y-116476096D01*
X138913655Y-116476094D01*
X138685413Y-116414938D01*
X138685403Y-116414936D01*
X138450001Y-116394341D01*
X138449999Y-116394341D01*
X138214596Y-116414936D01*
X138214586Y-116414938D01*
X137986344Y-116476094D01*
X137986335Y-116476098D01*
X137772171Y-116575964D01*
X137772169Y-116575965D01*
X137578597Y-116711505D01*
X137411505Y-116878597D01*
X137281575Y-117064158D01*
X137226998Y-117107783D01*
X137157500Y-117114977D01*
X137095145Y-117083454D01*
X137078425Y-117064158D01*
X136948494Y-116878597D01*
X136781402Y-116711506D01*
X136781395Y-116711501D01*
X136587834Y-116575967D01*
X136587830Y-116575965D01*
X136501018Y-116535484D01*
X136373663Y-116476097D01*
X136373659Y-116476096D01*
X136373655Y-116476094D01*
X136145413Y-116414938D01*
X136145403Y-116414936D01*
X135910001Y-116394341D01*
X135909999Y-116394341D01*
X135674596Y-116414936D01*
X135674586Y-116414938D01*
X135446344Y-116476094D01*
X135446335Y-116476098D01*
X135232171Y-116575964D01*
X135232169Y-116575965D01*
X135038597Y-116711505D01*
X134871505Y-116878597D01*
X134741575Y-117064158D01*
X134686998Y-117107783D01*
X134617500Y-117114977D01*
X134555145Y-117083454D01*
X134538425Y-117064158D01*
X134408494Y-116878597D01*
X134241402Y-116711506D01*
X134241395Y-116711501D01*
X134047834Y-116575967D01*
X134047830Y-116575965D01*
X133961018Y-116535484D01*
X133833663Y-116476097D01*
X133833659Y-116476096D01*
X133833655Y-116476094D01*
X133605413Y-116414938D01*
X133605403Y-116414936D01*
X133370001Y-116394341D01*
X133369999Y-116394341D01*
X133134596Y-116414936D01*
X133134586Y-116414938D01*
X132906344Y-116476094D01*
X132906335Y-116476098D01*
X132692171Y-116575964D01*
X132692169Y-116575965D01*
X132498597Y-116711505D01*
X132331505Y-116878597D01*
X132201575Y-117064158D01*
X132146998Y-117107783D01*
X132077500Y-117114977D01*
X132015145Y-117083454D01*
X131998425Y-117064158D01*
X131868494Y-116878597D01*
X131701402Y-116711506D01*
X131701395Y-116711501D01*
X131507834Y-116575967D01*
X131507830Y-116575965D01*
X131421018Y-116535484D01*
X131293663Y-116476097D01*
X131293659Y-116476096D01*
X131293655Y-116476094D01*
X131065413Y-116414938D01*
X131065403Y-116414936D01*
X130830001Y-116394341D01*
X130829999Y-116394341D01*
X130594596Y-116414936D01*
X130594586Y-116414938D01*
X130366344Y-116476094D01*
X130366335Y-116476098D01*
X130152171Y-116575964D01*
X130152169Y-116575965D01*
X129958597Y-116711505D01*
X129791505Y-116878597D01*
X129661575Y-117064158D01*
X129606998Y-117107783D01*
X129537500Y-117114977D01*
X129475145Y-117083454D01*
X129458425Y-117064158D01*
X129328494Y-116878597D01*
X129161402Y-116711506D01*
X129161395Y-116711501D01*
X128967834Y-116575967D01*
X128967830Y-116575965D01*
X128881018Y-116535484D01*
X128753663Y-116476097D01*
X128753659Y-116476096D01*
X128753655Y-116476094D01*
X128525413Y-116414938D01*
X128525403Y-116414936D01*
X128290001Y-116394341D01*
X128289999Y-116394341D01*
X128054596Y-116414936D01*
X128054586Y-116414938D01*
X127826344Y-116476094D01*
X127826335Y-116476098D01*
X127612171Y-116575964D01*
X127612169Y-116575965D01*
X127418597Y-116711505D01*
X127251505Y-116878597D01*
X127121575Y-117064158D01*
X127066998Y-117107783D01*
X126997500Y-117114977D01*
X126935145Y-117083454D01*
X126918425Y-117064158D01*
X126788494Y-116878597D01*
X126621402Y-116711506D01*
X126621395Y-116711501D01*
X126427834Y-116575967D01*
X126427830Y-116575965D01*
X126341018Y-116535484D01*
X126213663Y-116476097D01*
X126213659Y-116476096D01*
X126213655Y-116476094D01*
X125985413Y-116414938D01*
X125985403Y-116414936D01*
X125750001Y-116394341D01*
X125749999Y-116394341D01*
X125514596Y-116414936D01*
X125514586Y-116414938D01*
X125286344Y-116476094D01*
X125286335Y-116476098D01*
X125072171Y-116575964D01*
X125072169Y-116575965D01*
X124878597Y-116711505D01*
X124711505Y-116878597D01*
X124581575Y-117064158D01*
X124526998Y-117107783D01*
X124457500Y-117114977D01*
X124395145Y-117083454D01*
X124378425Y-117064158D01*
X124248494Y-116878597D01*
X124081402Y-116711506D01*
X124081395Y-116711501D01*
X123887834Y-116575967D01*
X123887830Y-116575965D01*
X123801018Y-116535484D01*
X123673663Y-116476097D01*
X123673659Y-116476096D01*
X123673655Y-116476094D01*
X123445413Y-116414938D01*
X123445403Y-116414936D01*
X123210001Y-116394341D01*
X123209999Y-116394341D01*
X122974596Y-116414936D01*
X122974586Y-116414938D01*
X122746344Y-116476094D01*
X122746335Y-116476098D01*
X122532171Y-116575964D01*
X122532169Y-116575965D01*
X122338597Y-116711505D01*
X122171505Y-116878597D01*
X122041575Y-117064158D01*
X121986998Y-117107783D01*
X121917500Y-117114977D01*
X121855145Y-117083454D01*
X121838425Y-117064158D01*
X121708494Y-116878597D01*
X121541402Y-116711506D01*
X121541395Y-116711501D01*
X121347834Y-116575967D01*
X121347830Y-116575965D01*
X121261018Y-116535484D01*
X121133663Y-116476097D01*
X121133659Y-116476096D01*
X121133655Y-116476094D01*
X120905413Y-116414938D01*
X120905403Y-116414936D01*
X120670001Y-116394341D01*
X120669999Y-116394341D01*
X120434596Y-116414936D01*
X120434586Y-116414938D01*
X120206344Y-116476094D01*
X120206335Y-116476098D01*
X119992171Y-116575964D01*
X119992169Y-116575965D01*
X119798597Y-116711505D01*
X119631505Y-116878597D01*
X119495965Y-117072169D01*
X119495964Y-117072171D01*
X119396098Y-117286335D01*
X119396094Y-117286344D01*
X119334938Y-117514586D01*
X119334936Y-117514596D01*
X119314341Y-117749999D01*
X117098183Y-117749999D01*
X117005214Y-117507806D01*
X116829125Y-117162211D01*
X116777980Y-117083454D01*
X116617877Y-116836917D01*
X116509737Y-116703375D01*
X116373781Y-116535484D01*
X116099516Y-116261219D01*
X115851649Y-116060500D01*
X115798082Y-116017122D01*
X115472793Y-115805877D01*
X115127197Y-115629787D01*
X114765094Y-115490788D01*
X114765087Y-115490786D01*
X114390433Y-115390398D01*
X114390429Y-115390397D01*
X114390428Y-115390397D01*
X114007339Y-115329722D01*
X113620001Y-115309422D01*
X113619999Y-115309422D01*
X113232660Y-115329722D01*
X112849572Y-115390397D01*
X112849570Y-115390397D01*
X112474905Y-115490788D01*
X112112802Y-115629787D01*
X111767206Y-115805877D01*
X111441917Y-116017122D01*
X111140488Y-116261215D01*
X111140480Y-116261222D01*
X110866222Y-116535480D01*
X110866215Y-116535488D01*
X110622122Y-116836917D01*
X110410877Y-117162206D01*
X110234787Y-117507802D01*
X110095788Y-117869905D01*
X109995397Y-118244570D01*
X109995397Y-118244572D01*
X109934722Y-118627660D01*
X109914422Y-119014999D01*
X99000500Y-119014999D01*
X99000500Y-114441902D01*
X105719500Y-114441902D01*
X105719500Y-114678097D01*
X105756446Y-114911368D01*
X105829433Y-115135996D01*
X105910156Y-115294422D01*
X105936657Y-115346433D01*
X106075483Y-115537510D01*
X106242490Y-115704517D01*
X106433567Y-115843343D01*
X106532991Y-115894002D01*
X106644003Y-115950566D01*
X106644005Y-115950566D01*
X106644008Y-115950568D01*
X106764412Y-115989689D01*
X106868631Y-116023553D01*
X107101903Y-116060500D01*
X107101908Y-116060500D01*
X109538097Y-116060500D01*
X109771368Y-116023553D01*
X109791154Y-116017124D01*
X109995992Y-115950568D01*
X110206433Y-115843343D01*
X110397510Y-115704517D01*
X110564517Y-115537510D01*
X110703343Y-115346433D01*
X110810568Y-115135992D01*
X110883553Y-114911368D01*
X110920500Y-114678097D01*
X110920500Y-114441902D01*
X110883553Y-114208631D01*
X110822519Y-114020789D01*
X110810568Y-113984008D01*
X110810566Y-113984005D01*
X110810566Y-113984003D01*
X110715416Y-113797262D01*
X110703343Y-113773567D01*
X110564517Y-113582490D01*
X110397510Y-113415483D01*
X110231674Y-113294996D01*
X145304435Y-113294996D01*
X145304435Y-113295003D01*
X145324630Y-113474249D01*
X145324631Y-113474254D01*
X145384211Y-113644523D01*
X145465295Y-113773566D01*
X145480184Y-113797262D01*
X145607738Y-113924816D01*
X145698080Y-113981582D01*
X145752520Y-114015789D01*
X145760478Y-114020789D01*
X145916456Y-114075368D01*
X145930745Y-114080368D01*
X145930750Y-114080369D01*
X146109996Y-114100565D01*
X146110000Y-114100565D01*
X146110004Y-114100565D01*
X146289249Y-114080369D01*
X146289252Y-114080368D01*
X146289255Y-114080368D01*
X146459522Y-114020789D01*
X146612262Y-113924816D01*
X146739816Y-113797262D01*
X146835789Y-113644522D01*
X146895368Y-113474255D01*
X146895369Y-113474249D01*
X146915565Y-113295003D01*
X146915565Y-113294996D01*
X146915002Y-113289996D01*
X148234435Y-113289996D01*
X148234435Y-113290003D01*
X148254630Y-113469249D01*
X148254631Y-113469254D01*
X148314211Y-113639523D01*
X148398437Y-113773567D01*
X148410184Y-113792262D01*
X148537738Y-113919816D01*
X148690478Y-114015789D01*
X148860745Y-114075368D01*
X148860750Y-114075369D01*
X149039996Y-114095565D01*
X149040000Y-114095565D01*
X149040004Y-114095565D01*
X149219249Y-114075369D01*
X149219252Y-114075368D01*
X149219255Y-114075368D01*
X149389522Y-114015789D01*
X149542262Y-113919816D01*
X149669816Y-113792262D01*
X149765789Y-113639522D01*
X149825368Y-113469255D01*
X149825369Y-113469249D01*
X149845565Y-113290003D01*
X149845565Y-113289996D01*
X149825369Y-113110750D01*
X149825368Y-113110745D01*
X149807437Y-113059500D01*
X149765789Y-112940478D01*
X149669816Y-112787738D01*
X149542262Y-112660184D01*
X149389523Y-112564211D01*
X149219254Y-112504631D01*
X149219249Y-112504630D01*
X149040004Y-112484435D01*
X149039996Y-112484435D01*
X148860750Y-112504630D01*
X148860745Y-112504631D01*
X148690476Y-112564211D01*
X148537737Y-112660184D01*
X148410184Y-112787737D01*
X148314211Y-112940476D01*
X148254631Y-113110745D01*
X148254630Y-113110750D01*
X148234435Y-113289996D01*
X146915002Y-113289996D01*
X146895369Y-113115750D01*
X146895368Y-113115745D01*
X146835788Y-112945476D01*
X146769868Y-112840565D01*
X146739816Y-112792738D01*
X146612262Y-112665184D01*
X146604305Y-112660184D01*
X146459523Y-112569211D01*
X146289254Y-112509631D01*
X146289249Y-112509630D01*
X146110004Y-112489435D01*
X146109996Y-112489435D01*
X145930750Y-112509630D01*
X145930745Y-112509631D01*
X145760476Y-112569211D01*
X145607737Y-112665184D01*
X145480184Y-112792737D01*
X145384211Y-112945476D01*
X145324631Y-113115745D01*
X145324630Y-113115750D01*
X145304435Y-113294996D01*
X110231674Y-113294996D01*
X110206433Y-113276657D01*
X109995996Y-113169433D01*
X109771368Y-113096446D01*
X109538097Y-113059500D01*
X109538092Y-113059500D01*
X107101908Y-113059500D01*
X107101903Y-113059500D01*
X106868631Y-113096446D01*
X106644003Y-113169433D01*
X106433566Y-113276657D01*
X106324550Y-113355862D01*
X106242490Y-113415483D01*
X106242488Y-113415485D01*
X106242487Y-113415485D01*
X106075485Y-113582487D01*
X106075485Y-113582488D01*
X106075483Y-113582490D01*
X106034047Y-113639522D01*
X105936657Y-113773566D01*
X105829433Y-113984003D01*
X105756446Y-114208631D01*
X105719500Y-114441902D01*
X99000500Y-114441902D01*
X99000500Y-108541902D01*
X103419500Y-108541902D01*
X103419500Y-110978097D01*
X103456446Y-111211368D01*
X103529433Y-111435996D01*
X103636657Y-111646433D01*
X103775483Y-111837510D01*
X103942490Y-112004517D01*
X104133567Y-112143343D01*
X104232991Y-112194002D01*
X104344003Y-112250566D01*
X104344005Y-112250566D01*
X104344008Y-112250568D01*
X104464412Y-112289689D01*
X104568631Y-112323553D01*
X104801903Y-112360500D01*
X104801908Y-112360500D01*
X105038097Y-112360500D01*
X105271368Y-112323553D01*
X105495992Y-112250568D01*
X105706433Y-112143343D01*
X105897510Y-112004517D01*
X106064517Y-111837510D01*
X106203343Y-111646433D01*
X106310568Y-111435992D01*
X106383553Y-111211368D01*
X106420500Y-110978097D01*
X106420500Y-108541902D01*
X106383553Y-108308631D01*
X106328761Y-108140000D01*
X106310568Y-108084008D01*
X106310566Y-108084005D01*
X106310566Y-108084003D01*
X106247762Y-107960745D01*
X106203343Y-107873567D01*
X106064517Y-107682490D01*
X105897510Y-107515483D01*
X105755264Y-107412135D01*
X109719500Y-107412135D01*
X109719500Y-112107870D01*
X109719501Y-112107876D01*
X109725908Y-112167483D01*
X109776202Y-112302328D01*
X109776206Y-112302335D01*
X109862452Y-112417544D01*
X109862455Y-112417547D01*
X109977664Y-112503793D01*
X109977671Y-112503797D01*
X110112517Y-112554091D01*
X110112516Y-112554091D01*
X110119444Y-112554835D01*
X110172127Y-112560500D01*
X112267872Y-112560499D01*
X112327483Y-112554091D01*
X112462331Y-112503796D01*
X112577546Y-112417546D01*
X112663796Y-112302331D01*
X112714091Y-112167483D01*
X112720500Y-112107873D01*
X112720500Y-109864996D01*
X142024435Y-109864996D01*
X142024435Y-109865003D01*
X142044630Y-110044249D01*
X142044631Y-110044254D01*
X142104211Y-110214523D01*
X142151337Y-110289523D01*
X142200184Y-110367262D01*
X142327738Y-110494816D01*
X142480478Y-110590789D01*
X142650745Y-110650368D01*
X142650750Y-110650369D01*
X142829996Y-110670565D01*
X142830000Y-110670565D01*
X142830004Y-110670565D01*
X143009249Y-110650369D01*
X143009252Y-110650368D01*
X143009255Y-110650368D01*
X143179522Y-110590789D01*
X143332262Y-110494816D01*
X143459816Y-110367262D01*
X143459822Y-110367251D01*
X143463052Y-110363203D01*
X143520240Y-110323062D01*
X143590051Y-110320212D01*
X143650322Y-110355556D01*
X143656948Y-110363203D01*
X143660180Y-110367257D01*
X143660184Y-110367262D01*
X143787738Y-110494816D01*
X143940478Y-110590789D01*
X144110745Y-110650368D01*
X144110750Y-110650369D01*
X144289996Y-110670565D01*
X144290000Y-110670565D01*
X144290004Y-110670565D01*
X144469249Y-110650369D01*
X144469252Y-110650368D01*
X144469255Y-110650368D01*
X144639522Y-110590789D01*
X144792262Y-110494816D01*
X144919816Y-110367262D01*
X145015789Y-110214522D01*
X145027870Y-110179996D01*
X147874435Y-110179996D01*
X147874435Y-110180003D01*
X147894630Y-110359249D01*
X147894631Y-110359254D01*
X147954211Y-110529523D01*
X148030144Y-110650368D01*
X148050184Y-110682262D01*
X148177738Y-110809816D01*
X148330478Y-110905789D01*
X148500745Y-110965368D01*
X148500750Y-110965369D01*
X148679996Y-110985565D01*
X148680000Y-110985565D01*
X148680004Y-110985565D01*
X148859249Y-110965369D01*
X148859252Y-110965368D01*
X148859255Y-110965368D01*
X149029522Y-110905789D01*
X149182262Y-110809816D01*
X149309816Y-110682262D01*
X149405789Y-110529522D01*
X149465368Y-110359255D01*
X149473225Y-110289522D01*
X149485565Y-110180003D01*
X149485565Y-110179996D01*
X149465369Y-110000750D01*
X149465368Y-110000745D01*
X149442361Y-109934996D01*
X151104435Y-109934996D01*
X151104435Y-109935003D01*
X151124630Y-110114249D01*
X151124631Y-110114254D01*
X151184211Y-110284523D01*
X151252107Y-110392578D01*
X151280184Y-110437262D01*
X151407738Y-110564816D01*
X151447812Y-110589996D01*
X151543894Y-110650369D01*
X151560478Y-110660789D01*
X151730745Y-110720368D01*
X151730750Y-110720369D01*
X151909996Y-110740565D01*
X151910000Y-110740565D01*
X151910004Y-110740565D01*
X152089249Y-110720369D01*
X152089252Y-110720368D01*
X152089255Y-110720368D01*
X152259522Y-110660789D01*
X152412262Y-110564816D01*
X152539816Y-110437262D01*
X152539821Y-110437253D01*
X152541159Y-110435577D01*
X152542306Y-110434771D01*
X152544740Y-110432338D01*
X152545166Y-110432764D01*
X152598345Y-110395432D01*
X152668156Y-110392578D01*
X152728428Y-110427919D01*
X152735509Y-110437080D01*
X152735841Y-110436816D01*
X152740182Y-110442259D01*
X152740184Y-110442262D01*
X152867738Y-110569816D01*
X152958080Y-110626582D01*
X153012520Y-110660789D01*
X153020478Y-110665789D01*
X153176456Y-110720368D01*
X153190745Y-110725368D01*
X153190750Y-110725369D01*
X153369996Y-110745565D01*
X153370000Y-110745565D01*
X153370004Y-110745565D01*
X153549249Y-110725369D01*
X153549252Y-110725368D01*
X153549255Y-110725368D01*
X153719522Y-110665789D01*
X153872262Y-110569816D01*
X153999816Y-110442262D01*
X154000006Y-110441960D01*
X154000177Y-110441807D01*
X154004159Y-110436816D01*
X154005033Y-110437513D01*
X154052340Y-110395668D01*
X154121393Y-110385019D01*
X154185242Y-110413394D01*
X154205661Y-110436959D01*
X154205841Y-110436816D01*
X154209357Y-110441225D01*
X154209994Y-110441960D01*
X154210184Y-110442262D01*
X154337738Y-110569816D01*
X154428080Y-110626582D01*
X154482520Y-110660789D01*
X154490478Y-110665789D01*
X154646456Y-110720368D01*
X154660745Y-110725368D01*
X154660750Y-110725369D01*
X154839996Y-110745565D01*
X154840000Y-110745565D01*
X154840004Y-110745565D01*
X155019249Y-110725369D01*
X155019252Y-110725368D01*
X155019255Y-110725368D01*
X155189522Y-110665789D01*
X155310146Y-110589996D01*
X172924435Y-110589996D01*
X172924435Y-110590003D01*
X172944630Y-110769249D01*
X172944631Y-110769254D01*
X173004211Y-110939523D01*
X173100184Y-111092262D01*
X173227737Y-111219815D01*
X173233184Y-111224159D01*
X173231241Y-111226594D01*
X173268432Y-111268542D01*
X173279159Y-111337583D01*
X173250857Y-111401464D01*
X173243911Y-111409011D01*
X173120183Y-111532739D01*
X173024211Y-111685476D01*
X172964631Y-111855745D01*
X172964630Y-111855750D01*
X172944435Y-112034996D01*
X172944435Y-112035003D01*
X172964630Y-112214249D01*
X172964631Y-112214254D01*
X173024211Y-112384523D01*
X173099681Y-112504632D01*
X173120184Y-112537262D01*
X173247738Y-112664816D01*
X173400478Y-112760789D01*
X173491783Y-112792738D01*
X173570745Y-112820368D01*
X173570750Y-112820369D01*
X173749996Y-112840565D01*
X173750000Y-112840565D01*
X173750004Y-112840565D01*
X173929249Y-112820369D01*
X173929252Y-112820368D01*
X173929255Y-112820368D01*
X174099522Y-112760789D01*
X174252262Y-112664816D01*
X174379816Y-112537262D01*
X174475789Y-112384522D01*
X174535368Y-112214255D01*
X174547354Y-112107876D01*
X174555565Y-112035003D01*
X174555565Y-112034996D01*
X174535369Y-111855750D01*
X174535368Y-111855745D01*
X174475788Y-111685476D01*
X174436582Y-111623080D01*
X174379816Y-111532738D01*
X174252262Y-111405184D01*
X174246816Y-111400841D01*
X174248747Y-111398418D01*
X174211528Y-111356374D01*
X174200852Y-111287324D01*
X174229201Y-111223465D01*
X174236065Y-111216012D01*
X174359816Y-111092262D01*
X174455789Y-110939522D01*
X174515368Y-110769255D01*
X174515369Y-110769249D01*
X174535565Y-110590003D01*
X174535565Y-110589996D01*
X174515369Y-110410750D01*
X174515368Y-110410745D01*
X174497351Y-110359255D01*
X174455789Y-110240478D01*
X174439480Y-110214523D01*
X174379619Y-110119254D01*
X174359816Y-110087738D01*
X174232262Y-109960184D01*
X174200144Y-109940003D01*
X174079523Y-109864211D01*
X173909254Y-109804631D01*
X173909249Y-109804630D01*
X173730004Y-109784435D01*
X173729996Y-109784435D01*
X173550750Y-109804630D01*
X173550745Y-109804631D01*
X173380476Y-109864211D01*
X173227737Y-109960184D01*
X173100184Y-110087737D01*
X173004211Y-110240476D01*
X172944631Y-110410745D01*
X172944630Y-110410750D01*
X172924435Y-110589996D01*
X155310146Y-110589996D01*
X155342262Y-110569816D01*
X155469816Y-110442262D01*
X155565789Y-110289522D01*
X155625368Y-110119255D01*
X155625369Y-110119249D01*
X155645565Y-109940003D01*
X155645565Y-109939996D01*
X155625369Y-109760750D01*
X155625368Y-109760745D01*
X155599124Y-109685745D01*
X155565789Y-109590478D01*
X155562647Y-109585478D01*
X155497889Y-109482416D01*
X155477518Y-109449996D01*
X177984435Y-109449996D01*
X177984435Y-109450003D01*
X178004630Y-109629249D01*
X178004631Y-109629254D01*
X178064211Y-109799523D01*
X178149339Y-109935003D01*
X178160184Y-109952262D01*
X178287738Y-110079816D01*
X178440478Y-110175789D01*
X178610745Y-110235368D01*
X178610750Y-110235369D01*
X178789996Y-110255565D01*
X178790000Y-110255565D01*
X178790004Y-110255565D01*
X178969249Y-110235369D01*
X178969252Y-110235368D01*
X178969255Y-110235368D01*
X179139522Y-110175789D01*
X179292262Y-110079816D01*
X179419816Y-109952262D01*
X179515789Y-109799522D01*
X179575368Y-109629255D01*
X179575369Y-109629249D01*
X179595565Y-109450003D01*
X179595565Y-109449996D01*
X179575369Y-109270750D01*
X179575368Y-109270745D01*
X179573487Y-109265369D01*
X179515789Y-109100478D01*
X179419816Y-108947738D01*
X179292262Y-108820184D01*
X179212102Y-108769816D01*
X179139523Y-108724211D01*
X178969254Y-108664631D01*
X178969249Y-108664630D01*
X178790004Y-108644435D01*
X178789996Y-108644435D01*
X178610750Y-108664630D01*
X178610745Y-108664631D01*
X178440476Y-108724211D01*
X178287737Y-108820184D01*
X178160184Y-108947737D01*
X178064211Y-109100476D01*
X178004631Y-109270745D01*
X178004630Y-109270750D01*
X177984435Y-109449996D01*
X155477518Y-109449996D01*
X155469816Y-109437738D01*
X155342262Y-109310184D01*
X155303081Y-109285565D01*
X155189523Y-109214211D01*
X155019254Y-109154631D01*
X155019249Y-109154630D01*
X154840004Y-109134435D01*
X154839996Y-109134435D01*
X154660750Y-109154630D01*
X154660745Y-109154631D01*
X154490476Y-109214211D01*
X154337737Y-109310184D01*
X154210184Y-109437737D01*
X154210184Y-109437738D01*
X154209990Y-109438047D01*
X154209812Y-109438203D01*
X154205841Y-109443184D01*
X154204968Y-109442488D01*
X154157652Y-109484334D01*
X154088598Y-109494978D01*
X154024751Y-109466599D01*
X154004337Y-109443041D01*
X154004159Y-109443184D01*
X154000665Y-109438803D01*
X154000010Y-109438047D01*
X153999816Y-109437738D01*
X153872262Y-109310184D01*
X153833081Y-109285565D01*
X153719523Y-109214211D01*
X153549254Y-109154631D01*
X153549249Y-109154630D01*
X153370004Y-109134435D01*
X153369996Y-109134435D01*
X153190750Y-109154630D01*
X153190745Y-109154631D01*
X153020476Y-109214211D01*
X152867737Y-109310184D01*
X152740179Y-109437742D01*
X152738828Y-109439437D01*
X152737677Y-109440244D01*
X152735260Y-109442662D01*
X152734836Y-109442238D01*
X152681636Y-109479573D01*
X152611825Y-109482416D01*
X152551558Y-109447066D01*
X152544490Y-109437919D01*
X152544159Y-109438184D01*
X152539815Y-109432737D01*
X152412262Y-109305184D01*
X152259523Y-109209211D01*
X152089254Y-109149631D01*
X152089249Y-109149630D01*
X151910004Y-109129435D01*
X151909996Y-109129435D01*
X151730750Y-109149630D01*
X151730745Y-109149631D01*
X151560476Y-109209211D01*
X151407737Y-109305184D01*
X151280184Y-109432737D01*
X151184211Y-109585476D01*
X151124631Y-109755745D01*
X151124630Y-109755750D01*
X151104435Y-109934996D01*
X149442361Y-109934996D01*
X149417867Y-109864996D01*
X149405789Y-109830478D01*
X149309816Y-109677738D01*
X149182262Y-109550184D01*
X149127025Y-109515476D01*
X149029523Y-109454211D01*
X148859254Y-109394631D01*
X148859249Y-109394630D01*
X148680004Y-109374435D01*
X148679996Y-109374435D01*
X148500750Y-109394630D01*
X148500745Y-109394631D01*
X148330476Y-109454211D01*
X148177737Y-109550184D01*
X148050184Y-109677737D01*
X147954211Y-109830476D01*
X147894631Y-110000745D01*
X147894630Y-110000750D01*
X147874435Y-110179996D01*
X145027870Y-110179996D01*
X145075368Y-110044255D01*
X145080270Y-110000750D01*
X145095565Y-109865003D01*
X145095565Y-109864996D01*
X145075369Y-109685750D01*
X145075368Y-109685745D01*
X145045369Y-109600012D01*
X145015789Y-109515478D01*
X144919816Y-109362738D01*
X144792262Y-109235184D01*
X144758884Y-109214211D01*
X144639523Y-109139211D01*
X144469254Y-109079631D01*
X144469249Y-109079630D01*
X144290004Y-109059435D01*
X144289996Y-109059435D01*
X144110750Y-109079630D01*
X144110745Y-109079631D01*
X143940476Y-109139211D01*
X143787737Y-109235184D01*
X143660185Y-109362736D01*
X143656944Y-109366801D01*
X143599754Y-109406939D01*
X143529942Y-109409786D01*
X143469674Y-109374438D01*
X143463056Y-109366801D01*
X143459814Y-109362736D01*
X143332262Y-109235184D01*
X143179523Y-109139211D01*
X143009254Y-109079631D01*
X143009249Y-109079630D01*
X142830004Y-109059435D01*
X142829996Y-109059435D01*
X142650750Y-109079630D01*
X142650745Y-109079631D01*
X142480476Y-109139211D01*
X142327737Y-109235184D01*
X142200184Y-109362737D01*
X142104211Y-109515476D01*
X142044631Y-109685745D01*
X142044630Y-109685750D01*
X142024435Y-109864996D01*
X112720500Y-109864996D01*
X112720499Y-107557496D01*
X115144435Y-107557496D01*
X115144435Y-107557503D01*
X115164630Y-107736749D01*
X115164631Y-107736754D01*
X115224211Y-107907023D01*
X115268644Y-107977737D01*
X115320184Y-108059762D01*
X115447738Y-108187316D01*
X115600478Y-108283289D01*
X115703246Y-108319249D01*
X115770745Y-108342868D01*
X115770750Y-108342869D01*
X115949996Y-108363065D01*
X115950000Y-108363065D01*
X115950004Y-108363065D01*
X116129249Y-108342869D01*
X116129252Y-108342868D01*
X116129255Y-108342868D01*
X116299522Y-108283289D01*
X116452262Y-108187316D01*
X116499582Y-108139996D01*
X120024435Y-108139996D01*
X120024435Y-108140003D01*
X120044630Y-108319249D01*
X120044631Y-108319254D01*
X120104211Y-108489523D01*
X120137127Y-108541908D01*
X120200184Y-108642262D01*
X120327738Y-108769816D01*
X120480478Y-108865789D01*
X120650745Y-108925368D01*
X120650750Y-108925369D01*
X120829996Y-108945565D01*
X120830000Y-108945565D01*
X120830004Y-108945565D01*
X121009249Y-108925369D01*
X121009252Y-108925368D01*
X121009255Y-108925368D01*
X121179522Y-108865789D01*
X121332262Y-108769816D01*
X121459816Y-108642262D01*
X121555789Y-108489522D01*
X121559122Y-108479996D01*
X145674435Y-108479996D01*
X145674435Y-108480003D01*
X145694630Y-108659249D01*
X145694631Y-108659254D01*
X145754211Y-108829523D01*
X145827126Y-108945565D01*
X145850184Y-108982262D01*
X145977738Y-109109816D01*
X146130478Y-109205789D01*
X146300745Y-109265368D01*
X146300750Y-109265369D01*
X146479996Y-109285565D01*
X146480000Y-109285565D01*
X146480004Y-109285565D01*
X146659249Y-109265369D01*
X146659252Y-109265368D01*
X146659255Y-109265368D01*
X146829522Y-109205789D01*
X146982262Y-109109816D01*
X147109816Y-108982262D01*
X147205789Y-108829522D01*
X147265368Y-108659255D01*
X147278590Y-108541908D01*
X147285565Y-108480003D01*
X147285565Y-108479996D01*
X147265369Y-108300750D01*
X147265368Y-108300745D01*
X147205788Y-108130476D01*
X147109815Y-107977737D01*
X146982262Y-107850184D01*
X146829523Y-107754211D01*
X146659254Y-107694631D01*
X146659249Y-107694630D01*
X146480004Y-107674435D01*
X146479996Y-107674435D01*
X146300750Y-107694630D01*
X146300745Y-107694631D01*
X146130476Y-107754211D01*
X145977737Y-107850184D01*
X145850184Y-107977737D01*
X145754211Y-108130476D01*
X145694631Y-108300745D01*
X145694630Y-108300750D01*
X145674435Y-108479996D01*
X121559122Y-108479996D01*
X121615368Y-108319255D01*
X121617454Y-108300745D01*
X121635565Y-108140003D01*
X121635565Y-108139996D01*
X121615369Y-107960750D01*
X121615368Y-107960745D01*
X121596570Y-107907023D01*
X121555789Y-107790478D01*
X121459816Y-107637738D01*
X121332262Y-107510184D01*
X121259593Y-107464523D01*
X121179523Y-107414211D01*
X121009254Y-107354631D01*
X121009249Y-107354630D01*
X120830004Y-107334435D01*
X120829996Y-107334435D01*
X120650750Y-107354630D01*
X120650745Y-107354631D01*
X120480476Y-107414211D01*
X120327737Y-107510184D01*
X120200184Y-107637737D01*
X120104211Y-107790476D01*
X120044631Y-107960745D01*
X120044630Y-107960750D01*
X120024435Y-108139996D01*
X116499582Y-108139996D01*
X116579816Y-108059762D01*
X116675789Y-107907022D01*
X116735368Y-107736755D01*
X116740114Y-107694632D01*
X116755565Y-107557503D01*
X116755565Y-107557496D01*
X116735369Y-107378250D01*
X116735368Y-107378245D01*
X116720038Y-107334435D01*
X116675789Y-107207978D01*
X116617364Y-107114996D01*
X139014435Y-107114996D01*
X139014435Y-107115003D01*
X139034630Y-107294249D01*
X139034631Y-107294254D01*
X139094211Y-107464523D01*
X139122902Y-107510184D01*
X139190184Y-107617262D01*
X139317738Y-107744816D01*
X139470478Y-107840789D01*
X139640745Y-107900368D01*
X139640750Y-107900369D01*
X139819996Y-107920565D01*
X139820000Y-107920565D01*
X139820004Y-107920565D01*
X139999249Y-107900369D01*
X139999252Y-107900368D01*
X139999255Y-107900368D01*
X140169522Y-107840789D01*
X140322262Y-107744816D01*
X140449816Y-107617262D01*
X140545789Y-107464522D01*
X140605368Y-107294255D01*
X140615089Y-107207978D01*
X140625565Y-107115003D01*
X140625565Y-107114996D01*
X140605369Y-106935750D01*
X140605368Y-106935745D01*
X140548117Y-106772131D01*
X140545789Y-106765478D01*
X140537279Y-106751935D01*
X140506582Y-106703080D01*
X140449816Y-106612738D01*
X140322262Y-106485184D01*
X140169523Y-106389211D01*
X139999254Y-106329631D01*
X139999249Y-106329630D01*
X139820004Y-106309435D01*
X139819996Y-106309435D01*
X139640750Y-106329630D01*
X139640745Y-106329631D01*
X139470476Y-106389211D01*
X139317737Y-106485184D01*
X139190184Y-106612737D01*
X139094211Y-106765476D01*
X139034631Y-106935745D01*
X139034630Y-106935750D01*
X139014435Y-107114996D01*
X116617364Y-107114996D01*
X116579816Y-107055238D01*
X116452262Y-106927684D01*
X116423824Y-106909815D01*
X116299523Y-106831711D01*
X116129254Y-106772131D01*
X116129249Y-106772130D01*
X115950004Y-106751935D01*
X115949996Y-106751935D01*
X115770750Y-106772130D01*
X115770745Y-106772131D01*
X115600476Y-106831711D01*
X115447737Y-106927684D01*
X115320184Y-107055237D01*
X115224211Y-107207976D01*
X115164631Y-107378245D01*
X115164630Y-107378250D01*
X115144435Y-107557496D01*
X112720499Y-107557496D01*
X112720499Y-107412128D01*
X112714091Y-107352517D01*
X112692360Y-107294254D01*
X112663797Y-107217671D01*
X112663793Y-107217664D01*
X112577547Y-107102455D01*
X112577544Y-107102452D01*
X112462335Y-107016206D01*
X112462328Y-107016202D01*
X112327482Y-106965908D01*
X112327483Y-106965908D01*
X112267883Y-106959501D01*
X112267881Y-106959500D01*
X112267873Y-106959500D01*
X112267864Y-106959500D01*
X110172129Y-106959500D01*
X110172123Y-106959501D01*
X110112516Y-106965908D01*
X109977671Y-107016202D01*
X109977664Y-107016206D01*
X109862455Y-107102452D01*
X109862452Y-107102455D01*
X109776206Y-107217664D01*
X109776202Y-107217671D01*
X109725908Y-107352517D01*
X109723142Y-107378250D01*
X109719501Y-107412123D01*
X109719500Y-107412135D01*
X105755264Y-107412135D01*
X105706433Y-107376657D01*
X105495996Y-107269433D01*
X105271368Y-107196446D01*
X105038097Y-107159500D01*
X105038092Y-107159500D01*
X104801908Y-107159500D01*
X104801903Y-107159500D01*
X104568631Y-107196446D01*
X104344003Y-107269433D01*
X104133566Y-107376657D01*
X104024550Y-107455862D01*
X103942490Y-107515483D01*
X103942488Y-107515485D01*
X103942487Y-107515485D01*
X103775485Y-107682487D01*
X103775485Y-107682488D01*
X103775483Y-107682490D01*
X103715862Y-107764550D01*
X103636657Y-107873566D01*
X103529433Y-108084003D01*
X103456446Y-108308631D01*
X103419500Y-108541902D01*
X99000500Y-108541902D01*
X99000500Y-106279996D01*
X156584435Y-106279996D01*
X156584435Y-106280003D01*
X156604630Y-106459249D01*
X156604631Y-106459254D01*
X156664211Y-106629523D01*
X156741128Y-106751935D01*
X156760184Y-106782262D01*
X156887738Y-106909816D01*
X157040478Y-107005789D01*
X157181792Y-107055237D01*
X157210745Y-107065368D01*
X157210750Y-107065369D01*
X157389996Y-107085565D01*
X157390000Y-107085565D01*
X157390004Y-107085565D01*
X157569249Y-107065369D01*
X157569252Y-107065368D01*
X157569255Y-107065368D01*
X157739522Y-107005789D01*
X157892262Y-106909816D01*
X158019816Y-106782262D01*
X158115789Y-106629522D01*
X158175368Y-106459255D01*
X158195565Y-106280000D01*
X158175368Y-106100745D01*
X158115789Y-105930478D01*
X158019816Y-105777738D01*
X157892262Y-105650184D01*
X157739523Y-105554211D01*
X157569254Y-105494631D01*
X157569249Y-105494630D01*
X157390004Y-105474435D01*
X157389996Y-105474435D01*
X157210750Y-105494630D01*
X157210745Y-105494631D01*
X157040476Y-105554211D01*
X156887737Y-105650184D01*
X156760184Y-105777737D01*
X156664211Y-105930476D01*
X156604631Y-106100745D01*
X156604630Y-106100750D01*
X156584435Y-106279996D01*
X99000500Y-106279996D01*
X99000500Y-103899996D01*
X141074435Y-103899996D01*
X141074435Y-103900003D01*
X141094630Y-104079249D01*
X141094631Y-104079254D01*
X141154211Y-104249523D01*
X141232509Y-104374133D01*
X141250184Y-104402262D01*
X141377738Y-104529816D01*
X141426961Y-104560745D01*
X141520914Y-104619780D01*
X141530478Y-104625789D01*
X141700745Y-104685368D01*
X141700750Y-104685369D01*
X141879996Y-104705565D01*
X141880000Y-104705565D01*
X141880003Y-104705565D01*
X141975820Y-104694769D01*
X142044642Y-104706823D01*
X142096022Y-104754172D01*
X142112924Y-104804104D01*
X142114630Y-104819249D01*
X142174210Y-104989521D01*
X142224992Y-105070340D01*
X142270184Y-105142262D01*
X142397738Y-105269816D01*
X142488080Y-105326582D01*
X142537884Y-105357876D01*
X142550478Y-105365789D01*
X142692721Y-105415562D01*
X142720745Y-105425368D01*
X142720750Y-105425369D01*
X142899996Y-105445565D01*
X142900000Y-105445565D01*
X142900004Y-105445565D01*
X143079249Y-105425369D01*
X143079251Y-105425368D01*
X143079255Y-105425368D01*
X143079258Y-105425366D01*
X143079262Y-105425366D01*
X143205320Y-105381256D01*
X143249522Y-105365789D01*
X143249522Y-105365788D01*
X143250553Y-105365428D01*
X143320331Y-105361865D01*
X143357478Y-105377474D01*
X143359865Y-105378974D01*
X143530135Y-105438554D01*
X143530140Y-105438555D01*
X143709386Y-105458751D01*
X143709390Y-105458751D01*
X143709394Y-105458751D01*
X143888639Y-105438555D01*
X143888641Y-105438554D01*
X143888645Y-105438554D01*
X143888648Y-105438552D01*
X143888652Y-105438552D01*
X143974120Y-105408645D01*
X144052393Y-105381255D01*
X144122170Y-105377693D01*
X144153345Y-105390793D01*
X144153465Y-105390546D01*
X144158305Y-105392877D01*
X144159317Y-105393302D01*
X144159737Y-105393566D01*
X144159740Y-105393567D01*
X144329996Y-105453143D01*
X144330002Y-105453144D01*
X144330004Y-105453145D01*
X144330005Y-105453145D01*
X144330009Y-105453146D01*
X144509255Y-105473342D01*
X144509259Y-105473342D01*
X144509263Y-105473342D01*
X144688508Y-105453146D01*
X144688511Y-105453145D01*
X144688514Y-105453145D01*
X144688515Y-105453144D01*
X144688518Y-105453144D01*
X144730218Y-105438552D01*
X144850125Y-105396594D01*
X144919900Y-105393032D01*
X144957048Y-105408643D01*
X144967092Y-105414954D01*
X145034537Y-105438554D01*
X145137351Y-105474531D01*
X145137357Y-105474532D01*
X145137359Y-105474533D01*
X145137360Y-105474533D01*
X145137364Y-105474534D01*
X145316610Y-105494730D01*
X145316614Y-105494730D01*
X145316618Y-105494730D01*
X145495863Y-105474534D01*
X145495865Y-105474533D01*
X145495869Y-105474533D01*
X145495872Y-105474531D01*
X145495876Y-105474531D01*
X145633088Y-105426518D01*
X145666136Y-105414954D01*
X145666137Y-105414953D01*
X145670319Y-105413490D01*
X145740097Y-105409927D01*
X145765076Y-105418811D01*
X145767084Y-105419778D01*
X145937339Y-105479353D01*
X145937345Y-105479354D01*
X145937347Y-105479355D01*
X145937348Y-105479355D01*
X145937352Y-105479356D01*
X146116598Y-105499552D01*
X146116602Y-105499552D01*
X146116606Y-105499552D01*
X146295851Y-105479356D01*
X146295853Y-105479355D01*
X146295857Y-105479355D01*
X146295860Y-105479353D01*
X146295864Y-105479353D01*
X146467989Y-105419124D01*
X146537768Y-105415562D01*
X146562745Y-105424445D01*
X146567045Y-105426516D01*
X146737321Y-105486098D01*
X146737326Y-105486099D01*
X146916572Y-105506295D01*
X146916576Y-105506295D01*
X146916580Y-105506295D01*
X147095825Y-105486099D01*
X147095828Y-105486098D01*
X147095831Y-105486098D01*
X147266098Y-105426519D01*
X147418838Y-105330546D01*
X147546392Y-105202992D01*
X147639056Y-105055517D01*
X147691391Y-105009227D01*
X147760444Y-104998579D01*
X147824293Y-105026954D01*
X147831731Y-105033809D01*
X147857738Y-105059816D01*
X147928402Y-105104217D01*
X148006099Y-105153038D01*
X148010478Y-105155789D01*
X148180742Y-105215367D01*
X148180745Y-105215368D01*
X148180750Y-105215369D01*
X148359996Y-105235565D01*
X148360000Y-105235565D01*
X148360004Y-105235565D01*
X148539249Y-105215369D01*
X148539252Y-105215368D01*
X148539255Y-105215368D01*
X148539256Y-105215367D01*
X148539259Y-105215367D01*
X148581144Y-105200710D01*
X148707202Y-105156600D01*
X148776977Y-105153038D01*
X148803675Y-105164256D01*
X148804139Y-105163294D01*
X148810404Y-105166311D01*
X148810411Y-105166313D01*
X148810412Y-105166314D01*
X148950600Y-105215368D01*
X148980679Y-105225893D01*
X148980684Y-105225894D01*
X149159930Y-105246090D01*
X149159934Y-105246090D01*
X149159938Y-105246090D01*
X149339183Y-105225894D01*
X149339186Y-105225893D01*
X149339189Y-105225893D01*
X149509456Y-105166314D01*
X149662196Y-105070341D01*
X149789750Y-104942787D01*
X149885723Y-104790047D01*
X149903237Y-104739996D01*
X150564435Y-104739996D01*
X150564435Y-104740003D01*
X150584630Y-104919249D01*
X150584631Y-104919254D01*
X150644211Y-105089523D01*
X150715509Y-105202992D01*
X150740184Y-105242262D01*
X150867738Y-105369816D01*
X150929534Y-105408645D01*
X151018526Y-105464563D01*
X151020478Y-105465789D01*
X151156620Y-105513427D01*
X151190745Y-105525368D01*
X151190750Y-105525369D01*
X151369996Y-105545565D01*
X151370000Y-105545565D01*
X151370004Y-105545565D01*
X151549249Y-105525369D01*
X151549252Y-105525368D01*
X151549255Y-105525368D01*
X151719522Y-105465789D01*
X151719523Y-105465787D01*
X151719529Y-105465786D01*
X151725795Y-105462769D01*
X151726659Y-105464563D01*
X151784465Y-105448220D01*
X151824171Y-105455173D01*
X151990651Y-105513427D01*
X151990657Y-105513428D01*
X151990659Y-105513429D01*
X151990660Y-105513429D01*
X151990664Y-105513430D01*
X152169910Y-105533626D01*
X152169914Y-105533626D01*
X152169918Y-105533626D01*
X152349163Y-105513430D01*
X152349166Y-105513429D01*
X152349169Y-105513429D01*
X152519436Y-105453850D01*
X152672176Y-105357877D01*
X152799730Y-105230323D01*
X152895703Y-105077583D01*
X152955282Y-104907316D01*
X152972028Y-104758684D01*
X152999094Y-104694272D01*
X153056688Y-104654717D01*
X153126525Y-104652578D01*
X153186432Y-104688536D01*
X153200241Y-104706596D01*
X153259504Y-104800912D01*
X153259506Y-104800914D01*
X153387060Y-104928468D01*
X153539800Y-105024441D01*
X153613564Y-105050252D01*
X153710067Y-105084020D01*
X153710072Y-105084021D01*
X153889318Y-105104217D01*
X153889322Y-105104217D01*
X153889326Y-105104217D01*
X154068571Y-105084021D01*
X154068574Y-105084020D01*
X154068577Y-105084020D01*
X154238844Y-105024441D01*
X154391584Y-104928468D01*
X154519138Y-104800914D01*
X154615111Y-104648174D01*
X154674690Y-104477907D01*
X154678902Y-104440525D01*
X154694887Y-104298655D01*
X154694887Y-104298648D01*
X154674691Y-104119402D01*
X154674688Y-104119389D01*
X154624143Y-103974941D01*
X154616698Y-103953668D01*
X154613136Y-103883891D01*
X154625350Y-103854831D01*
X154624763Y-103854549D01*
X154627779Y-103848281D01*
X154627786Y-103848272D01*
X154677138Y-103707233D01*
X154687363Y-103678012D01*
X154687366Y-103677999D01*
X154707562Y-103498753D01*
X154707562Y-103498746D01*
X154687366Y-103319500D01*
X154687365Y-103319495D01*
X154673282Y-103279249D01*
X154627786Y-103149228D01*
X154621445Y-103139137D01*
X154602443Y-103071902D01*
X154609394Y-103032212D01*
X154663228Y-102878366D01*
X154668677Y-102830003D01*
X154683425Y-102699114D01*
X154683425Y-102699107D01*
X154663229Y-102519861D01*
X154663227Y-102519851D01*
X154640732Y-102455565D01*
X154609658Y-102366764D01*
X154606096Y-102296989D01*
X154621705Y-102259842D01*
X154634522Y-102239445D01*
X154694101Y-102069178D01*
X154698536Y-102029815D01*
X154714298Y-101889926D01*
X154714298Y-101889919D01*
X154694102Y-101710673D01*
X154694101Y-101710668D01*
X154635602Y-101543487D01*
X154632041Y-101473708D01*
X154643602Y-101446196D01*
X154642769Y-101445795D01*
X154645786Y-101439529D01*
X154645787Y-101439523D01*
X154645789Y-101439522D01*
X154705368Y-101269255D01*
X154714382Y-101189254D01*
X154725565Y-101090003D01*
X154725565Y-101089996D01*
X154705369Y-100910750D01*
X154705368Y-100910745D01*
X154680874Y-100840745D01*
X154645789Y-100740478D01*
X154636295Y-100725369D01*
X154588822Y-100649816D01*
X154549816Y-100587738D01*
X154422262Y-100460184D01*
X154269523Y-100364211D01*
X154099254Y-100304631D01*
X154099249Y-100304630D01*
X153920004Y-100284435D01*
X153919996Y-100284435D01*
X153740750Y-100304630D01*
X153740745Y-100304631D01*
X153570476Y-100364211D01*
X153417737Y-100460184D01*
X153290184Y-100587737D01*
X153194211Y-100740476D01*
X153134631Y-100910745D01*
X153134630Y-100910750D01*
X153114435Y-101089996D01*
X153114435Y-101090003D01*
X153134630Y-101269249D01*
X153134631Y-101269254D01*
X153193131Y-101436436D01*
X153196692Y-101506215D01*
X153185132Y-101533733D01*
X153185963Y-101534134D01*
X153182939Y-101540410D01*
X153123366Y-101710660D01*
X153123363Y-101710673D01*
X153103168Y-101889919D01*
X153103168Y-101889926D01*
X153123363Y-102069172D01*
X153123364Y-102069177D01*
X153176933Y-102222267D01*
X153180494Y-102292046D01*
X153164887Y-102329190D01*
X153152070Y-102349589D01*
X153092493Y-102519848D01*
X153092490Y-102519861D01*
X153072295Y-102699107D01*
X153072295Y-102699114D01*
X153092490Y-102878360D01*
X153092493Y-102878373D01*
X153152070Y-103048632D01*
X153152071Y-103048634D01*
X153158413Y-103058728D01*
X153177412Y-103125965D01*
X153170460Y-103165651D01*
X153116629Y-103319492D01*
X153116627Y-103319500D01*
X153096432Y-103498746D01*
X153096432Y-103498753D01*
X153116627Y-103677999D01*
X153116630Y-103678012D01*
X153174619Y-103843732D01*
X153178181Y-103913511D01*
X153165969Y-103942576D01*
X153166553Y-103942858D01*
X153163532Y-103949130D01*
X153103955Y-104119389D01*
X153103952Y-104119402D01*
X153087207Y-104268026D01*
X153060141Y-104332440D01*
X153002546Y-104371996D01*
X152932709Y-104374133D01*
X152872802Y-104338175D01*
X152858993Y-104320115D01*
X152814636Y-104249522D01*
X152799730Y-104225799D01*
X152672176Y-104098245D01*
X152670067Y-104096920D01*
X152519437Y-104002272D01*
X152349168Y-103942692D01*
X152349163Y-103942691D01*
X152169918Y-103922496D01*
X152169910Y-103922496D01*
X151990664Y-103942691D01*
X151990651Y-103942694D01*
X151820401Y-104002267D01*
X151814125Y-104005291D01*
X151813263Y-104003502D01*
X151755419Y-104019840D01*
X151715743Y-104012888D01*
X151549262Y-103954633D01*
X151549249Y-103954630D01*
X151370004Y-103934435D01*
X151369996Y-103934435D01*
X151190750Y-103954630D01*
X151190745Y-103954631D01*
X151020476Y-104014211D01*
X150867737Y-104110184D01*
X150740184Y-104237737D01*
X150644211Y-104390476D01*
X150584631Y-104560745D01*
X150584630Y-104560750D01*
X150564435Y-104739996D01*
X149903237Y-104739996D01*
X149945302Y-104619780D01*
X149953299Y-104548806D01*
X149965499Y-104440528D01*
X149965499Y-104440521D01*
X149945303Y-104261275D01*
X149945302Y-104261270D01*
X149895658Y-104119397D01*
X149885723Y-104091003D01*
X149878337Y-104079249D01*
X149836640Y-104012888D01*
X149789750Y-103938263D01*
X149662196Y-103810709D01*
X149645446Y-103800184D01*
X149509457Y-103714736D01*
X149339188Y-103655156D01*
X149339183Y-103655155D01*
X149159938Y-103634960D01*
X149159930Y-103634960D01*
X148980684Y-103655155D01*
X148980671Y-103655158D01*
X148812733Y-103713923D01*
X148742954Y-103717485D01*
X148716262Y-103706268D01*
X148715798Y-103707233D01*
X148709518Y-103704209D01*
X148539262Y-103644633D01*
X148539249Y-103644630D01*
X148360004Y-103624435D01*
X148359996Y-103624435D01*
X148180750Y-103644630D01*
X148180745Y-103644631D01*
X148010476Y-103704211D01*
X147857737Y-103800184D01*
X147730184Y-103927737D01*
X147730182Y-103927740D01*
X147637518Y-104075212D01*
X147585183Y-104121503D01*
X147516130Y-104132150D01*
X147452282Y-104103775D01*
X147444844Y-104096920D01*
X147418838Y-104070914D01*
X147266099Y-103974941D01*
X147095830Y-103915361D01*
X147095825Y-103915360D01*
X146916580Y-103895165D01*
X146916572Y-103895165D01*
X146737326Y-103915360D01*
X146737321Y-103915361D01*
X146565188Y-103975594D01*
X146495409Y-103979155D01*
X146470432Y-103970272D01*
X146466123Y-103968197D01*
X146295864Y-103908620D01*
X146295851Y-103908617D01*
X146116606Y-103888422D01*
X146116598Y-103888422D01*
X145937352Y-103908617D01*
X145937344Y-103908619D01*
X145762894Y-103969662D01*
X145693116Y-103973223D01*
X145668138Y-103964340D01*
X145666131Y-103963373D01*
X145495876Y-103903798D01*
X145495863Y-103903795D01*
X145316618Y-103883600D01*
X145316610Y-103883600D01*
X145137364Y-103903795D01*
X145137359Y-103903796D01*
X144975751Y-103960346D01*
X144905972Y-103963907D01*
X144868825Y-103948298D01*
X144858784Y-103941989D01*
X144688513Y-103882408D01*
X144688508Y-103882407D01*
X144509263Y-103862212D01*
X144509255Y-103862212D01*
X144330009Y-103882407D01*
X144330001Y-103882409D01*
X144166254Y-103939707D01*
X144096476Y-103943268D01*
X144065303Y-103930169D01*
X144065184Y-103930417D01*
X144060329Y-103928078D01*
X144059327Y-103927658D01*
X144058912Y-103927397D01*
X144058911Y-103927396D01*
X144058907Y-103927394D01*
X143888652Y-103867819D01*
X143888639Y-103867816D01*
X143709394Y-103847621D01*
X143709386Y-103847621D01*
X143530140Y-103867816D01*
X143530132Y-103867818D01*
X143358834Y-103927758D01*
X143289056Y-103931319D01*
X143251907Y-103915709D01*
X143249524Y-103914212D01*
X143249518Y-103914209D01*
X143079262Y-103854633D01*
X143079249Y-103854630D01*
X142900004Y-103834435D01*
X142899995Y-103834435D01*
X142804177Y-103845230D01*
X142735355Y-103833175D01*
X142683977Y-103785825D01*
X142667074Y-103735891D01*
X142665368Y-103720745D01*
X142665367Y-103720742D01*
X142665366Y-103720737D01*
X142606399Y-103552219D01*
X142602837Y-103482440D01*
X142613822Y-103456307D01*
X142612766Y-103455799D01*
X142615782Y-103449531D01*
X142615789Y-103449522D01*
X142661286Y-103319500D01*
X142675366Y-103279262D01*
X142675369Y-103279249D01*
X142695565Y-103100003D01*
X142695565Y-103099996D01*
X142675369Y-102920750D01*
X142675368Y-102920745D01*
X142643615Y-102830000D01*
X142615789Y-102750478D01*
X142519816Y-102597738D01*
X142392262Y-102470184D01*
X142368996Y-102455565D01*
X142239523Y-102374211D01*
X142069254Y-102314631D01*
X142069249Y-102314630D01*
X141890004Y-102294435D01*
X141889996Y-102294435D01*
X141710750Y-102314630D01*
X141710745Y-102314631D01*
X141540476Y-102374211D01*
X141387737Y-102470184D01*
X141260184Y-102597737D01*
X141164211Y-102750476D01*
X141104631Y-102920745D01*
X141104630Y-102920750D01*
X141084435Y-103099996D01*
X141084435Y-103100003D01*
X141104630Y-103279249D01*
X141104632Y-103279257D01*
X141163601Y-103447781D01*
X141167162Y-103517559D01*
X141156183Y-103543701D01*
X141157231Y-103544206D01*
X141154210Y-103550478D01*
X141094633Y-103720737D01*
X141094630Y-103720750D01*
X141074435Y-103899996D01*
X99000500Y-103899996D01*
X99000500Y-102829996D01*
X123469435Y-102829996D01*
X123469435Y-102830003D01*
X123489630Y-103009249D01*
X123489631Y-103009254D01*
X123549211Y-103179523D01*
X123611882Y-103279262D01*
X123645184Y-103332262D01*
X123772738Y-103459816D01*
X123834695Y-103498746D01*
X123917025Y-103550478D01*
X123925478Y-103555789D01*
X124095745Y-103615368D01*
X124095750Y-103615369D01*
X124274996Y-103635565D01*
X124275000Y-103635565D01*
X124275004Y-103635565D01*
X124454249Y-103615369D01*
X124454252Y-103615368D01*
X124454255Y-103615368D01*
X124624522Y-103555789D01*
X124777262Y-103459816D01*
X124904816Y-103332262D01*
X125000789Y-103179522D01*
X125060368Y-103009255D01*
X125075116Y-102878366D01*
X125080565Y-102830003D01*
X125080565Y-102829996D01*
X125060369Y-102650750D01*
X125060368Y-102650745D01*
X125026994Y-102555368D01*
X125000789Y-102480478D01*
X124972444Y-102435368D01*
X124904815Y-102327737D01*
X124777262Y-102200184D01*
X124624523Y-102104211D01*
X124454254Y-102044631D01*
X124454249Y-102044630D01*
X124275004Y-102024435D01*
X124274996Y-102024435D01*
X124095750Y-102044630D01*
X124095745Y-102044631D01*
X123925476Y-102104211D01*
X123772737Y-102200184D01*
X123645184Y-102327737D01*
X123549211Y-102480476D01*
X123489631Y-102650745D01*
X123489630Y-102650750D01*
X123469435Y-102829996D01*
X99000500Y-102829996D01*
X99000500Y-101769996D01*
X103324435Y-101769996D01*
X103324435Y-101770003D01*
X103344630Y-101949249D01*
X103344631Y-101949254D01*
X103404211Y-102119523D01*
X103445585Y-102185369D01*
X103500184Y-102272262D01*
X103627738Y-102399816D01*
X103684319Y-102435368D01*
X103756110Y-102480478D01*
X103780478Y-102495789D01*
X103849258Y-102519856D01*
X103950745Y-102555368D01*
X103950750Y-102555369D01*
X104129996Y-102575565D01*
X104130000Y-102575565D01*
X104130004Y-102575565D01*
X104309249Y-102555369D01*
X104309252Y-102555368D01*
X104309255Y-102555368D01*
X104479522Y-102495789D01*
X104632262Y-102399816D01*
X104759816Y-102272262D01*
X104855789Y-102119522D01*
X104915368Y-101949255D01*
X104922053Y-101889923D01*
X104935565Y-101770003D01*
X104935565Y-101769996D01*
X104915369Y-101590750D01*
X104915368Y-101590745D01*
X104891405Y-101522262D01*
X104855789Y-101420478D01*
X104842919Y-101399996D01*
X110609435Y-101399996D01*
X110609435Y-101400003D01*
X110629630Y-101579249D01*
X110629631Y-101579254D01*
X110689211Y-101749523D01*
X110777428Y-101889919D01*
X110785184Y-101902262D01*
X110912738Y-102029816D01*
X110936316Y-102044631D01*
X111055505Y-102119523D01*
X111065478Y-102125789D01*
X111235745Y-102185368D01*
X111235750Y-102185369D01*
X111414996Y-102205565D01*
X111415000Y-102205565D01*
X111415004Y-102205565D01*
X111594249Y-102185369D01*
X111594252Y-102185368D01*
X111594255Y-102185368D01*
X111764522Y-102125789D01*
X111917262Y-102029816D01*
X112044816Y-101902262D01*
X112140789Y-101749522D01*
X112175615Y-101649996D01*
X115004435Y-101649996D01*
X115004435Y-101650003D01*
X115024630Y-101829249D01*
X115024631Y-101829254D01*
X115084211Y-101999523D01*
X115159612Y-102119522D01*
X115180184Y-102152262D01*
X115307738Y-102279816D01*
X115370233Y-102319084D01*
X115457966Y-102374211D01*
X115460478Y-102375789D01*
X115630745Y-102435368D01*
X115630750Y-102435369D01*
X115809996Y-102455565D01*
X115810000Y-102455565D01*
X115810004Y-102455565D01*
X115989249Y-102435369D01*
X115989252Y-102435368D01*
X115989255Y-102435368D01*
X116159522Y-102375789D01*
X116312262Y-102279816D01*
X116439816Y-102152262D01*
X116535789Y-101999522D01*
X116595368Y-101829255D01*
X116595784Y-101825565D01*
X116615565Y-101650003D01*
X116615565Y-101649996D01*
X116595369Y-101470750D01*
X116595368Y-101470745D01*
X116559949Y-101369523D01*
X116535789Y-101300478D01*
X116516166Y-101269249D01*
X116496582Y-101238080D01*
X116439816Y-101147738D01*
X116312262Y-101020184D01*
X116311963Y-101019996D01*
X124694435Y-101019996D01*
X124694435Y-101020003D01*
X124714630Y-101199249D01*
X124714631Y-101199254D01*
X124774211Y-101369523D01*
X124837817Y-101470750D01*
X124870184Y-101522262D01*
X124997738Y-101649816D01*
X125088080Y-101706582D01*
X125149812Y-101745371D01*
X125150478Y-101745789D01*
X125320745Y-101805368D01*
X125320750Y-101805369D01*
X125499996Y-101825565D01*
X125500000Y-101825565D01*
X125500004Y-101825565D01*
X125679249Y-101805369D01*
X125679252Y-101805368D01*
X125679255Y-101805368D01*
X125849522Y-101745789D01*
X126002262Y-101649816D01*
X126129816Y-101522262D01*
X126225789Y-101369522D01*
X126285368Y-101199255D01*
X126286495Y-101189254D01*
X126305565Y-101020003D01*
X126305565Y-101019996D01*
X126285369Y-100840750D01*
X126285368Y-100840745D01*
X126225788Y-100670476D01*
X126162538Y-100569815D01*
X126129816Y-100517738D01*
X126002262Y-100390184D01*
X125965997Y-100367397D01*
X125849523Y-100294211D01*
X125679254Y-100234631D01*
X125679249Y-100234630D01*
X125500004Y-100214435D01*
X125499996Y-100214435D01*
X125320750Y-100234630D01*
X125320745Y-100234631D01*
X125150476Y-100294211D01*
X124997737Y-100390184D01*
X124870184Y-100517737D01*
X124774211Y-100670476D01*
X124714631Y-100840745D01*
X124714630Y-100840750D01*
X124694435Y-101019996D01*
X116311963Y-101019996D01*
X116296048Y-101009996D01*
X116159523Y-100924211D01*
X115989254Y-100864631D01*
X115989249Y-100864630D01*
X115810004Y-100844435D01*
X115809996Y-100844435D01*
X115630750Y-100864630D01*
X115630745Y-100864631D01*
X115460476Y-100924211D01*
X115307737Y-101020184D01*
X115180184Y-101147737D01*
X115084211Y-101300476D01*
X115024631Y-101470745D01*
X115024630Y-101470750D01*
X115004435Y-101649996D01*
X112175615Y-101649996D01*
X112200368Y-101579255D01*
X112206790Y-101522262D01*
X112220565Y-101400003D01*
X112220565Y-101399996D01*
X112200369Y-101220750D01*
X112200368Y-101220745D01*
X112140788Y-101050476D01*
X112099414Y-100984630D01*
X112044816Y-100897738D01*
X111917262Y-100770184D01*
X111878081Y-100745565D01*
X111764523Y-100674211D01*
X111594254Y-100614631D01*
X111594249Y-100614630D01*
X111415004Y-100594435D01*
X111414996Y-100594435D01*
X111235750Y-100614630D01*
X111235745Y-100614631D01*
X111065476Y-100674211D01*
X110912737Y-100770184D01*
X110785184Y-100897737D01*
X110689211Y-101050476D01*
X110629631Y-101220745D01*
X110629630Y-101220750D01*
X110609435Y-101399996D01*
X104842919Y-101399996D01*
X104759816Y-101267738D01*
X104632262Y-101140184D01*
X104630779Y-101139252D01*
X104479523Y-101044211D01*
X104309254Y-100984631D01*
X104309249Y-100984630D01*
X104130004Y-100964435D01*
X104129996Y-100964435D01*
X103950750Y-100984630D01*
X103950745Y-100984631D01*
X103780476Y-101044211D01*
X103627737Y-101140184D01*
X103500184Y-101267737D01*
X103404211Y-101420476D01*
X103344631Y-101590745D01*
X103344630Y-101590750D01*
X103324435Y-101769996D01*
X99000500Y-101769996D01*
X99000500Y-99939996D01*
X114184435Y-99939996D01*
X114184435Y-99940003D01*
X114204630Y-100119249D01*
X114204631Y-100119254D01*
X114264211Y-100289523D01*
X114311141Y-100364211D01*
X114360184Y-100442262D01*
X114487738Y-100569816D01*
X114496245Y-100575161D01*
X114632025Y-100660478D01*
X114640478Y-100665789D01*
X114664547Y-100674211D01*
X114810745Y-100725368D01*
X114810750Y-100725369D01*
X114989996Y-100745565D01*
X114990000Y-100745565D01*
X114990004Y-100745565D01*
X115169249Y-100725369D01*
X115169252Y-100725368D01*
X115169255Y-100725368D01*
X115339522Y-100665789D01*
X115492262Y-100569816D01*
X115619816Y-100442262D01*
X115715789Y-100289522D01*
X115775368Y-100119255D01*
X115775369Y-100119249D01*
X115786552Y-100019996D01*
X121869435Y-100019996D01*
X121869435Y-100020003D01*
X121889630Y-100199249D01*
X121889631Y-100199254D01*
X121949211Y-100369523D01*
X122006178Y-100460184D01*
X122045184Y-100522262D01*
X122172738Y-100649816D01*
X122263080Y-100706582D01*
X122325121Y-100745565D01*
X122325478Y-100745789D01*
X122495745Y-100805368D01*
X122495750Y-100805369D01*
X122674996Y-100825565D01*
X122675000Y-100825565D01*
X122675004Y-100825565D01*
X122854249Y-100805369D01*
X122854252Y-100805368D01*
X122854255Y-100805368D01*
X123024522Y-100745789D01*
X123177262Y-100649816D01*
X123304816Y-100522262D01*
X123400789Y-100369522D01*
X123460368Y-100199255D01*
X123461118Y-100192600D01*
X123464792Y-100159996D01*
X140974435Y-100159996D01*
X140974435Y-100160003D01*
X140994630Y-100339249D01*
X140994633Y-100339262D01*
X141056510Y-100516094D01*
X141054366Y-100516843D01*
X141063960Y-100575161D01*
X141055612Y-100603595D01*
X141056510Y-100603909D01*
X140994633Y-100780740D01*
X140994630Y-100780753D01*
X140974435Y-100959999D01*
X140974435Y-100960006D01*
X140994630Y-101139252D01*
X140994631Y-101139257D01*
X141054211Y-101309526D01*
X141135894Y-101439522D01*
X141150184Y-101462265D01*
X141277738Y-101589819D01*
X141430478Y-101685792D01*
X141501547Y-101710660D01*
X141600745Y-101745371D01*
X141600750Y-101745372D01*
X141779996Y-101765568D01*
X141780000Y-101765568D01*
X141780004Y-101765568D01*
X141959249Y-101745372D01*
X141959252Y-101745371D01*
X141959255Y-101745371D01*
X142129522Y-101685792D01*
X142282262Y-101589819D01*
X142409816Y-101462265D01*
X142505789Y-101309525D01*
X142565368Y-101139258D01*
X142570918Y-101090000D01*
X142585565Y-100960006D01*
X142585565Y-100959999D01*
X142565369Y-100780753D01*
X142565368Y-100780748D01*
X142503489Y-100603908D01*
X142505635Y-100603156D01*
X142496037Y-100544857D01*
X142504391Y-100516410D01*
X142503489Y-100516095D01*
X142565366Y-100339262D01*
X142565369Y-100339249D01*
X142585565Y-100160003D01*
X142585565Y-100159996D01*
X142565369Y-99980750D01*
X142565368Y-99980745D01*
X142536947Y-99899522D01*
X142505789Y-99810478D01*
X142409816Y-99657738D01*
X142409815Y-99657737D01*
X142405491Y-99652315D01*
X142379083Y-99587628D01*
X142391838Y-99518933D01*
X142414757Y-99487321D01*
X142469816Y-99432262D01*
X142565789Y-99279522D01*
X142625368Y-99109255D01*
X142628748Y-99079255D01*
X142645565Y-98930003D01*
X142645565Y-98929996D01*
X142625369Y-98750750D01*
X142625368Y-98750745D01*
X142565788Y-98580475D01*
X142544797Y-98547069D01*
X142525796Y-98479832D01*
X142544797Y-98415123D01*
X142567215Y-98379445D01*
X142567216Y-98379443D01*
X142626795Y-98209176D01*
X142630735Y-98174211D01*
X142640224Y-98089996D01*
X173014435Y-98089996D01*
X173014435Y-98090003D01*
X173034630Y-98269249D01*
X173034631Y-98269254D01*
X173094211Y-98439523D01*
X173190184Y-98592262D01*
X173317737Y-98719815D01*
X173323184Y-98724159D01*
X173322032Y-98725603D01*
X173362172Y-98770978D01*
X173372826Y-98840031D01*
X173344455Y-98903881D01*
X173330639Y-98917282D01*
X173200184Y-99047737D01*
X173104211Y-99200476D01*
X173044631Y-99370745D01*
X173044630Y-99370750D01*
X173024435Y-99549996D01*
X173024435Y-99550003D01*
X173044630Y-99729249D01*
X173044631Y-99729254D01*
X173104211Y-99899523D01*
X173155247Y-99980745D01*
X173200184Y-100052262D01*
X173327738Y-100179816D01*
X173331474Y-100182163D01*
X173377766Y-100234494D01*
X173388418Y-100303547D01*
X173360047Y-100367397D01*
X173352312Y-100374910D01*
X173352662Y-100375260D01*
X173220184Y-100507737D01*
X173124211Y-100660476D01*
X173064631Y-100830745D01*
X173064630Y-100830750D01*
X173044435Y-101009996D01*
X173044435Y-101010003D01*
X173064630Y-101189249D01*
X173064631Y-101189254D01*
X173124211Y-101359523D01*
X173211805Y-101498927D01*
X173220184Y-101512262D01*
X173347738Y-101639816D01*
X173500478Y-101735789D01*
X173598256Y-101770003D01*
X173670745Y-101795368D01*
X173670750Y-101795369D01*
X173849996Y-101815565D01*
X173850000Y-101815565D01*
X173850004Y-101815565D01*
X174029249Y-101795369D01*
X174029252Y-101795368D01*
X174029255Y-101795368D01*
X174199522Y-101735789D01*
X174352262Y-101639816D01*
X174479816Y-101512262D01*
X174575789Y-101359522D01*
X174635368Y-101189255D01*
X174640897Y-101140184D01*
X174655565Y-101010003D01*
X174655565Y-101009996D01*
X174635369Y-100830750D01*
X174635368Y-100830745D01*
X174614177Y-100770184D01*
X174575789Y-100660478D01*
X174479816Y-100507738D01*
X174352262Y-100380184D01*
X174352258Y-100380181D01*
X174348524Y-100377835D01*
X174302231Y-100325502D01*
X174291581Y-100256449D01*
X174319955Y-100192600D01*
X174327694Y-100185096D01*
X174327338Y-100184740D01*
X174392829Y-100119249D01*
X174459816Y-100052262D01*
X174555789Y-99899522D01*
X174615368Y-99729255D01*
X174615369Y-99729249D01*
X174635565Y-99550003D01*
X174635565Y-99549996D01*
X174615369Y-99370750D01*
X174615368Y-99370745D01*
X174594177Y-99310184D01*
X174555789Y-99200478D01*
X174459816Y-99047738D01*
X174332262Y-98920184D01*
X174326816Y-98915841D01*
X174327966Y-98914398D01*
X174287823Y-98869014D01*
X174277174Y-98799960D01*
X174305549Y-98736112D01*
X174319317Y-98722760D01*
X174322259Y-98719817D01*
X174322262Y-98719816D01*
X174449816Y-98592262D01*
X174545789Y-98439522D01*
X174605368Y-98269255D01*
X174611031Y-98218993D01*
X174625565Y-98090003D01*
X174625565Y-98089996D01*
X174605369Y-97910750D01*
X174605368Y-97910745D01*
X174545788Y-97740476D01*
X174470632Y-97620867D01*
X174449816Y-97587738D01*
X174322262Y-97460184D01*
X174317338Y-97455260D01*
X174318332Y-97454265D01*
X174282633Y-97403403D01*
X174279783Y-97333591D01*
X174315129Y-97273322D01*
X174326881Y-97264241D01*
X174326816Y-97264159D01*
X174332256Y-97259819D01*
X174332262Y-97259816D01*
X174459816Y-97132262D01*
X174555789Y-96979522D01*
X174615368Y-96809255D01*
X174625404Y-96720184D01*
X174635565Y-96630003D01*
X174635565Y-96629996D01*
X174615369Y-96450750D01*
X174615368Y-96450745D01*
X174579853Y-96349249D01*
X174555789Y-96280478D01*
X174459816Y-96127738D01*
X174332262Y-96000184D01*
X174317240Y-95990745D01*
X174179523Y-95904211D01*
X174009254Y-95844631D01*
X174009249Y-95844630D01*
X173830004Y-95824435D01*
X173829996Y-95824435D01*
X173650750Y-95844630D01*
X173650745Y-95844631D01*
X173480476Y-95904211D01*
X173327737Y-96000184D01*
X173200184Y-96127737D01*
X173104211Y-96280476D01*
X173044631Y-96450745D01*
X173044630Y-96450750D01*
X173024435Y-96629996D01*
X173024435Y-96630003D01*
X173044630Y-96809249D01*
X173044631Y-96809254D01*
X173104211Y-96979523D01*
X173200184Y-97132262D01*
X173332662Y-97264740D01*
X173331666Y-97265735D01*
X173367365Y-97316593D01*
X173370217Y-97386405D01*
X173334872Y-97446675D01*
X173323118Y-97455758D01*
X173323184Y-97455841D01*
X173317737Y-97460184D01*
X173190184Y-97587737D01*
X173094211Y-97740476D01*
X173034631Y-97910745D01*
X173034630Y-97910750D01*
X173014435Y-98089996D01*
X142640224Y-98089996D01*
X142646992Y-98029924D01*
X142646992Y-98029917D01*
X142626796Y-97850671D01*
X142626795Y-97850666D01*
X142615428Y-97818182D01*
X142567216Y-97680399D01*
X142567215Y-97680397D01*
X142564198Y-97674133D01*
X142566148Y-97673193D01*
X142549973Y-97615972D01*
X142556924Y-97576276D01*
X142615368Y-97409255D01*
X142615369Y-97409249D01*
X142635565Y-97230003D01*
X142635565Y-97229996D01*
X142615369Y-97050750D01*
X142615368Y-97050745D01*
X142581994Y-96955368D01*
X142555789Y-96880478D01*
X142535216Y-96847737D01*
X142459815Y-96727737D01*
X142332262Y-96600184D01*
X142179523Y-96504211D01*
X142009254Y-96444631D01*
X142009249Y-96444630D01*
X141830004Y-96424435D01*
X141829996Y-96424435D01*
X141650750Y-96444630D01*
X141650745Y-96444631D01*
X141480476Y-96504211D01*
X141327737Y-96600184D01*
X141200184Y-96727737D01*
X141104211Y-96880476D01*
X141044631Y-97050745D01*
X141044630Y-97050750D01*
X141024435Y-97229996D01*
X141024435Y-97230003D01*
X141044630Y-97409249D01*
X141044631Y-97409254D01*
X141104213Y-97579529D01*
X141107231Y-97585795D01*
X141105280Y-97586734D01*
X141121452Y-97643959D01*
X141114500Y-97683649D01*
X141056059Y-97850663D01*
X141056057Y-97850671D01*
X141035862Y-98029917D01*
X141035862Y-98029924D01*
X141056057Y-98209170D01*
X141056060Y-98209183D01*
X141115636Y-98379439D01*
X141115637Y-98379441D01*
X141115638Y-98379443D01*
X141123279Y-98391604D01*
X141136631Y-98412854D01*
X141155630Y-98480091D01*
X141136631Y-98544795D01*
X141114209Y-98580480D01*
X141054633Y-98750737D01*
X141054630Y-98750750D01*
X141034435Y-98929996D01*
X141034435Y-98930003D01*
X141054630Y-99109249D01*
X141054631Y-99109254D01*
X141114211Y-99279523D01*
X141210185Y-99432264D01*
X141214505Y-99437680D01*
X141240917Y-99502365D01*
X141228164Y-99571061D01*
X141205244Y-99602678D01*
X141150183Y-99657739D01*
X141054211Y-99810476D01*
X140994631Y-99980745D01*
X140994630Y-99980750D01*
X140974435Y-100159996D01*
X123464792Y-100159996D01*
X123480565Y-100020003D01*
X123480565Y-100019996D01*
X123460369Y-99840750D01*
X123460368Y-99840745D01*
X123449776Y-99810476D01*
X123400789Y-99670478D01*
X123389376Y-99652315D01*
X123325089Y-99550003D01*
X123304816Y-99517738D01*
X123177262Y-99390184D01*
X123146325Y-99370745D01*
X123024523Y-99294211D01*
X122854254Y-99234631D01*
X122854249Y-99234630D01*
X122675004Y-99214435D01*
X122674996Y-99214435D01*
X122495750Y-99234630D01*
X122495745Y-99234631D01*
X122325476Y-99294211D01*
X122172737Y-99390184D01*
X122045184Y-99517737D01*
X121949211Y-99670476D01*
X121889631Y-99840745D01*
X121889630Y-99840750D01*
X121869435Y-100019996D01*
X115786552Y-100019996D01*
X115795565Y-99940003D01*
X115795565Y-99939996D01*
X115775369Y-99760750D01*
X115775368Y-99760745D01*
X115743782Y-99670478D01*
X115715789Y-99590478D01*
X115703588Y-99571061D01*
X115619815Y-99437737D01*
X115492262Y-99310184D01*
X115339523Y-99214211D01*
X115169254Y-99154631D01*
X115169249Y-99154630D01*
X114990004Y-99134435D01*
X114989996Y-99134435D01*
X114810750Y-99154630D01*
X114810745Y-99154631D01*
X114640476Y-99214211D01*
X114487737Y-99310184D01*
X114360184Y-99437737D01*
X114264211Y-99590476D01*
X114204631Y-99760745D01*
X114204630Y-99760750D01*
X114184435Y-99939996D01*
X99000500Y-99939996D01*
X99000500Y-98899996D01*
X101194435Y-98899996D01*
X101194435Y-98900003D01*
X101214630Y-99079249D01*
X101214631Y-99079254D01*
X101274211Y-99249523D01*
X101350384Y-99370750D01*
X101370184Y-99402262D01*
X101497738Y-99529816D01*
X101650478Y-99625789D01*
X101741783Y-99657738D01*
X101820745Y-99685368D01*
X101820750Y-99685369D01*
X101999996Y-99705565D01*
X102000000Y-99705565D01*
X102000004Y-99705565D01*
X102179249Y-99685369D01*
X102179252Y-99685368D01*
X102179255Y-99685368D01*
X102349522Y-99625789D01*
X102502262Y-99529816D01*
X102629816Y-99402262D01*
X102725789Y-99249522D01*
X102785368Y-99079255D01*
X102788919Y-99047738D01*
X102805565Y-98900003D01*
X102805565Y-98899996D01*
X102785369Y-98720750D01*
X102785368Y-98720745D01*
X102776048Y-98694111D01*
X102725789Y-98550478D01*
X102629816Y-98397738D01*
X102502262Y-98270184D01*
X102500774Y-98269249D01*
X102349523Y-98174211D01*
X102179254Y-98114631D01*
X102179249Y-98114630D01*
X102000004Y-98094435D01*
X101999996Y-98094435D01*
X101820750Y-98114630D01*
X101820745Y-98114631D01*
X101650476Y-98174211D01*
X101497737Y-98270184D01*
X101370184Y-98397737D01*
X101274211Y-98550476D01*
X101214631Y-98720745D01*
X101214630Y-98720750D01*
X101194435Y-98899996D01*
X99000500Y-98899996D01*
X99000500Y-98218995D01*
X99539499Y-98218995D01*
X99566418Y-98354322D01*
X99566421Y-98354332D01*
X99619221Y-98481804D01*
X99619228Y-98481817D01*
X99695885Y-98596541D01*
X99695888Y-98596545D01*
X99793454Y-98694111D01*
X99793458Y-98694114D01*
X99908182Y-98770771D01*
X99908195Y-98770778D01*
X100035667Y-98823578D01*
X100035672Y-98823580D01*
X100035676Y-98823580D01*
X100035677Y-98823581D01*
X100171004Y-98850500D01*
X100171007Y-98850500D01*
X100308995Y-98850500D01*
X100400041Y-98832389D01*
X100444328Y-98823580D01*
X100571811Y-98770775D01*
X100686542Y-98694114D01*
X100784114Y-98596542D01*
X100860775Y-98481811D01*
X100861488Y-98480091D01*
X100903178Y-98379441D01*
X100913580Y-98354328D01*
X100922389Y-98310041D01*
X100940500Y-98218995D01*
X100940500Y-98081004D01*
X100913581Y-97945677D01*
X100913580Y-97945676D01*
X100913580Y-97945672D01*
X100899113Y-97910745D01*
X100860778Y-97818195D01*
X100860771Y-97818182D01*
X100784114Y-97703458D01*
X100784111Y-97703454D01*
X100686545Y-97605888D01*
X100686541Y-97605885D01*
X100571817Y-97529228D01*
X100571804Y-97529221D01*
X100444332Y-97476421D01*
X100444322Y-97476418D01*
X100308995Y-97449500D01*
X100308993Y-97449500D01*
X100171007Y-97449500D01*
X100171005Y-97449500D01*
X100035677Y-97476418D01*
X100035667Y-97476421D01*
X99908195Y-97529221D01*
X99908182Y-97529228D01*
X99793458Y-97605885D01*
X99793454Y-97605888D01*
X99695888Y-97703454D01*
X99695885Y-97703458D01*
X99619228Y-97818182D01*
X99619221Y-97818195D01*
X99566421Y-97945667D01*
X99566418Y-97945677D01*
X99539500Y-98081004D01*
X99539500Y-98081007D01*
X99539500Y-98218993D01*
X99539500Y-98218995D01*
X99539499Y-98218995D01*
X99000500Y-98218995D01*
X99000500Y-97349996D01*
X114804435Y-97349996D01*
X114804435Y-97350003D01*
X114824630Y-97529249D01*
X114824631Y-97529254D01*
X114884211Y-97699523D01*
X114886684Y-97703458D01*
X114980184Y-97852262D01*
X115107738Y-97979816D01*
X115260478Y-98075789D01*
X115371479Y-98114630D01*
X115430745Y-98135368D01*
X115430750Y-98135369D01*
X115609996Y-98155565D01*
X115610000Y-98155565D01*
X115610004Y-98155565D01*
X115789249Y-98135369D01*
X115789252Y-98135368D01*
X115789255Y-98135368D01*
X115959522Y-98075789D01*
X116112262Y-97979816D01*
X116239816Y-97852262D01*
X116335789Y-97699522D01*
X116395368Y-97529255D01*
X116395371Y-97529228D01*
X116415565Y-97350003D01*
X116415565Y-97349996D01*
X116395369Y-97170750D01*
X116395368Y-97170745D01*
X116335788Y-97000476D01*
X116260388Y-96880478D01*
X116239816Y-96847738D01*
X116112262Y-96720184D01*
X116035995Y-96672262D01*
X115959523Y-96624211D01*
X115789254Y-96564631D01*
X115789249Y-96564630D01*
X115610004Y-96544435D01*
X115609996Y-96544435D01*
X115430750Y-96564630D01*
X115430745Y-96564631D01*
X115260476Y-96624211D01*
X115107737Y-96720184D01*
X114980184Y-96847737D01*
X114884211Y-97000476D01*
X114824631Y-97170745D01*
X114824630Y-97170750D01*
X114804435Y-97349996D01*
X99000500Y-97349996D01*
X99000500Y-96169996D01*
X120024435Y-96169996D01*
X120024435Y-96170003D01*
X120044630Y-96349249D01*
X120044631Y-96349254D01*
X120104211Y-96519523D01*
X120173626Y-96629996D01*
X120200184Y-96672262D01*
X120327738Y-96799816D01*
X120404004Y-96847737D01*
X120456110Y-96880478D01*
X120480478Y-96895789D01*
X120650745Y-96955368D01*
X120650750Y-96955369D01*
X120829996Y-96975565D01*
X120830000Y-96975565D01*
X120830004Y-96975565D01*
X121009249Y-96955369D01*
X121009252Y-96955368D01*
X121009255Y-96955368D01*
X121179522Y-96895789D01*
X121332262Y-96799816D01*
X121459816Y-96672262D01*
X121555789Y-96519522D01*
X121615368Y-96349255D01*
X121615369Y-96349249D01*
X121635565Y-96170003D01*
X121635565Y-96169996D01*
X121615369Y-95990750D01*
X121615368Y-95990745D01*
X121566294Y-95850500D01*
X121555789Y-95820478D01*
X121461235Y-95669996D01*
X177974435Y-95669996D01*
X177974435Y-95670003D01*
X177994630Y-95849249D01*
X177994631Y-95849254D01*
X178054211Y-96019523D01*
X178122207Y-96127737D01*
X178150184Y-96172262D01*
X178277738Y-96299816D01*
X178430478Y-96395789D01*
X178570063Y-96444632D01*
X178600745Y-96455368D01*
X178600750Y-96455369D01*
X178779996Y-96475565D01*
X178780000Y-96475565D01*
X178780004Y-96475565D01*
X178959249Y-96455369D01*
X178959252Y-96455368D01*
X178959255Y-96455368D01*
X179129522Y-96395789D01*
X179282262Y-96299816D01*
X179409816Y-96172262D01*
X179505789Y-96019522D01*
X179565368Y-95849255D01*
X179568261Y-95823578D01*
X179585565Y-95670003D01*
X179585565Y-95669996D01*
X179565369Y-95490750D01*
X179565368Y-95490745D01*
X179517635Y-95354332D01*
X179505789Y-95320478D01*
X179409816Y-95167738D01*
X179282262Y-95040184D01*
X179129523Y-94944211D01*
X178959254Y-94884631D01*
X178959249Y-94884630D01*
X178780004Y-94864435D01*
X178779996Y-94864435D01*
X178600750Y-94884630D01*
X178600745Y-94884631D01*
X178430476Y-94944211D01*
X178277737Y-95040184D01*
X178150184Y-95167737D01*
X178054211Y-95320476D01*
X177994631Y-95490745D01*
X177994630Y-95490750D01*
X177974435Y-95669996D01*
X121461235Y-95669996D01*
X121459816Y-95667738D01*
X121332262Y-95540184D01*
X121179523Y-95444211D01*
X121009254Y-95384631D01*
X121009249Y-95384630D01*
X120830004Y-95364435D01*
X120829996Y-95364435D01*
X120650750Y-95384630D01*
X120650745Y-95384631D01*
X120480476Y-95444211D01*
X120327737Y-95540184D01*
X120200184Y-95667737D01*
X120104211Y-95820476D01*
X120044631Y-95990745D01*
X120044630Y-95990750D01*
X120024435Y-96169996D01*
X99000500Y-96169996D01*
X99000500Y-95218995D01*
X99539499Y-95218995D01*
X99566418Y-95354322D01*
X99566421Y-95354332D01*
X99619221Y-95481804D01*
X99619228Y-95481817D01*
X99695885Y-95596541D01*
X99695888Y-95596545D01*
X99793454Y-95694111D01*
X99793458Y-95694114D01*
X99908182Y-95770771D01*
X99908195Y-95770778D01*
X100028178Y-95820476D01*
X100035672Y-95823580D01*
X100035676Y-95823580D01*
X100035677Y-95823581D01*
X100171004Y-95850500D01*
X100171007Y-95850500D01*
X100308995Y-95850500D01*
X100400041Y-95832389D01*
X100444328Y-95823580D01*
X100571811Y-95770775D01*
X100686542Y-95694114D01*
X100784114Y-95596542D01*
X100860775Y-95481811D01*
X100913580Y-95354328D01*
X100940500Y-95218993D01*
X100940500Y-95081007D01*
X100940500Y-95081004D01*
X100913581Y-94945677D01*
X100913580Y-94945676D01*
X100913580Y-94945672D01*
X100912975Y-94944211D01*
X100860778Y-94818195D01*
X100860771Y-94818182D01*
X100784114Y-94703458D01*
X100784111Y-94703454D01*
X100686545Y-94605888D01*
X100686541Y-94605885D01*
X100571817Y-94529228D01*
X100571804Y-94529221D01*
X100444332Y-94476421D01*
X100444322Y-94476418D01*
X100308995Y-94449500D01*
X100308993Y-94449500D01*
X100171007Y-94449500D01*
X100171005Y-94449500D01*
X100035677Y-94476418D01*
X100035667Y-94476421D01*
X99908195Y-94529221D01*
X99908182Y-94529228D01*
X99793458Y-94605885D01*
X99793454Y-94605888D01*
X99695888Y-94703454D01*
X99695885Y-94703458D01*
X99619228Y-94818182D01*
X99619221Y-94818195D01*
X99566421Y-94945667D01*
X99566418Y-94945677D01*
X99539500Y-95081004D01*
X99539500Y-95081007D01*
X99539500Y-95218993D01*
X99539500Y-95218995D01*
X99539499Y-95218995D01*
X99000500Y-95218995D01*
X99000500Y-94059996D01*
X121674435Y-94059996D01*
X121674435Y-94060003D01*
X121694630Y-94239249D01*
X121694631Y-94239254D01*
X121754211Y-94409523D01*
X121796246Y-94476421D01*
X121850184Y-94562262D01*
X121977738Y-94689816D01*
X122130478Y-94785789D01*
X122300745Y-94845368D01*
X122300750Y-94845369D01*
X122479996Y-94865565D01*
X122480000Y-94865565D01*
X122480004Y-94865565D01*
X122659249Y-94845369D01*
X122659252Y-94845368D01*
X122659255Y-94845368D01*
X122829522Y-94785789D01*
X122982262Y-94689816D01*
X123109816Y-94562262D01*
X123205789Y-94409522D01*
X123265368Y-94239255D01*
X123285565Y-94060000D01*
X123281058Y-94020003D01*
X123281057Y-94019996D01*
X124574435Y-94019996D01*
X124574435Y-94020003D01*
X124594630Y-94199249D01*
X124594631Y-94199254D01*
X124654211Y-94369523D01*
X124721380Y-94476421D01*
X124750184Y-94522262D01*
X124877738Y-94649816D01*
X125030478Y-94745789D01*
X125200745Y-94805368D01*
X125200750Y-94805369D01*
X125379996Y-94825565D01*
X125380000Y-94825565D01*
X125380004Y-94825565D01*
X125559249Y-94805369D01*
X125559252Y-94805368D01*
X125559255Y-94805368D01*
X125729522Y-94745789D01*
X125882262Y-94649816D01*
X126009816Y-94522262D01*
X126105789Y-94369522D01*
X126165368Y-94199255D01*
X126185565Y-94020000D01*
X126169875Y-93880750D01*
X126165369Y-93840750D01*
X126165368Y-93840745D01*
X126105789Y-93670478D01*
X126009816Y-93517738D01*
X125882262Y-93390184D01*
X125793182Y-93334211D01*
X125729523Y-93294211D01*
X125559254Y-93234631D01*
X125559249Y-93234630D01*
X125380004Y-93214435D01*
X125379996Y-93214435D01*
X125200750Y-93234630D01*
X125200745Y-93234631D01*
X125030476Y-93294211D01*
X124877737Y-93390184D01*
X124750184Y-93517737D01*
X124654211Y-93670476D01*
X124594631Y-93840745D01*
X124594630Y-93840750D01*
X124574435Y-94019996D01*
X123281057Y-94019996D01*
X123265369Y-93880750D01*
X123265368Y-93880745D01*
X123205788Y-93710476D01*
X123133461Y-93595369D01*
X123109816Y-93557738D01*
X122982262Y-93430184D01*
X122829523Y-93334211D01*
X122659254Y-93274631D01*
X122659249Y-93274630D01*
X122480004Y-93254435D01*
X122479996Y-93254435D01*
X122300750Y-93274630D01*
X122300745Y-93274631D01*
X122130476Y-93334211D01*
X121977737Y-93430184D01*
X121850184Y-93557737D01*
X121754211Y-93710476D01*
X121694631Y-93880745D01*
X121694630Y-93880750D01*
X121674435Y-94059996D01*
X99000500Y-94059996D01*
X99000500Y-92074996D01*
X123124435Y-92074996D01*
X123124435Y-92075003D01*
X123144630Y-92254249D01*
X123144631Y-92254254D01*
X123204211Y-92424523D01*
X123300184Y-92577262D01*
X123427738Y-92704816D01*
X123580478Y-92800789D01*
X123750745Y-92860368D01*
X123750750Y-92860369D01*
X123929996Y-92880565D01*
X123930000Y-92880565D01*
X123930004Y-92880565D01*
X124109249Y-92860369D01*
X124109252Y-92860368D01*
X124109255Y-92860368D01*
X124253210Y-92809996D01*
X140834435Y-92809996D01*
X140834435Y-92810003D01*
X140854630Y-92989249D01*
X140854631Y-92989254D01*
X140914211Y-93159523D01*
X140973849Y-93254435D01*
X141010184Y-93312262D01*
X141137738Y-93439816D01*
X141290478Y-93535789D01*
X141353202Y-93557737D01*
X141460745Y-93595368D01*
X141460750Y-93595369D01*
X141639996Y-93615565D01*
X141640000Y-93615565D01*
X141640004Y-93615565D01*
X141819249Y-93595369D01*
X141819252Y-93595368D01*
X141819255Y-93595368D01*
X141989522Y-93535789D01*
X142142262Y-93439816D01*
X142269816Y-93312262D01*
X142365789Y-93159522D01*
X142398812Y-93065143D01*
X142439531Y-93008370D01*
X142474899Y-92989057D01*
X142480598Y-92987062D01*
X142480604Y-92987062D01*
X142650871Y-92927483D01*
X142650878Y-92927478D01*
X142657148Y-92924460D01*
X142658090Y-92926417D01*
X142715271Y-92910243D01*
X142754995Y-92917196D01*
X142922007Y-92975637D01*
X142922013Y-92975638D01*
X142922015Y-92975639D01*
X142922016Y-92975639D01*
X142922020Y-92975640D01*
X143101266Y-92995836D01*
X143101270Y-92995836D01*
X143101274Y-92995836D01*
X143280519Y-92975640D01*
X143280521Y-92975639D01*
X143280525Y-92975639D01*
X143280528Y-92975637D01*
X143280532Y-92975637D01*
X143374551Y-92942738D01*
X143450792Y-92916060D01*
X143450801Y-92916054D01*
X143451656Y-92915643D01*
X143452275Y-92915540D01*
X143457365Y-92913760D01*
X143457676Y-92914651D01*
X143520596Y-92904286D01*
X143546421Y-92910318D01*
X143722000Y-92971756D01*
X143722006Y-92971757D01*
X143722008Y-92971758D01*
X143722009Y-92971758D01*
X143722013Y-92971759D01*
X143901259Y-92991955D01*
X143901263Y-92991955D01*
X143901267Y-92991955D01*
X144080512Y-92971759D01*
X144080515Y-92971758D01*
X144080518Y-92971758D01*
X144080519Y-92971757D01*
X144080522Y-92971757D01*
X144116329Y-92959226D01*
X144197884Y-92930689D01*
X144267660Y-92927127D01*
X144304810Y-92942738D01*
X144349584Y-92970872D01*
X144519854Y-93030452D01*
X144519859Y-93030453D01*
X144699105Y-93050649D01*
X144699109Y-93050649D01*
X144699113Y-93050649D01*
X144878358Y-93030453D01*
X144878361Y-93030452D01*
X144878364Y-93030452D01*
X145048631Y-92970873D01*
X145201371Y-92874900D01*
X145328925Y-92747346D01*
X145424898Y-92594606D01*
X145484477Y-92424339D01*
X145503641Y-92254254D01*
X145504674Y-92245087D01*
X145504674Y-92245080D01*
X145484478Y-92065834D01*
X145484477Y-92065829D01*
X145424898Y-91895562D01*
X145328925Y-91742822D01*
X145201371Y-91615268D01*
X145133685Y-91572738D01*
X145048632Y-91519295D01*
X144878363Y-91459715D01*
X144878358Y-91459714D01*
X144699113Y-91439519D01*
X144699105Y-91439519D01*
X144519859Y-91459714D01*
X144519846Y-91459717D01*
X144402489Y-91500783D01*
X144332710Y-91504345D01*
X144295563Y-91488736D01*
X144250783Y-91460599D01*
X144080525Y-91401023D01*
X144080512Y-91401020D01*
X143901267Y-91380825D01*
X143901259Y-91380825D01*
X143722013Y-91401020D01*
X143722000Y-91401023D01*
X143551741Y-91460600D01*
X143550857Y-91461026D01*
X143550229Y-91461129D01*
X143545169Y-91462900D01*
X143544858Y-91462013D01*
X143481914Y-91472372D01*
X143456110Y-91466343D01*
X143441209Y-91461129D01*
X143422955Y-91454741D01*
X143280524Y-91404902D01*
X143280519Y-91404901D01*
X143101274Y-91384706D01*
X143101266Y-91384706D01*
X142922020Y-91404901D01*
X142922007Y-91404904D01*
X142751748Y-91464481D01*
X142745476Y-91467502D01*
X142744538Y-91465555D01*
X142687283Y-91481719D01*
X142647625Y-91474768D01*
X142480606Y-91416326D01*
X142480598Y-91416324D01*
X142301353Y-91396129D01*
X142301345Y-91396129D01*
X142122099Y-91416324D01*
X142122094Y-91416325D01*
X141951825Y-91475905D01*
X141799086Y-91571878D01*
X141671533Y-91699431D01*
X141575559Y-91852172D01*
X141542536Y-91946549D01*
X141501814Y-92003325D01*
X141466448Y-92022637D01*
X141460747Y-92024631D01*
X141460745Y-92024632D01*
X141402846Y-92044891D01*
X141290478Y-92084210D01*
X141137737Y-92180184D01*
X141010184Y-92307737D01*
X140914211Y-92460476D01*
X140854631Y-92630745D01*
X140854630Y-92630750D01*
X140834435Y-92809996D01*
X124253210Y-92809996D01*
X124279522Y-92800789D01*
X124432262Y-92704816D01*
X124559816Y-92577262D01*
X124655789Y-92424522D01*
X124715368Y-92254255D01*
X124716401Y-92245087D01*
X124735565Y-92075003D01*
X124735565Y-92074996D01*
X124715369Y-91895750D01*
X124715368Y-91895745D01*
X124661858Y-91742822D01*
X124655789Y-91725478D01*
X124559816Y-91572738D01*
X124432262Y-91445184D01*
X124386335Y-91416326D01*
X124279523Y-91349211D01*
X124109254Y-91289631D01*
X124109249Y-91289630D01*
X123930004Y-91269435D01*
X123929996Y-91269435D01*
X123750750Y-91289630D01*
X123750745Y-91289631D01*
X123580476Y-91349211D01*
X123427737Y-91445184D01*
X123300184Y-91572737D01*
X123204211Y-91725476D01*
X123144631Y-91895745D01*
X123144630Y-91895750D01*
X123124435Y-92074996D01*
X99000500Y-92074996D01*
X99000500Y-90049996D01*
X110554435Y-90049996D01*
X110554435Y-90050003D01*
X110574630Y-90229249D01*
X110574631Y-90229254D01*
X110634211Y-90399523D01*
X110730184Y-90552262D01*
X110857738Y-90679816D01*
X111010478Y-90775789D01*
X111180745Y-90835368D01*
X111180750Y-90835369D01*
X111359996Y-90855565D01*
X111360000Y-90855565D01*
X111360004Y-90855565D01*
X111539249Y-90835369D01*
X111539252Y-90835368D01*
X111539255Y-90835368D01*
X111709522Y-90775789D01*
X111862262Y-90679816D01*
X111987082Y-90554996D01*
X156524435Y-90554996D01*
X156524435Y-90555003D01*
X156544630Y-90734249D01*
X156544631Y-90734254D01*
X156604211Y-90904523D01*
X156670620Y-91010212D01*
X156700184Y-91057262D01*
X156827738Y-91184816D01*
X156980478Y-91280789D01*
X157150745Y-91340368D01*
X157150750Y-91340369D01*
X157329996Y-91360565D01*
X157330000Y-91360565D01*
X157330004Y-91360565D01*
X157509249Y-91340369D01*
X157509252Y-91340368D01*
X157509255Y-91340368D01*
X157679522Y-91280789D01*
X157832262Y-91184816D01*
X157959816Y-91057262D01*
X157959822Y-91057251D01*
X157963052Y-91053203D01*
X158020240Y-91013062D01*
X158090051Y-91010212D01*
X158150322Y-91045556D01*
X158156948Y-91053203D01*
X158160180Y-91057257D01*
X158160184Y-91057262D01*
X158287738Y-91184816D01*
X158440478Y-91280789D01*
X158610745Y-91340368D01*
X158610750Y-91340369D01*
X158789996Y-91360565D01*
X158790000Y-91360565D01*
X158790004Y-91360565D01*
X158969249Y-91340369D01*
X158969252Y-91340368D01*
X158969255Y-91340368D01*
X159139522Y-91280789D01*
X159292262Y-91184816D01*
X159419816Y-91057262D01*
X159515789Y-90904522D01*
X159575368Y-90734255D01*
X159595565Y-90555000D01*
X159578047Y-90399523D01*
X159575369Y-90375750D01*
X159575368Y-90375745D01*
X159524109Y-90229255D01*
X159515789Y-90205478D01*
X159419816Y-90052738D01*
X159292262Y-89925184D01*
X159237523Y-89890789D01*
X159139523Y-89829211D01*
X158969254Y-89769631D01*
X158969249Y-89769630D01*
X158790004Y-89749435D01*
X158789996Y-89749435D01*
X158610750Y-89769630D01*
X158610745Y-89769631D01*
X158440476Y-89829211D01*
X158287737Y-89925184D01*
X158160185Y-90052736D01*
X158156944Y-90056801D01*
X158099754Y-90096939D01*
X158029942Y-90099786D01*
X157969674Y-90064438D01*
X157963056Y-90056801D01*
X157959814Y-90052736D01*
X157832262Y-89925184D01*
X157679523Y-89829211D01*
X157509254Y-89769631D01*
X157509249Y-89769630D01*
X157330004Y-89749435D01*
X157329996Y-89749435D01*
X157150750Y-89769630D01*
X157150745Y-89769631D01*
X156980476Y-89829211D01*
X156827737Y-89925184D01*
X156700184Y-90052737D01*
X156604211Y-90205476D01*
X156544631Y-90375745D01*
X156544630Y-90375750D01*
X156524435Y-90554996D01*
X111987082Y-90554996D01*
X111989816Y-90552262D01*
X112085789Y-90399522D01*
X112145368Y-90229255D01*
X112148047Y-90205478D01*
X112165565Y-90050003D01*
X112165565Y-90049996D01*
X112145369Y-89870750D01*
X112145368Y-89870745D01*
X112136916Y-89846590D01*
X112085789Y-89700478D01*
X111989816Y-89547738D01*
X111862262Y-89420184D01*
X111861675Y-89419815D01*
X111709523Y-89324211D01*
X111539254Y-89264631D01*
X111539249Y-89264630D01*
X111360004Y-89244435D01*
X111359996Y-89244435D01*
X111180750Y-89264630D01*
X111180745Y-89264631D01*
X111010476Y-89324211D01*
X110857737Y-89420184D01*
X110730184Y-89547737D01*
X110634211Y-89700476D01*
X110574631Y-89870745D01*
X110574630Y-89870750D01*
X110554435Y-90049996D01*
X99000500Y-90049996D01*
X99000500Y-88967284D01*
X99020185Y-88900245D01*
X99072989Y-88854490D01*
X99142147Y-88844546D01*
X99205703Y-88873571D01*
X99212181Y-88879603D01*
X99284714Y-88952136D01*
X99284718Y-88952139D01*
X99448579Y-89061628D01*
X99448592Y-89061635D01*
X99630660Y-89137049D01*
X99630665Y-89137051D01*
X99630669Y-89137051D01*
X99630670Y-89137052D01*
X99823956Y-89175500D01*
X99823959Y-89175500D01*
X100621043Y-89175500D01*
X100753012Y-89149249D01*
X100814335Y-89137051D01*
X100996414Y-89061632D01*
X101160282Y-88952139D01*
X101299639Y-88812782D01*
X101409132Y-88648914D01*
X101420911Y-88620478D01*
X101462453Y-88520184D01*
X101484551Y-88466835D01*
X101504311Y-88367496D01*
X101523000Y-88273543D01*
X102851999Y-88273543D01*
X102890447Y-88466829D01*
X102890450Y-88466839D01*
X102965864Y-88648907D01*
X102965871Y-88648920D01*
X103075360Y-88812781D01*
X103075363Y-88812785D01*
X103214714Y-88952136D01*
X103214718Y-88952139D01*
X103378579Y-89061628D01*
X103378592Y-89061635D01*
X103560660Y-89137049D01*
X103560665Y-89137051D01*
X103560669Y-89137051D01*
X103560670Y-89137052D01*
X103753956Y-89175500D01*
X103753959Y-89175500D01*
X105051043Y-89175500D01*
X105183012Y-89149249D01*
X105244335Y-89137051D01*
X105426414Y-89061632D01*
X105590282Y-88952139D01*
X105729639Y-88812782D01*
X105839132Y-88648914D01*
X105850911Y-88620478D01*
X105892453Y-88520184D01*
X105914551Y-88466835D01*
X105934311Y-88367496D01*
X106311935Y-88367496D01*
X106311935Y-88367503D01*
X106332130Y-88546749D01*
X106332131Y-88546754D01*
X106391711Y-88717023D01*
X106444150Y-88800478D01*
X106487684Y-88869762D01*
X106615238Y-88997316D01*
X106767978Y-89093289D01*
X106927917Y-89149254D01*
X106938245Y-89152868D01*
X106938250Y-89152869D01*
X107117496Y-89173065D01*
X107117500Y-89173065D01*
X107117504Y-89173065D01*
X107296749Y-89152869D01*
X107296752Y-89152868D01*
X107296755Y-89152868D01*
X107467022Y-89093289D01*
X107619762Y-88997316D01*
X107747316Y-88869762D01*
X107843289Y-88717022D01*
X107902868Y-88546755D01*
X107905862Y-88520184D01*
X107923065Y-88367503D01*
X107923065Y-88367496D01*
X107902869Y-88188250D01*
X107902868Y-88188245D01*
X107860019Y-88065789D01*
X107843289Y-88017978D01*
X107839697Y-88012262D01*
X107804082Y-87955580D01*
X107747316Y-87865238D01*
X107619762Y-87737684D01*
X107467023Y-87641711D01*
X107296754Y-87582131D01*
X107296749Y-87582130D01*
X107117504Y-87561935D01*
X107117496Y-87561935D01*
X106938250Y-87582130D01*
X106938245Y-87582131D01*
X106767976Y-87641711D01*
X106615237Y-87737684D01*
X106487684Y-87865237D01*
X106391711Y-88017976D01*
X106332131Y-88188245D01*
X106332130Y-88188250D01*
X106311935Y-88367496D01*
X105934311Y-88367496D01*
X105953000Y-88273543D01*
X105953000Y-88076456D01*
X105914552Y-87883170D01*
X105914551Y-87883169D01*
X105914551Y-87883165D01*
X105914549Y-87883160D01*
X105839135Y-87701092D01*
X105839128Y-87701079D01*
X105751234Y-87569537D01*
X105730356Y-87502860D01*
X105748840Y-87435479D01*
X105749209Y-87434886D01*
X105768289Y-87404522D01*
X105794367Y-87329996D01*
X129696935Y-87329996D01*
X129696935Y-87330003D01*
X129717130Y-87509249D01*
X129717131Y-87509254D01*
X129776711Y-87679523D01*
X129814596Y-87739816D01*
X129872684Y-87832262D01*
X130000238Y-87959816D01*
X130000240Y-87959817D01*
X130004301Y-87963056D01*
X130044439Y-88020246D01*
X130047286Y-88090058D01*
X130011938Y-88150326D01*
X130004301Y-88156944D01*
X130000236Y-88160185D01*
X129872684Y-88287737D01*
X129776711Y-88440476D01*
X129717131Y-88610745D01*
X129717130Y-88610750D01*
X129696935Y-88789996D01*
X129696935Y-88790003D01*
X129717130Y-88969249D01*
X129717131Y-88969254D01*
X129776711Y-89139523D01*
X129785097Y-89152869D01*
X129872684Y-89292262D01*
X130000238Y-89419816D01*
X130152978Y-89515789D01*
X130244283Y-89547738D01*
X130323245Y-89575368D01*
X130323250Y-89575369D01*
X130502496Y-89595565D01*
X130502500Y-89595565D01*
X130502504Y-89595565D01*
X130681749Y-89575369D01*
X130681752Y-89575368D01*
X130681755Y-89575368D01*
X130852022Y-89515789D01*
X131004762Y-89419816D01*
X131132316Y-89292262D01*
X131228289Y-89139522D01*
X131287868Y-88969255D01*
X131288090Y-88967284D01*
X131308065Y-88790003D01*
X131308065Y-88789996D01*
X131287869Y-88610750D01*
X131287868Y-88610745D01*
X131265477Y-88546755D01*
X131228289Y-88440478D01*
X131209192Y-88410086D01*
X131167941Y-88344435D01*
X131132316Y-88287738D01*
X131004762Y-88160184D01*
X131004757Y-88160180D01*
X131000703Y-88156948D01*
X130960562Y-88099760D01*
X130957712Y-88029949D01*
X130993056Y-87969678D01*
X131000703Y-87963052D01*
X131004751Y-87959822D01*
X131004762Y-87959816D01*
X131132316Y-87832262D01*
X131228289Y-87679522D01*
X131287868Y-87509255D01*
X131287869Y-87509249D01*
X131308065Y-87330003D01*
X131308065Y-87329996D01*
X131287869Y-87150750D01*
X131287868Y-87150745D01*
X131254364Y-87054996D01*
X131228289Y-86980478D01*
X131132316Y-86827738D01*
X131004762Y-86700184D01*
X131004757Y-86700180D01*
X131003068Y-86698834D01*
X131002258Y-86697680D01*
X130999838Y-86695260D01*
X131000261Y-86694836D01*
X130962929Y-86641644D01*
X130960081Y-86571833D01*
X130995427Y-86511564D01*
X131004581Y-86504492D01*
X131004316Y-86504159D01*
X131009756Y-86499819D01*
X131009762Y-86499816D01*
X131137316Y-86372262D01*
X131233289Y-86219522D01*
X131292868Y-86049255D01*
X131292869Y-86049249D01*
X131313065Y-85870003D01*
X131313065Y-85869996D01*
X131292869Y-85690750D01*
X131292868Y-85690745D01*
X131268049Y-85619816D01*
X131233289Y-85520478D01*
X131137316Y-85367738D01*
X131009762Y-85240184D01*
X131009757Y-85240180D01*
X131005703Y-85236948D01*
X130965562Y-85179760D01*
X130962712Y-85109949D01*
X130998056Y-85049678D01*
X131005703Y-85043052D01*
X131009751Y-85039822D01*
X131009762Y-85039816D01*
X131137316Y-84912262D01*
X131233289Y-84759522D01*
X131292868Y-84589255D01*
X131292869Y-84589249D01*
X131313065Y-84410003D01*
X131313065Y-84409996D01*
X131310812Y-84389996D01*
X135564435Y-84389996D01*
X135564435Y-84390003D01*
X135584630Y-84569249D01*
X135584631Y-84569254D01*
X135644211Y-84739523D01*
X135740184Y-84892262D01*
X135867740Y-85019818D01*
X135885997Y-85031289D01*
X135932289Y-85083623D01*
X135942938Y-85152676D01*
X135914563Y-85216525D01*
X135892811Y-85235374D01*
X135893184Y-85235841D01*
X135887737Y-85240184D01*
X135760184Y-85367737D01*
X135664211Y-85520476D01*
X135604631Y-85690745D01*
X135604630Y-85690750D01*
X135584435Y-85869996D01*
X135584435Y-85870003D01*
X135604630Y-86049249D01*
X135604631Y-86049254D01*
X135664211Y-86219523D01*
X135752454Y-86359960D01*
X135760184Y-86372262D01*
X135887738Y-86499816D01*
X135934401Y-86529136D01*
X135980692Y-86581471D01*
X135991340Y-86650524D01*
X135962965Y-86714373D01*
X135956111Y-86721811D01*
X135840183Y-86837739D01*
X135744211Y-86990476D01*
X135684631Y-87160745D01*
X135684630Y-87160750D01*
X135664435Y-87339996D01*
X135664435Y-87340003D01*
X135684630Y-87519249D01*
X135684631Y-87519254D01*
X135744211Y-87689523D01*
X135840184Y-87842262D01*
X135967737Y-87969815D01*
X135967740Y-87969817D01*
X135995978Y-87987561D01*
X136042269Y-88039896D01*
X136052916Y-88108950D01*
X136024540Y-88172798D01*
X136017687Y-88180235D01*
X135900183Y-88297739D01*
X135804211Y-88450476D01*
X135744631Y-88620745D01*
X135744630Y-88620750D01*
X135724435Y-88799996D01*
X135724435Y-88800003D01*
X135744630Y-88979249D01*
X135744631Y-88979254D01*
X135804211Y-89149523D01*
X135819004Y-89173065D01*
X135900184Y-89302262D01*
X136027738Y-89429816D01*
X136118080Y-89486582D01*
X136164561Y-89515788D01*
X136180478Y-89525789D01*
X136350745Y-89585368D01*
X136350750Y-89585369D01*
X136529996Y-89605565D01*
X136530000Y-89605565D01*
X136530004Y-89605565D01*
X136709249Y-89585369D01*
X136709252Y-89585368D01*
X136709255Y-89585368D01*
X136879522Y-89525789D01*
X137032262Y-89429816D01*
X137159816Y-89302262D01*
X137255789Y-89149522D01*
X137315368Y-88979255D01*
X137315369Y-88979249D01*
X137335565Y-88800003D01*
X137335565Y-88799996D01*
X137315369Y-88620750D01*
X137315368Y-88620745D01*
X137309215Y-88603160D01*
X137255789Y-88450478D01*
X137249504Y-88440476D01*
X137186487Y-88340185D01*
X137159816Y-88297738D01*
X137032262Y-88170184D01*
X137017863Y-88161136D01*
X137004020Y-88152438D01*
X136957730Y-88100102D01*
X136947083Y-88031048D01*
X136975459Y-87967201D01*
X136982289Y-87959788D01*
X137099816Y-87842262D01*
X137195789Y-87689522D01*
X137255368Y-87519255D01*
X137255369Y-87519249D01*
X137256412Y-87509996D01*
X139114435Y-87509996D01*
X139114435Y-87510003D01*
X139134630Y-87689249D01*
X139134631Y-87689254D01*
X139194211Y-87859523D01*
X139263513Y-87969815D01*
X139290184Y-88012262D01*
X139417738Y-88139816D01*
X139417740Y-88139817D01*
X139421801Y-88143056D01*
X139461939Y-88200246D01*
X139464786Y-88270058D01*
X139429438Y-88330326D01*
X139421801Y-88336944D01*
X139417736Y-88340185D01*
X139290184Y-88467737D01*
X139194211Y-88620476D01*
X139134631Y-88790745D01*
X139134630Y-88790750D01*
X139114435Y-88969996D01*
X139114435Y-88970003D01*
X139134630Y-89149249D01*
X139134631Y-89149254D01*
X139194211Y-89319523D01*
X139257229Y-89419815D01*
X139290184Y-89472262D01*
X139417738Y-89599816D01*
X139570478Y-89695789D01*
X139740745Y-89755368D01*
X139740750Y-89755369D01*
X139919996Y-89775565D01*
X139920000Y-89775565D01*
X139920004Y-89775565D01*
X140099249Y-89755369D01*
X140099252Y-89755368D01*
X140099255Y-89755368D01*
X140269522Y-89695789D01*
X140422262Y-89599816D01*
X140549816Y-89472262D01*
X140645789Y-89319522D01*
X140705109Y-89149996D01*
X147617435Y-89149996D01*
X147617435Y-89150003D01*
X147637630Y-89329249D01*
X147637631Y-89329254D01*
X147697211Y-89499523D01*
X147751152Y-89585369D01*
X147793184Y-89652262D01*
X147920738Y-89779816D01*
X147999350Y-89829211D01*
X148065450Y-89870745D01*
X148073478Y-89875789D01*
X148190575Y-89916763D01*
X148243745Y-89935368D01*
X148243750Y-89935369D01*
X148422996Y-89955565D01*
X148423000Y-89955565D01*
X148423004Y-89955565D01*
X148602249Y-89935369D01*
X148602251Y-89935368D01*
X148602255Y-89935368D01*
X148602258Y-89935366D01*
X148602262Y-89935366D01*
X148672892Y-89910651D01*
X148772522Y-89875789D01*
X148783198Y-89869080D01*
X148850432Y-89850077D01*
X148890125Y-89857029D01*
X148966998Y-89883928D01*
X149043360Y-89910649D01*
X149043370Y-89910651D01*
X149222616Y-89930847D01*
X149222620Y-89930847D01*
X149222624Y-89930847D01*
X149401869Y-89910651D01*
X149401871Y-89910650D01*
X149401875Y-89910650D01*
X149401878Y-89910648D01*
X149401882Y-89910648D01*
X149574768Y-89850152D01*
X149644547Y-89846590D01*
X149669525Y-89855473D01*
X149673073Y-89857182D01*
X149673077Y-89857184D01*
X149673080Y-89857185D01*
X149843336Y-89916761D01*
X149843342Y-89916762D01*
X149843344Y-89916763D01*
X149843345Y-89916763D01*
X149843349Y-89916764D01*
X150022595Y-89936960D01*
X150022599Y-89936960D01*
X150022603Y-89936960D01*
X150201848Y-89916764D01*
X150201850Y-89916763D01*
X150201854Y-89916763D01*
X150201857Y-89916761D01*
X150201861Y-89916761D01*
X150252899Y-89898901D01*
X150372121Y-89857184D01*
X150384132Y-89849636D01*
X150451367Y-89830634D01*
X150491062Y-89837587D01*
X150643103Y-89890789D01*
X150643109Y-89890790D01*
X150643111Y-89890791D01*
X150643112Y-89890791D01*
X150643116Y-89890792D01*
X150822362Y-89910988D01*
X150822366Y-89910988D01*
X150822370Y-89910988D01*
X151001615Y-89890792D01*
X151001618Y-89890791D01*
X151001621Y-89890791D01*
X151171888Y-89831212D01*
X151324628Y-89735239D01*
X151452182Y-89607685D01*
X151548155Y-89454945D01*
X151607734Y-89284678D01*
X151609993Y-89264630D01*
X151627931Y-89105426D01*
X151627931Y-89105419D01*
X151607735Y-88926173D01*
X151607734Y-88926168D01*
X151591440Y-88879603D01*
X151548155Y-88755901D01*
X151452182Y-88603161D01*
X151324628Y-88475607D01*
X151310674Y-88466839D01*
X151171889Y-88379634D01*
X151001620Y-88320054D01*
X151001615Y-88320053D01*
X150822370Y-88299858D01*
X150822362Y-88299858D01*
X150643116Y-88320053D01*
X150643103Y-88320056D01*
X150472844Y-88379633D01*
X150460825Y-88387185D01*
X150393588Y-88406183D01*
X150353902Y-88399231D01*
X150201853Y-88346026D01*
X150201848Y-88346025D01*
X150022603Y-88325830D01*
X150022595Y-88325830D01*
X149843349Y-88346025D01*
X149843344Y-88346026D01*
X149670451Y-88406525D01*
X149600672Y-88410086D01*
X149575694Y-88401203D01*
X149572146Y-88399494D01*
X149401874Y-88339913D01*
X149401869Y-88339912D01*
X149222624Y-88319717D01*
X149222616Y-88319717D01*
X149043370Y-88339912D01*
X149043357Y-88339915D01*
X148873101Y-88399491D01*
X148862414Y-88406206D01*
X148795177Y-88425204D01*
X148755490Y-88418251D01*
X148602262Y-88364633D01*
X148602249Y-88364630D01*
X148423004Y-88344435D01*
X148422996Y-88344435D01*
X148243750Y-88364630D01*
X148243745Y-88364631D01*
X148073476Y-88424211D01*
X147920737Y-88520184D01*
X147793184Y-88647737D01*
X147697211Y-88800476D01*
X147637631Y-88970745D01*
X147637630Y-88970750D01*
X147617435Y-89149996D01*
X140705109Y-89149996D01*
X140705368Y-89149255D01*
X140706743Y-89137051D01*
X140725565Y-88970003D01*
X140725565Y-88969996D01*
X140705369Y-88790750D01*
X140705368Y-88790745D01*
X140705106Y-88789996D01*
X140645789Y-88620478D01*
X140639676Y-88610750D01*
X140549815Y-88467737D01*
X140422266Y-88340188D01*
X140422262Y-88340184D01*
X140422257Y-88340180D01*
X140418203Y-88336948D01*
X140378062Y-88279760D01*
X140375212Y-88209949D01*
X140410556Y-88149678D01*
X140418203Y-88143052D01*
X140422251Y-88139822D01*
X140422262Y-88139816D01*
X140549816Y-88012262D01*
X140645789Y-87859522D01*
X140705368Y-87689255D01*
X140718857Y-87569537D01*
X140725565Y-87510003D01*
X140725565Y-87509996D01*
X140705369Y-87330750D01*
X140705368Y-87330745D01*
X140671604Y-87234254D01*
X140645789Y-87160478D01*
X140645227Y-87159584D01*
X140606582Y-87098080D01*
X140549816Y-87007738D01*
X140422262Y-86880184D01*
X140415197Y-86875745D01*
X140269523Y-86784211D01*
X140099254Y-86724631D01*
X140099249Y-86724630D01*
X139920004Y-86704435D01*
X139919996Y-86704435D01*
X139740750Y-86724630D01*
X139740745Y-86724631D01*
X139570476Y-86784211D01*
X139417737Y-86880184D01*
X139290184Y-87007737D01*
X139194211Y-87160476D01*
X139134631Y-87330745D01*
X139134630Y-87330750D01*
X139114435Y-87509996D01*
X137256412Y-87509996D01*
X137275565Y-87340003D01*
X137275565Y-87339996D01*
X137255369Y-87160750D01*
X137255368Y-87160745D01*
X137237613Y-87110003D01*
X137195789Y-86990478D01*
X137189504Y-86980476D01*
X137156582Y-86928080D01*
X137099816Y-86837738D01*
X136972262Y-86710184D01*
X136972256Y-86710179D01*
X136925598Y-86680862D01*
X136879307Y-86628528D01*
X136868659Y-86559474D01*
X136897034Y-86495626D01*
X136903865Y-86488212D01*
X137019816Y-86372262D01*
X137115789Y-86219522D01*
X137175368Y-86049255D01*
X137175369Y-86049249D01*
X137195565Y-85870003D01*
X137195565Y-85869996D01*
X137175369Y-85690750D01*
X137175368Y-85690745D01*
X137161109Y-85649996D01*
X173004435Y-85649996D01*
X173004435Y-85650003D01*
X173024630Y-85829249D01*
X173024631Y-85829254D01*
X173084211Y-85999523D01*
X173180184Y-86152262D01*
X173307737Y-86279815D01*
X173313184Y-86284159D01*
X173312032Y-86285603D01*
X173352172Y-86330978D01*
X173362826Y-86400031D01*
X173334455Y-86463881D01*
X173320639Y-86477282D01*
X173190184Y-86607737D01*
X173094211Y-86760476D01*
X173034631Y-86930745D01*
X173034630Y-86930750D01*
X173014435Y-87109996D01*
X173014435Y-87110003D01*
X173034630Y-87289249D01*
X173034631Y-87289254D01*
X173094211Y-87459523D01*
X173158561Y-87561935D01*
X173190184Y-87612262D01*
X173317738Y-87739816D01*
X173391991Y-87786472D01*
X173464864Y-87832262D01*
X173470478Y-87835789D01*
X173605857Y-87883160D01*
X173640745Y-87895368D01*
X173640750Y-87895369D01*
X173819996Y-87915565D01*
X173820000Y-87915565D01*
X173820004Y-87915565D01*
X173999249Y-87895369D01*
X173999252Y-87895368D01*
X173999255Y-87895368D01*
X174169522Y-87835789D01*
X174322262Y-87739816D01*
X174449816Y-87612262D01*
X174545789Y-87459522D01*
X174605368Y-87289255D01*
X174605468Y-87288368D01*
X174625565Y-87110003D01*
X174625565Y-87109996D01*
X174605369Y-86930750D01*
X174605368Y-86930745D01*
X174569324Y-86827737D01*
X174545789Y-86760478D01*
X174523265Y-86724632D01*
X174495763Y-86680862D01*
X174449816Y-86607738D01*
X174322262Y-86480184D01*
X174316816Y-86475841D01*
X174317966Y-86474398D01*
X174277823Y-86429014D01*
X174267174Y-86359960D01*
X174295549Y-86296112D01*
X174309317Y-86282760D01*
X174312259Y-86279817D01*
X174312262Y-86279816D01*
X174439816Y-86152262D01*
X174535789Y-85999522D01*
X174595368Y-85829255D01*
X174599164Y-85795565D01*
X174615565Y-85650003D01*
X174615565Y-85649996D01*
X174595369Y-85470750D01*
X174595368Y-85470745D01*
X174535788Y-85300476D01*
X174457810Y-85176375D01*
X174439816Y-85147738D01*
X174312262Y-85020184D01*
X174311675Y-85019815D01*
X174159523Y-84924211D01*
X173989254Y-84864631D01*
X173989249Y-84864630D01*
X173810004Y-84844435D01*
X173809996Y-84844435D01*
X173630750Y-84864630D01*
X173630745Y-84864631D01*
X173460476Y-84924211D01*
X173307737Y-85020184D01*
X173180184Y-85147737D01*
X173084211Y-85300476D01*
X173024631Y-85470745D01*
X173024630Y-85470750D01*
X173004435Y-85649996D01*
X137161109Y-85649996D01*
X137150549Y-85619816D01*
X137115789Y-85520478D01*
X137019816Y-85367738D01*
X136892262Y-85240184D01*
X136874000Y-85228709D01*
X136827710Y-85176375D01*
X136817062Y-85107321D01*
X136845437Y-85043473D01*
X136867189Y-85024627D01*
X136866816Y-85024159D01*
X136872256Y-85019819D01*
X136872262Y-85019816D01*
X136999816Y-84892262D01*
X137095789Y-84739522D01*
X137155368Y-84569255D01*
X137155369Y-84569249D01*
X137163172Y-84499996D01*
X177939435Y-84499996D01*
X177939435Y-84500003D01*
X177959630Y-84679249D01*
X177959631Y-84679254D01*
X178019211Y-84849523D01*
X178044529Y-84889816D01*
X178115184Y-85002262D01*
X178242738Y-85129816D01*
X178395478Y-85225789D01*
X178565745Y-85285368D01*
X178565750Y-85285369D01*
X178744996Y-85305565D01*
X178745000Y-85305565D01*
X178745004Y-85305565D01*
X178924249Y-85285369D01*
X178924252Y-85285368D01*
X178924255Y-85285368D01*
X179094522Y-85225789D01*
X179247262Y-85129816D01*
X179374816Y-85002262D01*
X179470789Y-84849522D01*
X179530368Y-84679255D01*
X179530369Y-84679249D01*
X179550565Y-84500003D01*
X179550565Y-84499996D01*
X179530369Y-84320750D01*
X179530368Y-84320745D01*
X179498877Y-84230750D01*
X179470789Y-84150478D01*
X179374816Y-83997738D01*
X179247262Y-83870184D01*
X179176608Y-83825789D01*
X179094523Y-83774211D01*
X178924254Y-83714631D01*
X178924249Y-83714630D01*
X178745004Y-83694435D01*
X178744996Y-83694435D01*
X178565750Y-83714630D01*
X178565745Y-83714631D01*
X178395476Y-83774211D01*
X178242737Y-83870184D01*
X178115184Y-83997737D01*
X178019211Y-84150476D01*
X177959631Y-84320745D01*
X177959630Y-84320750D01*
X177939435Y-84499996D01*
X137163172Y-84499996D01*
X137175565Y-84390003D01*
X137175565Y-84389996D01*
X137155369Y-84210750D01*
X137155368Y-84210745D01*
X137102787Y-84060478D01*
X137095789Y-84040478D01*
X136999816Y-83887738D01*
X136872262Y-83760184D01*
X136823930Y-83729815D01*
X136719523Y-83664211D01*
X136549254Y-83604631D01*
X136549249Y-83604630D01*
X136370004Y-83584435D01*
X136369996Y-83584435D01*
X136190750Y-83604630D01*
X136190745Y-83604631D01*
X136020476Y-83664211D01*
X135867737Y-83760184D01*
X135740184Y-83887737D01*
X135644211Y-84040476D01*
X135584631Y-84210745D01*
X135584630Y-84210750D01*
X135564435Y-84389996D01*
X131310812Y-84389996D01*
X131292869Y-84230750D01*
X131292868Y-84230745D01*
X131240382Y-84080750D01*
X131233289Y-84060478D01*
X131225134Y-84047500D01*
X131193866Y-83997737D01*
X131137316Y-83907738D01*
X131009762Y-83780184D01*
X130977932Y-83760184D01*
X130857023Y-83684211D01*
X130686754Y-83624631D01*
X130686749Y-83624630D01*
X130507504Y-83604435D01*
X130507496Y-83604435D01*
X130328250Y-83624630D01*
X130328245Y-83624631D01*
X130157976Y-83684211D01*
X130005237Y-83780184D01*
X129877684Y-83907737D01*
X129781711Y-84060476D01*
X129722131Y-84230745D01*
X129722130Y-84230750D01*
X129701935Y-84409996D01*
X129701935Y-84410003D01*
X129722130Y-84589249D01*
X129722131Y-84589254D01*
X129781711Y-84759523D01*
X129827797Y-84832868D01*
X129877684Y-84912262D01*
X130005238Y-85039816D01*
X130005240Y-85039817D01*
X130009301Y-85043056D01*
X130049439Y-85100246D01*
X130052286Y-85170058D01*
X130016938Y-85230326D01*
X130009301Y-85236944D01*
X130005236Y-85240185D01*
X129877684Y-85367737D01*
X129781711Y-85520476D01*
X129722131Y-85690745D01*
X129722130Y-85690750D01*
X129701935Y-85869996D01*
X129701935Y-85870003D01*
X129722130Y-86049249D01*
X129722131Y-86049254D01*
X129781711Y-86219523D01*
X129869954Y-86359960D01*
X129877684Y-86372262D01*
X130005238Y-86499816D01*
X130005241Y-86499818D01*
X130006929Y-86501164D01*
X130007736Y-86502314D01*
X130010162Y-86504740D01*
X130009737Y-86505164D01*
X130047069Y-86558353D01*
X130049919Y-86628164D01*
X130014573Y-86688434D01*
X130005420Y-86695511D01*
X130005684Y-86695841D01*
X130000237Y-86700184D01*
X129872684Y-86827737D01*
X129776711Y-86980476D01*
X129717131Y-87150745D01*
X129717130Y-87150750D01*
X129696935Y-87329996D01*
X105794367Y-87329996D01*
X105827868Y-87234255D01*
X105827869Y-87234249D01*
X105848065Y-87055003D01*
X105848065Y-87054996D01*
X105827869Y-86875750D01*
X105827868Y-86875745D01*
X105787534Y-86760478D01*
X105768289Y-86705478D01*
X105764114Y-86698834D01*
X105719709Y-86628164D01*
X105672316Y-86552738D01*
X105544762Y-86425184D01*
X105392023Y-86329211D01*
X105221754Y-86269631D01*
X105221749Y-86269630D01*
X105042504Y-86249435D01*
X105042496Y-86249435D01*
X104863250Y-86269630D01*
X104863245Y-86269631D01*
X104692976Y-86329211D01*
X104534342Y-86428889D01*
X104532805Y-86426443D01*
X104480102Y-86447952D01*
X104411409Y-86435187D01*
X104370171Y-86396389D01*
X104367963Y-86398084D01*
X104363017Y-86391638D01*
X104363015Y-86391635D01*
X104255865Y-86284485D01*
X104190250Y-86246602D01*
X104124636Y-86208719D01*
X104051450Y-86189109D01*
X103978266Y-86169500D01*
X103826734Y-86169500D01*
X103680363Y-86208719D01*
X103549135Y-86284485D01*
X103549132Y-86284487D01*
X103441987Y-86391632D01*
X103441985Y-86391635D01*
X103366219Y-86522863D01*
X103337907Y-86628528D01*
X103327000Y-86669234D01*
X103327000Y-86820766D01*
X103331548Y-86837738D01*
X103366219Y-86967136D01*
X103389661Y-87007738D01*
X103441985Y-87098365D01*
X103441986Y-87098366D01*
X103446049Y-87105403D01*
X103443720Y-87106747D01*
X103464145Y-87159584D01*
X103450103Y-87228029D01*
X103401287Y-87278016D01*
X103388028Y-87284456D01*
X103378594Y-87288363D01*
X103378579Y-87288371D01*
X103214718Y-87397860D01*
X103214714Y-87397863D01*
X103075363Y-87537214D01*
X103075360Y-87537218D01*
X102965871Y-87701079D01*
X102965864Y-87701092D01*
X102890450Y-87883160D01*
X102890447Y-87883170D01*
X102852000Y-88076456D01*
X102852000Y-88076459D01*
X102852000Y-88273541D01*
X102852000Y-88273543D01*
X102851999Y-88273543D01*
X101523000Y-88273543D01*
X101523000Y-88076456D01*
X101484552Y-87883170D01*
X101484551Y-87883169D01*
X101484551Y-87883165D01*
X101484549Y-87883160D01*
X101409135Y-87701092D01*
X101409128Y-87701079D01*
X101299639Y-87537218D01*
X101299636Y-87537214D01*
X101160285Y-87397863D01*
X101160281Y-87397860D01*
X100996420Y-87288371D01*
X100996407Y-87288364D01*
X100814339Y-87212950D01*
X100814329Y-87212947D01*
X100621043Y-87174500D01*
X100621041Y-87174500D01*
X99823959Y-87174500D01*
X99823957Y-87174500D01*
X99630670Y-87212947D01*
X99630660Y-87212950D01*
X99448592Y-87288364D01*
X99448579Y-87288371D01*
X99284718Y-87397860D01*
X99284714Y-87397863D01*
X99212181Y-87470397D01*
X99150858Y-87503882D01*
X99081166Y-87498898D01*
X99025233Y-87457026D01*
X99000816Y-87391562D01*
X99000500Y-87382716D01*
X99000500Y-84989996D01*
X110574435Y-84989996D01*
X110574435Y-84990003D01*
X110594630Y-85169249D01*
X110594631Y-85169254D01*
X110654211Y-85339523D01*
X110671940Y-85367738D01*
X110750184Y-85492262D01*
X110877738Y-85619816D01*
X111030478Y-85715789D01*
X111200745Y-85775368D01*
X111200750Y-85775369D01*
X111379996Y-85795565D01*
X111380000Y-85795565D01*
X111380004Y-85795565D01*
X111559249Y-85775369D01*
X111559252Y-85775368D01*
X111559255Y-85775368D01*
X111729522Y-85715789D01*
X111882262Y-85619816D01*
X112009816Y-85492262D01*
X112105789Y-85339522D01*
X112165368Y-85169255D01*
X112167236Y-85152676D01*
X112185565Y-84990003D01*
X112185565Y-84989996D01*
X112165369Y-84810750D01*
X112165368Y-84810745D01*
X112140446Y-84739522D01*
X112105789Y-84640478D01*
X112009816Y-84487738D01*
X111882262Y-84360184D01*
X111729523Y-84264211D01*
X111717477Y-84259996D01*
X119264435Y-84259996D01*
X119264435Y-84260003D01*
X119284630Y-84439249D01*
X119284631Y-84439254D01*
X119344211Y-84609523D01*
X119388027Y-84679255D01*
X119440184Y-84762262D01*
X119567738Y-84889816D01*
X119720478Y-84985789D01*
X119830133Y-85024159D01*
X119890745Y-85045368D01*
X119890750Y-85045369D01*
X120069996Y-85065565D01*
X120070000Y-85065565D01*
X120070004Y-85065565D01*
X120249249Y-85045369D01*
X120249252Y-85045368D01*
X120249255Y-85045368D01*
X120419522Y-84985789D01*
X120572262Y-84889816D01*
X120699816Y-84762262D01*
X120795789Y-84609522D01*
X120855368Y-84439255D01*
X120858664Y-84410003D01*
X120875565Y-84260003D01*
X120875565Y-84259996D01*
X121804435Y-84259996D01*
X121804435Y-84260003D01*
X121824630Y-84439249D01*
X121824631Y-84439254D01*
X121884211Y-84609523D01*
X121928027Y-84679255D01*
X121980184Y-84762262D01*
X122107738Y-84889816D01*
X122260478Y-84985789D01*
X122370133Y-85024159D01*
X122430745Y-85045368D01*
X122430750Y-85045369D01*
X122609996Y-85065565D01*
X122610000Y-85065565D01*
X122610004Y-85065565D01*
X122789249Y-85045369D01*
X122789252Y-85045368D01*
X122789255Y-85045368D01*
X122959522Y-84985789D01*
X123112262Y-84889816D01*
X123157319Y-84844759D01*
X123218642Y-84811274D01*
X123288334Y-84816258D01*
X123332681Y-84844759D01*
X123377738Y-84889816D01*
X123530478Y-84985789D01*
X123640133Y-85024159D01*
X123700745Y-85045368D01*
X123700750Y-85045369D01*
X123879996Y-85065565D01*
X123880000Y-85065565D01*
X123880004Y-85065565D01*
X124059249Y-85045369D01*
X124059252Y-85045368D01*
X124059255Y-85045368D01*
X124229522Y-84985789D01*
X124382262Y-84889816D01*
X124509816Y-84762262D01*
X124605789Y-84609522D01*
X124665368Y-84439255D01*
X124668664Y-84410003D01*
X124685565Y-84260003D01*
X124685565Y-84259996D01*
X124665369Y-84080750D01*
X124665368Y-84080745D01*
X124651277Y-84040476D01*
X124605789Y-83910478D01*
X124604067Y-83907738D01*
X124552575Y-83825788D01*
X124509816Y-83757738D01*
X124382262Y-83630184D01*
X124373426Y-83624632D01*
X124229523Y-83534211D01*
X124059254Y-83474631D01*
X124059249Y-83474630D01*
X123880004Y-83454435D01*
X123879996Y-83454435D01*
X123700750Y-83474630D01*
X123700745Y-83474631D01*
X123530476Y-83534211D01*
X123377737Y-83630184D01*
X123332680Y-83675241D01*
X123271357Y-83708725D01*
X123201665Y-83703740D01*
X123157320Y-83675241D01*
X123112263Y-83630185D01*
X123112262Y-83630184D01*
X122959523Y-83534211D01*
X122789254Y-83474631D01*
X122789249Y-83474630D01*
X122610004Y-83454435D01*
X122609996Y-83454435D01*
X122430750Y-83474630D01*
X122430745Y-83474631D01*
X122260476Y-83534211D01*
X122107737Y-83630184D01*
X121980184Y-83757737D01*
X121884211Y-83910476D01*
X121824631Y-84080745D01*
X121824630Y-84080750D01*
X121804435Y-84259996D01*
X120875565Y-84259996D01*
X120855369Y-84080750D01*
X120855368Y-84080745D01*
X120841277Y-84040476D01*
X120795789Y-83910478D01*
X120794067Y-83907738D01*
X120742575Y-83825788D01*
X120699816Y-83757738D01*
X120572262Y-83630184D01*
X120563426Y-83624632D01*
X120419523Y-83534211D01*
X120249254Y-83474631D01*
X120249249Y-83474630D01*
X120070004Y-83454435D01*
X120069996Y-83454435D01*
X119890750Y-83474630D01*
X119890745Y-83474631D01*
X119720476Y-83534211D01*
X119567737Y-83630184D01*
X119440184Y-83757737D01*
X119344211Y-83910476D01*
X119284631Y-84080745D01*
X119284630Y-84080750D01*
X119264435Y-84259996D01*
X111717477Y-84259996D01*
X111559254Y-84204631D01*
X111559249Y-84204630D01*
X111380004Y-84184435D01*
X111379996Y-84184435D01*
X111200750Y-84204630D01*
X111200745Y-84204631D01*
X111030476Y-84264211D01*
X110877737Y-84360184D01*
X110750184Y-84487737D01*
X110654211Y-84640476D01*
X110594631Y-84810745D01*
X110594630Y-84810750D01*
X110574435Y-84989996D01*
X99000500Y-84989996D01*
X99000500Y-84047496D01*
X107044435Y-84047496D01*
X107044435Y-84047503D01*
X107064630Y-84226749D01*
X107064631Y-84226754D01*
X107124211Y-84397023D01*
X107188914Y-84499996D01*
X107220184Y-84549762D01*
X107347738Y-84677316D01*
X107350824Y-84679255D01*
X107482928Y-84762262D01*
X107500478Y-84773289D01*
X107670745Y-84832868D01*
X107670750Y-84832869D01*
X107849996Y-84853065D01*
X107850000Y-84853065D01*
X107850004Y-84853065D01*
X108029249Y-84832869D01*
X108029252Y-84832868D01*
X108029255Y-84832868D01*
X108199522Y-84773289D01*
X108352262Y-84677316D01*
X108479816Y-84549762D01*
X108575789Y-84397022D01*
X108635368Y-84226755D01*
X108635369Y-84226749D01*
X108655565Y-84047503D01*
X108655565Y-84047496D01*
X108635369Y-83868250D01*
X108635368Y-83868245D01*
X108596700Y-83757738D01*
X108575789Y-83697978D01*
X108561502Y-83675241D01*
X108517135Y-83604631D01*
X108479816Y-83545238D01*
X108352262Y-83417684D01*
X108199523Y-83321711D01*
X108029254Y-83262131D01*
X108029249Y-83262130D01*
X107850004Y-83241935D01*
X107849996Y-83241935D01*
X107670750Y-83262130D01*
X107670745Y-83262131D01*
X107500476Y-83321711D01*
X107347737Y-83417684D01*
X107220184Y-83545237D01*
X107124211Y-83697976D01*
X107064631Y-83868245D01*
X107064630Y-83868250D01*
X107044435Y-84047496D01*
X99000500Y-84047496D01*
X99000500Y-83099996D01*
X110634435Y-83099996D01*
X110634435Y-83100003D01*
X110654630Y-83279249D01*
X110654631Y-83279254D01*
X110714211Y-83449523D01*
X110810184Y-83602262D01*
X110937738Y-83729816D01*
X111090478Y-83825789D01*
X111211825Y-83868250D01*
X111260745Y-83885368D01*
X111260750Y-83885369D01*
X111439996Y-83905565D01*
X111440000Y-83905565D01*
X111440004Y-83905565D01*
X111619249Y-83885369D01*
X111619252Y-83885368D01*
X111619255Y-83885368D01*
X111789522Y-83825789D01*
X111942262Y-83729816D01*
X112069816Y-83602262D01*
X112165789Y-83449522D01*
X112225368Y-83279255D01*
X112225369Y-83279249D01*
X112245565Y-83100003D01*
X112245565Y-83099996D01*
X112225369Y-82920750D01*
X112225368Y-82920745D01*
X112165788Y-82750476D01*
X112069815Y-82597737D01*
X111942262Y-82470184D01*
X111789523Y-82374211D01*
X111619254Y-82314631D01*
X111619249Y-82314630D01*
X111440004Y-82294435D01*
X111439996Y-82294435D01*
X111260750Y-82314630D01*
X111260745Y-82314631D01*
X111090476Y-82374211D01*
X110937737Y-82470184D01*
X110810184Y-82597737D01*
X110714211Y-82750476D01*
X110654631Y-82920745D01*
X110654630Y-82920750D01*
X110634435Y-83099996D01*
X99000500Y-83099996D01*
X99000500Y-80327284D01*
X99020185Y-80260245D01*
X99072989Y-80214490D01*
X99142147Y-80204546D01*
X99205703Y-80233571D01*
X99212181Y-80239603D01*
X99284714Y-80312136D01*
X99284718Y-80312139D01*
X99448579Y-80421628D01*
X99448592Y-80421635D01*
X99579208Y-80475737D01*
X99630665Y-80497051D01*
X99630669Y-80497051D01*
X99630670Y-80497052D01*
X99823956Y-80535500D01*
X99823959Y-80535500D01*
X100621043Y-80535500D01*
X100776962Y-80504485D01*
X100814335Y-80497051D01*
X100996414Y-80421632D01*
X101160282Y-80312139D01*
X101299639Y-80172782D01*
X101409132Y-80008914D01*
X101484551Y-79826835D01*
X101523000Y-79633543D01*
X102851999Y-79633543D01*
X102890447Y-79826829D01*
X102890450Y-79826839D01*
X102965864Y-80008907D01*
X102965871Y-80008920D01*
X103075360Y-80172781D01*
X103075363Y-80172785D01*
X103214714Y-80312136D01*
X103214718Y-80312139D01*
X103378579Y-80421628D01*
X103378583Y-80421630D01*
X103378586Y-80421632D01*
X103388023Y-80425541D01*
X103442427Y-80469378D01*
X103464495Y-80535672D01*
X103447219Y-80603372D01*
X103444065Y-80608032D01*
X103366219Y-80742863D01*
X103327000Y-80889234D01*
X103327000Y-81040765D01*
X103366219Y-81187136D01*
X103404102Y-81252750D01*
X103441985Y-81318365D01*
X103549135Y-81425515D01*
X103680365Y-81501281D01*
X103826734Y-81540500D01*
X103826736Y-81540500D01*
X103978264Y-81540500D01*
X103978266Y-81540500D01*
X104124635Y-81501281D01*
X104255865Y-81425515D01*
X104363015Y-81318365D01*
X104363019Y-81318357D01*
X104367963Y-81311916D01*
X104370289Y-81313700D01*
X104410643Y-81275203D01*
X104479247Y-81261962D01*
X104532890Y-81283421D01*
X104534342Y-81281111D01*
X104540237Y-81284815D01*
X104540238Y-81284816D01*
X104586207Y-81313700D01*
X104648298Y-81352715D01*
X104692978Y-81380789D01*
X104820789Y-81425512D01*
X104863245Y-81440368D01*
X104863250Y-81440369D01*
X105042496Y-81460565D01*
X105042500Y-81460565D01*
X105042504Y-81460565D01*
X105221749Y-81440369D01*
X105221752Y-81440368D01*
X105221755Y-81440368D01*
X105392022Y-81380789D01*
X105544762Y-81284816D01*
X105672316Y-81157262D01*
X105768289Y-81004522D01*
X105827868Y-80834255D01*
X105838165Y-80742865D01*
X105848065Y-80655003D01*
X105848065Y-80654996D01*
X105827869Y-80475750D01*
X105827866Y-80475737D01*
X105768290Y-80305481D01*
X105768290Y-80305480D01*
X105767400Y-80304063D01*
X105749342Y-80275324D01*
X105730342Y-80208090D01*
X105750709Y-80141255D01*
X105751178Y-80140545D01*
X105839132Y-80008914D01*
X105914551Y-79826835D01*
X105937295Y-79712496D01*
X106311935Y-79712496D01*
X106311935Y-79712503D01*
X106332130Y-79891749D01*
X106332131Y-79891754D01*
X106391711Y-80062023D01*
X106461306Y-80172782D01*
X106487684Y-80214762D01*
X106615238Y-80342316D01*
X106702514Y-80397155D01*
X106741468Y-80421632D01*
X106767978Y-80438289D01*
X106935904Y-80497049D01*
X106938245Y-80497868D01*
X106938250Y-80497869D01*
X107117496Y-80518065D01*
X107117500Y-80518065D01*
X107117504Y-80518065D01*
X107296749Y-80497869D01*
X107296752Y-80497868D01*
X107296755Y-80497868D01*
X107467022Y-80438289D01*
X107619762Y-80342316D01*
X107747316Y-80214762D01*
X107843289Y-80062022D01*
X107902868Y-79891755D01*
X107904514Y-79877150D01*
X107923065Y-79712503D01*
X107923065Y-79712496D01*
X107902869Y-79533250D01*
X107902868Y-79533245D01*
X107843288Y-79362976D01*
X107804082Y-79300580D01*
X107747316Y-79210238D01*
X107619762Y-79082684D01*
X107494412Y-79003921D01*
X107467023Y-78986711D01*
X107296754Y-78927131D01*
X107296749Y-78927130D01*
X107117504Y-78906935D01*
X107117496Y-78906935D01*
X106938250Y-78927130D01*
X106938245Y-78927131D01*
X106767976Y-78986711D01*
X106615237Y-79082684D01*
X106487684Y-79210237D01*
X106391711Y-79362976D01*
X106332131Y-79533245D01*
X106332130Y-79533250D01*
X106311935Y-79712496D01*
X105937295Y-79712496D01*
X105953000Y-79633541D01*
X105953000Y-79436459D01*
X105953000Y-79436456D01*
X105914552Y-79243170D01*
X105914551Y-79243169D01*
X105914551Y-79243165D01*
X105866010Y-79125976D01*
X105839135Y-79061092D01*
X105839128Y-79061079D01*
X105729639Y-78897218D01*
X105729636Y-78897214D01*
X105590285Y-78757863D01*
X105590281Y-78757860D01*
X105551661Y-78732055D01*
X109914422Y-78732055D01*
X109914422Y-78732056D01*
X109934722Y-79119395D01*
X109995397Y-79502483D01*
X109995398Y-79502489D01*
X110082304Y-79826829D01*
X110095788Y-79877150D01*
X110234787Y-80239253D01*
X110410877Y-80584849D01*
X110622122Y-80910138D01*
X110622124Y-80910140D01*
X110866219Y-81211572D01*
X111140484Y-81485837D01*
X111140488Y-81485840D01*
X111441917Y-81729933D01*
X111767206Y-81941178D01*
X111767211Y-81941181D01*
X112112806Y-82117270D01*
X112474913Y-82256270D01*
X112849567Y-82356658D01*
X113232662Y-82417334D01*
X113598576Y-82436511D01*
X113619999Y-82437634D01*
X113620000Y-82437634D01*
X113620001Y-82437634D01*
X113640301Y-82436570D01*
X114007338Y-82417334D01*
X114390433Y-82356658D01*
X114765087Y-82256270D01*
X115127194Y-82117270D01*
X115472789Y-81941181D01*
X115798084Y-81729932D01*
X116099516Y-81485837D01*
X116373781Y-81211572D01*
X116617876Y-80910140D01*
X116829125Y-80584845D01*
X117005214Y-80239250D01*
X117144214Y-79877143D01*
X117244602Y-79502489D01*
X117305278Y-79119394D01*
X117325578Y-78732056D01*
X117305278Y-78344718D01*
X117244602Y-77961623D01*
X117144214Y-77586969D01*
X117094345Y-77457055D01*
X119304341Y-77457055D01*
X119304341Y-77457056D01*
X119324936Y-77692459D01*
X119324938Y-77692469D01*
X119386094Y-77920711D01*
X119386096Y-77920715D01*
X119386097Y-77920719D01*
X119465801Y-78091644D01*
X119485965Y-78134886D01*
X119485967Y-78134890D01*
X119594281Y-78289577D01*
X119621504Y-78328456D01*
X119621506Y-78328458D01*
X119788597Y-78495549D01*
X119788603Y-78495554D01*
X119974158Y-78625481D01*
X120017783Y-78680058D01*
X120024977Y-78749556D01*
X119993454Y-78811911D01*
X119974158Y-78828631D01*
X119788597Y-78958561D01*
X119621505Y-79125653D01*
X119485965Y-79319225D01*
X119485964Y-79319227D01*
X119386098Y-79533391D01*
X119386094Y-79533400D01*
X119324938Y-79761642D01*
X119324936Y-79761652D01*
X119304341Y-79997055D01*
X119304341Y-79997056D01*
X119324936Y-80232459D01*
X119324938Y-80232469D01*
X119386094Y-80460711D01*
X119386096Y-80460715D01*
X119386097Y-80460719D01*
X119466004Y-80632079D01*
X119485965Y-80674886D01*
X119485967Y-80674890D01*
X119533563Y-80742863D01*
X119621505Y-80868457D01*
X119788599Y-81035551D01*
X119796047Y-81040766D01*
X119982165Y-81171088D01*
X119982167Y-81171089D01*
X119982170Y-81171091D01*
X120196337Y-81270959D01*
X120424592Y-81332119D01*
X120612918Y-81348595D01*
X120659999Y-81352715D01*
X120660000Y-81352715D01*
X120660001Y-81352715D01*
X120699234Y-81349282D01*
X120895408Y-81332119D01*
X121123663Y-81270959D01*
X121337830Y-81171091D01*
X121531401Y-81035551D01*
X121698495Y-80868457D01*
X121828425Y-80682898D01*
X121883002Y-80639273D01*
X121952500Y-80632079D01*
X122014855Y-80663602D01*
X122031575Y-80682898D01*
X122161500Y-80868451D01*
X122161505Y-80868457D01*
X122328599Y-81035551D01*
X122336047Y-81040766D01*
X122522165Y-81171088D01*
X122522167Y-81171089D01*
X122522170Y-81171091D01*
X122736337Y-81270959D01*
X122964592Y-81332119D01*
X123152918Y-81348595D01*
X123199999Y-81352715D01*
X123200000Y-81352715D01*
X123200001Y-81352715D01*
X123239234Y-81349282D01*
X123435408Y-81332119D01*
X123663663Y-81270959D01*
X123877830Y-81171091D01*
X124071401Y-81035551D01*
X124238495Y-80868457D01*
X124368425Y-80682898D01*
X124423002Y-80639273D01*
X124492500Y-80632079D01*
X124554855Y-80663602D01*
X124571575Y-80682898D01*
X124701500Y-80868451D01*
X124701505Y-80868457D01*
X124868599Y-81035551D01*
X124876047Y-81040766D01*
X125062165Y-81171088D01*
X125062167Y-81171089D01*
X125062170Y-81171091D01*
X125276337Y-81270959D01*
X125504592Y-81332119D01*
X125692918Y-81348595D01*
X125739999Y-81352715D01*
X125740000Y-81352715D01*
X125740001Y-81352715D01*
X125779234Y-81349282D01*
X125975408Y-81332119D01*
X126203663Y-81270959D01*
X126417830Y-81171091D01*
X126611401Y-81035551D01*
X126778495Y-80868457D01*
X126908425Y-80682898D01*
X126963002Y-80639273D01*
X127032500Y-80632079D01*
X127094855Y-80663602D01*
X127111575Y-80682898D01*
X127241500Y-80868451D01*
X127241505Y-80868457D01*
X127408599Y-81035551D01*
X127416047Y-81040766D01*
X127602165Y-81171088D01*
X127602167Y-81171089D01*
X127602170Y-81171091D01*
X127816337Y-81270959D01*
X128044592Y-81332119D01*
X128232918Y-81348595D01*
X128279999Y-81352715D01*
X128280000Y-81352715D01*
X128280001Y-81352715D01*
X128319234Y-81349282D01*
X128515408Y-81332119D01*
X128743663Y-81270959D01*
X128957830Y-81171091D01*
X129151401Y-81035551D01*
X129318495Y-80868457D01*
X129448425Y-80682898D01*
X129503002Y-80639273D01*
X129572500Y-80632079D01*
X129634855Y-80663602D01*
X129651575Y-80682898D01*
X129781500Y-80868451D01*
X129781505Y-80868457D01*
X129948599Y-81035551D01*
X129956047Y-81040766D01*
X130142165Y-81171088D01*
X130142167Y-81171089D01*
X130142170Y-81171091D01*
X130356337Y-81270959D01*
X130584592Y-81332119D01*
X130772918Y-81348595D01*
X130819999Y-81352715D01*
X130820000Y-81352715D01*
X130820001Y-81352715D01*
X130859234Y-81349282D01*
X131055408Y-81332119D01*
X131283663Y-81270959D01*
X131497830Y-81171091D01*
X131691401Y-81035551D01*
X131858495Y-80868457D01*
X131988425Y-80682898D01*
X132043002Y-80639273D01*
X132112500Y-80632079D01*
X132174855Y-80663602D01*
X132191575Y-80682898D01*
X132321500Y-80868451D01*
X132321505Y-80868457D01*
X132488599Y-81035551D01*
X132496047Y-81040766D01*
X132682165Y-81171088D01*
X132682167Y-81171089D01*
X132682170Y-81171091D01*
X132896337Y-81270959D01*
X133124592Y-81332119D01*
X133312918Y-81348595D01*
X133359999Y-81352715D01*
X133360000Y-81352715D01*
X133360001Y-81352715D01*
X133399234Y-81349282D01*
X133595408Y-81332119D01*
X133823663Y-81270959D01*
X134037830Y-81171091D01*
X134231401Y-81035551D01*
X134398495Y-80868457D01*
X134528425Y-80682898D01*
X134583002Y-80639273D01*
X134652500Y-80632079D01*
X134714855Y-80663602D01*
X134731575Y-80682898D01*
X134861500Y-80868451D01*
X134861505Y-80868457D01*
X135028599Y-81035551D01*
X135036047Y-81040766D01*
X135222165Y-81171088D01*
X135222167Y-81171089D01*
X135222170Y-81171091D01*
X135436337Y-81270959D01*
X135664592Y-81332119D01*
X135852918Y-81348595D01*
X135899999Y-81352715D01*
X135900000Y-81352715D01*
X135900001Y-81352715D01*
X135939234Y-81349282D01*
X136135408Y-81332119D01*
X136363663Y-81270959D01*
X136577830Y-81171091D01*
X136771401Y-81035551D01*
X136938495Y-80868457D01*
X137068425Y-80682898D01*
X137123002Y-80639273D01*
X137192500Y-80632079D01*
X137254855Y-80663602D01*
X137271575Y-80682898D01*
X137401500Y-80868451D01*
X137401505Y-80868457D01*
X137568599Y-81035551D01*
X137576047Y-81040766D01*
X137762165Y-81171088D01*
X137762167Y-81171089D01*
X137762170Y-81171091D01*
X137976337Y-81270959D01*
X138204592Y-81332119D01*
X138392918Y-81348595D01*
X138439999Y-81352715D01*
X138440000Y-81352715D01*
X138440001Y-81352715D01*
X138479234Y-81349282D01*
X138675408Y-81332119D01*
X138903663Y-81270959D01*
X139117830Y-81171091D01*
X139311401Y-81035551D01*
X139478495Y-80868457D01*
X139608425Y-80682898D01*
X139663002Y-80639273D01*
X139732500Y-80632079D01*
X139794855Y-80663602D01*
X139811575Y-80682898D01*
X139941500Y-80868451D01*
X139941505Y-80868457D01*
X140108599Y-81035551D01*
X140116047Y-81040766D01*
X140302165Y-81171088D01*
X140302167Y-81171089D01*
X140302170Y-81171091D01*
X140516337Y-81270959D01*
X140744592Y-81332119D01*
X140932918Y-81348595D01*
X140979999Y-81352715D01*
X140980000Y-81352715D01*
X140980001Y-81352715D01*
X141019234Y-81349282D01*
X141215408Y-81332119D01*
X141443663Y-81270959D01*
X141657830Y-81171091D01*
X141851401Y-81035551D01*
X142018495Y-80868457D01*
X142148425Y-80682898D01*
X142203002Y-80639273D01*
X142272500Y-80632079D01*
X142334855Y-80663602D01*
X142351575Y-80682898D01*
X142481500Y-80868451D01*
X142481505Y-80868457D01*
X142648599Y-81035551D01*
X142656047Y-81040766D01*
X142842165Y-81171088D01*
X142842167Y-81171089D01*
X142842170Y-81171091D01*
X143056337Y-81270959D01*
X143284592Y-81332119D01*
X143472918Y-81348595D01*
X143519999Y-81352715D01*
X143520000Y-81352715D01*
X143520001Y-81352715D01*
X143559234Y-81349282D01*
X143755408Y-81332119D01*
X143983663Y-81270959D01*
X144197830Y-81171091D01*
X144391401Y-81035551D01*
X144558495Y-80868457D01*
X144688425Y-80682898D01*
X144743002Y-80639273D01*
X144812500Y-80632079D01*
X144874855Y-80663602D01*
X144891575Y-80682898D01*
X145021500Y-80868451D01*
X145021505Y-80868457D01*
X145188599Y-81035551D01*
X145196047Y-81040766D01*
X145382165Y-81171088D01*
X145382167Y-81171089D01*
X145382170Y-81171091D01*
X145596337Y-81270959D01*
X145824592Y-81332119D01*
X146012918Y-81348595D01*
X146059999Y-81352715D01*
X146060000Y-81352715D01*
X146060001Y-81352715D01*
X146099234Y-81349282D01*
X146295408Y-81332119D01*
X146523663Y-81270959D01*
X146737830Y-81171091D01*
X146931401Y-81035551D01*
X147098495Y-80868457D01*
X147228425Y-80682898D01*
X147283002Y-80639273D01*
X147352500Y-80632079D01*
X147414855Y-80663602D01*
X147431575Y-80682898D01*
X147561500Y-80868451D01*
X147561505Y-80868457D01*
X147728599Y-81035551D01*
X147736047Y-81040766D01*
X147922165Y-81171088D01*
X147922167Y-81171089D01*
X147922170Y-81171091D01*
X148136337Y-81270959D01*
X148364592Y-81332119D01*
X148552918Y-81348595D01*
X148599999Y-81352715D01*
X148600000Y-81352715D01*
X148600001Y-81352715D01*
X148639234Y-81349282D01*
X148835408Y-81332119D01*
X149063663Y-81270959D01*
X149277830Y-81171091D01*
X149471401Y-81035551D01*
X149638495Y-80868457D01*
X149768425Y-80682898D01*
X149823002Y-80639273D01*
X149892500Y-80632079D01*
X149954855Y-80663602D01*
X149971575Y-80682898D01*
X150101500Y-80868451D01*
X150101505Y-80868457D01*
X150268599Y-81035551D01*
X150276047Y-81040766D01*
X150462165Y-81171088D01*
X150462167Y-81171089D01*
X150462170Y-81171091D01*
X150676337Y-81270959D01*
X150904592Y-81332119D01*
X151092918Y-81348595D01*
X151139999Y-81352715D01*
X151140000Y-81352715D01*
X151140001Y-81352715D01*
X151179234Y-81349282D01*
X151375408Y-81332119D01*
X151603663Y-81270959D01*
X151817830Y-81171091D01*
X152011401Y-81035551D01*
X152178495Y-80868457D01*
X152308425Y-80682898D01*
X152363002Y-80639273D01*
X152432500Y-80632079D01*
X152494855Y-80663602D01*
X152511575Y-80682898D01*
X152641500Y-80868451D01*
X152641505Y-80868457D01*
X152808599Y-81035551D01*
X152816047Y-81040766D01*
X153002165Y-81171088D01*
X153002167Y-81171089D01*
X153002170Y-81171091D01*
X153216337Y-81270959D01*
X153444592Y-81332119D01*
X153632918Y-81348595D01*
X153679999Y-81352715D01*
X153680000Y-81352715D01*
X153680001Y-81352715D01*
X153719234Y-81349282D01*
X153915408Y-81332119D01*
X154143663Y-81270959D01*
X154357830Y-81171091D01*
X154551401Y-81035551D01*
X154718495Y-80868457D01*
X154848425Y-80682898D01*
X154903002Y-80639273D01*
X154972500Y-80632079D01*
X155034855Y-80663602D01*
X155051575Y-80682898D01*
X155181500Y-80868451D01*
X155181505Y-80868457D01*
X155348599Y-81035551D01*
X155356047Y-81040766D01*
X155542165Y-81171088D01*
X155542167Y-81171089D01*
X155542170Y-81171091D01*
X155756337Y-81270959D01*
X155984592Y-81332119D01*
X156172918Y-81348595D01*
X156219999Y-81352715D01*
X156220000Y-81352715D01*
X156220001Y-81352715D01*
X156259234Y-81349282D01*
X156455408Y-81332119D01*
X156683663Y-81270959D01*
X156897830Y-81171091D01*
X157091401Y-81035551D01*
X157258495Y-80868457D01*
X157388425Y-80682898D01*
X157443002Y-80639273D01*
X157512500Y-80632079D01*
X157574855Y-80663602D01*
X157591575Y-80682898D01*
X157721500Y-80868451D01*
X157721505Y-80868457D01*
X157888599Y-81035551D01*
X157896047Y-81040766D01*
X158082165Y-81171088D01*
X158082167Y-81171089D01*
X158082170Y-81171091D01*
X158296337Y-81270959D01*
X158524592Y-81332119D01*
X158712918Y-81348595D01*
X158759999Y-81352715D01*
X158760000Y-81352715D01*
X158760001Y-81352715D01*
X158799234Y-81349282D01*
X158995408Y-81332119D01*
X159223663Y-81270959D01*
X159437830Y-81171091D01*
X159631401Y-81035551D01*
X159798495Y-80868457D01*
X159928425Y-80682898D01*
X159983002Y-80639273D01*
X160052500Y-80632079D01*
X160114855Y-80663602D01*
X160131575Y-80682898D01*
X160261500Y-80868451D01*
X160261505Y-80868457D01*
X160428599Y-81035551D01*
X160436047Y-81040766D01*
X160622165Y-81171088D01*
X160622167Y-81171089D01*
X160622170Y-81171091D01*
X160836337Y-81270959D01*
X161064592Y-81332119D01*
X161252918Y-81348595D01*
X161299999Y-81352715D01*
X161300000Y-81352715D01*
X161300001Y-81352715D01*
X161339234Y-81349282D01*
X161535408Y-81332119D01*
X161763663Y-81270959D01*
X161977830Y-81171091D01*
X162171401Y-81035551D01*
X162338495Y-80868457D01*
X162468425Y-80682898D01*
X162523002Y-80639273D01*
X162592500Y-80632079D01*
X162654855Y-80663602D01*
X162671575Y-80682898D01*
X162801500Y-80868451D01*
X162801505Y-80868457D01*
X162968599Y-81035551D01*
X162976047Y-81040766D01*
X163162165Y-81171088D01*
X163162167Y-81171089D01*
X163162170Y-81171091D01*
X163376337Y-81270959D01*
X163604592Y-81332119D01*
X163792918Y-81348595D01*
X163839999Y-81352715D01*
X163840000Y-81352715D01*
X163840001Y-81352715D01*
X163879234Y-81349282D01*
X164075408Y-81332119D01*
X164303663Y-81270959D01*
X164517830Y-81171091D01*
X164711401Y-81035551D01*
X164878495Y-80868457D01*
X165008425Y-80682898D01*
X165063002Y-80639273D01*
X165132500Y-80632079D01*
X165194855Y-80663602D01*
X165211575Y-80682898D01*
X165341500Y-80868451D01*
X165341505Y-80868457D01*
X165508599Y-81035551D01*
X165516047Y-81040766D01*
X165702165Y-81171088D01*
X165702167Y-81171089D01*
X165702170Y-81171091D01*
X165916337Y-81270959D01*
X166144592Y-81332119D01*
X166332918Y-81348595D01*
X166379999Y-81352715D01*
X166380000Y-81352715D01*
X166380001Y-81352715D01*
X166419234Y-81349282D01*
X166615408Y-81332119D01*
X166843663Y-81270959D01*
X167057830Y-81171091D01*
X167251401Y-81035551D01*
X167418495Y-80868457D01*
X167548730Y-80682461D01*
X167603307Y-80638837D01*
X167672805Y-80631643D01*
X167735160Y-80663166D01*
X167751879Y-80682461D01*
X167881890Y-80868134D01*
X168048917Y-81035161D01*
X168242421Y-81170656D01*
X168456507Y-81270485D01*
X168456516Y-81270489D01*
X168670000Y-81327690D01*
X168670000Y-80430068D01*
X168727007Y-80462981D01*
X168854174Y-80497056D01*
X168985826Y-80497056D01*
X169112993Y-80462981D01*
X169170000Y-80430068D01*
X169170000Y-81327690D01*
X169383483Y-81270489D01*
X169383492Y-81270485D01*
X169597578Y-81170656D01*
X169791082Y-81035161D01*
X169958105Y-80868138D01*
X170093600Y-80674634D01*
X170193429Y-80460548D01*
X170193432Y-80460542D01*
X170250636Y-80247056D01*
X169353012Y-80247056D01*
X169385925Y-80190049D01*
X169420000Y-80062882D01*
X169420000Y-79931230D01*
X169385925Y-79804063D01*
X169353012Y-79747056D01*
X170250636Y-79747056D01*
X170250635Y-79747055D01*
X170193432Y-79533569D01*
X170193429Y-79533563D01*
X170093600Y-79319478D01*
X170093599Y-79319476D01*
X169958113Y-79125982D01*
X169958108Y-79125976D01*
X169836053Y-79003921D01*
X169802568Y-78942598D01*
X169807552Y-78872906D01*
X169849424Y-78816973D01*
X169880400Y-78800058D01*
X169993542Y-78757860D01*
X170012326Y-78750854D01*
X170012326Y-78750853D01*
X170012331Y-78750852D01*
X170037441Y-78732055D01*
X171694422Y-78732055D01*
X171694422Y-78732056D01*
X171714722Y-79119395D01*
X171775397Y-79502483D01*
X171775398Y-79502489D01*
X171862304Y-79826829D01*
X171875788Y-79877150D01*
X172014787Y-80239253D01*
X172190877Y-80584849D01*
X172402122Y-80910138D01*
X172402124Y-80910140D01*
X172646219Y-81211572D01*
X172920484Y-81485837D01*
X172920488Y-81485840D01*
X173221917Y-81729933D01*
X173547206Y-81941178D01*
X173547211Y-81941181D01*
X173892806Y-82117270D01*
X174254913Y-82256270D01*
X174629567Y-82356658D01*
X175012662Y-82417334D01*
X175378576Y-82436511D01*
X175399999Y-82437634D01*
X175400000Y-82437634D01*
X175400001Y-82437634D01*
X175420301Y-82436570D01*
X175787338Y-82417334D01*
X176170433Y-82356658D01*
X176545087Y-82256270D01*
X176907194Y-82117270D01*
X177252789Y-81941181D01*
X177578084Y-81729932D01*
X177879516Y-81485837D01*
X178153781Y-81211572D01*
X178397876Y-80910140D01*
X178609125Y-80584845D01*
X178785214Y-80239250D01*
X178924214Y-79877143D01*
X179024602Y-79502489D01*
X179085278Y-79119394D01*
X179105578Y-78732056D01*
X179085278Y-78344718D01*
X179024602Y-77961623D01*
X178924214Y-77586969D01*
X178785214Y-77224862D01*
X178609125Y-76879267D01*
X178575318Y-76827209D01*
X178397877Y-76553973D01*
X178178815Y-76283455D01*
X178153781Y-76252540D01*
X177879516Y-75978275D01*
X177578084Y-75734180D01*
X177578082Y-75734178D01*
X177252793Y-75522933D01*
X176907197Y-75346843D01*
X176545094Y-75207844D01*
X176545087Y-75207842D01*
X176170433Y-75107454D01*
X176170429Y-75107453D01*
X176170428Y-75107453D01*
X175787339Y-75046778D01*
X175400001Y-75026478D01*
X175399999Y-75026478D01*
X175012660Y-75046778D01*
X174629572Y-75107453D01*
X174629570Y-75107453D01*
X174254905Y-75207844D01*
X173892802Y-75346843D01*
X173547206Y-75522933D01*
X173221917Y-75734178D01*
X172920488Y-75978271D01*
X172920480Y-75978278D01*
X172646222Y-76252536D01*
X172646215Y-76252544D01*
X172402122Y-76553973D01*
X172190877Y-76879262D01*
X172014787Y-77224858D01*
X171875788Y-77586961D01*
X171775397Y-77961626D01*
X171775397Y-77961628D01*
X171714722Y-78344716D01*
X171694422Y-78732055D01*
X170037441Y-78732055D01*
X170127546Y-78664602D01*
X170213796Y-78549387D01*
X170264091Y-78414539D01*
X170270500Y-78354929D01*
X170270499Y-76559184D01*
X170264091Y-76499573D01*
X170262810Y-76496139D01*
X170213797Y-76364727D01*
X170213793Y-76364720D01*
X170127547Y-76249511D01*
X170127544Y-76249508D01*
X170012335Y-76163262D01*
X170012328Y-76163258D01*
X169877482Y-76112964D01*
X169877483Y-76112964D01*
X169817883Y-76106557D01*
X169817881Y-76106556D01*
X169817873Y-76106556D01*
X169817864Y-76106556D01*
X168022129Y-76106556D01*
X168022123Y-76106557D01*
X167962516Y-76112964D01*
X167827671Y-76163258D01*
X167827664Y-76163262D01*
X167712455Y-76249508D01*
X167712452Y-76249511D01*
X167626206Y-76364720D01*
X167626203Y-76364725D01*
X167577189Y-76496139D01*
X167535317Y-76552072D01*
X167469853Y-76576489D01*
X167401580Y-76561637D01*
X167373326Y-76540486D01*
X167251402Y-76418562D01*
X167251395Y-76418557D01*
X167057834Y-76283023D01*
X167057830Y-76283021D01*
X166992455Y-76252536D01*
X166843663Y-76183153D01*
X166843659Y-76183152D01*
X166843655Y-76183150D01*
X166615413Y-76121994D01*
X166615403Y-76121992D01*
X166380001Y-76101397D01*
X166379999Y-76101397D01*
X166144596Y-76121992D01*
X166144586Y-76121994D01*
X165916344Y-76183150D01*
X165916335Y-76183154D01*
X165702171Y-76283020D01*
X165702169Y-76283021D01*
X165508597Y-76418561D01*
X165341508Y-76585650D01*
X165211269Y-76771651D01*
X165156692Y-76815275D01*
X165087193Y-76822468D01*
X165024839Y-76790946D01*
X165008119Y-76771650D01*
X164878113Y-76585982D01*
X164878108Y-76585976D01*
X164711082Y-76418950D01*
X164517578Y-76283455D01*
X164303492Y-76183626D01*
X164303486Y-76183623D01*
X164090000Y-76126420D01*
X164090000Y-77024044D01*
X164032993Y-76991131D01*
X163905826Y-76957056D01*
X163774174Y-76957056D01*
X163647007Y-76991131D01*
X163590000Y-77024044D01*
X163590000Y-76126420D01*
X163589999Y-76126420D01*
X163376513Y-76183623D01*
X163376507Y-76183626D01*
X163162422Y-76283455D01*
X163162420Y-76283456D01*
X162968926Y-76418942D01*
X162968920Y-76418947D01*
X162801891Y-76585976D01*
X162801890Y-76585978D01*
X162671880Y-76771651D01*
X162617303Y-76815275D01*
X162547804Y-76822468D01*
X162485450Y-76790946D01*
X162468730Y-76771650D01*
X162338494Y-76585653D01*
X162171402Y-76418562D01*
X162171395Y-76418557D01*
X161977834Y-76283023D01*
X161977830Y-76283021D01*
X161912455Y-76252536D01*
X161763663Y-76183153D01*
X161763659Y-76183152D01*
X161763655Y-76183150D01*
X161535413Y-76121994D01*
X161535403Y-76121992D01*
X161300001Y-76101397D01*
X161299999Y-76101397D01*
X161064596Y-76121992D01*
X161064586Y-76121994D01*
X160836344Y-76183150D01*
X160836335Y-76183154D01*
X160622171Y-76283020D01*
X160622169Y-76283021D01*
X160428597Y-76418561D01*
X160261505Y-76585653D01*
X160131575Y-76771214D01*
X160076998Y-76814839D01*
X160007500Y-76822033D01*
X159945145Y-76790510D01*
X159928425Y-76771214D01*
X159798494Y-76585653D01*
X159631402Y-76418562D01*
X159631395Y-76418557D01*
X159437834Y-76283023D01*
X159437830Y-76283021D01*
X159372455Y-76252536D01*
X159223663Y-76183153D01*
X159223659Y-76183152D01*
X159223655Y-76183150D01*
X158995413Y-76121994D01*
X158995403Y-76121992D01*
X158760001Y-76101397D01*
X158759999Y-76101397D01*
X158524596Y-76121992D01*
X158524586Y-76121994D01*
X158296344Y-76183150D01*
X158296335Y-76183154D01*
X158082171Y-76283020D01*
X158082169Y-76283021D01*
X157888597Y-76418561D01*
X157721505Y-76585653D01*
X157591575Y-76771214D01*
X157536998Y-76814839D01*
X157467500Y-76822033D01*
X157405145Y-76790510D01*
X157388425Y-76771214D01*
X157258494Y-76585653D01*
X157091402Y-76418562D01*
X157091395Y-76418557D01*
X156897834Y-76283023D01*
X156897830Y-76283021D01*
X156832455Y-76252536D01*
X156683663Y-76183153D01*
X156683659Y-76183152D01*
X156683655Y-76183150D01*
X156455413Y-76121994D01*
X156455403Y-76121992D01*
X156220001Y-76101397D01*
X156219999Y-76101397D01*
X155984596Y-76121992D01*
X155984586Y-76121994D01*
X155756344Y-76183150D01*
X155756335Y-76183154D01*
X155542171Y-76283020D01*
X155542169Y-76283021D01*
X155348597Y-76418561D01*
X155181505Y-76585653D01*
X155051575Y-76771214D01*
X154996998Y-76814839D01*
X154927500Y-76822033D01*
X154865145Y-76790510D01*
X154848425Y-76771214D01*
X154718494Y-76585653D01*
X154551402Y-76418562D01*
X154551395Y-76418557D01*
X154357834Y-76283023D01*
X154357830Y-76283021D01*
X154292455Y-76252536D01*
X154143663Y-76183153D01*
X154143659Y-76183152D01*
X154143655Y-76183150D01*
X153915413Y-76121994D01*
X153915403Y-76121992D01*
X153680001Y-76101397D01*
X153679999Y-76101397D01*
X153444596Y-76121992D01*
X153444586Y-76121994D01*
X153216344Y-76183150D01*
X153216335Y-76183154D01*
X153002171Y-76283020D01*
X153002169Y-76283021D01*
X152808597Y-76418561D01*
X152641505Y-76585653D01*
X152511575Y-76771214D01*
X152456998Y-76814839D01*
X152387500Y-76822033D01*
X152325145Y-76790510D01*
X152308425Y-76771214D01*
X152178494Y-76585653D01*
X152011402Y-76418562D01*
X152011395Y-76418557D01*
X151817834Y-76283023D01*
X151817830Y-76283021D01*
X151752455Y-76252536D01*
X151603663Y-76183153D01*
X151603659Y-76183152D01*
X151603655Y-76183150D01*
X151375413Y-76121994D01*
X151375403Y-76121992D01*
X151140001Y-76101397D01*
X151139999Y-76101397D01*
X150904596Y-76121992D01*
X150904586Y-76121994D01*
X150676344Y-76183150D01*
X150676335Y-76183154D01*
X150462171Y-76283020D01*
X150462169Y-76283021D01*
X150268597Y-76418561D01*
X150101505Y-76585653D01*
X149971575Y-76771214D01*
X149916998Y-76814839D01*
X149847500Y-76822033D01*
X149785145Y-76790510D01*
X149768425Y-76771214D01*
X149638494Y-76585653D01*
X149471402Y-76418562D01*
X149471395Y-76418557D01*
X149277834Y-76283023D01*
X149277830Y-76283021D01*
X149212455Y-76252536D01*
X149063663Y-76183153D01*
X149063659Y-76183152D01*
X149063655Y-76183150D01*
X148835413Y-76121994D01*
X148835403Y-76121992D01*
X148600001Y-76101397D01*
X148599999Y-76101397D01*
X148364596Y-76121992D01*
X148364586Y-76121994D01*
X148136344Y-76183150D01*
X148136335Y-76183154D01*
X147922171Y-76283020D01*
X147922169Y-76283021D01*
X147728597Y-76418561D01*
X147561505Y-76585653D01*
X147431575Y-76771214D01*
X147376998Y-76814839D01*
X147307500Y-76822033D01*
X147245145Y-76790510D01*
X147228425Y-76771214D01*
X147098494Y-76585653D01*
X146931402Y-76418562D01*
X146931395Y-76418557D01*
X146737834Y-76283023D01*
X146737830Y-76283021D01*
X146672455Y-76252536D01*
X146523663Y-76183153D01*
X146523659Y-76183152D01*
X146523655Y-76183150D01*
X146295413Y-76121994D01*
X146295403Y-76121992D01*
X146060001Y-76101397D01*
X146059999Y-76101397D01*
X145824596Y-76121992D01*
X145824586Y-76121994D01*
X145596344Y-76183150D01*
X145596335Y-76183154D01*
X145382171Y-76283020D01*
X145382169Y-76283021D01*
X145188597Y-76418561D01*
X145021505Y-76585653D01*
X144891575Y-76771214D01*
X144836998Y-76814839D01*
X144767500Y-76822033D01*
X144705145Y-76790510D01*
X144688425Y-76771214D01*
X144558494Y-76585653D01*
X144391402Y-76418562D01*
X144391395Y-76418557D01*
X144197834Y-76283023D01*
X144197830Y-76283021D01*
X144132455Y-76252536D01*
X143983663Y-76183153D01*
X143983659Y-76183152D01*
X143983655Y-76183150D01*
X143755413Y-76121994D01*
X143755403Y-76121992D01*
X143520001Y-76101397D01*
X143519999Y-76101397D01*
X143284596Y-76121992D01*
X143284586Y-76121994D01*
X143056344Y-76183150D01*
X143056335Y-76183154D01*
X142842171Y-76283020D01*
X142842169Y-76283021D01*
X142648597Y-76418561D01*
X142481505Y-76585653D01*
X142351575Y-76771214D01*
X142296998Y-76814839D01*
X142227500Y-76822033D01*
X142165145Y-76790510D01*
X142148425Y-76771214D01*
X142018494Y-76585653D01*
X141851402Y-76418562D01*
X141851395Y-76418557D01*
X141657834Y-76283023D01*
X141657830Y-76283021D01*
X141592455Y-76252536D01*
X141443663Y-76183153D01*
X141443659Y-76183152D01*
X141443655Y-76183150D01*
X141215413Y-76121994D01*
X141215403Y-76121992D01*
X140980001Y-76101397D01*
X140979999Y-76101397D01*
X140744596Y-76121992D01*
X140744586Y-76121994D01*
X140516344Y-76183150D01*
X140516335Y-76183154D01*
X140302171Y-76283020D01*
X140302169Y-76283021D01*
X140108597Y-76418561D01*
X139941505Y-76585653D01*
X139811575Y-76771214D01*
X139756998Y-76814839D01*
X139687500Y-76822033D01*
X139625145Y-76790510D01*
X139608425Y-76771214D01*
X139478494Y-76585653D01*
X139311402Y-76418562D01*
X139311395Y-76418557D01*
X139117834Y-76283023D01*
X139117830Y-76283021D01*
X139052455Y-76252536D01*
X138903663Y-76183153D01*
X138903659Y-76183152D01*
X138903655Y-76183150D01*
X138675413Y-76121994D01*
X138675403Y-76121992D01*
X138440001Y-76101397D01*
X138439999Y-76101397D01*
X138204596Y-76121992D01*
X138204586Y-76121994D01*
X137976344Y-76183150D01*
X137976335Y-76183154D01*
X137762171Y-76283020D01*
X137762169Y-76283021D01*
X137568597Y-76418561D01*
X137401505Y-76585653D01*
X137271575Y-76771214D01*
X137216998Y-76814839D01*
X137147500Y-76822033D01*
X137085145Y-76790510D01*
X137068425Y-76771214D01*
X136938494Y-76585653D01*
X136771402Y-76418562D01*
X136771395Y-76418557D01*
X136577834Y-76283023D01*
X136577830Y-76283021D01*
X136512455Y-76252536D01*
X136363663Y-76183153D01*
X136363659Y-76183152D01*
X136363655Y-76183150D01*
X136135413Y-76121994D01*
X136135403Y-76121992D01*
X135900001Y-76101397D01*
X135899999Y-76101397D01*
X135664596Y-76121992D01*
X135664586Y-76121994D01*
X135436344Y-76183150D01*
X135436335Y-76183154D01*
X135222171Y-76283020D01*
X135222169Y-76283021D01*
X135028597Y-76418561D01*
X134861505Y-76585653D01*
X134731575Y-76771214D01*
X134676998Y-76814839D01*
X134607500Y-76822033D01*
X134545145Y-76790510D01*
X134528425Y-76771214D01*
X134398494Y-76585653D01*
X134231402Y-76418562D01*
X134231395Y-76418557D01*
X134037834Y-76283023D01*
X134037830Y-76283021D01*
X133972455Y-76252536D01*
X133823663Y-76183153D01*
X133823659Y-76183152D01*
X133823655Y-76183150D01*
X133595413Y-76121994D01*
X133595403Y-76121992D01*
X133360001Y-76101397D01*
X133359999Y-76101397D01*
X133124596Y-76121992D01*
X133124586Y-76121994D01*
X132896344Y-76183150D01*
X132896335Y-76183154D01*
X132682171Y-76283020D01*
X132682169Y-76283021D01*
X132488597Y-76418561D01*
X132321505Y-76585653D01*
X132191575Y-76771214D01*
X132136998Y-76814839D01*
X132067500Y-76822033D01*
X132005145Y-76790510D01*
X131988425Y-76771214D01*
X131858494Y-76585653D01*
X131691402Y-76418562D01*
X131691395Y-76418557D01*
X131497834Y-76283023D01*
X131497830Y-76283021D01*
X131432455Y-76252536D01*
X131283663Y-76183153D01*
X131283659Y-76183152D01*
X131283655Y-76183150D01*
X131055413Y-76121994D01*
X131055403Y-76121992D01*
X130820001Y-76101397D01*
X130819999Y-76101397D01*
X130584596Y-76121992D01*
X130584586Y-76121994D01*
X130356344Y-76183150D01*
X130356335Y-76183154D01*
X130142171Y-76283020D01*
X130142169Y-76283021D01*
X129948597Y-76418561D01*
X129781505Y-76585653D01*
X129651575Y-76771214D01*
X129596998Y-76814839D01*
X129527500Y-76822033D01*
X129465145Y-76790510D01*
X129448425Y-76771214D01*
X129318494Y-76585653D01*
X129151402Y-76418562D01*
X129151395Y-76418557D01*
X128957834Y-76283023D01*
X128957830Y-76283021D01*
X128892455Y-76252536D01*
X128743663Y-76183153D01*
X128743659Y-76183152D01*
X128743655Y-76183150D01*
X128515413Y-76121994D01*
X128515403Y-76121992D01*
X128280001Y-76101397D01*
X128279999Y-76101397D01*
X128044596Y-76121992D01*
X128044586Y-76121994D01*
X127816344Y-76183150D01*
X127816335Y-76183154D01*
X127602171Y-76283020D01*
X127602169Y-76283021D01*
X127408597Y-76418561D01*
X127241505Y-76585653D01*
X127111575Y-76771214D01*
X127056998Y-76814839D01*
X126987500Y-76822033D01*
X126925145Y-76790510D01*
X126908425Y-76771214D01*
X126778494Y-76585653D01*
X126611402Y-76418562D01*
X126611395Y-76418557D01*
X126417834Y-76283023D01*
X126417830Y-76283021D01*
X126352455Y-76252536D01*
X126203663Y-76183153D01*
X126203659Y-76183152D01*
X126203655Y-76183150D01*
X125975413Y-76121994D01*
X125975403Y-76121992D01*
X125740001Y-76101397D01*
X125739999Y-76101397D01*
X125504596Y-76121992D01*
X125504586Y-76121994D01*
X125276344Y-76183150D01*
X125276335Y-76183154D01*
X125062171Y-76283020D01*
X125062169Y-76283021D01*
X124868597Y-76418561D01*
X124701505Y-76585653D01*
X124571575Y-76771214D01*
X124516998Y-76814839D01*
X124447500Y-76822033D01*
X124385145Y-76790510D01*
X124368425Y-76771214D01*
X124238494Y-76585653D01*
X124071402Y-76418562D01*
X124071395Y-76418557D01*
X123877834Y-76283023D01*
X123877830Y-76283021D01*
X123812455Y-76252536D01*
X123663663Y-76183153D01*
X123663659Y-76183152D01*
X123663655Y-76183150D01*
X123435413Y-76121994D01*
X123435403Y-76121992D01*
X123200001Y-76101397D01*
X123199999Y-76101397D01*
X122964596Y-76121992D01*
X122964586Y-76121994D01*
X122736344Y-76183150D01*
X122736335Y-76183154D01*
X122522171Y-76283020D01*
X122522169Y-76283021D01*
X122328597Y-76418561D01*
X122161505Y-76585653D01*
X122031575Y-76771214D01*
X121976998Y-76814839D01*
X121907500Y-76822033D01*
X121845145Y-76790510D01*
X121828425Y-76771214D01*
X121698494Y-76585653D01*
X121531402Y-76418562D01*
X121531395Y-76418557D01*
X121337834Y-76283023D01*
X121337830Y-76283021D01*
X121272455Y-76252536D01*
X121123663Y-76183153D01*
X121123659Y-76183152D01*
X121123655Y-76183150D01*
X120895413Y-76121994D01*
X120895403Y-76121992D01*
X120660001Y-76101397D01*
X120659999Y-76101397D01*
X120424596Y-76121992D01*
X120424586Y-76121994D01*
X120196344Y-76183150D01*
X120196335Y-76183154D01*
X119982171Y-76283020D01*
X119982169Y-76283021D01*
X119788597Y-76418561D01*
X119621505Y-76585653D01*
X119485965Y-76779225D01*
X119485964Y-76779227D01*
X119386098Y-76993391D01*
X119386094Y-76993400D01*
X119324938Y-77221642D01*
X119324936Y-77221652D01*
X119304341Y-77457055D01*
X117094345Y-77457055D01*
X117005214Y-77224862D01*
X116829125Y-76879267D01*
X116795318Y-76827209D01*
X116617877Y-76553973D01*
X116398815Y-76283455D01*
X116373781Y-76252540D01*
X116099516Y-75978275D01*
X115798084Y-75734180D01*
X115798082Y-75734178D01*
X115472793Y-75522933D01*
X115127197Y-75346843D01*
X114765094Y-75207844D01*
X114765087Y-75207842D01*
X114390433Y-75107454D01*
X114390429Y-75107453D01*
X114390428Y-75107453D01*
X114007339Y-75046778D01*
X113620001Y-75026478D01*
X113619999Y-75026478D01*
X113232660Y-75046778D01*
X112849572Y-75107453D01*
X112849570Y-75107453D01*
X112474905Y-75207844D01*
X112112802Y-75346843D01*
X111767206Y-75522933D01*
X111441917Y-75734178D01*
X111140488Y-75978271D01*
X111140480Y-75978278D01*
X110866222Y-76252536D01*
X110866215Y-76252544D01*
X110622122Y-76553973D01*
X110410877Y-76879262D01*
X110234787Y-77224858D01*
X110095788Y-77586961D01*
X109995397Y-77961626D01*
X109995397Y-77961628D01*
X109934722Y-78344716D01*
X109914422Y-78732055D01*
X105551661Y-78732055D01*
X105426420Y-78648371D01*
X105426407Y-78648364D01*
X105244339Y-78572950D01*
X105244329Y-78572947D01*
X105051043Y-78534500D01*
X105051041Y-78534500D01*
X103753959Y-78534500D01*
X103753957Y-78534500D01*
X103560670Y-78572947D01*
X103560660Y-78572950D01*
X103378592Y-78648364D01*
X103378579Y-78648371D01*
X103214718Y-78757860D01*
X103214714Y-78757863D01*
X103075363Y-78897214D01*
X103075360Y-78897218D01*
X102965871Y-79061079D01*
X102965864Y-79061092D01*
X102890450Y-79243160D01*
X102890447Y-79243170D01*
X102852000Y-79436456D01*
X102852000Y-79436459D01*
X102852000Y-79633541D01*
X102852000Y-79633543D01*
X102851999Y-79633543D01*
X101523000Y-79633543D01*
X101523000Y-79633541D01*
X101523000Y-79436459D01*
X101523000Y-79436456D01*
X101484552Y-79243170D01*
X101484551Y-79243169D01*
X101484551Y-79243165D01*
X101436010Y-79125976D01*
X101409135Y-79061092D01*
X101409128Y-79061079D01*
X101299639Y-78897218D01*
X101299636Y-78897214D01*
X101160285Y-78757863D01*
X101160281Y-78757860D01*
X100996420Y-78648371D01*
X100996407Y-78648364D01*
X100814339Y-78572950D01*
X100814329Y-78572947D01*
X100621043Y-78534500D01*
X100621041Y-78534500D01*
X99823959Y-78534500D01*
X99823957Y-78534500D01*
X99630670Y-78572947D01*
X99630660Y-78572950D01*
X99448592Y-78648364D01*
X99448579Y-78648371D01*
X99284718Y-78757860D01*
X99284714Y-78757863D01*
X99212181Y-78830397D01*
X99150858Y-78863882D01*
X99081166Y-78858898D01*
X99025233Y-78817026D01*
X99000816Y-78751562D01*
X99000500Y-78742716D01*
X99000500Y-76827212D01*
X99000501Y-76827209D01*
X99000500Y-76765065D01*
X99000726Y-76757579D01*
X99008436Y-76630097D01*
X99018269Y-76467514D01*
X99020074Y-76452654D01*
X99071778Y-76170506D01*
X99075352Y-76156004D01*
X99160693Y-75882129D01*
X99166000Y-75868137D01*
X99283722Y-75606566D01*
X99290674Y-75593321D01*
X99439067Y-75347846D01*
X99447572Y-75335526D01*
X99515874Y-75248344D01*
X99624470Y-75109729D01*
X99634385Y-75098537D01*
X99837225Y-74895695D01*
X99848415Y-74885781D01*
X100074225Y-74708870D01*
X100086521Y-74700383D01*
X100332018Y-74551974D01*
X100345246Y-74545032D01*
X100606836Y-74427299D01*
X100620795Y-74422004D01*
X100894681Y-74336659D01*
X100909196Y-74333081D01*
X101191342Y-74281375D01*
X101206199Y-74279571D01*
X101495933Y-74262045D01*
X101503420Y-74261820D01*
X101565893Y-74261820D01*
X101567860Y-74261561D01*
X101584046Y-74260500D01*
X180054108Y-74260500D01*
X180116754Y-74260500D01*
X180123243Y-74260669D01*
G37*
%TD.AperFunction*%
%TD*%
M02*
