G04*
G04 #@! TF.GenerationSoftware,Altium Limited,Altium Designer,20.0.12 (288)*
G04*
G04 Layer_Color=8388736*
%FSLAX44Y44*%
%MOMM*%
G71*
G01*
G75*
%ADD38R,1.3432X0.5032*%
%ADD39R,1.0032X1.0032*%
%ADD40R,1.2032X1.5032*%
%ADD41R,2.6032X2.6032*%
G04:AMPARAMS|DCode=42|XSize=1.1132mm|YSize=1.0332mm|CornerRadius=0.3216mm|HoleSize=0mm|Usage=FLASHONLY|Rotation=0.000|XOffset=0mm|YOffset=0mm|HoleType=Round|Shape=RoundedRectangle|*
%AMROUNDEDRECTD42*
21,1,1.1132,0.3901,0,0,0.0*
21,1,0.4701,1.0332,0,0,0.0*
1,1,0.6431,0.2351,-0.1951*
1,1,0.6431,-0.2351,-0.1951*
1,1,0.6431,-0.2351,0.1951*
1,1,0.6431,0.2351,0.1951*
%
%ADD42ROUNDEDRECTD42*%
%ADD43R,1.7032X0.7032*%
%ADD44R,2.2032X2.2032*%
G04:AMPARAMS|DCode=45|XSize=0.8032mm|YSize=1.4032mm|CornerRadius=0.2516mm|HoleSize=0mm|Usage=FLASHONLY|Rotation=270.000|XOffset=0mm|YOffset=0mm|HoleType=Round|Shape=RoundedRectangle|*
%AMROUNDEDRECTD45*
21,1,0.8032,0.9000,0,0,270.0*
21,1,0.3000,1.4032,0,0,270.0*
1,1,0.5032,-0.4500,-0.1500*
1,1,0.5032,-0.4500,0.1500*
1,1,0.5032,0.4500,0.1500*
1,1,0.5032,0.4500,-0.1500*
%
%ADD45ROUNDEDRECTD45*%
%ADD46R,1.0032X1.0032*%
%ADD47R,1.6032X1.4032*%
%ADD48R,1.1032X1.9032*%
G04:AMPARAMS|DCode=49|XSize=1.4132mm|YSize=0.7932mm|CornerRadius=0.1754mm|HoleSize=0mm|Usage=FLASHONLY|Rotation=0.000|XOffset=0mm|YOffset=0mm|HoleType=Round|Shape=RoundedRectangle|*
%AMROUNDEDRECTD49*
21,1,1.4132,0.4425,0,0,0.0*
21,1,1.0625,0.7932,0,0,0.0*
1,1,0.3507,0.5313,-0.2213*
1,1,0.3507,-0.5313,-0.2213*
1,1,0.3507,-0.5313,0.2213*
1,1,0.3507,0.5313,0.2213*
%
%ADD49ROUNDEDRECTD49*%
%ADD50R,1.4032X1.6032*%
G04:AMPARAMS|DCode=51|XSize=1.1132mm|YSize=1.0332mm|CornerRadius=0.3216mm|HoleSize=0mm|Usage=FLASHONLY|Rotation=270.000|XOffset=0mm|YOffset=0mm|HoleType=Round|Shape=RoundedRectangle|*
%AMROUNDEDRECTD51*
21,1,1.1132,0.3901,0,0,270.0*
21,1,0.4701,1.0332,0,0,270.0*
1,1,0.6431,-0.1951,-0.2351*
1,1,0.6431,-0.1951,0.2351*
1,1,0.6431,0.1951,0.2351*
1,1,0.6431,0.1951,-0.2351*
%
%ADD51ROUNDEDRECTD51*%
G04:AMPARAMS|DCode=52|XSize=1.7632mm|YSize=0.4832mm|CornerRadius=0.1716mm|HoleSize=0mm|Usage=FLASHONLY|Rotation=90.000|XOffset=0mm|YOffset=0mm|HoleType=Round|Shape=RoundedRectangle|*
%AMROUNDEDRECTD52*
21,1,1.7632,0.1400,0,0,90.0*
21,1,1.4200,0.4832,0,0,90.0*
1,1,0.3432,0.0700,0.7100*
1,1,0.3432,0.0700,-0.7100*
1,1,0.3432,-0.0700,-0.7100*
1,1,0.3432,-0.0700,0.7100*
%
%ADD52ROUNDEDRECTD52*%
G04:AMPARAMS|DCode=53|XSize=1.7632mm|YSize=0.4832mm|CornerRadius=0.1716mm|HoleSize=0mm|Usage=FLASHONLY|Rotation=0.000|XOffset=0mm|YOffset=0mm|HoleType=Round|Shape=RoundedRectangle|*
%AMROUNDEDRECTD53*
21,1,1.7632,0.1400,0,0,0.0*
21,1,1.4200,0.4832,0,0,0.0*
1,1,0.3432,0.7100,-0.0700*
1,1,0.3432,-0.7100,-0.0700*
1,1,0.3432,-0.7100,0.0700*
1,1,0.3432,0.7100,0.0700*
%
%ADD53ROUNDEDRECTD53*%
G04:AMPARAMS|DCode=54|XSize=0.4432mm|YSize=1.2032mm|CornerRadius=0.1616mm|HoleSize=0mm|Usage=FLASHONLY|Rotation=0.000|XOffset=0mm|YOffset=0mm|HoleType=Round|Shape=RoundedRectangle|*
%AMROUNDEDRECTD54*
21,1,0.4432,0.8800,0,0,0.0*
21,1,0.1200,1.2032,0,0,0.0*
1,1,0.3232,0.0600,-0.4400*
1,1,0.3232,-0.0600,-0.4400*
1,1,0.3232,-0.0600,0.4400*
1,1,0.3232,0.0600,0.4400*
%
%ADD54ROUNDEDRECTD54*%
G04:AMPARAMS|DCode=55|XSize=0.4432mm|YSize=1.2032mm|CornerRadius=0.1616mm|HoleSize=0mm|Usage=FLASHONLY|Rotation=270.000|XOffset=0mm|YOffset=0mm|HoleType=Round|Shape=RoundedRectangle|*
%AMROUNDEDRECTD55*
21,1,0.4432,0.8800,0,0,270.0*
21,1,0.1200,1.2032,0,0,270.0*
1,1,0.3232,-0.4400,-0.0600*
1,1,0.3232,-0.4400,0.0600*
1,1,0.3232,0.4400,0.0600*
1,1,0.3232,0.4400,-0.0600*
%
%ADD55ROUNDEDRECTD55*%
%ADD56R,1.2032X1.1732*%
%ADD57R,3.3532X3.3532*%
G04:AMPARAMS|DCode=58|XSize=1.1732mm|YSize=0.4632mm|CornerRadius=0.1341mm|HoleSize=0mm|Usage=FLASHONLY|Rotation=0.000|XOffset=0mm|YOffset=0mm|HoleType=Round|Shape=RoundedRectangle|*
%AMROUNDEDRECTD58*
21,1,1.1732,0.1950,0,0,0.0*
21,1,0.9050,0.4632,0,0,0.0*
1,1,0.2682,0.4525,-0.0975*
1,1,0.2682,-0.4525,-0.0975*
1,1,0.2682,-0.4525,0.0975*
1,1,0.2682,0.4525,0.0975*
%
%ADD58ROUNDEDRECTD58*%
G04:AMPARAMS|DCode=59|XSize=1.1732mm|YSize=0.4632mm|CornerRadius=0.1341mm|HoleSize=0mm|Usage=FLASHONLY|Rotation=90.000|XOffset=0mm|YOffset=0mm|HoleType=Round|Shape=RoundedRectangle|*
%AMROUNDEDRECTD59*
21,1,1.1732,0.1950,0,0,90.0*
21,1,0.9050,0.4632,0,0,90.0*
1,1,0.2682,0.0975,0.4525*
1,1,0.2682,0.0975,-0.4525*
1,1,0.2682,-0.0975,-0.4525*
1,1,0.2682,-0.0975,0.4525*
%
%ADD59ROUNDEDRECTD59*%
%ADD60R,1.1032X0.8032*%
%ADD61C,0.8532*%
%ADD62O,2.2032X1.2032*%
%ADD63O,2.0032X1.1032*%
%ADD64C,5.2032*%
%ADD65R,1.7032X1.7032*%
%ADD66C,1.7032*%
%ADD67O,5.2032X2.6032*%
%ADD68O,2.6032X5.2032*%
%ADD69R,1.6012X1.6012*%
%ADD70C,1.6012*%
%ADD71C,1.7332*%
%ADD72C,2.6482*%
%ADD73C,3.4532*%
%ADD74C,0.6032*%
D38*
X656718Y768004D02*
D03*
Y773004D02*
D03*
Y778004D02*
D03*
Y783004D02*
D03*
Y788004D02*
D03*
Y791004D02*
D03*
Y796004D02*
D03*
Y799004D02*
D03*
Y763004D02*
D03*
Y758004D02*
D03*
Y753004D02*
D03*
Y748004D02*
D03*
Y743004D02*
D03*
Y740004D02*
D03*
Y735004D02*
D03*
Y732004D02*
D03*
D39*
X1065000Y783000D02*
D03*
X1080000D02*
D03*
X1065000Y769000D02*
D03*
X1080000D02*
D03*
X1065000Y755000D02*
D03*
X1080000D02*
D03*
X1289223Y731500D02*
D03*
X1274222D02*
D03*
X850732Y927000D02*
D03*
X865732D02*
D03*
X850732Y941000D02*
D03*
X865732D02*
D03*
Y1025250D02*
D03*
X850732D02*
D03*
X850750Y969000D02*
D03*
X865750D02*
D03*
X825000Y977500D02*
D03*
X810000D02*
D03*
X865732Y899250D02*
D03*
X850732D02*
D03*
X828483Y924250D02*
D03*
X813483D02*
D03*
X828483Y877750D02*
D03*
X813483D02*
D03*
X865732Y913250D02*
D03*
X850732D02*
D03*
Y1011250D02*
D03*
X865732D02*
D03*
X812732Y1047500D02*
D03*
X827732D02*
D03*
X810000Y963750D02*
D03*
X825000D02*
D03*
X812982Y1001500D02*
D03*
X827982D02*
D03*
X773500Y866250D02*
D03*
X758500D02*
D03*
X850732Y983000D02*
D03*
X865732D02*
D03*
X850750Y955000D02*
D03*
X865750D02*
D03*
X1007982Y892500D02*
D03*
X1022982D02*
D03*
X1007982Y906500D02*
D03*
X1022982D02*
D03*
X1007982Y920500D02*
D03*
X1022982D02*
D03*
X1007982Y934500D02*
D03*
X1022982D02*
D03*
X1007982Y948500D02*
D03*
X1022982D02*
D03*
X1007982Y962250D02*
D03*
X1022982D02*
D03*
X1007982Y976250D02*
D03*
X1022982D02*
D03*
X1007982Y1004000D02*
D03*
X1022982D02*
D03*
X1007982Y990250D02*
D03*
X1022982D02*
D03*
X859500Y791000D02*
D03*
X844500D02*
D03*
X1097250Y901000D02*
D03*
X1112250D02*
D03*
X1031280Y778360D02*
D03*
X1046280D02*
D03*
X1046780Y837610D02*
D03*
X1031780D02*
D03*
X1065500Y814500D02*
D03*
X1080500D02*
D03*
X1098750Y708500D02*
D03*
X1113750D02*
D03*
X1289223Y871000D02*
D03*
X1274222D02*
D03*
X859500Y740000D02*
D03*
X844500D02*
D03*
X1348850Y777000D02*
D03*
X1363850D02*
D03*
X1348750Y821000D02*
D03*
X1363750D02*
D03*
X859430Y708930D02*
D03*
X844430D02*
D03*
Y815066D02*
D03*
X859430D02*
D03*
X844430Y722930D02*
D03*
X859430D02*
D03*
X850732Y997250D02*
D03*
X865732D02*
D03*
X850732Y1039250D02*
D03*
X865732D02*
D03*
X687500Y865750D02*
D03*
X672500D02*
D03*
X690500Y1048250D02*
D03*
X675500D02*
D03*
X865732Y885250D02*
D03*
X850732D02*
D03*
X825000Y949750D02*
D03*
X810000D02*
D03*
X727500Y721000D02*
D03*
X742500D02*
D03*
X762500Y655000D02*
D03*
X747500D02*
D03*
D40*
X1275500Y715250D02*
D03*
X1300500D02*
D03*
X1275500Y854750D02*
D03*
X1300500D02*
D03*
X742500Y606250D02*
D03*
X767500D02*
D03*
D41*
X801000Y651000D02*
D03*
Y593000D02*
D03*
D42*
X1348850Y790750D02*
D03*
X1363850D02*
D03*
X1348850Y807250D02*
D03*
X1363850D02*
D03*
X877500Y791000D02*
D03*
X892500D02*
D03*
X877000Y740250D02*
D03*
X892000D02*
D03*
D43*
X1407123Y966560D02*
D03*
Y954060D02*
D03*
Y941560D02*
D03*
Y929060D02*
D03*
Y916560D02*
D03*
Y904060D02*
D03*
X1407310Y661260D02*
D03*
Y673760D02*
D03*
Y686260D02*
D03*
Y698760D02*
D03*
Y781270D02*
D03*
Y793770D02*
D03*
Y806270D02*
D03*
Y818770D02*
D03*
D44*
X1432923Y876560D02*
D03*
Y994060D02*
D03*
X1433110Y726260D02*
D03*
Y633760D02*
D03*
Y846270D02*
D03*
Y753770D02*
D03*
D45*
X809482Y910500D02*
D03*
Y901000D02*
D03*
Y891500D02*
D03*
X832483D02*
D03*
Y901000D02*
D03*
Y910500D02*
D03*
X808732Y1034000D02*
D03*
Y1024500D02*
D03*
Y1015000D02*
D03*
X831732D02*
D03*
Y1024500D02*
D03*
Y1034000D02*
D03*
D46*
X902483Y879000D02*
D03*
Y894000D02*
D03*
X974232D02*
D03*
Y879000D02*
D03*
X728750Y816250D02*
D03*
Y801250D02*
D03*
X773250Y816500D02*
D03*
Y801500D02*
D03*
X954482Y1039750D02*
D03*
Y1024750D02*
D03*
X960232Y894000D02*
D03*
Y879000D02*
D03*
X940732Y1039750D02*
D03*
Y1024750D02*
D03*
X930732Y845000D02*
D03*
Y860000D02*
D03*
X926732Y1039750D02*
D03*
Y1024750D02*
D03*
X944733Y845000D02*
D03*
Y860000D02*
D03*
X916732Y845000D02*
D03*
Y860000D02*
D03*
X912732Y1039750D02*
D03*
Y1024750D02*
D03*
X674500Y793250D02*
D03*
Y808250D02*
D03*
X674750Y721750D02*
D03*
Y736750D02*
D03*
D47*
X919983Y878000D02*
D03*
X941982D02*
D03*
Y895000D02*
D03*
X919983D02*
D03*
D48*
X874680Y815180D02*
D03*
X915680D02*
D03*
X874680Y715930D02*
D03*
X915680D02*
D03*
D49*
X680450Y774750D02*
D03*
Y765250D02*
D03*
Y755750D02*
D03*
X705550D02*
D03*
Y765250D02*
D03*
Y774750D02*
D03*
D50*
X1030530Y818860D02*
D03*
Y796860D02*
D03*
X1047530D02*
D03*
Y818860D02*
D03*
D51*
X759200Y814500D02*
D03*
Y799500D02*
D03*
X742750Y814500D02*
D03*
Y799500D02*
D03*
D52*
X1117200Y881550D02*
D03*
X1122200D02*
D03*
X1127200D02*
D03*
X1132200D02*
D03*
X1137200D02*
D03*
X1142200D02*
D03*
X1147200D02*
D03*
X1152200D02*
D03*
X1157200D02*
D03*
X1162200D02*
D03*
X1167200D02*
D03*
X1172200D02*
D03*
X1177200D02*
D03*
X1182200D02*
D03*
X1187200D02*
D03*
X1192200D02*
D03*
X1197200D02*
D03*
X1202200D02*
D03*
X1207200D02*
D03*
X1212200D02*
D03*
X1217200D02*
D03*
X1222200D02*
D03*
X1227200D02*
D03*
X1232200D02*
D03*
X1237200D02*
D03*
Y727950D02*
D03*
X1232200D02*
D03*
X1227200D02*
D03*
X1222200D02*
D03*
X1217200D02*
D03*
X1212200D02*
D03*
X1207200D02*
D03*
X1202200D02*
D03*
X1197200D02*
D03*
X1192200D02*
D03*
X1187200D02*
D03*
X1182200D02*
D03*
X1177200D02*
D03*
X1172200D02*
D03*
X1167200D02*
D03*
X1162200D02*
D03*
X1157200D02*
D03*
X1152200D02*
D03*
X1147200D02*
D03*
X1142200D02*
D03*
X1137200D02*
D03*
X1132200D02*
D03*
X1127200D02*
D03*
X1122200D02*
D03*
X1117200D02*
D03*
D53*
X1254000Y864750D02*
D03*
Y859750D02*
D03*
Y854750D02*
D03*
Y849750D02*
D03*
Y844750D02*
D03*
Y839750D02*
D03*
Y834750D02*
D03*
Y829750D02*
D03*
Y824750D02*
D03*
Y819750D02*
D03*
Y814750D02*
D03*
Y809750D02*
D03*
Y804750D02*
D03*
Y799750D02*
D03*
Y794750D02*
D03*
Y789750D02*
D03*
Y784750D02*
D03*
Y779750D02*
D03*
Y774750D02*
D03*
Y769750D02*
D03*
Y764750D02*
D03*
Y759750D02*
D03*
Y754750D02*
D03*
Y749750D02*
D03*
Y744750D02*
D03*
X1100400D02*
D03*
Y749750D02*
D03*
Y754750D02*
D03*
Y759750D02*
D03*
Y764750D02*
D03*
Y769750D02*
D03*
Y774750D02*
D03*
Y779750D02*
D03*
Y784750D02*
D03*
Y789750D02*
D03*
Y794750D02*
D03*
Y799750D02*
D03*
Y804750D02*
D03*
Y809750D02*
D03*
Y814750D02*
D03*
Y819750D02*
D03*
Y824750D02*
D03*
Y829750D02*
D03*
Y834750D02*
D03*
Y839750D02*
D03*
Y844750D02*
D03*
Y849750D02*
D03*
Y854750D02*
D03*
Y859750D02*
D03*
Y864750D02*
D03*
D54*
X961232Y999000D02*
D03*
X956232D02*
D03*
X951232D02*
D03*
X946232D02*
D03*
X941233D02*
D03*
X936233D02*
D03*
X931233D02*
D03*
X926233D02*
D03*
X921233D02*
D03*
X916233D02*
D03*
X911233D02*
D03*
X906233D02*
D03*
Y914000D02*
D03*
X911233D02*
D03*
X916233D02*
D03*
X921233D02*
D03*
X926233D02*
D03*
X931233D02*
D03*
X936233D02*
D03*
X941233D02*
D03*
X946232D02*
D03*
X951232D02*
D03*
X956232D02*
D03*
X961232D02*
D03*
D55*
X891233Y984000D02*
D03*
Y979000D02*
D03*
Y974000D02*
D03*
Y969000D02*
D03*
Y964000D02*
D03*
Y959000D02*
D03*
Y954000D02*
D03*
Y949000D02*
D03*
Y944000D02*
D03*
Y939000D02*
D03*
Y934000D02*
D03*
Y929000D02*
D03*
X976232D02*
D03*
Y934000D02*
D03*
Y939000D02*
D03*
Y944000D02*
D03*
Y949000D02*
D03*
Y954000D02*
D03*
Y959000D02*
D03*
Y964000D02*
D03*
Y969000D02*
D03*
Y974000D02*
D03*
Y979000D02*
D03*
Y984000D02*
D03*
D56*
X748050Y589000D02*
D03*
X762750D02*
D03*
D57*
X750750Y761000D02*
D03*
D58*
X774450Y776000D02*
D03*
Y771000D02*
D03*
Y766000D02*
D03*
Y761000D02*
D03*
Y756000D02*
D03*
Y751000D02*
D03*
Y746000D02*
D03*
X727050D02*
D03*
Y751000D02*
D03*
Y756000D02*
D03*
Y761000D02*
D03*
Y766000D02*
D03*
Y771000D02*
D03*
Y776000D02*
D03*
D59*
X735750Y784700D02*
D03*
X740750D02*
D03*
X745750D02*
D03*
X750750D02*
D03*
X755750D02*
D03*
X760750D02*
D03*
X765750D02*
D03*
Y737300D02*
D03*
X760750D02*
D03*
X755750D02*
D03*
X750750D02*
D03*
X745750D02*
D03*
X740750D02*
D03*
X735750D02*
D03*
D60*
X764250Y631500D02*
D03*
Y641000D02*
D03*
Y622000D02*
D03*
X744250D02*
D03*
Y641000D02*
D03*
D61*
X646018Y794404D02*
D03*
Y736604D02*
D03*
D62*
X650818Y808754D02*
D03*
Y722254D02*
D03*
D63*
X609018Y808754D02*
D03*
Y722254D02*
D03*
D64*
X995250Y636500D02*
D03*
Y1044750D02*
D03*
X1421250D02*
D03*
X1420500Y580000D02*
D03*
D65*
X1273600Y626100D02*
D03*
X1365650Y584150D02*
D03*
D66*
X1299000Y626100D02*
D03*
X1324400D02*
D03*
X1349800D02*
D03*
X1273600Y651500D02*
D03*
X1299000D02*
D03*
X1324400D02*
D03*
X1349800D02*
D03*
X1340250Y584150D02*
D03*
X1314850D02*
D03*
X1289450D02*
D03*
X1264050D02*
D03*
X1238650D02*
D03*
X1213250D02*
D03*
X1187850D02*
D03*
X1162450D02*
D03*
X1137050D02*
D03*
X1111650D02*
D03*
X1086250D02*
D03*
X1060850D02*
D03*
X1035450D02*
D03*
X1010050D02*
D03*
X984650D02*
D03*
X959250D02*
D03*
X933850D02*
D03*
X908450D02*
D03*
X883050D02*
D03*
X1365650Y558750D02*
D03*
X1340250D02*
D03*
X1314850D02*
D03*
X1289450D02*
D03*
X1264050D02*
D03*
X1238650D02*
D03*
X1213250D02*
D03*
X1187850D02*
D03*
X1162450D02*
D03*
X1137050D02*
D03*
X1111650D02*
D03*
X1086250D02*
D03*
X1060850D02*
D03*
X1035450D02*
D03*
X1010050D02*
D03*
X984650D02*
D03*
X959250D02*
D03*
X933850D02*
D03*
X908450D02*
D03*
X883050D02*
D03*
D67*
X692687Y577050D02*
D03*
D68*
X717687Y625050D02*
D03*
X657687D02*
D03*
D69*
X754976Y1001400D02*
D03*
D70*
X780376Y988700D02*
D03*
X754976Y976000D02*
D03*
X780376Y963300D02*
D03*
X754976Y950600D02*
D03*
X780376Y937900D02*
D03*
X754976Y925200D02*
D03*
X780376Y912500D02*
D03*
D71*
X642476Y1023150D02*
D03*
Y997750D02*
D03*
Y890650D02*
D03*
Y916050D02*
D03*
D72*
X721976Y1034350D02*
D03*
Y879450D02*
D03*
D73*
X691476Y899750D02*
D03*
Y1014050D02*
D03*
D74*
X645000Y757750D02*
D03*
X1161250Y898000D02*
D03*
X1047500Y822750D02*
D03*
X738812Y767000D02*
D03*
Y760938D02*
D03*
Y754875D02*
D03*
X1130500Y866500D02*
D03*
X876310Y899000D02*
D03*
X1137955Y713290D02*
D03*
X1228250Y897500D02*
D03*
X1222436Y897580D02*
D03*
X1216937Y897496D02*
D03*
X1239891Y825105D02*
D03*
X1239343Y764301D02*
D03*
X1239993Y810554D02*
D03*
X1239617Y845120D02*
D03*
X1146839Y748216D02*
D03*
X1162100Y876096D02*
D03*
X1239500Y804500D02*
D03*
X1152045Y713182D02*
D03*
X1239500Y839250D02*
D03*
X1202000Y866750D02*
D03*
X1239500Y770000D02*
D03*
Y818750D02*
D03*
X1140568Y748690D02*
D03*
X1408254Y686260D02*
D03*
X1167250Y898000D02*
D03*
X1408254Y698760D02*
D03*
X1408060Y929060D02*
D03*
Y941560D02*
D03*
Y954060D02*
D03*
Y966560D02*
D03*
X1122250Y868250D02*
D03*
X1114750Y819750D02*
D03*
X1114250Y800500D02*
D03*
X1114554Y794539D02*
D03*
X1004750Y819500D02*
D03*
X1112480Y728270D02*
D03*
X1112000Y744750D02*
D03*
X915680Y715930D02*
D03*
X742750Y799500D02*
D03*
X759200Y799500D02*
D03*
X1114514Y775652D02*
D03*
X1114725Y788479D02*
D03*
X1114583Y782412D02*
D03*
X945558Y926777D02*
D03*
X939250Y926750D02*
D03*
X944500Y835250D02*
D03*
X958000Y926750D02*
D03*
X951750D02*
D03*
X1114250Y769750D02*
D03*
X1122250Y742000D02*
D03*
X906250Y929520D02*
D03*
X850732Y885250D02*
D03*
X926732Y1039750D02*
D03*
X915750Y927000D02*
D03*
X680450Y774750D02*
D03*
X903948Y968770D02*
D03*
X1098750Y708500D02*
D03*
X904500Y953750D02*
D03*
X951250Y985750D02*
D03*
X963000Y984000D02*
D03*
X926250Y927250D02*
D03*
X904250Y979000D02*
D03*
X921250Y985500D02*
D03*
X1433860Y876560D02*
D03*
X719520Y766000D02*
D03*
X954482Y1039750D02*
D03*
X912732D02*
D03*
X1022982Y906500D02*
D03*
Y920500D02*
D03*
Y962250D02*
D03*
Y948500D02*
D03*
Y934500D02*
D03*
X1239500Y859750D02*
D03*
X1289223Y731500D02*
D03*
X1300500Y715250D02*
D03*
X1433110Y633760D02*
D03*
X1408254Y661260D02*
D03*
X1433110Y726260D02*
D03*
X1408060Y904060D02*
D03*
X1433860Y994060D02*
D03*
X1433110Y846270D02*
D03*
Y753770D02*
D03*
X1407310Y781270D02*
D03*
X1363850Y777000D02*
D03*
X1363750Y821000D02*
D03*
X1300500Y854750D02*
D03*
X1289223Y871000D02*
D03*
X1097250Y901000D02*
D03*
X1046780Y837610D02*
D03*
X1031280Y778360D02*
D03*
X1065000Y755000D02*
D03*
Y769000D02*
D03*
X1065500Y814500D02*
D03*
X1065000Y783000D02*
D03*
X1030530Y796860D02*
D03*
X844500Y740000D02*
D03*
X844430Y722930D02*
D03*
X767500Y606250D02*
D03*
X764250Y631500D02*
D03*
X801000Y651000D02*
D03*
X762500Y655000D02*
D03*
X756625Y754875D02*
D03*
Y773063D02*
D03*
Y767000D02*
D03*
Y760938D02*
D03*
Y748812D02*
D03*
X744750Y754875D02*
D03*
X750687D02*
D03*
X762562D02*
D03*
X738812Y748812D02*
D03*
X744750D02*
D03*
X750687D02*
D03*
X762562D02*
D03*
X744750Y760938D02*
D03*
X750687D02*
D03*
X762562D02*
D03*
X744750Y767000D02*
D03*
X750687D02*
D03*
X762562D02*
D03*
Y773063D02*
D03*
X750687D02*
D03*
X744750D02*
D03*
X738812D02*
D03*
X728750Y801250D02*
D03*
X773250Y801500D02*
D03*
X705550Y765250D02*
D03*
X674750Y721750D02*
D03*
X656870Y731760D02*
D03*
Y798760D02*
D03*
X674500Y808250D02*
D03*
X687500Y865750D02*
D03*
X690500Y1048250D02*
D03*
X773500Y866250D02*
D03*
X809482Y901000D02*
D03*
X825000Y977500D02*
D03*
X808732Y1024500D02*
D03*
X865732Y1025250D02*
D03*
X850732Y997250D02*
D03*
Y983000D02*
D03*
X850750Y955000D02*
D03*
X825000Y949750D02*
D03*
X850750Y969000D02*
D03*
X850732Y941000D02*
D03*
Y927000D02*
D03*
X902250Y868750D02*
D03*
X941982Y878000D02*
D03*
X919983Y895000D02*
D03*
X974000Y903500D02*
D03*
X916750Y835250D02*
D03*
X834000Y791000D02*
D03*
Y815000D02*
D03*
M02*
