G04*
G04 #@! TF.GenerationSoftware,Altium Limited,Altium Designer,20.0.12 (288)*
G04*
G04 Layer_Color=16711935*
%FSLAX44Y44*%
%MOMM*%
G71*
G01*
G75*
%ADD61C,5.2032*%
%ADD62R,1.7032X1.7032*%
%ADD63C,1.7032*%
%ADD64O,5.2032X2.6032*%
%ADD65O,2.6032X5.2032*%
%ADD66R,1.6012X1.6012*%
%ADD67C,1.6012*%
%ADD68C,1.7332*%
%ADD69C,2.6482*%
%ADD70C,3.4532*%
%ADD71C,0.8532*%
%ADD72O,2.2032X1.2032*%
%ADD73O,2.0032X1.1032*%
%ADD74C,0.6032*%
D61*
X995250Y636500D02*
D03*
Y1044750D02*
D03*
X1421250D02*
D03*
X1420500Y580000D02*
D03*
D62*
X1273600Y626100D02*
D03*
X1365650Y584150D02*
D03*
D63*
X1299000Y626100D02*
D03*
X1324400D02*
D03*
X1349800D02*
D03*
X1273600Y651500D02*
D03*
X1299000D02*
D03*
X1324400D02*
D03*
X1349800D02*
D03*
X1340250Y584150D02*
D03*
X1314850D02*
D03*
X1289450D02*
D03*
X1264050D02*
D03*
X1238650D02*
D03*
X1213250D02*
D03*
X1187850D02*
D03*
X1162450D02*
D03*
X1137050D02*
D03*
X1111650D02*
D03*
X1086250D02*
D03*
X1060850D02*
D03*
X1035450D02*
D03*
X1010050D02*
D03*
X984650D02*
D03*
X959250D02*
D03*
X933850D02*
D03*
X908450D02*
D03*
X883050D02*
D03*
X1365650Y558750D02*
D03*
X1340250D02*
D03*
X1314850D02*
D03*
X1289450D02*
D03*
X1264050D02*
D03*
X1238650D02*
D03*
X1213250D02*
D03*
X1187850D02*
D03*
X1162450D02*
D03*
X1137050D02*
D03*
X1111650D02*
D03*
X1086250D02*
D03*
X1060850D02*
D03*
X1035450D02*
D03*
X1010050D02*
D03*
X984650D02*
D03*
X959250D02*
D03*
X933850D02*
D03*
X908450D02*
D03*
X883050D02*
D03*
D64*
X692687Y577050D02*
D03*
D65*
X717687Y625050D02*
D03*
X657687D02*
D03*
D66*
X754976Y1001400D02*
D03*
D67*
X780376Y988700D02*
D03*
X754976Y976000D02*
D03*
X780376Y963300D02*
D03*
X754976Y950600D02*
D03*
X780376Y937900D02*
D03*
X754976Y925200D02*
D03*
X780376Y912500D02*
D03*
D68*
X642476Y1023150D02*
D03*
Y997750D02*
D03*
Y890650D02*
D03*
Y916050D02*
D03*
D69*
X721976Y1034350D02*
D03*
Y879450D02*
D03*
D70*
X691476Y899750D02*
D03*
Y1014050D02*
D03*
D71*
X639090Y795740D02*
D03*
X646170Y736360D02*
D03*
D72*
X650970Y808510D02*
D03*
Y722010D02*
D03*
D73*
X609170Y808510D02*
D03*
Y722010D02*
D03*
D74*
X1047500Y822750D02*
D03*
X738812Y767000D02*
D03*
Y760938D02*
D03*
Y754875D02*
D03*
X1130500Y866500D02*
D03*
X876310Y899000D02*
D03*
X1137955Y713290D02*
D03*
X1228250Y897500D02*
D03*
X1222436Y897580D02*
D03*
X1216937Y897496D02*
D03*
X1239891Y825105D02*
D03*
X1239343Y764301D02*
D03*
X1239993Y810554D02*
D03*
X1239617Y845120D02*
D03*
X1146839Y748216D02*
D03*
X1162100Y876096D02*
D03*
X1239500Y804500D02*
D03*
X1152045Y713182D02*
D03*
X1239500Y839250D02*
D03*
X1202000Y866750D02*
D03*
X1239500Y770000D02*
D03*
Y818750D02*
D03*
X1140568Y748690D02*
D03*
X1408254Y686260D02*
D03*
X1167250Y898000D02*
D03*
X1161250D02*
D03*
X1408254Y698760D02*
D03*
X1408060Y929060D02*
D03*
Y941560D02*
D03*
Y954060D02*
D03*
Y966560D02*
D03*
X1122250Y868250D02*
D03*
X1114750Y819750D02*
D03*
X1114250Y800500D02*
D03*
X1114554Y794539D02*
D03*
X1004750Y819500D02*
D03*
X1112480Y728270D02*
D03*
X1112000Y744750D02*
D03*
X915680Y715930D02*
D03*
X742750Y799500D02*
D03*
X759200Y799500D02*
D03*
X1114514Y775652D02*
D03*
X1114725Y788479D02*
D03*
X1114583Y782412D02*
D03*
X945558Y926777D02*
D03*
X939250Y926750D02*
D03*
X944500Y835250D02*
D03*
X958000Y926750D02*
D03*
X951750D02*
D03*
X1114250Y769750D02*
D03*
X1122250Y742000D02*
D03*
X906250Y929520D02*
D03*
X850732Y885250D02*
D03*
X926732Y1039750D02*
D03*
X915750Y927000D02*
D03*
X645000Y757750D02*
D03*
X680450Y774750D02*
D03*
X903948Y968770D02*
D03*
X1098750Y708500D02*
D03*
X904500Y953750D02*
D03*
X951250Y985750D02*
D03*
X963000Y984000D02*
D03*
X926250Y927250D02*
D03*
X904250Y979000D02*
D03*
X921250Y985500D02*
D03*
X1433860Y876560D02*
D03*
X719520Y766000D02*
D03*
X954482Y1039750D02*
D03*
X912732D02*
D03*
X1022982Y906500D02*
D03*
Y920500D02*
D03*
Y962250D02*
D03*
Y948500D02*
D03*
Y934500D02*
D03*
X1239500Y859750D02*
D03*
X1289223Y731500D02*
D03*
X1300500Y715250D02*
D03*
X1433110Y633760D02*
D03*
X1408254Y661260D02*
D03*
X1433110Y726260D02*
D03*
X1408060Y904060D02*
D03*
X1433860Y994060D02*
D03*
X1433110Y846270D02*
D03*
Y753770D02*
D03*
X1407310Y781270D02*
D03*
X1363850Y777000D02*
D03*
X1363750Y821000D02*
D03*
X1300500Y854750D02*
D03*
X1289223Y871000D02*
D03*
X1097250Y901000D02*
D03*
X1046780Y837610D02*
D03*
X1031280Y778360D02*
D03*
X1065000Y755000D02*
D03*
Y769000D02*
D03*
X1065500Y814500D02*
D03*
X1065000Y783000D02*
D03*
X1030530Y796860D02*
D03*
X844500Y740000D02*
D03*
X844430Y722930D02*
D03*
X767500Y606250D02*
D03*
X764250Y631500D02*
D03*
X801000Y651000D02*
D03*
X762500Y655000D02*
D03*
X756625Y754875D02*
D03*
Y773063D02*
D03*
Y767000D02*
D03*
Y760938D02*
D03*
Y748812D02*
D03*
X744750Y754875D02*
D03*
X750687D02*
D03*
X762562D02*
D03*
X738812Y748812D02*
D03*
X744750D02*
D03*
X750687D02*
D03*
X762562D02*
D03*
X744750Y760938D02*
D03*
X750687D02*
D03*
X762562D02*
D03*
X744750Y767000D02*
D03*
X750687D02*
D03*
X762562D02*
D03*
Y773063D02*
D03*
X750687D02*
D03*
X744750D02*
D03*
X738812D02*
D03*
X728750Y801250D02*
D03*
X773250Y801500D02*
D03*
X705550Y765250D02*
D03*
X674750Y721750D02*
D03*
X656870Y731760D02*
D03*
Y798760D02*
D03*
X674500Y808250D02*
D03*
X687500Y865750D02*
D03*
X690500Y1048250D02*
D03*
X773500Y866250D02*
D03*
X809482Y901000D02*
D03*
X825000Y977500D02*
D03*
X808732Y1024500D02*
D03*
X865732Y1025250D02*
D03*
X850732Y997250D02*
D03*
Y983000D02*
D03*
X850750Y955000D02*
D03*
X825000Y949750D02*
D03*
X850750Y969000D02*
D03*
X850732Y941000D02*
D03*
Y927000D02*
D03*
X902250Y868750D02*
D03*
X941982Y878000D02*
D03*
X919983Y895000D02*
D03*
X974000Y903500D02*
D03*
X916750Y835250D02*
D03*
X834000Y791000D02*
D03*
Y815000D02*
D03*
M02*
