M48
;Layer_Color=9474304
;FILE_FORMAT=4:4
METRIC,LZ
;TYPE=PLATED
T1F00S00C0.2000
T3F00S00C0.8000
T4F00S00C0.8900
T5F00S00C0.9000
T6F00S00C1.0200
T8F00S00C1.6300
T9F00S00C3.0000
;TYPE=NON_PLATED
T10F00S00C0.6500
T11F00S00C3.2500
%
T01
X01239343Y00764301
X012395Y0077
X01289223Y007315
X013005Y0071525
X01408254Y0069876
Y0068626
Y0066126
X0143311Y0063376
Y0072626
Y0075377
X0140731Y0078127
X0136385Y00777
X01146839Y00748216
X01140568Y0074869
X0112225Y00742
X01112Y0074475
X0111248Y0072827
X0109875Y007085
X01137955Y0071329
X01152045Y00713182
X0111425Y0076975
X01114514Y00775652
X01114583Y00782412
X01114725Y00788479
X01065Y00783
Y00769
Y00755
X0103128Y0077836
X0091568Y0071593
X0084443Y0072293
X008445Y0074
X00834Y00791
X00801Y00651
X007625Y00655
X0076425Y006315
X007675Y0060625
X00762562Y00748812
X00756625
X00750687
X0074475
X00738812
Y00754875
X0074475
X00750687
X00756625
X00762562
Y00760938
X00756625
X00750687
X0074475
X00738812
Y00767
X0074475
X00750687
X00756625
X00762562
Y00773063
X00756625
X00750687
X0074475
X00738812
X0071952Y00766
X0070555Y0076525
X0068045Y0077475
X00645Y0075775
X0065687Y0073176
X0067475Y0072175
X006745Y0080825
X0065687Y0079876
X0072875Y0080125
X0074275Y007995
X007592Y007995
X0077325Y008015
X007735Y0086625
X006875Y0086575
X006905Y0104825
X00808732Y010245
X00865732Y0102525
X00850732Y0099725
Y00983
X0085075Y00969
X0085075Y00955
X00850732Y00941
Y00927
Y0088525
X0087631Y00899
X00919983Y00895
X0091575Y00927
X0092625Y0092725
X0093925Y0092675
X00945558Y00926777
X0095175Y0092675
X00958
X00974Y009035
X01022982Y009065
Y009205
Y009345
Y009485
Y0096225
X00963Y00984
X0095125Y0098575
X0092125Y009855
X0090425Y00979
X00903948Y0096877
X009045Y0095375
X0090625Y0092952
X0090225Y0086875
X0091675Y0083525
X009445
X00941982Y00878
X0100475Y008195
X010475Y0082275
X0104678Y0083761
X010655Y008145
X0103053Y0079686
X01114554Y00794539
X0111425Y008005
X0111475Y0081975
X0112225Y0086825
X011305Y008665
X011621Y00876096
X0116125Y00898
X0116725
X0109725Y00901
X00954482Y0103975
X00926732
X00912732
X00825Y009775
Y0094975
X00809482Y00901
X00834Y00815
X012395Y0081875
X01239891Y00825105
X012395Y0083925
X01239617Y0084512
X012395Y0085975
X01202Y0086675
X01216937Y00897496
X01222436Y0089758
X0122825Y008975
X01289223Y00871
X013005Y0085475
X0136375Y00821
X0143311Y0084627
X0143386Y0087656
X0140806Y0090406
Y0092906
Y0094156
Y0095406
Y0096656
X0143386Y0099406
X01239993Y00810554
X012395Y008045
T03
X0136565Y0055875
Y0058415
T04
X00754976Y009252
Y009506
Y00976
Y010014
X00780376Y009887
Y009633
Y009379
Y009125
T05
X0121325Y0055875
Y0058415
X0123865
X0126405
X0128945
X0131485
X0134025
Y0055875
X0131485
X0128945
X0126405
X0123865
X012736Y006261
X01299
X013244
X013498
Y006515
X013244
X01299
X012736
X0118785Y0058415
X0116245
X0113705
X0111165
X0108625
X0106085
X0103545
X0101005
X0098465
X0095925
X0093385
X0090845
X0088305
Y0055875
X0090845
X0093385
X0095925
X0098465
X0101005
X0103545
X0106085
X0108625
X0111165
X0113705
X0116245
X0118785
T06
X00642476Y0089065
Y0091605
Y0099775
Y0102315
T08
X00721976Y0087945
Y0103435
T09
X014205Y0058
X0099525Y006365
Y0104475
X0142125
T10
X0064617Y0073636
X0063909Y0079574
T11
X00691476Y0089975
Y0101405
M30
