G04*
G04 #@! TF.GenerationSoftware,Altium Limited,Altium Designer,20.0.12 (288)*
G04*
G04 Layer_Color=255*
%FSLAX44Y44*%
%MOMM*%
G71*
G01*
G75*
%ADD78C,5.0000*%
%ADD79R,1.5000X1.5000*%
%ADD80C,1.5000*%
%ADD81O,5.0000X2.4000*%
%ADD82O,2.4000X5.0000*%
%ADD83R,1.3980X1.3980*%
%ADD84C,1.3980*%
%ADD85C,1.5300*%
%ADD86C,2.4450*%
%ADD87C,3.2500*%
%ADD88C,0.6500*%
%ADD89O,2.0000X1.0000*%
%ADD90O,1.8000X0.9000*%
D78*
X995250Y636500D02*
D03*
Y1044750D02*
D03*
X1421250D02*
D03*
X1420500Y580000D02*
D03*
D79*
X1273600Y626100D02*
D03*
X1365650Y584150D02*
D03*
D80*
X1299000Y626100D02*
D03*
X1324400D02*
D03*
X1349800D02*
D03*
X1273600Y651500D02*
D03*
X1299000D02*
D03*
X1324400D02*
D03*
X1349800D02*
D03*
X1340250Y584150D02*
D03*
X1314850D02*
D03*
X1289450D02*
D03*
X1264050D02*
D03*
X1238650D02*
D03*
X1213250D02*
D03*
X1187850D02*
D03*
X1162450D02*
D03*
X1137050D02*
D03*
X1111650D02*
D03*
X1086250D02*
D03*
X1060850D02*
D03*
X1035450D02*
D03*
X1010050D02*
D03*
X984650D02*
D03*
X959250D02*
D03*
X933850D02*
D03*
X908450D02*
D03*
X883050D02*
D03*
X1365650Y558750D02*
D03*
X1340250D02*
D03*
X1314850D02*
D03*
X1289450D02*
D03*
X1264050D02*
D03*
X1238650D02*
D03*
X1213250D02*
D03*
X1187850D02*
D03*
X1162450D02*
D03*
X1137050D02*
D03*
X1111650D02*
D03*
X1086250D02*
D03*
X1060850D02*
D03*
X1035450D02*
D03*
X1010050D02*
D03*
X984650D02*
D03*
X959250D02*
D03*
X933850D02*
D03*
X908450D02*
D03*
X883050D02*
D03*
D81*
X692687Y577050D02*
D03*
D82*
X717687Y625050D02*
D03*
X657687D02*
D03*
D83*
X754976Y1001400D02*
D03*
D84*
X780376Y988700D02*
D03*
X754976Y976000D02*
D03*
X780376Y963300D02*
D03*
X754976Y950600D02*
D03*
X780376Y937900D02*
D03*
X754976Y925200D02*
D03*
X780376Y912500D02*
D03*
D85*
X642476Y1023150D02*
D03*
Y997750D02*
D03*
Y890650D02*
D03*
Y916050D02*
D03*
D86*
X721976Y1034350D02*
D03*
Y879450D02*
D03*
D87*
X691476Y899750D02*
D03*
Y1014050D02*
D03*
D88*
X639090Y795740D02*
D03*
X646170Y736360D02*
D03*
D89*
X650970Y808510D02*
D03*
Y722010D02*
D03*
D90*
X609170Y808510D02*
D03*
Y722010D02*
D03*
M02*
