G04*
G04 #@! TF.GenerationSoftware,Altium Limited,Altium Designer,20.0.12 (288)*
G04*
G04 Layer_Color=16711935*
%FSLAX44Y44*%
%MOMM*%
G71*
G01*
G75*
%ADD10C,0.2000*%
%ADD11C,0.3000*%
%ADD12C,0.2540*%
%ADD13C,0.1270*%
D10*
X657718Y821254D02*
G03*
X657718Y821254I-1000J0D01*
G01*
X920983Y864500D02*
G03*
X920983Y864500I-1000J0D01*
G01*
X668450Y774700D02*
G03*
X668450Y774700I-1000J0D01*
G01*
X1018030Y818860D02*
G03*
X1018030Y818860I-1000J0D01*
G01*
X1088199Y864751D02*
G03*
X1088199Y864751I-1000J0D01*
G01*
X716350Y776000D02*
G03*
X716350Y776000I-1000J0D01*
G01*
D11*
X755976Y1014900D02*
G03*
X755976Y1014900I-1500J0D01*
G01*
D12*
X590718Y786204D02*
X597716D01*
Y782705D01*
X596550Y781539D01*
X594217D01*
X593051Y782705D01*
Y786204D01*
X596550Y774541D02*
X597716Y775707D01*
Y778040D01*
X596550Y779206D01*
X591884D01*
X590718Y778040D01*
Y775707D01*
X591884Y774541D01*
X597716Y772208D02*
X590718D01*
Y768710D01*
X591884Y767543D01*
X593051D01*
X594217Y768710D01*
Y772208D01*
Y768710D01*
X595383Y767543D01*
X596550D01*
X597716Y768710D01*
Y772208D01*
Y753548D02*
Y758213D01*
X590718D01*
Y753548D01*
X594217Y758213D02*
Y755880D01*
X597716Y746550D02*
X590718D01*
Y750049D01*
X591884Y751215D01*
X594217D01*
X595383Y750049D01*
Y746550D01*
X588386Y741885D02*
Y740719D01*
X589552Y739552D01*
X595383D01*
Y743051D01*
X594217Y744218D01*
X591884D01*
X590718Y743051D01*
Y739552D01*
Y733721D02*
Y736053D01*
X591884Y737220D01*
X594217D01*
X595383Y736053D01*
Y733721D01*
X594217Y732555D01*
X593051D01*
Y737220D01*
D13*
X583218Y810204D02*
X656718D01*
X583218Y720804D02*
Y810204D01*
Y720804D02*
X656718D01*
Y810204D01*
X588118Y710804D02*
Y820204D01*
X1348350Y794750D02*
X1364350D01*
Y786750D02*
Y794750D01*
X1348350Y786750D02*
X1364350D01*
X1348350D02*
Y794750D01*
Y811250D02*
X1364350D01*
Y803250D02*
Y811250D01*
X1348350Y803250D02*
X1364350D01*
X1348350D02*
Y811250D01*
X877000Y795000D02*
X893000D01*
Y787000D02*
Y795000D01*
X877000Y787000D02*
X893000D01*
X877000D02*
Y795000D01*
X876500Y744250D02*
X892500D01*
Y736250D02*
Y744250D01*
X876500Y736250D02*
X892500D01*
X876500D02*
Y744250D01*
X582276Y876900D02*
X796276D01*
Y1036900D01*
X582276D02*
X796276D01*
X582276Y876900D02*
Y1036900D01*
X914983Y874000D02*
Y899000D01*
X946982D01*
X914983Y874000D02*
X946982D01*
Y899000D01*
X684875Y779875D02*
X701125D01*
Y750625D02*
Y779875D01*
X684875Y750625D02*
X701125D01*
X684875D02*
Y779875D01*
X1026530Y823860D02*
X1051530D01*
Y791860D02*
Y823860D01*
X1026530Y791860D02*
Y823860D01*
Y791860D02*
X1051530D01*
X763200Y799000D02*
Y815000D01*
X755200Y799000D02*
X763200D01*
X755200D02*
Y815000D01*
X763200D01*
X746750Y799000D02*
Y815000D01*
X738750Y799000D02*
X746750D01*
X738750D02*
Y815000D01*
X746750D01*
X1106200Y875750D02*
X1248200D01*
X1106200Y733750D02*
Y875750D01*
Y733750D02*
X1248200D01*
Y875750D01*
X747400Y585000D02*
Y593000D01*
X763400D01*
Y585000D02*
Y593000D01*
X747400Y585000D02*
X763400D01*
X725750Y736000D02*
Y786000D01*
X775750Y736000D02*
Y786000D01*
X725750D02*
X775750D01*
X725750Y736000D02*
X775750D01*
M02*
