G04*
G04 #@! TF.GenerationSoftware,Altium Limited,Altium Designer,20.0.12 (288)*
G04*
G04 Layer_Color=128*
%FSLAX44Y44*%
%MOMM*%
G71*
G01*
G75*
%ADD94C,0.0508*%
D94*
X642768Y794404D02*
X649268D01*
X646018Y791154D02*
Y797654D01*
X642768Y736604D02*
X649268D01*
X646018Y733354D02*
Y739854D01*
X647568Y808754D02*
X654068D01*
X650818Y805504D02*
Y812004D01*
X605768Y808754D02*
X612268D01*
X609018Y805504D02*
Y812004D01*
X605768Y722254D02*
X612268D01*
X609018Y719004D02*
Y725504D01*
X647568Y722254D02*
X654068D01*
X650818Y719004D02*
Y725504D01*
X980250Y636500D02*
X1010250D01*
X995250Y621500D02*
Y651500D01*
X980250Y1044750D02*
X1010250D01*
X995250Y1029750D02*
Y1059750D01*
X1406250Y1044750D02*
X1436250D01*
X1421250Y1029750D02*
Y1059750D01*
X1269100Y626100D02*
X1278100D01*
X1273600Y621600D02*
Y630600D01*
X1294500Y626100D02*
X1303500D01*
X1299000Y621600D02*
Y630600D01*
X1319900Y626100D02*
X1328900D01*
X1324400Y621600D02*
Y630600D01*
X1345300Y626100D02*
X1354300D01*
X1349800Y621600D02*
Y630600D01*
X1269100Y651500D02*
X1278100D01*
X1273600Y647000D02*
Y656000D01*
X1294500Y651500D02*
X1303500D01*
X1299000Y647000D02*
Y656000D01*
X1319900Y651500D02*
X1328900D01*
X1324400Y647000D02*
Y656000D01*
X1345300Y651500D02*
X1354300D01*
X1349800Y647000D02*
Y656000D01*
X1405500Y580000D02*
X1435500D01*
X1420500Y565000D02*
Y595000D01*
X685687Y577050D02*
X699687D01*
X692687Y570050D02*
Y584050D01*
X697687Y625050D02*
X737687D01*
X717687Y605050D02*
Y645050D01*
X637687Y625050D02*
X677687D01*
X657687Y605050D02*
Y645050D01*
X750526Y1001400D02*
X759426D01*
X754976Y996950D02*
Y1005850D01*
X775926Y988700D02*
X784826D01*
X780376Y984250D02*
Y993150D01*
X750526Y976000D02*
X759426D01*
X754976Y971550D02*
Y980450D01*
X775926Y963300D02*
X784826D01*
X780376Y958850D02*
Y967750D01*
X750526Y950600D02*
X759426D01*
X754976Y946150D02*
Y955050D01*
X775926Y937900D02*
X784826D01*
X780376Y933450D02*
Y942350D01*
X750526Y925200D02*
X759426D01*
X754976Y920750D02*
Y929650D01*
X775926Y912500D02*
X784826D01*
X780376Y908050D02*
Y916950D01*
X637376Y1023150D02*
X647576D01*
X642476Y1018050D02*
Y1028250D01*
X637376Y997750D02*
X647576D01*
X642476Y992650D02*
Y1002850D01*
X637376Y890650D02*
X647576D01*
X642476Y885550D02*
Y895750D01*
X637376Y916050D02*
X647576D01*
X642476Y910950D02*
Y921150D01*
X713826Y1034350D02*
X730126D01*
X721976Y1026200D02*
Y1042500D01*
X713826Y879450D02*
X730126D01*
X721976Y871300D02*
Y887600D01*
X675226Y899750D02*
X707726D01*
X691476Y883500D02*
Y916000D01*
X675226Y1014050D02*
X707726D01*
X691476Y997800D02*
Y1030300D01*
X1361650Y584150D02*
X1369650D01*
X1365650Y580150D02*
Y588150D01*
X1335750Y584150D02*
X1344750D01*
X1340250Y579650D02*
Y588650D01*
X1310350Y584150D02*
X1319350D01*
X1314850Y579650D02*
Y588650D01*
X1284950Y584150D02*
X1293950D01*
X1289450Y579650D02*
Y588650D01*
X1259550Y584150D02*
X1268550D01*
X1264050Y579650D02*
Y588650D01*
X1234150Y584150D02*
X1243150D01*
X1238650Y579650D02*
Y588650D01*
X1208750Y584150D02*
X1217750D01*
X1213250Y579650D02*
Y588650D01*
X1183350Y584150D02*
X1192350D01*
X1187850Y579650D02*
Y588650D01*
X1157950Y584150D02*
X1166950D01*
X1162450Y579650D02*
Y588650D01*
X1132550Y584150D02*
X1141550D01*
X1137050Y579650D02*
Y588650D01*
X1107150Y584150D02*
X1116150D01*
X1111650Y579650D02*
Y588650D01*
X1081750Y584150D02*
X1090750D01*
X1086250Y579650D02*
Y588650D01*
X1056350Y584150D02*
X1065350D01*
X1060850Y579650D02*
Y588650D01*
X1030950Y584150D02*
X1039950D01*
X1035450Y579650D02*
Y588650D01*
X1005550Y584150D02*
X1014550D01*
X1010050Y579650D02*
Y588650D01*
X980150Y584150D02*
X989150D01*
X984650Y579650D02*
Y588650D01*
X954750Y584150D02*
X963750D01*
X959250Y579650D02*
Y588650D01*
X929350Y584150D02*
X938350D01*
X933850Y579650D02*
Y588650D01*
X903950Y584150D02*
X912950D01*
X908450Y579650D02*
Y588650D01*
X878550Y584150D02*
X887550D01*
X883050Y579650D02*
Y588650D01*
X1361650Y558750D02*
X1369650D01*
X1365650Y554750D02*
Y562750D01*
X1335750Y558750D02*
X1344750D01*
X1340250Y554250D02*
Y563250D01*
X1310350Y558750D02*
X1319350D01*
X1314850Y554250D02*
Y563250D01*
X1284950Y558750D02*
X1293950D01*
X1289450Y554250D02*
Y563250D01*
X1259550Y558750D02*
X1268550D01*
X1264050Y554250D02*
Y563250D01*
X1234150Y558750D02*
X1243150D01*
X1238650Y554250D02*
Y563250D01*
X1208750Y558750D02*
X1217750D01*
X1213250Y554250D02*
Y563250D01*
X1183350Y558750D02*
X1192350D01*
X1187850Y554250D02*
Y563250D01*
X1157950Y558750D02*
X1166950D01*
X1162450Y554250D02*
Y563250D01*
X1132550Y558750D02*
X1141550D01*
X1137050Y554250D02*
Y563250D01*
X1107150Y558750D02*
X1116150D01*
X1111650Y554250D02*
Y563250D01*
X1081750Y558750D02*
X1090750D01*
X1086250Y554250D02*
Y563250D01*
X1056350Y558750D02*
X1065350D01*
X1060850Y554250D02*
Y563250D01*
X1030950Y558750D02*
X1039950D01*
X1035450Y554250D02*
Y563250D01*
X1005550Y558750D02*
X1014550D01*
X1010050Y554250D02*
Y563250D01*
X980150Y558750D02*
X989150D01*
X984650Y554250D02*
Y563250D01*
X954750Y558750D02*
X963750D01*
X959250Y554250D02*
Y563250D01*
X929350Y558750D02*
X938350D01*
X933850Y554250D02*
Y563250D01*
X903950Y558750D02*
X912950D01*
X908450Y554250D02*
Y563250D01*
X878550Y558750D02*
X887550D01*
X883050Y554250D02*
Y563250D01*
X644000Y757750D02*
X646000D01*
X645000Y756750D02*
Y758750D01*
X1160250Y898000D02*
X1162250D01*
X1161250Y897000D02*
Y899000D01*
X1046500Y822750D02*
X1048500D01*
X1047500Y821750D02*
Y823750D01*
X737812Y767000D02*
X739812D01*
X738812Y766000D02*
Y768000D01*
X737812Y760938D02*
X739812D01*
X738812Y759938D02*
Y761937D01*
X737812Y754875D02*
X739812D01*
X738812Y753875D02*
Y755875D01*
X1129500Y866500D02*
X1131500D01*
X1130500Y865500D02*
Y867500D01*
X875310Y899000D02*
X877310D01*
X876310Y898000D02*
Y900000D01*
X1136955Y713290D02*
X1138955D01*
X1137955Y712290D02*
Y714290D01*
X1227250Y897500D02*
X1229250D01*
X1228250Y896500D02*
Y898500D01*
X1221436Y897580D02*
X1223436D01*
X1222436Y896580D02*
Y898580D01*
X1215937Y897496D02*
X1217937D01*
X1216937Y896497D02*
Y898496D01*
X1238891Y825105D02*
X1240891D01*
X1239891Y824105D02*
Y826105D01*
X1238343Y764301D02*
X1240343D01*
X1239343Y763300D02*
Y765301D01*
X1238993Y810554D02*
X1240993D01*
X1239993Y809554D02*
Y811554D01*
X1238617Y845120D02*
X1240617D01*
X1239617Y844120D02*
Y846120D01*
X1145839Y748216D02*
X1147839D01*
X1146839Y747216D02*
Y749216D01*
X1161100Y876096D02*
X1163100D01*
X1162100Y875096D02*
Y877096D01*
X1238500Y804500D02*
X1240500D01*
X1239500Y803500D02*
Y805500D01*
X1151045Y713182D02*
X1153045D01*
X1152045Y712181D02*
Y714182D01*
X1238500Y839250D02*
X1240500D01*
X1239500Y838250D02*
Y840250D01*
X1201000Y866750D02*
X1203000D01*
X1202000Y865750D02*
Y867750D01*
X1238500Y770000D02*
X1240500D01*
X1239500Y769000D02*
Y771000D01*
X1238500Y818750D02*
X1240500D01*
X1239500Y817750D02*
Y819750D01*
X1139568Y748690D02*
X1141568D01*
X1140568Y747690D02*
Y749690D01*
X1407254Y686260D02*
X1409254D01*
X1408254Y685260D02*
Y687260D01*
X1166250Y898000D02*
X1168250D01*
X1167250Y897000D02*
Y899000D01*
X1407254Y698760D02*
X1409254D01*
X1408254Y697760D02*
Y699760D01*
X1407060Y929060D02*
X1409060D01*
X1408060Y928060D02*
Y930060D01*
X1407060Y941560D02*
X1409060D01*
X1408060Y940560D02*
Y942560D01*
X1407060Y954060D02*
X1409060D01*
X1408060Y953060D02*
Y955060D01*
X1407060Y966560D02*
X1409060D01*
X1408060Y965560D02*
Y967560D01*
X1121250Y868250D02*
X1123250D01*
X1122250Y867250D02*
Y869250D01*
X1113750Y819750D02*
X1115750D01*
X1114750Y818750D02*
Y820750D01*
X1113250Y800500D02*
X1115250D01*
X1114250Y799500D02*
Y801500D01*
X1113554Y794539D02*
X1115554D01*
X1114554Y793539D02*
Y795539D01*
X1003750Y819500D02*
X1005750D01*
X1004750Y818500D02*
Y820500D01*
X1111480Y728270D02*
X1113480D01*
X1112480Y727270D02*
Y729270D01*
X1111000Y744750D02*
X1113000D01*
X1112000Y743750D02*
Y745750D01*
X914680Y715930D02*
X916680D01*
X915680Y714930D02*
Y716930D01*
X741750Y799500D02*
X743750D01*
X742750Y798500D02*
Y800500D01*
X758200Y799500D02*
X760200D01*
X759200Y798500D02*
Y800500D01*
X1113514Y775652D02*
X1115514D01*
X1114514Y774652D02*
Y776652D01*
X1113725Y788479D02*
X1115725D01*
X1114725Y787479D02*
Y789479D01*
X1113583Y782412D02*
X1115583D01*
X1114583Y781412D02*
Y783412D01*
X944558Y926777D02*
X946559D01*
X945558Y925777D02*
Y927777D01*
X938250Y926750D02*
X940250D01*
X939250Y925750D02*
Y927750D01*
X943500Y835250D02*
X945500D01*
X944500Y834250D02*
Y836250D01*
X957000Y926750D02*
X959000D01*
X958000Y925750D02*
Y927750D01*
X950750Y926750D02*
X952750D01*
X951750Y925750D02*
Y927750D01*
X1113250Y769750D02*
X1115250D01*
X1114250Y768750D02*
Y770750D01*
X1121250Y742000D02*
X1123250D01*
X1122250Y741000D02*
Y743000D01*
X905250Y929520D02*
X907250D01*
X906250Y928520D02*
Y930520D01*
X849733Y885250D02*
X851732D01*
X850732Y884250D02*
Y886250D01*
X925732Y1039750D02*
X927732D01*
X926732Y1038750D02*
Y1040750D01*
X914750Y927000D02*
X916750D01*
X915750Y926000D02*
Y928000D01*
X679450Y774750D02*
X681450D01*
X680450Y773750D02*
Y775750D01*
X902948Y968770D02*
X904948D01*
X903948Y967770D02*
Y969770D01*
X1097750Y708500D02*
X1099750D01*
X1098750Y707500D02*
Y709500D01*
X903500Y953750D02*
X905500D01*
X904500Y952750D02*
Y954750D01*
X950250Y985750D02*
X952250D01*
X951250Y984750D02*
Y986750D01*
X962000Y984000D02*
X964000D01*
X963000Y983000D02*
Y985000D01*
X925250Y927250D02*
X927250D01*
X926250Y926250D02*
Y928250D01*
X903250Y979000D02*
X905250D01*
X904250Y978000D02*
Y980000D01*
X920250Y985500D02*
X922250D01*
X921250Y984500D02*
Y986500D01*
X1432860Y876560D02*
X1434860D01*
X1433860Y875560D02*
Y877560D01*
X718520Y766000D02*
X720520D01*
X719520Y765000D02*
Y767000D01*
X953483Y1039750D02*
X955482D01*
X954482Y1038750D02*
Y1040750D01*
X911732Y1039750D02*
X913733D01*
X912732Y1038750D02*
Y1040750D01*
X1021982Y906500D02*
X1023982D01*
X1022982Y905500D02*
Y907500D01*
X1021982Y920500D02*
X1023982D01*
X1022982Y919500D02*
Y921500D01*
X1021982Y962250D02*
X1023982D01*
X1022982Y961250D02*
Y963250D01*
X1021982Y948500D02*
X1023982D01*
X1022982Y947500D02*
Y949500D01*
X1021982Y934500D02*
X1023982D01*
X1022982Y933500D02*
Y935500D01*
X1238500Y859750D02*
X1240500D01*
X1239500Y858750D02*
Y860750D01*
X1288223Y731500D02*
X1290222D01*
X1289223Y730500D02*
Y732500D01*
X1299500Y715250D02*
X1301500D01*
X1300500Y714250D02*
Y716250D01*
X1432110Y633760D02*
X1434110D01*
X1433110Y632760D02*
Y634760D01*
X1407254Y661260D02*
X1409254D01*
X1408254Y660260D02*
Y662260D01*
X1432110Y726260D02*
X1434110D01*
X1433110Y725260D02*
Y727260D01*
X1407060Y904060D02*
X1409060D01*
X1408060Y903060D02*
Y905060D01*
X1432860Y994060D02*
X1434860D01*
X1433860Y993060D02*
Y995060D01*
X1432110Y846270D02*
X1434110D01*
X1433110Y845270D02*
Y847270D01*
X1432110Y753770D02*
X1434110D01*
X1433110Y752770D02*
Y754770D01*
X1406310Y781270D02*
X1408310D01*
X1407310Y780270D02*
Y782270D01*
X1362850Y777000D02*
X1364850D01*
X1363850Y776000D02*
Y778000D01*
X1362750Y821000D02*
X1364750D01*
X1363750Y820000D02*
Y822000D01*
X1299500Y854750D02*
X1301500D01*
X1300500Y853750D02*
Y855750D01*
X1288223Y871000D02*
X1290222D01*
X1289223Y870000D02*
Y872000D01*
X1096250Y901000D02*
X1098250D01*
X1097250Y900000D02*
Y902000D01*
X1045780Y837610D02*
X1047780D01*
X1046780Y836610D02*
Y838610D01*
X1030280Y778360D02*
X1032280D01*
X1031280Y777360D02*
Y779360D01*
X1064000Y755000D02*
X1066000D01*
X1065000Y754000D02*
Y756000D01*
X1064000Y769000D02*
X1066000D01*
X1065000Y768000D02*
Y770000D01*
X1064500Y814500D02*
X1066500D01*
X1065500Y813500D02*
Y815500D01*
X1064000Y783000D02*
X1066000D01*
X1065000Y782000D02*
Y784000D01*
X1029530Y796860D02*
X1031530D01*
X1030530Y795860D02*
Y797860D01*
X843500Y740000D02*
X845500D01*
X844500Y739000D02*
Y741000D01*
X843430Y722930D02*
X845430D01*
X844430Y721930D02*
Y723930D01*
X766500Y606250D02*
X768500D01*
X767500Y605250D02*
Y607250D01*
X763250Y631500D02*
X765250D01*
X764250Y630500D02*
Y632500D01*
X800000Y651000D02*
X802000D01*
X801000Y650000D02*
Y652000D01*
X761500Y655000D02*
X763500D01*
X762500Y654000D02*
Y656000D01*
X755625Y754875D02*
X757625D01*
X756625Y753875D02*
Y755875D01*
X755625Y773063D02*
X757625D01*
X756625Y772063D02*
Y774062D01*
X755625Y767000D02*
X757625D01*
X756625Y766000D02*
Y768000D01*
X755625Y760938D02*
X757625D01*
X756625Y759938D02*
Y761937D01*
X755625Y748812D02*
X757625D01*
X756625Y747812D02*
Y749812D01*
X743750Y754875D02*
X745750D01*
X744750Y753875D02*
Y755875D01*
X749688Y754875D02*
X751687D01*
X750687Y753875D02*
Y755875D01*
X761562Y754875D02*
X763562D01*
X762562Y753875D02*
Y755875D01*
X737812Y748812D02*
X739812D01*
X738812Y747812D02*
Y749812D01*
X743750Y748812D02*
X745750D01*
X744750Y747812D02*
Y749812D01*
X749688Y748812D02*
X751687D01*
X750687Y747812D02*
Y749812D01*
X761562Y748812D02*
X763562D01*
X762562Y747812D02*
Y749812D01*
X743750Y760938D02*
X745750D01*
X744750Y759938D02*
Y761937D01*
X749688Y760938D02*
X751687D01*
X750687Y759938D02*
Y761937D01*
X761562Y760938D02*
X763562D01*
X762562Y759938D02*
Y761937D01*
X743750Y767000D02*
X745750D01*
X744750Y766000D02*
Y768000D01*
X749688Y767000D02*
X751687D01*
X750687Y766000D02*
Y768000D01*
X761562Y767000D02*
X763562D01*
X762562Y766000D02*
Y768000D01*
X761562Y773063D02*
X763562D01*
X762562Y772063D02*
Y774062D01*
X749688Y773063D02*
X751687D01*
X750687Y772063D02*
Y774062D01*
X743750Y773063D02*
X745750D01*
X744750Y772063D02*
Y774062D01*
X737812Y773063D02*
X739812D01*
X738812Y772063D02*
Y774062D01*
X727750Y801250D02*
X729750D01*
X728750Y800250D02*
Y802250D01*
X772250Y801500D02*
X774250D01*
X773250Y800500D02*
Y802500D01*
X704550Y765250D02*
X706550D01*
X705550Y764250D02*
Y766250D01*
X673750Y721750D02*
X675750D01*
X674750Y720750D02*
Y722750D01*
X655870Y731760D02*
X657870D01*
X656870Y730760D02*
Y732760D01*
X655870Y798760D02*
X657870D01*
X656870Y797760D02*
Y799760D01*
X673500Y808250D02*
X675500D01*
X674500Y807250D02*
Y809250D01*
X686500Y865750D02*
X688500D01*
X687500Y864750D02*
Y866750D01*
X689500Y1048250D02*
X691500D01*
X690500Y1047250D02*
Y1049250D01*
X772500Y866250D02*
X774500D01*
X773500Y865250D02*
Y867250D01*
X808483Y901000D02*
X810482D01*
X809482Y900000D02*
Y902000D01*
X824000Y977500D02*
X826000D01*
X825000Y976500D02*
Y978500D01*
X807732Y1024500D02*
X809732D01*
X808732Y1023500D02*
Y1025500D01*
X864733Y1025250D02*
X866732D01*
X865732Y1024250D02*
Y1026250D01*
X849733Y997250D02*
X851732D01*
X850732Y996250D02*
Y998250D01*
X849733Y983000D02*
X851732D01*
X850732Y982000D02*
Y984000D01*
X849750Y955000D02*
X851750D01*
X850750Y954000D02*
Y956000D01*
X824000Y949750D02*
X826000D01*
X825000Y948750D02*
Y950750D01*
X849750Y969000D02*
X851750D01*
X850750Y968000D02*
Y970000D01*
X849733Y941000D02*
X851732D01*
X850732Y940000D02*
Y942000D01*
X849733Y927000D02*
X851732D01*
X850732Y926000D02*
Y928000D01*
X901250Y868750D02*
X903250D01*
X902250Y867750D02*
Y869750D01*
X940983Y878000D02*
X942982D01*
X941982Y877000D02*
Y879000D01*
X918982Y895000D02*
X920983D01*
X919983Y894000D02*
Y896000D01*
X973000Y903500D02*
X975000D01*
X974000Y902500D02*
Y904500D01*
X915750Y835250D02*
X917750D01*
X916750Y834250D02*
Y836250D01*
X833000Y791000D02*
X835000D01*
X834000Y790000D02*
Y792000D01*
X833000Y815000D02*
X835000D01*
X834000Y814000D02*
Y816000D01*
M02*
