G04*
G04 #@! TF.GenerationSoftware,Altium Limited,Altium Designer,20.0.12 (288)*
G04*
G04 Layer_Physical_Order=2*
G04 Layer_Color=8865052*
%FSLAX44Y44*%
%MOMM*%
G71*
G01*
G75*
%ADD12C,0.2540*%
%ADD78C,5.0000*%
%ADD79R,1.5000X1.5000*%
%ADD80C,1.5000*%
%ADD81O,5.0000X2.4000*%
%ADD82O,2.4000X5.0000*%
%ADD83R,1.3980X1.3980*%
%ADD84C,1.3980*%
%ADD85C,1.5300*%
%ADD86C,2.4450*%
%ADD87C,3.2500*%
%ADD88C,0.6500*%
%ADD89O,2.0000X1.0000*%
%ADD90O,1.8000X0.9000*%
%ADD91C,0.4000*%
G36*
X1428277Y1081836D02*
X1433191Y1080519D01*
X1437892Y1078572D01*
X1442298Y1076028D01*
X1446334Y1072931D01*
X1449932Y1069333D01*
X1453029Y1065297D01*
X1455573Y1060891D01*
X1457520Y1056190D01*
X1458836Y1051276D01*
X1459500Y1046232D01*
X1459500Y1043688D01*
X1459500D01*
X1459500Y1043688D01*
X1459500Y579405D01*
X1459500Y576806D01*
X1458822Y571652D01*
X1457476Y566631D01*
X1455487Y561828D01*
X1452888Y557326D01*
X1449723Y553202D01*
X1446048Y549526D01*
X1441923Y546362D01*
X1437422Y543763D01*
X1432619Y541773D01*
X1427598Y540428D01*
X1422444Y539750D01*
X1419845Y539750D01*
X633273D01*
X630649Y539750D01*
X625448Y540435D01*
X620380Y541792D01*
X615533Y543800D01*
X610989Y546423D01*
X606827Y549617D01*
X603117Y553327D01*
X599924Y557489D01*
X597300Y562033D01*
X595293Y566880D01*
X593935Y571947D01*
X593250Y577149D01*
X593250Y579772D01*
Y1041622D01*
X593366Y1044530D01*
X594363Y1050265D01*
X596109Y1055818D01*
X598573Y1061093D01*
X601712Y1065995D01*
X605471Y1070440D01*
X609784Y1074350D01*
X614575Y1077655D01*
X617168Y1078977D01*
X618807Y1079577D01*
X622138Y1080620D01*
X625516Y1081502D01*
X628931Y1082221D01*
X630654Y1082498D01*
X630654Y1082499D01*
X1420689Y1082500D01*
X1423233Y1082500D01*
X1428277Y1081836D01*
D02*
G37*
%LPC*%
G36*
X691770Y1052626D02*
Y1049520D01*
X694876D01*
X694777Y1050021D01*
X693773Y1051523D01*
X692271Y1052527D01*
X691770Y1052626D01*
D02*
G37*
G36*
X689230D02*
X688729Y1052527D01*
X687227Y1051523D01*
X686223Y1050021D01*
X686124Y1049520D01*
X689230D01*
Y1052626D01*
D02*
G37*
G36*
X694876Y1046980D02*
X691770D01*
Y1043874D01*
X692271Y1043973D01*
X693773Y1044977D01*
X694777Y1046479D01*
X694876Y1046980D01*
D02*
G37*
G36*
X689230D02*
X686124D01*
X686223Y1046479D01*
X687227Y1044977D01*
X688729Y1043973D01*
X689230Y1043874D01*
Y1046980D01*
D02*
G37*
G36*
X955752Y1044126D02*
Y1041020D01*
X958859D01*
X958759Y1041521D01*
X957756Y1043023D01*
X956254Y1044027D01*
X955752Y1044126D01*
D02*
G37*
G36*
X953213D02*
X952711Y1044027D01*
X951209Y1043023D01*
X950206Y1041521D01*
X950106Y1041020D01*
X953213D01*
Y1044126D01*
D02*
G37*
G36*
X914003D02*
Y1041020D01*
X917109D01*
X917009Y1041521D01*
X916006Y1043023D01*
X914504Y1044027D01*
X914003Y1044126D01*
D02*
G37*
G36*
X911462D02*
X910961Y1044027D01*
X909459Y1043023D01*
X908456Y1041521D01*
X908356Y1041020D01*
X911462D01*
Y1044126D01*
D02*
G37*
G36*
X958859Y1038480D02*
X955752D01*
Y1035374D01*
X956254Y1035473D01*
X957756Y1036477D01*
X958759Y1037979D01*
X958859Y1038480D01*
D02*
G37*
G36*
X953213D02*
X950106D01*
X950206Y1037979D01*
X951209Y1036477D01*
X952711Y1035473D01*
X953213Y1035374D01*
Y1038480D01*
D02*
G37*
G36*
X917109D02*
X914003D01*
Y1035374D01*
X914504Y1035473D01*
X916006Y1036477D01*
X917009Y1037979D01*
X917109Y1038480D01*
D02*
G37*
G36*
X911462D02*
X908356D01*
X908456Y1037979D01*
X909459Y1036477D01*
X910961Y1035473D01*
X911462Y1035374D01*
Y1038480D01*
D02*
G37*
G36*
X867002Y1029626D02*
Y1026520D01*
X870109D01*
X870009Y1027021D01*
X869006Y1028523D01*
X867504Y1029527D01*
X867002Y1029626D01*
D02*
G37*
G36*
X864463D02*
X863961Y1029527D01*
X862459Y1028523D01*
X861456Y1027021D01*
X861356Y1026520D01*
X864463D01*
Y1029626D01*
D02*
G37*
G36*
X810002Y1028876D02*
Y1025770D01*
X813109D01*
X813009Y1026272D01*
X812006Y1027773D01*
X810504Y1028777D01*
X810002Y1028876D01*
D02*
G37*
G36*
X807462D02*
X806961Y1028777D01*
X805459Y1027773D01*
X804456Y1026272D01*
X804356Y1025770D01*
X807462D01*
Y1028876D01*
D02*
G37*
G36*
X870109Y1023980D02*
X867002D01*
Y1020874D01*
X867504Y1020973D01*
X869006Y1021977D01*
X870009Y1023479D01*
X870109Y1023980D01*
D02*
G37*
G36*
X864463D02*
X861356D01*
X861456Y1023479D01*
X862459Y1021977D01*
X863961Y1020973D01*
X864463Y1020874D01*
Y1023980D01*
D02*
G37*
G36*
X721976Y1048193D02*
X718393Y1047722D01*
X715054Y1046339D01*
X712187Y1044139D01*
X709987Y1041272D01*
X708604Y1037933D01*
X708132Y1034350D01*
X708604Y1030767D01*
X709987Y1027428D01*
X712187Y1024561D01*
X715054Y1022361D01*
X718393Y1020978D01*
X721976Y1020507D01*
X725559Y1020978D01*
X728897Y1022361D01*
X731765Y1024561D01*
X733964Y1027428D01*
X735347Y1030767D01*
X735819Y1034350D01*
X735347Y1037933D01*
X733964Y1041272D01*
X731765Y1044139D01*
X728897Y1046339D01*
X725559Y1047722D01*
X721976Y1048193D01*
D02*
G37*
G36*
X813109Y1023230D02*
X810002D01*
Y1020124D01*
X810504Y1020223D01*
X812006Y1021227D01*
X813009Y1022729D01*
X813109Y1023230D01*
D02*
G37*
G36*
X807462D02*
X804356D01*
X804456Y1022729D01*
X805459Y1021227D01*
X806961Y1020223D01*
X807462Y1020124D01*
Y1023230D01*
D02*
G37*
G36*
X1421250Y1071332D02*
X1417092Y1071005D01*
X1413036Y1070031D01*
X1409182Y1068435D01*
X1405625Y1066255D01*
X1402454Y1063546D01*
X1399745Y1060375D01*
X1397565Y1056818D01*
X1395969Y1052964D01*
X1394995Y1048908D01*
X1394668Y1044750D01*
X1394995Y1040592D01*
X1395969Y1036536D01*
X1397565Y1032682D01*
X1399745Y1029126D01*
X1402454Y1025954D01*
X1405625Y1023245D01*
X1409182Y1021065D01*
X1413036Y1019469D01*
X1417092Y1018495D01*
X1421250Y1018168D01*
X1425408Y1018495D01*
X1429464Y1019469D01*
X1433318Y1021065D01*
X1436875Y1023245D01*
X1440046Y1025954D01*
X1442755Y1029126D01*
X1444935Y1032682D01*
X1446531Y1036536D01*
X1447505Y1040592D01*
X1447832Y1044750D01*
X1447505Y1048908D01*
X1446531Y1052964D01*
X1444935Y1056818D01*
X1442755Y1060375D01*
X1440046Y1063546D01*
X1436875Y1066255D01*
X1433318Y1068435D01*
X1429464Y1070031D01*
X1425408Y1071005D01*
X1421250Y1071332D01*
D02*
G37*
G36*
X995250D02*
X991092Y1071005D01*
X987036Y1070031D01*
X983182Y1068435D01*
X979625Y1066255D01*
X976454Y1063546D01*
X973745Y1060375D01*
X971565Y1056818D01*
X969969Y1052964D01*
X968995Y1048908D01*
X968668Y1044750D01*
X968995Y1040592D01*
X969969Y1036536D01*
X971565Y1032682D01*
X973745Y1029126D01*
X976454Y1025954D01*
X979625Y1023245D01*
X983182Y1021065D01*
X987036Y1019469D01*
X991092Y1018495D01*
X995250Y1018168D01*
X999408Y1018495D01*
X1003464Y1019469D01*
X1007318Y1021065D01*
X1010874Y1023245D01*
X1014046Y1025954D01*
X1016755Y1029126D01*
X1018935Y1032682D01*
X1020531Y1036536D01*
X1021505Y1040592D01*
X1021832Y1044750D01*
X1021505Y1048908D01*
X1020531Y1052964D01*
X1018935Y1056818D01*
X1016755Y1060375D01*
X1014046Y1063546D01*
X1010874Y1066255D01*
X1007318Y1068435D01*
X1003464Y1070031D01*
X999408Y1071005D01*
X995250Y1071332D01*
D02*
G37*
G36*
X852002Y1001626D02*
Y998520D01*
X855109D01*
X855009Y999021D01*
X854006Y1000523D01*
X852504Y1001527D01*
X852002Y1001626D01*
D02*
G37*
G36*
X849463D02*
X848961Y1001527D01*
X847459Y1000523D01*
X846456Y999021D01*
X846356Y998520D01*
X849463D01*
Y1001626D01*
D02*
G37*
G36*
X691476Y1031886D02*
X687996Y1031543D01*
X684650Y1030528D01*
X681567Y1028880D01*
X678864Y1026662D01*
X676646Y1023959D01*
X674997Y1020875D01*
X673983Y1017530D01*
X673640Y1014050D01*
X673983Y1010570D01*
X674997Y1007225D01*
X676646Y1004141D01*
X678864Y1001438D01*
X681567Y999220D01*
X684650Y997572D01*
X687996Y996557D01*
X691476Y996214D01*
X694955Y996557D01*
X698301Y997572D01*
X701385Y999220D01*
X704088Y1001438D01*
X706306Y1004141D01*
X707954Y1007225D01*
X708969Y1010570D01*
X709312Y1014050D01*
X708969Y1017530D01*
X707954Y1020875D01*
X706306Y1023959D01*
X704088Y1026662D01*
X701385Y1028880D01*
X698301Y1030528D01*
X694955Y1031543D01*
X691476Y1031886D01*
D02*
G37*
G36*
X763466Y1009890D02*
X746486D01*
Y992910D01*
X763466D01*
Y1009890D01*
D02*
G37*
G36*
X855109Y995980D02*
X852002D01*
Y992874D01*
X852504Y992973D01*
X854006Y993977D01*
X855009Y995479D01*
X855109Y995980D01*
D02*
G37*
G36*
X849463D02*
X846356D01*
X846456Y995479D01*
X847459Y993977D01*
X848961Y992973D01*
X849463Y992874D01*
Y995980D01*
D02*
G37*
G36*
X1433860Y997629D02*
X1432494Y997357D01*
X1431337Y996583D01*
X1430563Y995426D01*
X1430291Y994060D01*
X1430563Y992694D01*
X1431337Y991537D01*
X1432494Y990763D01*
X1433860Y990491D01*
X1435226Y990763D01*
X1436383Y991537D01*
X1437157Y992694D01*
X1437429Y994060D01*
X1437157Y995426D01*
X1436383Y996583D01*
X1435226Y997357D01*
X1433860Y997629D01*
D02*
G37*
G36*
X926732Y1043319D02*
X925367Y1043047D01*
X924209Y1042273D01*
X923436Y1041116D01*
X923164Y1039750D01*
X923436Y1038384D01*
X923908Y1037677D01*
Y990595D01*
X922638Y989853D01*
X922520Y989876D01*
Y985500D01*
Y981124D01*
X922638Y981147D01*
X923908Y980405D01*
Y942611D01*
X918411Y937114D01*
X872827D01*
X872827Y937114D01*
X871746Y936899D01*
X870829Y936287D01*
X870829Y936287D01*
X861463Y926920D01*
X860851Y926004D01*
X860636Y924923D01*
X860636Y924923D01*
Y889002D01*
X859708Y888074D01*
X852805D01*
X852098Y888547D01*
X850732Y888819D01*
X849367Y888547D01*
X848209Y887773D01*
X847436Y886616D01*
X847164Y885250D01*
X847298Y884574D01*
X846412Y883304D01*
X789560D01*
X788614Y884250D01*
Y892991D01*
X788399Y894072D01*
X787787Y894988D01*
X787787Y894988D01*
X782028Y900747D01*
X781112Y901359D01*
X780031Y901574D01*
X780031Y901574D01*
X713748D01*
Y908778D01*
X713748Y908778D01*
X713533Y909858D01*
X712921Y910775D01*
X712921Y910775D01*
X702542Y921154D01*
X701625Y921766D01*
X700545Y921981D01*
X700545Y921981D01*
X669013D01*
X666074Y924920D01*
Y1019942D01*
X665859Y1021023D01*
X665247Y1021939D01*
X665247Y1021939D01*
X661689Y1025497D01*
X660773Y1026109D01*
X659692Y1026324D01*
X659692Y1026324D01*
X651065D01*
X650468Y1027765D01*
X649002Y1029676D01*
X647090Y1031143D01*
X644864Y1032065D01*
X642476Y1032379D01*
X640087Y1032065D01*
X637861Y1031143D01*
X635950Y1029676D01*
X634483Y1027765D01*
X633561Y1025539D01*
X633247Y1023150D01*
X633561Y1020761D01*
X634483Y1018536D01*
X635950Y1016624D01*
X637861Y1015157D01*
X640087Y1014236D01*
X642476Y1013921D01*
X644864Y1014236D01*
X647090Y1015157D01*
X649002Y1016624D01*
X650468Y1018536D01*
X651355Y1020676D01*
X658522D01*
X660426Y1018772D01*
Y923750D01*
X660426Y923750D01*
X660641Y922669D01*
X661253Y921753D01*
X665846Y917160D01*
X665846Y917160D01*
X666762Y916548D01*
X667843Y916333D01*
X667843Y916333D01*
X682152D01*
X682470Y915063D01*
X681567Y914580D01*
X678864Y912362D01*
X676646Y909659D01*
X674997Y906575D01*
X673983Y903230D01*
X673640Y899750D01*
X673983Y896270D01*
X674997Y892924D01*
X675723Y891567D01*
X674692Y890802D01*
X672847Y892647D01*
X671931Y893259D01*
X670850Y893474D01*
X670850Y893474D01*
X651210D01*
X650468Y895265D01*
X649002Y897176D01*
X647090Y898643D01*
X644864Y899564D01*
X642476Y899879D01*
X640087Y899564D01*
X637861Y898643D01*
X635950Y897176D01*
X634483Y895265D01*
X633561Y893039D01*
X633247Y890650D01*
X633561Y888261D01*
X634483Y886036D01*
X635950Y884124D01*
X637861Y882657D01*
X640087Y881736D01*
X642476Y881421D01*
X644864Y881736D01*
X647090Y882657D01*
X649002Y884124D01*
X650468Y886036D01*
X651210Y887826D01*
X669680D01*
X679702Y877804D01*
X680618Y877192D01*
X681699Y876977D01*
X681699Y876977D01*
X700967D01*
X702048Y877192D01*
X702964Y877804D01*
X702997Y877771D01*
X702997Y877771D01*
X703846Y878708D01*
X707248Y882462D01*
X708455Y881903D01*
X708132Y879450D01*
X708604Y875867D01*
X709987Y872528D01*
X712187Y869661D01*
X715054Y867461D01*
X718393Y866078D01*
X721976Y865607D01*
X725559Y866078D01*
X728897Y867461D01*
X731765Y869661D01*
X733964Y872528D01*
X735347Y875867D01*
X735819Y879450D01*
X735347Y883033D01*
X733964Y886372D01*
X731765Y889239D01*
X730315Y890351D01*
X730747Y891621D01*
X777453D01*
X778926Y890148D01*
Y881407D01*
X778926Y881407D01*
X779141Y880326D01*
X779753Y879410D01*
X784720Y874443D01*
X784720Y874443D01*
X785636Y873831D01*
X786717Y873616D01*
X863746D01*
X863746Y873616D01*
X864827Y873831D01*
X865744Y874443D01*
X873537Y882236D01*
X873537Y882236D01*
X874149Y883153D01*
X874364Y884233D01*
X874364Y884234D01*
Y893463D01*
X875040Y894018D01*
Y899000D01*
Y903982D01*
X874364Y904537D01*
Y919870D01*
X876420Y921926D01*
X902076D01*
X902361Y921736D01*
X903442Y921521D01*
X903442Y921521D01*
X913127D01*
X913127Y921521D01*
X914208Y921736D01*
X915124Y922348D01*
X916321Y923545D01*
X917116Y923703D01*
X918273Y924477D01*
X919047Y925634D01*
X919319Y927000D01*
X919047Y928366D01*
X918273Y929523D01*
X918031Y931213D01*
X918239Y931466D01*
X919581D01*
X919581Y931466D01*
X920662Y931681D01*
X921578Y932293D01*
X928729Y939444D01*
X928730Y939444D01*
X929342Y940360D01*
X929557Y941441D01*
Y1037677D01*
X930029Y1038384D01*
X930301Y1039750D01*
X930029Y1041116D01*
X929256Y1042273D01*
X928098Y1043047D01*
X926732Y1043319D01*
D02*
G37*
G36*
X642476Y1006979D02*
X640087Y1006665D01*
X637861Y1005742D01*
X635950Y1004276D01*
X634483Y1002365D01*
X633561Y1000139D01*
X633247Y997750D01*
X633561Y995361D01*
X634483Y993136D01*
X635950Y991224D01*
X637861Y989758D01*
X640087Y988836D01*
X642476Y988521D01*
X644864Y988836D01*
X647090Y989758D01*
X649002Y991224D01*
X650468Y993136D01*
X651390Y995361D01*
X651705Y997750D01*
X651390Y1000139D01*
X650468Y1002365D01*
X649002Y1004276D01*
X647090Y1005742D01*
X644864Y1006665D01*
X642476Y1006979D01*
D02*
G37*
G36*
X952520Y990126D02*
Y987020D01*
X955626D01*
X955527Y987521D01*
X954523Y989023D01*
X953021Y990027D01*
X952520Y990126D01*
D02*
G37*
G36*
X949980D02*
X949479Y990027D01*
X947977Y989023D01*
X946973Y987521D01*
X946874Y987020D01*
X949980D01*
Y990126D01*
D02*
G37*
G36*
X919980Y989876D02*
X919479Y989777D01*
X917977Y988773D01*
X916973Y987271D01*
X916874Y986770D01*
X919980D01*
Y989876D01*
D02*
G37*
G36*
X964270Y988376D02*
Y985270D01*
X967376D01*
X967277Y985771D01*
X966273Y987273D01*
X964771Y988277D01*
X964270Y988376D01*
D02*
G37*
G36*
X961730D02*
X961229Y988277D01*
X959727Y987273D01*
X958723Y985771D01*
X958624Y985270D01*
X961730D01*
Y988376D01*
D02*
G37*
G36*
X852002Y987376D02*
Y984270D01*
X855109D01*
X855009Y984771D01*
X854006Y986273D01*
X852504Y987277D01*
X852002Y987376D01*
D02*
G37*
G36*
X849463D02*
X848961Y987277D01*
X847459Y986273D01*
X846456Y984771D01*
X846356Y984270D01*
X849463D01*
Y987376D01*
D02*
G37*
G36*
X955626Y984480D02*
X952520D01*
Y981374D01*
X953021Y981473D01*
X954523Y982477D01*
X955527Y983979D01*
X955626Y984480D01*
D02*
G37*
G36*
X949980D02*
X946874D01*
X946973Y983979D01*
X947977Y982477D01*
X949479Y981473D01*
X949980Y981374D01*
Y984480D01*
D02*
G37*
G36*
X919980Y984230D02*
X916874D01*
X916973Y983729D01*
X917977Y982227D01*
X919479Y981223D01*
X919980Y981124D01*
Y984230D01*
D02*
G37*
G36*
X905520Y983376D02*
Y980270D01*
X908626D01*
X908527Y980771D01*
X907523Y982273D01*
X906021Y983277D01*
X905520Y983376D01*
D02*
G37*
G36*
X902980D02*
X902479Y983277D01*
X900977Y982273D01*
X899973Y980771D01*
X899874Y980270D01*
X902980D01*
Y983376D01*
D02*
G37*
G36*
X780376Y997263D02*
X778159Y996972D01*
X776094Y996116D01*
X774321Y994755D01*
X772960Y992982D01*
X772104Y990916D01*
X771813Y988700D01*
X772104Y986484D01*
X772960Y984418D01*
X774321Y982645D01*
X776094Y981284D01*
X778159Y980428D01*
X780376Y980137D01*
X782592Y980428D01*
X784657Y981284D01*
X786431Y982645D01*
X787792Y984418D01*
X788647Y986484D01*
X788939Y988700D01*
X788647Y990916D01*
X787792Y992982D01*
X786431Y994755D01*
X784657Y996116D01*
X782592Y996972D01*
X780376Y997263D01*
D02*
G37*
G36*
X967376Y982730D02*
X964270D01*
Y979624D01*
X964771Y979723D01*
X966273Y980727D01*
X967277Y982229D01*
X967376Y982730D01*
D02*
G37*
G36*
X961730D02*
X958624D01*
X958723Y982229D01*
X959727Y980727D01*
X961229Y979723D01*
X961730Y979624D01*
Y982730D01*
D02*
G37*
G36*
X826270Y981876D02*
Y978770D01*
X829376D01*
X829277Y979271D01*
X828273Y980773D01*
X826771Y981777D01*
X826270Y981876D01*
D02*
G37*
G36*
X823730D02*
X823229Y981777D01*
X821727Y980773D01*
X820723Y979271D01*
X820624Y978770D01*
X823730D01*
Y981876D01*
D02*
G37*
G36*
X855109Y981730D02*
X852002D01*
Y978624D01*
X852504Y978723D01*
X854006Y979727D01*
X855009Y981229D01*
X855109Y981730D01*
D02*
G37*
G36*
X849463D02*
X846356D01*
X846456Y981229D01*
X847459Y979727D01*
X848961Y978723D01*
X849463Y978624D01*
Y981730D01*
D02*
G37*
G36*
X829376Y976230D02*
X826270D01*
Y973124D01*
X826771Y973223D01*
X828273Y974227D01*
X829277Y975729D01*
X829376Y976230D01*
D02*
G37*
G36*
X823730D02*
X820624D01*
X820723Y975729D01*
X821727Y974227D01*
X823229Y973223D01*
X823730Y973124D01*
Y976230D01*
D02*
G37*
G36*
X852020Y973376D02*
Y970270D01*
X855126D01*
X855027Y970771D01*
X854023Y972273D01*
X852521Y973277D01*
X852020Y973376D01*
D02*
G37*
G36*
X849480D02*
X848979Y973277D01*
X847477Y972273D01*
X846473Y970771D01*
X846374Y970270D01*
X849480D01*
Y973376D01*
D02*
G37*
G36*
X908626Y977730D02*
X899874D01*
X899973Y977229D01*
X900977Y975727D01*
X902479Y974723D01*
X903288Y974563D01*
Y973268D01*
X902176Y973046D01*
X900674Y972043D01*
X899671Y970541D01*
X899571Y970040D01*
X908324D01*
X908224Y970541D01*
X907221Y972043D01*
X905719Y973046D01*
X904910Y973207D01*
Y974502D01*
X906021Y974723D01*
X907523Y975727D01*
X908527Y977229D01*
X908626Y977730D01*
D02*
G37*
G36*
X754976Y984563D02*
X752759Y984271D01*
X750694Y983416D01*
X748921Y982055D01*
X747560Y980282D01*
X746704Y978216D01*
X746413Y976000D01*
X746704Y973784D01*
X747560Y971718D01*
X748921Y969945D01*
X750694Y968584D01*
X752759Y967729D01*
X754976Y967437D01*
X757192Y967729D01*
X759257Y968584D01*
X761031Y969945D01*
X762392Y971718D01*
X763247Y973784D01*
X763539Y976000D01*
X763247Y978216D01*
X762392Y980282D01*
X761031Y982055D01*
X759257Y983416D01*
X757192Y984271D01*
X754976Y984563D01*
D02*
G37*
G36*
X855126Y967730D02*
X852020D01*
Y964624D01*
X852521Y964723D01*
X854023Y965727D01*
X855027Y967229D01*
X855126Y967730D01*
D02*
G37*
G36*
X849480D02*
X846374D01*
X846473Y967229D01*
X847477Y965727D01*
X848979Y964723D01*
X849480Y964624D01*
Y967730D01*
D02*
G37*
G36*
X908324Y967500D02*
X905218D01*
Y964394D01*
X905719Y964493D01*
X907221Y965497D01*
X908224Y966999D01*
X908324Y967500D01*
D02*
G37*
G36*
X902678D02*
X899571D01*
X899671Y966999D01*
X900674Y965497D01*
X902176Y964493D01*
X902678Y964394D01*
Y967500D01*
D02*
G37*
G36*
X1024252Y966626D02*
Y963520D01*
X1027359D01*
X1027259Y964021D01*
X1026256Y965523D01*
X1024754Y966527D01*
X1024252Y966626D01*
D02*
G37*
G36*
X1021712D02*
X1021211Y966527D01*
X1019709Y965523D01*
X1018706Y964021D01*
X1018606Y963520D01*
X1021712D01*
Y966626D01*
D02*
G37*
G36*
X1027359Y960980D02*
X1024252D01*
Y957874D01*
X1024754Y957973D01*
X1026256Y958977D01*
X1027259Y960479D01*
X1027359Y960980D01*
D02*
G37*
G36*
X1021712D02*
X1018606D01*
X1018706Y960479D01*
X1019709Y958977D01*
X1021211Y957973D01*
X1021712Y957874D01*
Y960980D01*
D02*
G37*
G36*
X852020Y959376D02*
Y956270D01*
X855126D01*
X855027Y956771D01*
X854023Y958273D01*
X852521Y959277D01*
X852020Y959376D01*
D02*
G37*
G36*
X849480D02*
X848979Y959277D01*
X847477Y958273D01*
X846473Y956771D01*
X846374Y956270D01*
X849480D01*
Y959376D01*
D02*
G37*
G36*
X905770Y958126D02*
Y955020D01*
X908876D01*
X908777Y955521D01*
X907773Y957023D01*
X906271Y958027D01*
X905770Y958126D01*
D02*
G37*
G36*
X903230D02*
X902729Y958027D01*
X901227Y957023D01*
X900223Y955521D01*
X900124Y955020D01*
X903230D01*
Y958126D01*
D02*
G37*
G36*
X780376Y971863D02*
X778159Y971572D01*
X776094Y970716D01*
X774321Y969355D01*
X772960Y967582D01*
X772104Y965516D01*
X771813Y963300D01*
X772104Y961084D01*
X772960Y959018D01*
X774321Y957245D01*
X776094Y955884D01*
X778159Y955029D01*
X780376Y954737D01*
X782592Y955029D01*
X784657Y955884D01*
X786431Y957245D01*
X787792Y959018D01*
X788647Y961084D01*
X788939Y963300D01*
X788647Y965516D01*
X787792Y967582D01*
X786431Y969355D01*
X784657Y970716D01*
X782592Y971572D01*
X780376Y971863D01*
D02*
G37*
G36*
X826270Y954126D02*
Y951020D01*
X829376D01*
X829277Y951521D01*
X828273Y953023D01*
X826771Y954027D01*
X826270Y954126D01*
D02*
G37*
G36*
X823730D02*
X823229Y954027D01*
X821727Y953023D01*
X820723Y951521D01*
X820624Y951020D01*
X823730D01*
Y954126D01*
D02*
G37*
G36*
X855126Y953730D02*
X852020D01*
Y950624D01*
X852521Y950723D01*
X854023Y951727D01*
X855027Y953229D01*
X855126Y953730D01*
D02*
G37*
G36*
X849480D02*
X846374D01*
X846473Y953229D01*
X847477Y951727D01*
X848979Y950723D01*
X849480Y950624D01*
Y953730D01*
D02*
G37*
G36*
X1024252Y952876D02*
Y949770D01*
X1027359D01*
X1027259Y950271D01*
X1026256Y951773D01*
X1024754Y952777D01*
X1024252Y952876D01*
D02*
G37*
G36*
X1021712D02*
X1021211Y952777D01*
X1019709Y951773D01*
X1018706Y950271D01*
X1018606Y949770D01*
X1021712D01*
Y952876D01*
D02*
G37*
G36*
X908876Y952480D02*
X905770D01*
Y949374D01*
X906271Y949473D01*
X907773Y950477D01*
X908777Y951979D01*
X908876Y952480D01*
D02*
G37*
G36*
X903230D02*
X900124D01*
X900223Y951979D01*
X901227Y950477D01*
X902729Y949473D01*
X903230Y949374D01*
Y952480D01*
D02*
G37*
G36*
X829376Y948480D02*
X826270D01*
Y945374D01*
X826771Y945473D01*
X828273Y946477D01*
X829277Y947979D01*
X829376Y948480D01*
D02*
G37*
G36*
X823730D02*
X820624D01*
X820723Y947979D01*
X821727Y946477D01*
X823229Y945473D01*
X823730Y945374D01*
Y948480D01*
D02*
G37*
G36*
X1027359Y947230D02*
X1024252D01*
Y944124D01*
X1024754Y944223D01*
X1026256Y945227D01*
X1027259Y946729D01*
X1027359Y947230D01*
D02*
G37*
G36*
X1021712D02*
X1018606D01*
X1018706Y946729D01*
X1019709Y945227D01*
X1021211Y944223D01*
X1021712Y944124D01*
Y947230D01*
D02*
G37*
G36*
X852002Y945376D02*
Y942270D01*
X855109D01*
X855009Y942771D01*
X854006Y944273D01*
X852504Y945277D01*
X852002Y945376D01*
D02*
G37*
G36*
X849463D02*
X848961Y945277D01*
X847459Y944273D01*
X846456Y942771D01*
X846356Y942270D01*
X849463D01*
Y945376D01*
D02*
G37*
G36*
X754976Y959163D02*
X752759Y958872D01*
X750694Y958016D01*
X748921Y956655D01*
X747560Y954882D01*
X746704Y952816D01*
X746413Y950600D01*
X746704Y948384D01*
X747560Y946318D01*
X748921Y944545D01*
X750694Y943184D01*
X752759Y942328D01*
X754976Y942037D01*
X757192Y942328D01*
X759257Y943184D01*
X761031Y944545D01*
X762392Y946318D01*
X763247Y948384D01*
X763539Y950600D01*
X763247Y952816D01*
X762392Y954882D01*
X761031Y956655D01*
X759257Y958016D01*
X757192Y958872D01*
X754976Y959163D01*
D02*
G37*
G36*
X855109Y939730D02*
X852002D01*
Y936624D01*
X852504Y936723D01*
X854006Y937727D01*
X855009Y939229D01*
X855109Y939730D01*
D02*
G37*
G36*
X849463D02*
X846356D01*
X846456Y939229D01*
X847459Y937727D01*
X848961Y936723D01*
X849463Y936624D01*
Y939730D01*
D02*
G37*
G36*
X1024252Y938876D02*
Y935770D01*
X1027359D01*
X1027259Y936271D01*
X1026256Y937773D01*
X1024754Y938777D01*
X1024252Y938876D01*
D02*
G37*
G36*
X1021712D02*
X1021211Y938777D01*
X1019709Y937773D01*
X1018706Y936271D01*
X1018606Y935770D01*
X1021712D01*
Y938876D01*
D02*
G37*
G36*
X1027359Y933230D02*
X1024252D01*
Y930124D01*
X1024754Y930223D01*
X1026256Y931227D01*
X1027259Y932729D01*
X1027359Y933230D01*
D02*
G37*
G36*
X1021712D02*
X1018606D01*
X1018706Y932729D01*
X1019709Y931227D01*
X1021211Y930223D01*
X1021712Y930124D01*
Y933230D01*
D02*
G37*
G36*
X780376Y946463D02*
X778159Y946171D01*
X776094Y945316D01*
X774321Y943955D01*
X772960Y942182D01*
X772104Y940116D01*
X771813Y937900D01*
X772104Y935684D01*
X772960Y933618D01*
X774321Y931845D01*
X776094Y930484D01*
X778159Y929629D01*
X780376Y929337D01*
X782592Y929629D01*
X784657Y930484D01*
X786431Y931845D01*
X787792Y933618D01*
X788647Y935684D01*
X788939Y937900D01*
X788647Y940116D01*
X787792Y942182D01*
X786431Y943955D01*
X784657Y945316D01*
X782592Y946171D01*
X780376Y946463D01*
D02*
G37*
G36*
X927520Y931626D02*
Y928520D01*
X930626D01*
X930527Y929021D01*
X929523Y930523D01*
X928021Y931527D01*
X927520Y931626D01*
D02*
G37*
G36*
X924980D02*
X924479Y931527D01*
X922977Y930523D01*
X921973Y929021D01*
X921874Y928520D01*
X924980D01*
Y931626D01*
D02*
G37*
G36*
X852002Y931376D02*
Y928270D01*
X855109D01*
X855009Y928771D01*
X854006Y930273D01*
X852504Y931277D01*
X852002Y931376D01*
D02*
G37*
G36*
X849463D02*
X848961Y931277D01*
X847459Y930273D01*
X846456Y928771D01*
X846356Y928270D01*
X849463D01*
Y931376D01*
D02*
G37*
G36*
X930626Y925980D02*
X927520D01*
Y922874D01*
X928021Y922973D01*
X929523Y923977D01*
X930527Y925479D01*
X930626Y925980D01*
D02*
G37*
G36*
X924980D02*
X921874D01*
X921973Y925479D01*
X922977Y923977D01*
X924479Y922973D01*
X924980Y922874D01*
Y925980D01*
D02*
G37*
G36*
X855109Y925730D02*
X852002D01*
Y922624D01*
X852504Y922723D01*
X854006Y923727D01*
X855009Y925229D01*
X855109Y925730D01*
D02*
G37*
G36*
X849463D02*
X846356D01*
X846456Y925229D01*
X847459Y923727D01*
X848961Y922723D01*
X849463Y922624D01*
Y925730D01*
D02*
G37*
G36*
X1024252Y924876D02*
Y921770D01*
X1027359D01*
X1027259Y922271D01*
X1026256Y923773D01*
X1024754Y924777D01*
X1024252Y924876D01*
D02*
G37*
G36*
X1021712D02*
X1021211Y924777D01*
X1019709Y923773D01*
X1018706Y922271D01*
X1018606Y921770D01*
X1021712D01*
Y924876D01*
D02*
G37*
G36*
X754976Y933763D02*
X752759Y933472D01*
X750694Y932616D01*
X748921Y931255D01*
X747560Y929482D01*
X746704Y927416D01*
X746413Y925200D01*
X746704Y922984D01*
X747560Y920918D01*
X748921Y919145D01*
X750694Y917784D01*
X752759Y916928D01*
X754976Y916637D01*
X757192Y916928D01*
X759257Y917784D01*
X761031Y919145D01*
X762392Y920918D01*
X763247Y922984D01*
X763539Y925200D01*
X763247Y927416D01*
X762392Y929482D01*
X761031Y931255D01*
X759257Y932616D01*
X757192Y933472D01*
X754976Y933763D01*
D02*
G37*
G36*
X1027359Y919230D02*
X1024252D01*
Y916124D01*
X1024754Y916223D01*
X1026256Y917227D01*
X1027259Y918729D01*
X1027359Y919230D01*
D02*
G37*
G36*
X1021712D02*
X1018606D01*
X1018706Y918729D01*
X1019709Y917227D01*
X1021211Y916223D01*
X1021712Y916124D01*
Y919230D01*
D02*
G37*
G36*
X1024252Y910876D02*
Y907770D01*
X1027359D01*
X1027259Y908271D01*
X1026256Y909773D01*
X1024754Y910777D01*
X1024252Y910876D01*
D02*
G37*
G36*
X1021712D02*
X1021211Y910777D01*
X1019709Y909773D01*
X1018706Y908271D01*
X1018606Y907770D01*
X1021712D01*
Y910876D01*
D02*
G37*
G36*
X642476Y925279D02*
X640087Y924964D01*
X637861Y924043D01*
X635950Y922576D01*
X634483Y920665D01*
X633561Y918439D01*
X633247Y916050D01*
X633561Y913661D01*
X634483Y911435D01*
X635950Y909524D01*
X637861Y908057D01*
X640087Y907135D01*
X642476Y906821D01*
X644864Y907135D01*
X647090Y908057D01*
X649002Y909524D01*
X650468Y911435D01*
X651390Y913661D01*
X651705Y916050D01*
X651390Y918439D01*
X650468Y920665D01*
X649002Y922576D01*
X647090Y924043D01*
X644864Y924964D01*
X642476Y925279D01*
D02*
G37*
G36*
X1409330Y908436D02*
Y905330D01*
X1412436D01*
X1412337Y905831D01*
X1411333Y907333D01*
X1409831Y908337D01*
X1409330Y908436D01*
D02*
G37*
G36*
X975270Y907876D02*
Y904770D01*
X978376D01*
X978277Y905271D01*
X977273Y906773D01*
X975771Y907777D01*
X975270Y907876D01*
D02*
G37*
G36*
X972730D02*
X972229Y907777D01*
X970727Y906773D01*
X969723Y905271D01*
X969624Y904770D01*
X972730D01*
Y907876D01*
D02*
G37*
G36*
X780376Y921063D02*
X778159Y920771D01*
X776094Y919916D01*
X774321Y918555D01*
X772960Y916782D01*
X772104Y914716D01*
X771813Y912500D01*
X772104Y910284D01*
X772960Y908218D01*
X774321Y906445D01*
X776094Y905084D01*
X778159Y904229D01*
X780376Y903937D01*
X782592Y904229D01*
X784657Y905084D01*
X786431Y906445D01*
X787792Y908218D01*
X788647Y910284D01*
X788939Y912500D01*
X788647Y914716D01*
X787792Y916782D01*
X786431Y918555D01*
X784657Y919916D01*
X782592Y920771D01*
X780376Y921063D01*
D02*
G37*
G36*
X810752Y905376D02*
Y902270D01*
X813859D01*
X813759Y902771D01*
X812756Y904273D01*
X811254Y905277D01*
X810752Y905376D01*
D02*
G37*
G36*
X808213D02*
X807711Y905277D01*
X806209Y904273D01*
X805206Y902771D01*
X805106Y902270D01*
X808213D01*
Y905376D01*
D02*
G37*
G36*
X1098520Y905376D02*
Y902270D01*
X1101626D01*
X1101527Y902771D01*
X1100523Y904273D01*
X1099021Y905277D01*
X1098520Y905376D01*
D02*
G37*
G36*
X1095980D02*
X1095479Y905277D01*
X1093977Y904273D01*
X1092973Y902771D01*
X1092874Y902270D01*
X1095980D01*
Y905376D01*
D02*
G37*
G36*
X1027359Y905230D02*
X1024252D01*
Y902124D01*
X1024754Y902223D01*
X1026256Y903227D01*
X1027259Y904729D01*
X1027359Y905230D01*
D02*
G37*
G36*
X1021712D02*
X1018606D01*
X1018706Y904729D01*
X1019709Y903227D01*
X1021211Y902223D01*
X1021712Y902124D01*
Y905230D01*
D02*
G37*
G36*
X877580Y903376D02*
Y900270D01*
X880686D01*
X880587Y900771D01*
X879583Y902273D01*
X878081Y903277D01*
X877580Y903376D01*
D02*
G37*
G36*
X1412436Y902790D02*
X1409330D01*
Y899684D01*
X1409831Y899783D01*
X1411333Y900787D01*
X1412337Y902289D01*
X1412436Y902790D01*
D02*
G37*
G36*
X978376Y902230D02*
X975270D01*
Y899124D01*
X975771Y899223D01*
X977273Y900227D01*
X978277Y901729D01*
X978376Y902230D01*
D02*
G37*
G36*
X972730D02*
X969624D01*
X969723Y901729D01*
X970727Y900227D01*
X972229Y899223D01*
X972730Y899124D01*
Y902230D01*
D02*
G37*
G36*
X1408060Y970129D02*
X1406694Y969857D01*
X1405537Y969083D01*
X1404763Y967926D01*
X1404491Y966560D01*
X1404763Y965194D01*
X1405236Y964487D01*
Y962230D01*
X1399580Y956574D01*
X1160333D01*
X1159252Y956359D01*
X1158336Y955747D01*
X1141857Y939268D01*
X1141244Y938352D01*
X1141029Y937271D01*
X1141029Y937271D01*
Y753671D01*
X1140767Y753278D01*
X1139543Y752055D01*
X1139202Y751987D01*
X1138044Y751213D01*
X1137271Y750055D01*
X1136999Y748690D01*
X1137271Y747324D01*
X1138044Y746166D01*
X1139202Y745393D01*
X1140568Y745121D01*
X1141933Y745393D01*
X1143091Y746166D01*
X1143999D01*
X1144316Y745692D01*
X1145474Y744919D01*
X1146839Y744647D01*
X1147839Y744846D01*
X1149109Y744112D01*
Y736076D01*
X1148357Y735324D01*
X1140750D01*
X1140750Y735324D01*
X1139669Y735109D01*
X1138753Y734497D01*
X1138753Y734497D01*
X1135253Y730997D01*
X1134641Y730081D01*
X1134426Y729000D01*
X1134426Y729000D01*
Y721695D01*
X1134426Y721695D01*
X1134641Y720614D01*
X1135131Y719881D01*
Y715363D01*
X1134658Y714656D01*
X1134386Y713290D01*
X1134658Y711924D01*
X1135213Y711094D01*
X1134798Y710002D01*
X1134650Y709824D01*
X1121693D01*
X1120074Y711443D01*
Y723449D01*
Y736582D01*
X1120980Y737273D01*
Y742000D01*
X1122250D01*
Y743270D01*
X1126626D01*
X1126527Y743771D01*
X1125523Y745273D01*
X1124021Y746277D01*
X1123473Y746386D01*
X1123429Y746417D01*
X1123120Y746869D01*
X1122753Y747824D01*
X1122903Y748579D01*
Y797923D01*
X1122903Y797923D01*
X1122688Y799004D01*
X1122076Y799920D01*
X1119499Y802497D01*
X1118583Y803109D01*
X1117502Y803324D01*
X1117502Y803324D01*
X1116323D01*
X1115616Y803797D01*
X1114250Y804069D01*
X1112884Y803797D01*
X1112594Y803603D01*
X1111324Y804282D01*
Y815051D01*
X1112594Y815730D01*
X1112979Y815473D01*
X1113480Y815374D01*
Y819750D01*
Y824126D01*
X1112979Y824027D01*
X1112594Y823770D01*
X1111324Y824449D01*
Y844117D01*
X1111359Y844169D01*
X1111574Y845250D01*
Y858080D01*
X1113670Y860176D01*
X1124750D01*
X1124750Y860176D01*
X1125831Y860391D01*
X1126747Y861003D01*
X1129022Y863278D01*
X1129134Y863203D01*
X1130500Y862931D01*
X1131866Y863203D01*
X1133023Y863977D01*
X1133797Y865134D01*
X1134069Y866500D01*
X1133797Y867866D01*
X1133023Y869023D01*
X1131866Y869797D01*
X1130500Y870069D01*
X1129134Y869797D01*
X1128427Y869324D01*
X1128250D01*
X1128250Y869324D01*
X1127971Y869269D01*
X1126527Y870022D01*
X1125523Y871523D01*
X1124021Y872527D01*
X1123520Y872626D01*
Y868250D01*
X1122250D01*
Y866980D01*
X1117774D01*
X1116999Y865824D01*
X1112500D01*
X1112500Y865824D01*
X1111419Y865609D01*
X1110503Y864997D01*
X1110503Y864997D01*
X1106753Y861247D01*
X1106141Y860331D01*
X1105926Y859250D01*
X1105926Y859250D01*
Y846133D01*
X1105891Y846081D01*
X1105676Y845000D01*
X1105676Y845000D01*
Y797170D01*
X1103580Y795074D01*
X1091888D01*
Y797227D01*
X1091888Y797227D01*
X1091673Y798307D01*
X1091060Y799224D01*
X1082840Y807445D01*
X1081923Y808057D01*
X1080842Y808272D01*
X1080842Y808272D01*
X1065734D01*
Y809052D01*
X1065569Y809885D01*
X1067271Y810223D01*
X1068773Y811227D01*
X1069777Y812729D01*
X1069876Y813230D01*
X1065500D01*
Y814500D01*
X1064230D01*
Y818876D01*
X1063729Y818777D01*
X1062227Y817773D01*
X1061327Y816426D01*
X1060345Y816005D01*
X1060043Y815913D01*
X1055979Y819977D01*
X1055063Y820589D01*
X1053982Y820804D01*
X1053982Y820804D01*
X1053037D01*
X1052482Y821480D01*
X1042518D01*
X1041963Y820804D01*
X1008059D01*
X1008047Y820866D01*
X1007273Y822023D01*
X1006116Y822797D01*
X1004750Y823069D01*
X1003384Y822797D01*
X1002227Y822023D01*
X1001453Y820866D01*
X1001181Y819500D01*
X1001453Y818134D01*
X1001520Y818034D01*
X1000841Y816764D01*
X940547D01*
X940037Y817275D01*
Y831472D01*
X940882Y831831D01*
X941307Y831923D01*
X942729Y830973D01*
X943230Y830874D01*
Y835250D01*
Y839626D01*
X942729Y839527D01*
X941307Y838577D01*
X940882Y838669D01*
X940037Y839028D01*
Y872463D01*
X940713Y873018D01*
Y878000D01*
Y882982D01*
X940037Y883537D01*
Y896194D01*
X941268Y897426D01*
X949500D01*
X949500Y897426D01*
X950581Y897641D01*
X951497Y898253D01*
X959997Y906753D01*
X960609Y907669D01*
X960824Y908750D01*
X960824Y908750D01*
Y924677D01*
X961297Y925384D01*
X961569Y926750D01*
X961297Y928116D01*
X960523Y929273D01*
X959366Y930047D01*
X958000Y930319D01*
X956634Y930047D01*
X955701Y929423D01*
X954875Y929327D01*
X954049Y929423D01*
X953116Y930047D01*
X951750Y930319D01*
X950384Y930047D01*
X949227Y929273D01*
X947830Y929469D01*
X946924Y930074D01*
X945558Y930346D01*
X944193Y930074D01*
X943206Y929415D01*
X942562Y929273D01*
X941773D01*
X940616Y930047D01*
X939250Y930319D01*
X937884Y930047D01*
X936727Y929273D01*
X935953Y928116D01*
X935681Y926750D01*
X935953Y925384D01*
X936426Y924677D01*
Y915739D01*
X936011Y915324D01*
X933170D01*
X933170Y915324D01*
X932089Y915109D01*
X931173Y914497D01*
X923095Y906419D01*
X923095Y906419D01*
X922483Y905503D01*
X922268Y904422D01*
Y900344D01*
X921253Y899611D01*
Y895000D01*
Y890389D01*
X922268Y889656D01*
Y837275D01*
X921114Y837039D01*
X920998Y837064D01*
X920023Y838523D01*
X918521Y839527D01*
X918020Y839626D01*
Y835250D01*
Y830874D01*
X918521Y830973D01*
X920023Y831977D01*
X920998Y833436D01*
X921114Y833461D01*
X922268Y833225D01*
Y809908D01*
X922268Y809908D01*
X922483Y808827D01*
X923095Y807911D01*
X931373Y799633D01*
X931373Y799633D01*
X932289Y799021D01*
X933370Y798806D01*
X1024993D01*
X1025548Y798130D01*
X1035512D01*
X1036067Y798806D01*
X1043915D01*
X1043926Y798795D01*
Y795981D01*
X1043926Y795981D01*
X1044141Y794900D01*
X1044753Y793984D01*
X1052371Y786366D01*
X1052371Y786366D01*
X1053287Y785754D01*
X1054368Y785539D01*
X1059825D01*
X1060623Y784270D01*
X1065000D01*
Y783000D01*
X1066270D01*
Y778624D01*
X1066771Y778723D01*
X1068273Y779727D01*
X1069277Y781229D01*
X1070619Y781467D01*
X1070906Y781037D01*
X1078560Y773383D01*
X1079476Y772771D01*
X1080557Y772556D01*
X1080557Y772556D01*
X1109253D01*
X1109927Y771286D01*
X1109874Y771020D01*
X1114250D01*
Y769750D01*
X1115520D01*
Y765374D01*
X1115985Y765466D01*
X1116213Y765501D01*
X1117255Y764788D01*
Y749749D01*
X1115523Y748017D01*
X1114523Y747273D01*
X1113366Y748047D01*
X1112000Y748319D01*
X1110634Y748047D01*
X1109477Y747273D01*
X1108703Y746116D01*
X1108431Y744750D01*
X1108703Y743384D01*
X1109176Y742677D01*
Y739170D01*
X1106134Y736128D01*
X848901D01*
X848222Y737398D01*
X848777Y738229D01*
X848876Y738730D01*
X840124D01*
X840223Y738229D01*
X840778Y737398D01*
X840099Y736128D01*
X788314D01*
X785069Y739374D01*
Y785154D01*
X784854Y786235D01*
X784241Y787151D01*
X777067Y794325D01*
X776151Y794937D01*
X775070Y795152D01*
X775070Y795152D01*
X762024D01*
Y797427D01*
X762497Y798134D01*
X762769Y799500D01*
X762497Y800866D01*
X761723Y802023D01*
X760566Y802797D01*
X759200Y803068D01*
X757834Y802797D01*
X756677Y802023D01*
X755903Y800866D01*
X755631Y799500D01*
X755903Y798134D01*
X756376Y797427D01*
Y793816D01*
X756376Y793816D01*
X756591Y792735D01*
X756852Y792344D01*
X756205Y791074D01*
X749170D01*
X745574Y794670D01*
Y797427D01*
X746047Y798134D01*
X746319Y799500D01*
X746047Y800866D01*
X745273Y802023D01*
X744116Y802797D01*
X742750Y803068D01*
X741384Y802797D01*
X740227Y802023D01*
X739453Y800866D01*
X739181Y799500D01*
X739453Y798134D01*
X739926Y797427D01*
Y793500D01*
X739926Y793500D01*
X740141Y792419D01*
X740753Y791503D01*
X746003Y786253D01*
X746003Y786253D01*
X746919Y785641D01*
X748000Y785426D01*
X772265D01*
X775380Y782310D01*
Y736531D01*
X775380Y736531D01*
X775595Y735450D01*
X776207Y734533D01*
X783474Y727267D01*
X783474Y727267D01*
X784390Y726655D01*
X785471Y726440D01*
X839787D01*
X840466Y725170D01*
X840153Y724701D01*
X840054Y724200D01*
X848806D01*
X848707Y724701D01*
X848394Y725170D01*
X849072Y726440D01*
X914426D01*
X914912Y725266D01*
X913962Y724317D01*
X913350Y723400D01*
X913135Y722320D01*
X913135Y722319D01*
Y718421D01*
X912383Y717296D01*
X912111Y715930D01*
X912383Y714564D01*
X913157Y713407D01*
X914314Y712633D01*
X915680Y712361D01*
X917046Y712633D01*
X918203Y713407D01*
X918977Y714564D01*
X919249Y715930D01*
X918977Y717296D01*
X918784Y717585D01*
Y721150D01*
X920033Y722400D01*
X1107490D01*
X1108438Y721452D01*
X1108438Y721452D01*
X1109354Y720840D01*
X1110435Y720625D01*
X1110435Y720625D01*
X1114426D01*
Y710274D01*
X1114426Y710273D01*
X1114641Y709193D01*
X1115253Y708276D01*
X1118526Y705003D01*
X1119443Y704391D01*
X1120523Y704176D01*
X1120524Y704176D01*
X1151741D01*
X1153014Y702903D01*
Y624847D01*
X1023773D01*
X1022692Y624632D01*
X1021776Y624020D01*
X1021775Y624020D01*
X1017220Y619464D01*
X1016286Y620327D01*
X1016755Y620876D01*
X1018935Y624432D01*
X1020531Y628286D01*
X1021505Y632342D01*
X1021832Y636500D01*
X1021505Y640658D01*
X1020531Y644714D01*
X1018935Y648568D01*
X1016755Y652124D01*
X1014046Y655296D01*
X1010874Y658005D01*
X1007318Y660185D01*
X1003464Y661781D01*
X999408Y662755D01*
X995250Y663082D01*
X991092Y662755D01*
X987036Y661781D01*
X983182Y660185D01*
X979625Y658005D01*
X976454Y655296D01*
X973745Y652124D01*
X971565Y648568D01*
X969969Y644714D01*
X968995Y640658D01*
X968668Y636500D01*
X968995Y632342D01*
X969969Y628286D01*
X971565Y624432D01*
X973745Y620876D01*
X976454Y617704D01*
X979625Y614995D01*
X983182Y612815D01*
X987036Y611219D01*
X991092Y610245D01*
X995250Y609918D01*
X999408Y610245D01*
X1003464Y611219D01*
X1007318Y612815D01*
X1010874Y614995D01*
X1011423Y615463D01*
X1012286Y614530D01*
X995503Y597747D01*
X994891Y596831D01*
X994676Y595750D01*
X994676Y595750D01*
Y586668D01*
X993418Y586499D01*
X992512Y588689D01*
X991069Y590569D01*
X989189Y592011D01*
X987000Y592918D01*
X984650Y593228D01*
X982300Y592918D01*
X980111Y592011D01*
X978231Y590569D01*
X976788Y588689D01*
X975882Y586499D01*
X975572Y584150D01*
X975882Y581800D01*
X976788Y579611D01*
X978231Y577731D01*
X980111Y576288D01*
X982300Y575382D01*
X984650Y575072D01*
X987000Y575382D01*
X989189Y576288D01*
X991069Y577731D01*
X992512Y579611D01*
X993418Y581800D01*
X994676Y581632D01*
Y561268D01*
X993418Y561100D01*
X992512Y563289D01*
X991069Y565169D01*
X989189Y566611D01*
X987000Y567518D01*
X984650Y567828D01*
X982300Y567518D01*
X980111Y566611D01*
X978231Y565169D01*
X976788Y563289D01*
X975882Y561100D01*
X975572Y558750D01*
X975882Y556400D01*
X976788Y554211D01*
X978231Y552331D01*
X980111Y550888D01*
X982300Y549982D01*
X984650Y549672D01*
X987000Y549982D01*
X989189Y550888D01*
X991069Y552331D01*
X992512Y554211D01*
X993418Y556400D01*
X994676Y556232D01*
Y549750D01*
X994676Y549750D01*
X994891Y548669D01*
X995503Y547753D01*
X999503Y543753D01*
X999503Y543753D01*
X1000419Y543141D01*
X1001500Y542926D01*
X1001500Y542926D01*
X1295250D01*
X1295250Y542926D01*
X1296331Y543141D01*
X1297247Y543753D01*
X1303997Y550503D01*
X1304609Y551419D01*
X1304824Y552500D01*
X1304824Y552500D01*
Y556232D01*
X1306082Y556400D01*
X1306989Y554211D01*
X1308431Y552331D01*
X1310311Y550888D01*
X1312500Y549982D01*
X1314850Y549672D01*
X1317200Y549982D01*
X1319389Y550888D01*
X1321269Y552331D01*
X1322711Y554211D01*
X1323618Y556400D01*
X1323928Y558750D01*
X1323618Y561100D01*
X1322711Y563289D01*
X1321269Y565169D01*
X1319389Y566611D01*
X1317200Y567518D01*
X1314850Y567828D01*
X1312500Y567518D01*
X1310311Y566611D01*
X1308431Y565169D01*
X1306989Y563289D01*
X1306082Y561100D01*
X1304824Y561268D01*
Y581632D01*
X1306082Y581800D01*
X1306989Y579611D01*
X1308431Y577731D01*
X1310311Y576288D01*
X1312500Y575382D01*
X1314850Y575072D01*
X1317200Y575382D01*
X1319389Y576288D01*
X1321269Y577731D01*
X1322711Y579611D01*
X1323618Y581800D01*
X1323928Y584150D01*
X1323618Y586499D01*
X1322711Y588689D01*
X1321269Y590569D01*
X1319389Y592011D01*
X1317200Y592918D01*
X1314850Y593228D01*
X1312500Y592918D01*
X1310311Y592011D01*
X1308431Y590569D01*
X1306989Y588689D01*
X1306082Y586499D01*
X1304824Y586668D01*
Y591500D01*
X1304609Y592581D01*
X1303997Y593497D01*
X1303997Y593497D01*
X1298247Y599247D01*
X1297331Y599859D01*
X1296250Y600074D01*
X1296250Y600074D01*
X1283442D01*
X1276424Y607092D01*
Y617100D01*
X1282600D01*
Y635100D01*
X1264600D01*
Y617100D01*
X1270776D01*
Y607878D01*
X1269602Y607392D01*
X1268720Y608274D01*
X1267804Y608886D01*
X1266723Y609101D01*
X1266723Y609101D01*
X1210789D01*
X1203324Y616566D01*
Y759087D01*
X1205890Y761653D01*
X1237006D01*
X1237978Y761004D01*
X1239343Y760732D01*
X1240709Y761004D01*
X1241867Y761777D01*
X1242640Y762935D01*
X1242912Y764301D01*
X1242640Y765666D01*
X1242319Y766147D01*
X1242066Y767285D01*
X1242379Y768009D01*
X1242797Y768634D01*
X1243069Y770000D01*
X1242797Y771366D01*
X1242023Y772523D01*
X1240866Y773297D01*
X1239500Y773569D01*
X1238134Y773297D01*
X1236977Y772523D01*
X1236506Y771819D01*
X1203524D01*
X1202443Y771604D01*
X1201527Y770991D01*
X1196418Y765882D01*
X1195244Y766368D01*
Y820676D01*
X1218367D01*
X1221176Y817867D01*
Y811500D01*
X1221176Y811500D01*
X1221391Y810419D01*
X1222003Y809503D01*
X1229003Y802503D01*
X1229003Y802503D01*
X1229919Y801891D01*
X1231000Y801676D01*
X1231000Y801676D01*
X1237427D01*
X1238134Y801203D01*
X1239500Y800931D01*
X1240866Y801203D01*
X1242023Y801977D01*
X1242797Y803134D01*
X1243069Y804500D01*
X1242797Y805866D01*
X1242023Y807023D01*
Y807701D01*
X1242516Y808031D01*
X1243290Y809188D01*
X1243561Y810554D01*
X1243290Y811920D01*
X1242516Y813077D01*
X1241359Y813851D01*
X1240423Y814037D01*
X1240340Y814054D01*
Y815348D01*
X1240379Y815356D01*
X1240866Y815453D01*
X1242023Y816227D01*
X1242797Y817384D01*
X1243069Y818750D01*
X1242797Y820116D01*
X1242192Y821021D01*
X1242023Y821273D01*
X1242383Y822560D01*
X1242415Y822581D01*
X1243188Y823739D01*
X1243460Y825105D01*
X1243188Y826470D01*
X1242415Y827628D01*
X1241257Y828401D01*
X1239891Y828673D01*
X1238526Y828401D01*
X1237818Y827929D01*
X1236315D01*
X1227670Y836575D01*
X1228156Y837748D01*
X1236294D01*
X1236977Y836727D01*
X1238134Y835953D01*
X1239500Y835681D01*
X1240866Y835953D01*
X1242023Y836727D01*
X1242797Y837884D01*
X1243069Y839250D01*
X1242797Y840616D01*
X1242385Y841232D01*
X1242194Y842300D01*
X1242430Y843029D01*
X1242914Y843754D01*
X1243186Y845120D01*
X1242914Y846486D01*
X1242140Y847643D01*
X1240983Y848417D01*
X1239617Y848688D01*
X1238251Y848417D01*
X1237544Y847944D01*
X1186961D01*
X1185880Y847729D01*
X1184964Y847117D01*
X1184964Y847117D01*
X1172178Y834331D01*
X1171004Y834817D01*
Y860207D01*
X1171433Y860848D01*
X1171648Y861929D01*
Y869190D01*
X1172907Y870449D01*
X1172907Y870450D01*
X1173519Y871366D01*
X1173734Y872447D01*
X1173734Y872447D01*
Y879324D01*
X1200420D01*
X1200906Y878150D01*
X1200003Y877247D01*
X1199391Y876331D01*
X1199176Y875250D01*
X1199176Y875250D01*
Y868823D01*
X1198703Y868116D01*
X1198431Y866750D01*
X1198703Y865384D01*
X1199477Y864227D01*
X1200634Y863453D01*
X1202000Y863181D01*
X1203366Y863453D01*
X1204523Y864227D01*
X1205297Y865384D01*
X1205569Y866750D01*
X1205297Y868116D01*
X1204824Y868823D01*
Y874080D01*
X1206028Y875284D01*
X1223280D01*
X1223280Y875284D01*
X1224361Y875499D01*
X1225277Y876111D01*
X1233247Y884080D01*
X1233247Y884081D01*
X1233859Y884997D01*
X1234074Y886078D01*
Y892584D01*
X1235017Y893527D01*
X1235017Y893527D01*
X1235629Y894443D01*
X1235844Y895524D01*
Y900770D01*
X1235629Y901851D01*
X1235017Y902767D01*
X1235017Y902767D01*
X1233287Y904497D01*
X1232371Y905109D01*
X1231290Y905324D01*
X1231290Y905324D01*
X1223824D01*
Y921580D01*
X1224630Y922386D01*
X1386146D01*
X1387452Y921080D01*
Y683736D01*
X1382830Y679114D01*
X1280040D01*
X1280040Y679114D01*
X1278959Y678899D01*
X1278043Y678287D01*
X1278043Y678287D01*
X1271603Y671847D01*
X1270991Y670931D01*
X1270776Y669850D01*
X1270776Y669850D01*
Y660072D01*
X1269061Y659361D01*
X1267181Y657919D01*
X1265739Y656039D01*
X1264832Y653849D01*
X1264522Y651500D01*
X1264832Y649150D01*
X1265739Y646961D01*
X1267181Y645081D01*
X1269061Y643639D01*
X1271251Y642732D01*
X1273600Y642422D01*
X1275949Y642732D01*
X1278139Y643639D01*
X1280019Y645081D01*
X1281461Y646961D01*
X1282368Y649150D01*
X1282678Y651500D01*
X1282368Y653849D01*
X1281461Y656039D01*
X1280019Y657919D01*
X1278139Y659361D01*
X1276424Y660072D01*
Y668680D01*
X1281210Y673466D01*
X1328812D01*
X1329298Y672292D01*
X1323503Y666497D01*
X1322891Y665581D01*
X1322676Y664500D01*
X1322676Y664500D01*
Y660351D01*
X1322050Y660268D01*
X1319861Y659361D01*
X1317981Y657919D01*
X1316539Y656039D01*
X1315632Y653849D01*
X1315322Y651500D01*
X1315632Y649150D01*
X1316539Y646961D01*
X1317981Y645081D01*
X1319861Y643639D01*
X1322050Y642732D01*
X1324400Y642422D01*
X1326750Y642732D01*
X1328939Y643639D01*
X1330819Y645081D01*
X1332262Y646961D01*
X1333168Y649150D01*
X1333478Y651500D01*
X1333168Y653849D01*
X1332262Y656039D01*
X1330819Y657919D01*
X1328939Y659361D01*
X1328324Y659616D01*
Y663330D01*
X1334420Y669426D01*
X1385750D01*
X1385750Y669426D01*
X1386831Y669641D01*
X1387747Y670253D01*
X1396313Y678819D01*
X1396313Y678819D01*
X1396925Y679735D01*
X1397140Y680816D01*
X1397140Y680816D01*
Y684706D01*
X1398313Y685192D01*
X1399003Y684503D01*
X1399003Y684503D01*
X1399919Y683891D01*
X1401000Y683676D01*
X1401000Y683676D01*
X1405822D01*
X1406888Y682963D01*
X1408254Y682691D01*
X1409619Y682963D01*
X1410777Y683737D01*
X1411550Y684894D01*
X1411822Y686260D01*
X1411550Y687626D01*
X1410777Y688783D01*
X1409619Y689557D01*
X1408254Y689829D01*
X1406888Y689557D01*
X1406540Y689324D01*
X1402170D01*
X1401180Y690314D01*
Y696666D01*
X1402354Y697152D01*
X1402464Y697042D01*
X1402464Y697042D01*
X1403380Y696430D01*
X1404461Y696215D01*
X1404461Y696215D01*
X1405762D01*
X1406888Y695463D01*
X1408254Y695191D01*
X1409619Y695463D01*
X1410777Y696237D01*
X1411550Y697394D01*
X1411822Y698760D01*
X1411550Y700126D01*
X1410777Y701283D01*
X1409619Y702057D01*
X1408254Y702329D01*
X1406888Y702057D01*
X1406599Y701864D01*
X1405630D01*
X1405346Y702149D01*
Y775737D01*
X1406040Y776307D01*
Y781270D01*
Y786233D01*
X1405346Y786803D01*
Y899002D01*
X1406616Y899718D01*
X1406790Y899684D01*
Y904060D01*
Y908436D01*
X1406616Y908402D01*
X1405346Y909118D01*
Y925137D01*
X1406616Y925816D01*
X1406694Y925763D01*
X1408060Y925491D01*
X1409426Y925763D01*
X1410583Y926537D01*
X1411357Y927694D01*
X1411629Y929060D01*
X1411357Y930426D01*
X1410884Y931133D01*
Y932786D01*
X1410884Y932786D01*
X1410669Y933867D01*
X1410057Y934783D01*
X1408048Y936793D01*
X1408048Y936815D01*
X1408548Y938089D01*
X1409426Y938263D01*
X1410583Y939037D01*
X1411357Y940194D01*
X1411629Y941560D01*
X1411357Y942926D01*
X1410583Y944083D01*
X1409426Y944857D01*
X1408306Y945080D01*
X1406539Y946846D01*
X1405847Y947568D01*
X1406565Y948570D01*
X1408591Y950597D01*
X1409426Y950763D01*
X1410583Y951537D01*
X1411357Y952694D01*
X1411629Y954060D01*
X1411357Y955426D01*
X1410583Y956583D01*
X1409858Y957068D01*
X1409527Y958533D01*
X1410057Y959063D01*
X1410057Y959063D01*
X1410669Y959979D01*
X1410884Y961060D01*
Y964487D01*
X1411357Y965194D01*
X1411629Y966560D01*
X1411357Y967926D01*
X1410583Y969083D01*
X1409426Y969857D01*
X1408060Y970129D01*
D02*
G37*
G36*
X813859Y899730D02*
X810752D01*
Y896624D01*
X811254Y896723D01*
X812756Y897727D01*
X813759Y899229D01*
X813859Y899730D01*
D02*
G37*
G36*
X808213D02*
X805106D01*
X805206Y899229D01*
X806209Y897727D01*
X807711Y896723D01*
X808213Y896624D01*
Y899730D01*
D02*
G37*
G36*
X1101626Y899730D02*
X1098520D01*
Y896624D01*
X1099021Y896723D01*
X1100523Y897727D01*
X1101527Y899229D01*
X1101626Y899730D01*
D02*
G37*
G36*
X1095980D02*
X1092874D01*
X1092973Y899229D01*
X1093977Y897727D01*
X1095479Y896723D01*
X1095980Y896624D01*
Y899730D01*
D02*
G37*
G36*
X918712Y899376D02*
X918211Y899277D01*
X916709Y898273D01*
X915706Y896771D01*
X915606Y896270D01*
X918712D01*
Y899376D01*
D02*
G37*
G36*
X880686Y897730D02*
X877580D01*
Y894624D01*
X878081Y894723D01*
X879583Y895727D01*
X880587Y897229D01*
X880686Y897730D01*
D02*
G37*
G36*
X918712Y893730D02*
X915606D01*
X915706Y893229D01*
X916709Y891727D01*
X918211Y890723D01*
X918712Y890624D01*
Y893730D01*
D02*
G37*
G36*
X943252Y882376D02*
Y879270D01*
X946359D01*
X946259Y879771D01*
X945256Y881273D01*
X943754Y882277D01*
X943252Y882376D01*
D02*
G37*
G36*
X946359Y876730D02*
X943252D01*
Y873624D01*
X943754Y873723D01*
X945256Y874727D01*
X946259Y876228D01*
X946359Y876730D01*
D02*
G37*
G36*
X1433860Y880129D02*
X1432494Y879857D01*
X1431337Y879083D01*
X1430563Y877926D01*
X1430291Y876560D01*
X1430563Y875194D01*
X1431337Y874037D01*
X1432494Y873263D01*
X1433860Y872991D01*
X1435226Y873263D01*
X1436383Y874037D01*
X1437157Y875194D01*
X1437429Y876560D01*
X1437157Y877926D01*
X1436383Y879083D01*
X1435226Y879857D01*
X1433860Y880129D01*
D02*
G37*
G36*
X1290493Y875376D02*
Y872270D01*
X1293599D01*
X1293499Y872771D01*
X1292496Y874273D01*
X1290994Y875277D01*
X1290493Y875376D01*
D02*
G37*
G36*
X1287953D02*
X1287451Y875277D01*
X1285949Y874273D01*
X1284946Y872771D01*
X1284846Y872270D01*
X1287953D01*
Y875376D01*
D02*
G37*
G36*
X903520Y873126D02*
Y870020D01*
X906626D01*
X906527Y870521D01*
X905523Y872023D01*
X904021Y873027D01*
X903520Y873126D01*
D02*
G37*
G36*
X900980D02*
X900479Y873027D01*
X898977Y872023D01*
X897973Y870521D01*
X897874Y870020D01*
X900980D01*
Y873126D01*
D02*
G37*
G36*
X1120980Y872626D02*
X1120479Y872527D01*
X1118977Y871523D01*
X1117973Y870021D01*
X1117874Y869520D01*
X1120980D01*
Y872626D01*
D02*
G37*
G36*
X774770Y870626D02*
Y867520D01*
X777876D01*
X777777Y868021D01*
X776773Y869523D01*
X775271Y870527D01*
X774770Y870626D01*
D02*
G37*
G36*
X772230D02*
X771729Y870527D01*
X770227Y869523D01*
X769223Y868021D01*
X769124Y867520D01*
X772230D01*
Y870626D01*
D02*
G37*
G36*
X688770Y870126D02*
Y867020D01*
X691876D01*
X691777Y867521D01*
X690773Y869023D01*
X689271Y870027D01*
X688770Y870126D01*
D02*
G37*
G36*
X686230D02*
X685729Y870027D01*
X684227Y869023D01*
X683223Y867521D01*
X683124Y867020D01*
X686230D01*
Y870126D01*
D02*
G37*
G36*
X1293599Y869730D02*
X1290493D01*
Y866624D01*
X1290994Y866723D01*
X1292496Y867727D01*
X1293499Y869229D01*
X1293599Y869730D01*
D02*
G37*
G36*
X1287953D02*
X1284846D01*
X1284946Y869229D01*
X1285949Y867727D01*
X1287451Y866723D01*
X1287953Y866624D01*
Y869730D01*
D02*
G37*
G36*
X906626Y867480D02*
X903520D01*
Y864374D01*
X904021Y864473D01*
X905523Y865477D01*
X906527Y866979D01*
X906626Y867480D01*
D02*
G37*
G36*
X900980D02*
X897874D01*
X897973Y866979D01*
X898977Y865477D01*
X900479Y864473D01*
X900980Y864374D01*
Y867480D01*
D02*
G37*
G36*
X777876Y864980D02*
X774770D01*
Y861874D01*
X775271Y861973D01*
X776773Y862977D01*
X777777Y864479D01*
X777876Y864980D01*
D02*
G37*
G36*
X772230D02*
X769124D01*
X769223Y864479D01*
X770227Y862977D01*
X771729Y861973D01*
X772230Y861874D01*
Y864980D01*
D02*
G37*
G36*
X691876Y864480D02*
X688770D01*
Y861374D01*
X689271Y861473D01*
X690773Y862477D01*
X691777Y863979D01*
X691876Y864480D01*
D02*
G37*
G36*
X686230D02*
X683124D01*
X683223Y863979D01*
X684227Y862477D01*
X685729Y861473D01*
X686230Y861374D01*
Y864480D01*
D02*
G37*
G36*
X1240770Y864126D02*
Y861020D01*
X1243876D01*
X1243777Y861521D01*
X1242773Y863023D01*
X1241271Y864027D01*
X1240770Y864126D01*
D02*
G37*
G36*
X1238230D02*
X1237729Y864027D01*
X1236227Y863023D01*
X1235223Y861521D01*
X1235124Y861020D01*
X1238230D01*
Y864126D01*
D02*
G37*
G36*
X1301770Y859126D02*
Y856020D01*
X1304876D01*
X1304777Y856521D01*
X1303773Y858023D01*
X1302271Y859027D01*
X1301770Y859126D01*
D02*
G37*
G36*
X1299230D02*
X1298729Y859027D01*
X1297227Y858023D01*
X1296223Y856521D01*
X1296124Y856020D01*
X1299230D01*
Y859126D01*
D02*
G37*
G36*
X1243876Y858480D02*
X1240770D01*
Y855374D01*
X1241271Y855473D01*
X1242773Y856477D01*
X1243777Y857979D01*
X1243876Y858480D01*
D02*
G37*
G36*
X1238230D02*
X1235124D01*
X1235223Y857979D01*
X1236227Y856477D01*
X1237729Y855473D01*
X1238230Y855374D01*
Y858480D01*
D02*
G37*
G36*
X1304876Y853480D02*
X1301770D01*
Y850374D01*
X1302271Y850473D01*
X1303773Y851477D01*
X1304777Y852979D01*
X1304876Y853480D01*
D02*
G37*
G36*
X1299230D02*
X1296124D01*
X1296223Y852979D01*
X1297227Y851477D01*
X1298729Y850473D01*
X1299230Y850374D01*
Y853480D01*
D02*
G37*
G36*
X1433110Y849839D02*
X1431744Y849567D01*
X1430587Y848793D01*
X1429813Y847636D01*
X1429541Y846270D01*
X1429813Y844904D01*
X1430587Y843747D01*
X1431744Y842973D01*
X1433110Y842701D01*
X1434476Y842973D01*
X1435633Y843747D01*
X1436407Y844904D01*
X1436679Y846270D01*
X1436407Y847636D01*
X1435633Y848793D01*
X1434476Y849567D01*
X1433110Y849839D01*
D02*
G37*
G36*
X1048050Y841986D02*
Y838880D01*
X1051156D01*
X1051057Y839381D01*
X1050053Y840883D01*
X1048551Y841887D01*
X1048050Y841986D01*
D02*
G37*
G36*
X1045510D02*
X1045009Y841887D01*
X1043507Y840883D01*
X1042503Y839381D01*
X1042404Y838880D01*
X1045510D01*
Y841986D01*
D02*
G37*
G36*
X945770Y839626D02*
Y836520D01*
X948876D01*
X948777Y837021D01*
X947773Y838523D01*
X946271Y839527D01*
X945770Y839626D01*
D02*
G37*
G36*
X915480D02*
X914979Y839527D01*
X913477Y838523D01*
X912473Y837021D01*
X912374Y836520D01*
X915480D01*
Y839626D01*
D02*
G37*
G36*
X1051156Y836340D02*
X1048050D01*
Y833234D01*
X1048551Y833333D01*
X1050053Y834337D01*
X1051057Y835839D01*
X1051156Y836340D01*
D02*
G37*
G36*
X1045510D02*
X1042404D01*
X1042503Y835839D01*
X1043507Y834337D01*
X1045009Y833333D01*
X1045510Y833234D01*
Y836340D01*
D02*
G37*
G36*
X948876Y833980D02*
X945770D01*
Y830874D01*
X946271Y830973D01*
X947773Y831977D01*
X948777Y833479D01*
X948876Y833980D01*
D02*
G37*
G36*
X915480D02*
X912374D01*
X912473Y833479D01*
X913477Y831977D01*
X914979Y830973D01*
X915480Y830874D01*
Y833980D01*
D02*
G37*
G36*
X1048770Y827126D02*
Y824020D01*
X1051876D01*
X1051777Y824521D01*
X1050773Y826023D01*
X1049271Y827027D01*
X1048770Y827126D01*
D02*
G37*
G36*
X1046230D02*
X1045729Y827027D01*
X1044227Y826023D01*
X1043223Y824521D01*
X1043124Y824020D01*
X1046230D01*
Y827126D01*
D02*
G37*
G36*
X1365020Y825376D02*
Y822270D01*
X1368126D01*
X1368027Y822771D01*
X1367023Y824273D01*
X1365521Y825277D01*
X1365020Y825376D01*
D02*
G37*
G36*
X1362480D02*
X1361979Y825277D01*
X1360477Y824273D01*
X1359473Y822771D01*
X1359374Y822270D01*
X1362480D01*
Y825376D01*
D02*
G37*
G36*
X1116020Y824126D02*
Y821020D01*
X1119126D01*
X1119027Y821521D01*
X1118023Y823023D01*
X1116521Y824027D01*
X1116020Y824126D01*
D02*
G37*
G36*
X1368126Y819730D02*
X1365020D01*
Y816624D01*
X1365521Y816723D01*
X1367023Y817727D01*
X1368027Y819229D01*
X1368126Y819730D01*
D02*
G37*
G36*
X1362480D02*
X1359374D01*
X1359473Y819229D01*
X1360477Y817727D01*
X1361979Y816723D01*
X1362480Y816624D01*
Y819730D01*
D02*
G37*
G36*
X835270Y819376D02*
Y816270D01*
X838376D01*
X838277Y816771D01*
X837273Y818273D01*
X835771Y819277D01*
X835270Y819376D01*
D02*
G37*
G36*
X832730D02*
X832229Y819277D01*
X830727Y818273D01*
X829723Y816771D01*
X829624Y816270D01*
X832730D01*
Y819376D01*
D02*
G37*
G36*
X1066770Y818876D02*
Y815770D01*
X1069876D01*
X1069777Y816271D01*
X1068773Y817773D01*
X1067271Y818777D01*
X1066770Y818876D01*
D02*
G37*
G36*
X1119126Y818480D02*
X1116020D01*
Y815374D01*
X1116521Y815473D01*
X1118023Y816477D01*
X1119027Y817979D01*
X1119126Y818480D01*
D02*
G37*
G36*
X838376Y813730D02*
X835270D01*
Y810624D01*
X835771Y810723D01*
X837273Y811727D01*
X838277Y813229D01*
X838376Y813730D01*
D02*
G37*
G36*
X832730D02*
X829624D01*
X829723Y813229D01*
X830727Y811727D01*
X832229Y810723D01*
X832730Y810624D01*
Y813730D01*
D02*
G37*
G36*
X655970Y816115D02*
X652240D01*
Y809780D01*
X663408D01*
X663316Y810478D01*
X662556Y812312D01*
X661348Y813888D01*
X659773Y815096D01*
X657938Y815856D01*
X655970Y816115D01*
D02*
G37*
G36*
X649700D02*
X645970D01*
X644002Y815856D01*
X642168Y815096D01*
X640592Y813888D01*
X639384Y812312D01*
X638624Y810478D01*
X638532Y809780D01*
X649700D01*
Y816115D01*
D02*
G37*
G36*
X613670Y815611D02*
X610440D01*
Y809780D01*
X620603D01*
X620529Y810348D01*
X619819Y812060D01*
X618691Y813531D01*
X617220Y814659D01*
X615508Y815369D01*
X613670Y815611D01*
D02*
G37*
G36*
X607900D02*
X604670D01*
X602832Y815369D01*
X601120Y814659D01*
X599649Y813531D01*
X598521Y812060D01*
X597811Y810348D01*
X597737Y809780D01*
X607900D01*
Y815611D01*
D02*
G37*
G36*
X675770Y812626D02*
Y809520D01*
X678876D01*
X678777Y810021D01*
X677773Y811523D01*
X676271Y812527D01*
X675770Y812626D01*
D02*
G37*
G36*
X673230D02*
X672729Y812527D01*
X671227Y811523D01*
X670223Y810021D01*
X670124Y809520D01*
X673230D01*
Y812626D01*
D02*
G37*
G36*
X678876Y806980D02*
X675770D01*
Y803874D01*
X676271Y803973D01*
X677773Y804977D01*
X678777Y806479D01*
X678876Y806980D01*
D02*
G37*
G36*
X673230D02*
X670124D01*
X670223Y806479D01*
X671227Y804977D01*
X672729Y803973D01*
X673230Y803874D01*
Y806980D01*
D02*
G37*
G36*
X774520Y805876D02*
Y802770D01*
X777626D01*
X777527Y803271D01*
X776523Y804773D01*
X775021Y805777D01*
X774520Y805876D01*
D02*
G37*
G36*
X771980D02*
X771479Y805777D01*
X769977Y804773D01*
X768973Y803271D01*
X768874Y802770D01*
X771980D01*
Y805876D01*
D02*
G37*
G36*
X730020Y805626D02*
Y802520D01*
X733126D01*
X733027Y803021D01*
X732023Y804523D01*
X730521Y805527D01*
X730020Y805626D01*
D02*
G37*
G36*
X727480D02*
X726979Y805527D01*
X725477Y804523D01*
X724473Y803021D01*
X724374Y802520D01*
X727480D01*
Y805626D01*
D02*
G37*
G36*
X620603Y807240D02*
X610440D01*
Y801409D01*
X613670D01*
X615508Y801651D01*
X617220Y802361D01*
X618691Y803489D01*
X619819Y804960D01*
X620529Y806672D01*
X620603Y807240D01*
D02*
G37*
G36*
X607900D02*
X597737D01*
X597811Y806672D01*
X598521Y804960D01*
X599649Y803489D01*
X601120Y802361D01*
X602832Y801651D01*
X604670Y801409D01*
X607900D01*
Y807240D01*
D02*
G37*
G36*
X649700D02*
X638532D01*
X638624Y806542D01*
X639384Y804707D01*
X640592Y803132D01*
X642168Y801924D01*
X644002Y801164D01*
X645970Y800905D01*
X649700D01*
Y807240D01*
D02*
G37*
G36*
X663408D02*
X652240D01*
Y800030D01*
X661246D01*
X661147Y800531D01*
X660143Y802033D01*
X660138Y802204D01*
X661348Y803132D01*
X662556Y804707D01*
X663316Y806542D01*
X663408Y807240D01*
D02*
G37*
G36*
X777626Y800230D02*
X774520D01*
Y797124D01*
X775021Y797223D01*
X776523Y798227D01*
X777527Y799728D01*
X777626Y800230D01*
D02*
G37*
G36*
X771980D02*
X768874D01*
X768973Y799728D01*
X769977Y798227D01*
X771479Y797223D01*
X771980Y797124D01*
Y800230D01*
D02*
G37*
G36*
X733126Y799980D02*
X730020D01*
Y796874D01*
X730521Y796973D01*
X732023Y797977D01*
X733027Y799479D01*
X733126Y799980D01*
D02*
G37*
G36*
X727480D02*
X724374D01*
X724473Y799479D01*
X725477Y797977D01*
X726979Y796973D01*
X727480Y796874D01*
Y799980D01*
D02*
G37*
G36*
X661246Y797490D02*
X658140D01*
Y794384D01*
X658641Y794483D01*
X660143Y795487D01*
X661147Y796989D01*
X661246Y797490D01*
D02*
G37*
G36*
X655600D02*
X652494D01*
X652593Y796989D01*
X653597Y795487D01*
X655099Y794483D01*
X655600Y794384D01*
Y797490D01*
D02*
G37*
G36*
X1034906Y795590D02*
X1031800D01*
Y792484D01*
X1032301Y792583D01*
X1033803Y793587D01*
X1034807Y795089D01*
X1034906Y795590D01*
D02*
G37*
G36*
X1029260D02*
X1026154D01*
X1026253Y795089D01*
X1027257Y793587D01*
X1028759Y792583D01*
X1029260Y792484D01*
Y795590D01*
D02*
G37*
G36*
X835270Y795376D02*
Y792270D01*
X838376D01*
X838277Y792771D01*
X837273Y794273D01*
X835771Y795277D01*
X835270Y795376D01*
D02*
G37*
G36*
X832730D02*
X832229Y795277D01*
X830727Y794273D01*
X829723Y792771D01*
X829624Y792270D01*
X832730D01*
Y795376D01*
D02*
G37*
G36*
X639090Y800583D02*
X637237Y800214D01*
X635666Y799165D01*
X634616Y797593D01*
X634247Y795740D01*
X634616Y793887D01*
X635666Y792315D01*
X637237Y791265D01*
X639090Y790897D01*
X640943Y791265D01*
X642515Y792315D01*
X643564Y793887D01*
X643933Y795740D01*
X643564Y797593D01*
X642515Y799165D01*
X640943Y800214D01*
X639090Y800583D01*
D02*
G37*
G36*
X838376Y789730D02*
X835270D01*
Y786624D01*
X835771Y786723D01*
X837273Y787727D01*
X838277Y789229D01*
X838376Y789730D01*
D02*
G37*
G36*
X832730D02*
X829624D01*
X829723Y789229D01*
X830727Y787727D01*
X832229Y786723D01*
X832730Y786624D01*
Y789730D01*
D02*
G37*
G36*
X1408580Y785646D02*
Y782540D01*
X1411686D01*
X1411587Y783041D01*
X1410583Y784543D01*
X1409081Y785547D01*
X1408580Y785646D01*
D02*
G37*
G36*
X1032550Y782736D02*
Y779630D01*
X1035656D01*
X1035557Y780131D01*
X1034553Y781633D01*
X1033051Y782637D01*
X1032550Y782736D01*
D02*
G37*
G36*
X1030010D02*
X1029509Y782637D01*
X1028007Y781633D01*
X1027003Y780131D01*
X1026904Y779630D01*
X1030010D01*
Y782736D01*
D02*
G37*
G36*
X1063730Y781730D02*
X1060624D01*
X1060723Y781229D01*
X1061727Y779727D01*
X1063229Y778723D01*
X1063730Y778624D01*
Y781730D01*
D02*
G37*
G36*
X1365120Y781376D02*
Y778270D01*
X1368226D01*
X1368127Y778771D01*
X1367123Y780273D01*
X1365621Y781277D01*
X1365120Y781376D01*
D02*
G37*
G36*
X1362580D02*
X1362079Y781277D01*
X1360577Y780273D01*
X1359573Y778771D01*
X1359474Y778270D01*
X1362580D01*
Y781376D01*
D02*
G37*
G36*
X1411686Y780000D02*
X1408580D01*
Y776894D01*
X1409081Y776993D01*
X1410583Y777997D01*
X1411587Y779499D01*
X1411686Y780000D01*
D02*
G37*
G36*
X1035656Y777090D02*
X1032550D01*
Y773984D01*
X1033051Y774083D01*
X1034553Y775087D01*
X1035557Y776589D01*
X1035656Y777090D01*
D02*
G37*
G36*
X1030010D02*
X1026904D01*
X1027003Y776589D01*
X1028007Y775087D01*
X1029509Y774083D01*
X1030010Y773984D01*
Y777090D01*
D02*
G37*
G36*
X1368226Y775730D02*
X1365120D01*
Y772624D01*
X1365621Y772723D01*
X1367123Y773727D01*
X1368127Y775229D01*
X1368226Y775730D01*
D02*
G37*
G36*
X1362580D02*
X1359474D01*
X1359573Y775229D01*
X1360577Y773727D01*
X1362079Y772723D01*
X1362580Y772624D01*
Y775730D01*
D02*
G37*
G36*
X1066270Y773376D02*
Y770270D01*
X1069376D01*
X1069277Y770771D01*
X1068273Y772273D01*
X1066771Y773277D01*
X1066270Y773376D01*
D02*
G37*
G36*
X1063730D02*
X1063229Y773277D01*
X1061727Y772273D01*
X1060723Y770771D01*
X1060624Y770270D01*
X1063730D01*
Y773376D01*
D02*
G37*
G36*
X720790Y770376D02*
Y767270D01*
X723896D01*
X723797Y767771D01*
X722793Y769273D01*
X721291Y770277D01*
X720790Y770376D01*
D02*
G37*
G36*
X718250D02*
X717749Y770277D01*
X716247Y769273D01*
X715243Y767771D01*
X715144Y767270D01*
X718250D01*
Y770376D01*
D02*
G37*
G36*
X706820Y769626D02*
Y766520D01*
X709926D01*
X709827Y767021D01*
X708823Y768523D01*
X707321Y769527D01*
X706820Y769626D01*
D02*
G37*
G36*
X704280D02*
X703779Y769527D01*
X702277Y768523D01*
X701273Y767021D01*
X701174Y766520D01*
X704280D01*
Y769626D01*
D02*
G37*
G36*
X1112980Y768480D02*
X1109874D01*
X1109973Y767979D01*
X1110977Y766477D01*
X1112479Y765473D01*
X1112980Y765374D01*
Y768480D01*
D02*
G37*
G36*
X1069376Y767730D02*
X1066270D01*
Y764624D01*
X1066771Y764723D01*
X1068273Y765727D01*
X1069277Y767229D01*
X1069376Y767730D01*
D02*
G37*
G36*
X1063730D02*
X1060624D01*
X1060723Y767229D01*
X1061727Y765727D01*
X1063229Y764723D01*
X1063730Y764624D01*
Y767730D01*
D02*
G37*
G36*
X723896Y764730D02*
X720790D01*
Y761624D01*
X721291Y761723D01*
X722793Y762727D01*
X723797Y764229D01*
X723896Y764730D01*
D02*
G37*
G36*
X718250D02*
X715144D01*
X715243Y764229D01*
X716247Y762727D01*
X717749Y761723D01*
X718250Y761624D01*
Y764730D01*
D02*
G37*
G36*
X709926Y763980D02*
X706820D01*
Y760874D01*
X707321Y760973D01*
X708823Y761977D01*
X709827Y763479D01*
X709926Y763980D01*
D02*
G37*
G36*
X704280D02*
X701174D01*
X701273Y763479D01*
X702277Y761977D01*
X703779Y760973D01*
X704280Y760874D01*
Y763980D01*
D02*
G37*
G36*
X680450Y778319D02*
X679084Y778047D01*
X677927Y777273D01*
X677153Y776116D01*
X676881Y774750D01*
X677153Y773384D01*
X677626Y772677D01*
Y764870D01*
X673330Y760574D01*
X647073D01*
X646366Y761047D01*
X645000Y761319D01*
X643634Y761047D01*
X642477Y760273D01*
X641703Y759116D01*
X641431Y757750D01*
X641703Y756384D01*
X642477Y755227D01*
X643634Y754453D01*
X645000Y754181D01*
X646366Y754453D01*
X647073Y754926D01*
X674500D01*
X674500Y754926D01*
X675581Y755141D01*
X676497Y755753D01*
X682447Y761703D01*
X682447Y761703D01*
X683059Y762619D01*
X683274Y763700D01*
X683274Y763700D01*
Y772677D01*
X683747Y773384D01*
X684019Y774750D01*
X683747Y776116D01*
X682973Y777273D01*
X681816Y778047D01*
X680450Y778319D01*
D02*
G37*
G36*
X1066270Y759376D02*
Y756270D01*
X1069376D01*
X1069277Y756771D01*
X1068273Y758273D01*
X1066771Y759277D01*
X1066270Y759376D01*
D02*
G37*
G36*
X1063730D02*
X1063229Y759277D01*
X1061727Y758273D01*
X1060723Y756771D01*
X1060624Y756270D01*
X1063730D01*
Y759376D01*
D02*
G37*
G36*
X1069376Y753730D02*
X1066270D01*
Y750624D01*
X1066771Y750723D01*
X1068273Y751727D01*
X1069277Y753229D01*
X1069376Y753730D01*
D02*
G37*
G36*
X1063730D02*
X1060624D01*
X1060723Y753229D01*
X1061727Y751727D01*
X1063229Y750723D01*
X1063730Y750624D01*
Y753730D01*
D02*
G37*
G36*
X1433110Y757339D02*
X1431744Y757067D01*
X1430587Y756293D01*
X1429813Y755136D01*
X1429541Y753770D01*
X1429813Y752404D01*
X1430587Y751247D01*
X1431744Y750473D01*
X1433110Y750201D01*
X1434476Y750473D01*
X1435633Y751247D01*
X1436407Y752404D01*
X1436679Y753770D01*
X1436407Y755136D01*
X1435633Y756293D01*
X1434476Y757067D01*
X1433110Y757339D01*
D02*
G37*
G36*
X845770Y744376D02*
Y741270D01*
X848876D01*
X848777Y741771D01*
X847773Y743273D01*
X846271Y744277D01*
X845770Y744376D01*
D02*
G37*
G36*
X843230D02*
X842729Y744277D01*
X841227Y743273D01*
X840223Y741771D01*
X840124Y741270D01*
X843230D01*
Y744376D01*
D02*
G37*
G36*
X1126626Y740730D02*
X1123520D01*
Y737624D01*
X1124021Y737723D01*
X1125523Y738727D01*
X1126527Y740229D01*
X1126626Y740730D01*
D02*
G37*
G36*
X658140Y736136D02*
Y733030D01*
X661246D01*
X661147Y733531D01*
X660143Y735033D01*
X658641Y736037D01*
X658140Y736136D01*
D02*
G37*
G36*
X655600D02*
X655099Y736037D01*
X653597Y735033D01*
X652593Y733531D01*
X652494Y733030D01*
X655600D01*
Y736136D01*
D02*
G37*
G36*
X1290493Y735876D02*
Y732770D01*
X1293599D01*
X1293499Y733271D01*
X1292496Y734773D01*
X1290994Y735777D01*
X1290493Y735876D01*
D02*
G37*
G36*
X1287953D02*
X1287451Y735777D01*
X1285949Y734773D01*
X1284946Y733271D01*
X1284846Y732770D01*
X1287953D01*
Y735876D01*
D02*
G37*
G36*
X646170Y741203D02*
X644317Y740834D01*
X642746Y739784D01*
X641696Y738213D01*
X641327Y736360D01*
X641696Y734507D01*
X642746Y732935D01*
X644317Y731886D01*
X646170Y731517D01*
X648023Y731886D01*
X649595Y732935D01*
X650644Y734507D01*
X651013Y736360D01*
X650644Y738213D01*
X649595Y739784D01*
X648023Y740834D01*
X646170Y741203D01*
D02*
G37*
G36*
X1293599Y730230D02*
X1290493D01*
Y727124D01*
X1290994Y727223D01*
X1292496Y728227D01*
X1293499Y729729D01*
X1293599Y730230D01*
D02*
G37*
G36*
X1287953D02*
X1284846D01*
X1284946Y729729D01*
X1285949Y728227D01*
X1287451Y727223D01*
X1287953Y727124D01*
Y730230D01*
D02*
G37*
G36*
X661246Y730490D02*
X652240D01*
Y723280D01*
X663408D01*
X663316Y723978D01*
X662556Y725813D01*
X661348Y727387D01*
X660138Y728316D01*
X660143Y728487D01*
X661147Y729988D01*
X661246Y730490D01*
D02*
G37*
G36*
X649700Y729615D02*
X645970D01*
X644002Y729356D01*
X642168Y728596D01*
X640592Y727387D01*
X639384Y725813D01*
X638624Y723978D01*
X638532Y723280D01*
X649700D01*
Y729615D01*
D02*
G37*
G36*
X613670Y729111D02*
X610440D01*
Y723280D01*
X620603D01*
X620529Y723848D01*
X619819Y725560D01*
X618691Y727031D01*
X617220Y728159D01*
X615508Y728869D01*
X613670Y729111D01*
D02*
G37*
G36*
X607900D02*
X604670D01*
X602832Y728869D01*
X601120Y728159D01*
X599649Y727031D01*
X598521Y725560D01*
X597811Y723848D01*
X597737Y723280D01*
X607900D01*
Y729111D01*
D02*
G37*
G36*
X676020Y726126D02*
Y723020D01*
X679126D01*
X679027Y723521D01*
X678023Y725023D01*
X676521Y726027D01*
X676020Y726126D01*
D02*
G37*
G36*
X673480D02*
X672979Y726027D01*
X671477Y725023D01*
X670473Y723521D01*
X670374Y723020D01*
X673480D01*
Y726126D01*
D02*
G37*
G36*
X1433110Y729829D02*
X1431744Y729557D01*
X1430587Y728783D01*
X1429813Y727626D01*
X1429541Y726260D01*
X1429813Y724894D01*
X1430587Y723737D01*
X1431744Y722963D01*
X1433110Y722691D01*
X1434476Y722963D01*
X1435633Y723737D01*
X1436407Y724894D01*
X1436679Y726260D01*
X1436407Y727626D01*
X1435633Y728783D01*
X1434476Y729557D01*
X1433110Y729829D01*
D02*
G37*
G36*
X848806Y721660D02*
X845700D01*
Y718554D01*
X846201Y718653D01*
X847703Y719657D01*
X848707Y721159D01*
X848806Y721660D01*
D02*
G37*
G36*
X843160D02*
X840054D01*
X840153Y721159D01*
X841157Y719657D01*
X842658Y718653D01*
X843160Y718554D01*
Y721660D01*
D02*
G37*
G36*
X679126Y720480D02*
X676020D01*
Y717374D01*
X676521Y717473D01*
X678023Y718477D01*
X679027Y719978D01*
X679126Y720480D01*
D02*
G37*
G36*
X673480D02*
X670374D01*
X670473Y719978D01*
X671477Y718477D01*
X672979Y717473D01*
X673480Y717374D01*
Y720480D01*
D02*
G37*
G36*
X1301770Y719626D02*
Y716520D01*
X1304876D01*
X1304777Y717021D01*
X1303773Y718523D01*
X1302271Y719527D01*
X1301770Y719626D01*
D02*
G37*
G36*
X1299230D02*
X1298729Y719527D01*
X1297227Y718523D01*
X1296223Y717021D01*
X1296124Y716520D01*
X1299230D01*
Y719626D01*
D02*
G37*
G36*
X620603Y720740D02*
X610440D01*
Y714909D01*
X613670D01*
X615508Y715151D01*
X617220Y715861D01*
X618691Y716989D01*
X619819Y718460D01*
X620529Y720172D01*
X620603Y720740D01*
D02*
G37*
G36*
X607900D02*
X597737D01*
X597811Y720172D01*
X598521Y718460D01*
X599649Y716989D01*
X601120Y715861D01*
X602832Y715151D01*
X604670Y714909D01*
X607900D01*
Y720740D01*
D02*
G37*
G36*
X663408D02*
X652240D01*
Y714405D01*
X655970D01*
X657938Y714664D01*
X659773Y715424D01*
X661348Y716632D01*
X662556Y718207D01*
X663316Y720042D01*
X663408Y720740D01*
D02*
G37*
G36*
X649700D02*
X638532D01*
X638624Y720042D01*
X639384Y718207D01*
X640592Y716632D01*
X642168Y715424D01*
X644002Y714664D01*
X645970Y714405D01*
X649700D01*
Y720740D01*
D02*
G37*
G36*
X1304876Y713980D02*
X1301770D01*
Y710874D01*
X1302271Y710973D01*
X1303773Y711977D01*
X1304777Y713479D01*
X1304876Y713980D01*
D02*
G37*
G36*
X1299230D02*
X1296124D01*
X1296223Y713479D01*
X1297227Y711977D01*
X1298729Y710973D01*
X1299230Y710874D01*
Y713980D01*
D02*
G37*
G36*
X1100020Y712876D02*
Y709770D01*
X1103126D01*
X1103027Y710271D01*
X1102023Y711773D01*
X1100521Y712777D01*
X1100020Y712876D01*
D02*
G37*
G36*
X1097480D02*
X1096979Y712777D01*
X1095477Y711773D01*
X1094473Y710271D01*
X1094374Y709770D01*
X1097480D01*
Y712876D01*
D02*
G37*
G36*
X1103126Y707230D02*
X1100020D01*
Y704124D01*
X1100521Y704223D01*
X1102023Y705227D01*
X1103027Y706729D01*
X1103126Y707230D01*
D02*
G37*
G36*
X1097480D02*
X1094374D01*
X1094473Y706729D01*
X1095477Y705227D01*
X1096979Y704223D01*
X1097480Y704124D01*
Y707230D01*
D02*
G37*
G36*
X1409524Y665636D02*
Y662530D01*
X1412630D01*
X1412530Y663031D01*
X1411527Y664533D01*
X1410025Y665537D01*
X1409524Y665636D01*
D02*
G37*
G36*
X1406984D02*
X1406482Y665537D01*
X1404980Y664533D01*
X1403977Y663031D01*
X1403877Y662530D01*
X1406984D01*
Y665636D01*
D02*
G37*
G36*
X1412630Y659990D02*
X1409524D01*
Y656884D01*
X1410025Y656983D01*
X1411527Y657987D01*
X1412530Y659489D01*
X1412630Y659990D01*
D02*
G37*
G36*
X1406984D02*
X1403877D01*
X1403977Y659489D01*
X1404980Y657987D01*
X1406482Y656983D01*
X1406984Y656884D01*
Y659990D01*
D02*
G37*
G36*
X763770Y659376D02*
Y656270D01*
X766876D01*
X766777Y656771D01*
X765773Y658273D01*
X764271Y659277D01*
X763770Y659376D01*
D02*
G37*
G36*
X761230D02*
X760729Y659277D01*
X759227Y658273D01*
X758223Y656771D01*
X758124Y656270D01*
X761230D01*
Y659376D01*
D02*
G37*
G36*
X1300270Y661459D02*
Y652770D01*
X1308959D01*
X1308782Y654121D01*
X1307770Y656563D01*
X1306161Y658661D01*
X1304063Y660270D01*
X1301621Y661282D01*
X1300270Y661459D01*
D02*
G37*
G36*
X1297730D02*
X1296379Y661282D01*
X1293937Y660270D01*
X1291839Y658661D01*
X1290230Y656563D01*
X1289218Y654121D01*
X1289041Y652770D01*
X1297730D01*
Y661459D01*
D02*
G37*
G36*
X802270Y655376D02*
Y652270D01*
X805376D01*
X805277Y652771D01*
X804273Y654273D01*
X802771Y655277D01*
X802270Y655376D01*
D02*
G37*
G36*
X799730D02*
X799229Y655277D01*
X797727Y654273D01*
X796723Y652771D01*
X796624Y652270D01*
X799730D01*
Y655376D01*
D02*
G37*
G36*
X766876Y653730D02*
X763770D01*
Y650624D01*
X764271Y650723D01*
X765773Y651727D01*
X766777Y653229D01*
X766876Y653730D01*
D02*
G37*
G36*
X761230D02*
X758124D01*
X758223Y653229D01*
X759227Y651727D01*
X760729Y650723D01*
X761230Y650624D01*
Y653730D01*
D02*
G37*
G36*
X805376Y649730D02*
X802270D01*
Y646624D01*
X802771Y646723D01*
X804273Y647727D01*
X805277Y649229D01*
X805376Y649730D01*
D02*
G37*
G36*
X799730D02*
X796624D01*
X796723Y649229D01*
X797727Y647727D01*
X799229Y646723D01*
X799730Y646624D01*
Y649730D01*
D02*
G37*
G36*
X1349800Y660578D02*
X1347451Y660268D01*
X1345261Y659361D01*
X1343381Y657919D01*
X1341939Y656039D01*
X1341032Y653849D01*
X1340722Y651500D01*
X1341032Y649150D01*
X1341939Y646961D01*
X1343381Y645081D01*
X1345261Y643639D01*
X1347451Y642732D01*
X1349800Y642422D01*
X1352150Y642732D01*
X1354339Y643639D01*
X1356219Y645081D01*
X1357661Y646961D01*
X1358568Y649150D01*
X1358878Y651500D01*
X1358568Y653849D01*
X1357661Y656039D01*
X1356219Y657919D01*
X1354339Y659361D01*
X1352150Y660268D01*
X1349800Y660578D01*
D02*
G37*
G36*
X1297730Y650230D02*
X1289041D01*
X1289218Y648879D01*
X1290230Y646437D01*
X1291839Y644339D01*
X1293937Y642730D01*
X1296379Y641718D01*
X1297730Y641541D01*
Y650230D01*
D02*
G37*
G36*
X1308959D02*
X1300270D01*
Y641541D01*
X1301621Y641718D01*
X1304063Y642730D01*
X1306161Y644339D01*
X1307770Y646437D01*
X1308782Y648879D01*
X1308959Y650230D01*
D02*
G37*
G36*
X765520Y635876D02*
Y632770D01*
X768626D01*
X768527Y633271D01*
X767523Y634773D01*
X766021Y635777D01*
X765520Y635876D01*
D02*
G37*
G36*
X762980D02*
X762479Y635777D01*
X760977Y634773D01*
X759973Y633271D01*
X759874Y632770D01*
X762980D01*
Y635876D01*
D02*
G37*
G36*
X1433110Y637329D02*
X1431744Y637057D01*
X1430587Y636283D01*
X1429813Y635126D01*
X1429541Y633760D01*
X1429813Y632394D01*
X1430587Y631237D01*
X1431744Y630463D01*
X1433110Y630191D01*
X1434476Y630463D01*
X1435633Y631237D01*
X1436407Y632394D01*
X1436679Y633760D01*
X1436407Y635126D01*
X1435633Y636283D01*
X1434476Y637057D01*
X1433110Y637329D01*
D02*
G37*
G36*
X1300270Y636059D02*
Y627370D01*
X1308959D01*
X1308782Y628721D01*
X1307770Y631163D01*
X1306161Y633261D01*
X1304063Y634870D01*
X1301621Y635882D01*
X1300270Y636059D01*
D02*
G37*
G36*
X1297730D02*
X1296379Y635882D01*
X1293937Y634870D01*
X1291839Y633261D01*
X1290230Y631163D01*
X1289218Y628721D01*
X1289041Y627370D01*
X1297730D01*
Y636059D01*
D02*
G37*
G36*
X768626Y630230D02*
X765520D01*
Y627124D01*
X766021Y627223D01*
X767523Y628227D01*
X768527Y629729D01*
X768626Y630230D01*
D02*
G37*
G36*
X762980D02*
X759874D01*
X759973Y629729D01*
X760977Y628227D01*
X762479Y627223D01*
X762980Y627124D01*
Y630230D01*
D02*
G37*
G36*
X658957Y652548D02*
Y626320D01*
X672352D01*
Y638050D01*
X671852Y641846D01*
X670387Y645383D01*
X668057Y648420D01*
X665019Y650751D01*
X661482Y652216D01*
X658957Y652548D01*
D02*
G37*
G36*
X656417D02*
X653891Y652216D01*
X650354Y650751D01*
X647317Y648420D01*
X644986Y645383D01*
X643521Y641846D01*
X643021Y638050D01*
Y626320D01*
X656417D01*
Y652548D01*
D02*
G37*
G36*
X1349800Y635178D02*
X1347451Y634868D01*
X1345261Y633961D01*
X1343381Y632519D01*
X1341939Y630639D01*
X1341032Y628450D01*
X1340722Y626100D01*
X1341032Y623750D01*
X1341939Y621561D01*
X1343381Y619681D01*
X1345261Y618238D01*
X1347451Y617332D01*
X1349800Y617022D01*
X1352150Y617332D01*
X1354339Y618238D01*
X1356219Y619681D01*
X1357661Y621561D01*
X1358568Y623750D01*
X1358878Y626100D01*
X1358568Y628450D01*
X1357661Y630639D01*
X1356219Y632519D01*
X1354339Y633961D01*
X1352150Y634868D01*
X1349800Y635178D01*
D02*
G37*
G36*
X1324400D02*
X1322050Y634868D01*
X1319861Y633961D01*
X1317981Y632519D01*
X1316539Y630639D01*
X1315632Y628450D01*
X1315322Y626100D01*
X1315632Y623750D01*
X1316539Y621561D01*
X1317981Y619681D01*
X1319861Y618238D01*
X1322050Y617332D01*
X1324400Y617022D01*
X1326750Y617332D01*
X1328939Y618238D01*
X1330819Y619681D01*
X1332262Y621561D01*
X1333168Y623750D01*
X1333478Y626100D01*
X1333168Y628450D01*
X1332262Y630639D01*
X1330819Y632519D01*
X1328939Y633961D01*
X1326750Y634868D01*
X1324400Y635178D01*
D02*
G37*
G36*
X1297730Y624830D02*
X1289041D01*
X1289218Y623479D01*
X1290230Y621037D01*
X1291839Y618939D01*
X1293937Y617330D01*
X1296379Y616318D01*
X1297730Y616141D01*
Y624830D01*
D02*
G37*
G36*
X1308959D02*
X1300270D01*
Y616141D01*
X1301621Y616318D01*
X1304063Y617330D01*
X1306161Y618939D01*
X1307770Y621037D01*
X1308782Y623479D01*
X1308959Y624830D01*
D02*
G37*
G36*
X768770Y610626D02*
Y607520D01*
X771876D01*
X771777Y608021D01*
X770773Y609523D01*
X769271Y610527D01*
X768770Y610626D01*
D02*
G37*
G36*
X766230D02*
X765729Y610527D01*
X764227Y609523D01*
X763223Y608021D01*
X763124Y607520D01*
X766230D01*
Y610626D01*
D02*
G37*
G36*
X771876Y604980D02*
X768770D01*
Y601874D01*
X769271Y601973D01*
X770773Y602977D01*
X771777Y604478D01*
X771876Y604980D01*
D02*
G37*
G36*
X766230D02*
X763124D01*
X763223Y604478D01*
X764227Y602977D01*
X765729Y601973D01*
X766230Y601874D01*
Y604980D01*
D02*
G37*
G36*
X717687Y651666D02*
X714163Y651202D01*
X710879Y649842D01*
X708058Y647678D01*
X705894Y644858D01*
X704534Y641574D01*
X704070Y638050D01*
Y612050D01*
X704534Y608526D01*
X705894Y605242D01*
X708058Y602422D01*
X710879Y600258D01*
X714163Y598898D01*
X717687Y598433D01*
X721211Y598898D01*
X724495Y600258D01*
X727315Y602422D01*
X729479Y605242D01*
X730839Y608526D01*
X731303Y612050D01*
Y638050D01*
X730839Y641574D01*
X729479Y644858D01*
X727315Y647678D01*
X724495Y649842D01*
X721211Y651202D01*
X717687Y651666D01*
D02*
G37*
G36*
X672352Y623780D02*
X658957D01*
Y597552D01*
X661482Y597884D01*
X665019Y599349D01*
X668057Y601680D01*
X670387Y604717D01*
X671852Y608254D01*
X672352Y612050D01*
Y623780D01*
D02*
G37*
G36*
X656417D02*
X643021D01*
Y612050D01*
X643521Y608254D01*
X644986Y604717D01*
X647317Y601680D01*
X650354Y599349D01*
X653891Y597884D01*
X656417Y597552D01*
Y623780D01*
D02*
G37*
G36*
X1341520Y594109D02*
Y585420D01*
X1350209D01*
X1350032Y586771D01*
X1349020Y589213D01*
X1347411Y591311D01*
X1345313Y592920D01*
X1342871Y593932D01*
X1341520Y594109D01*
D02*
G37*
G36*
X909720D02*
Y585420D01*
X918409D01*
X918232Y586771D01*
X917220Y589213D01*
X915611Y591311D01*
X913513Y592920D01*
X911071Y593932D01*
X909720Y594109D01*
D02*
G37*
G36*
X1338980D02*
X1337629Y593932D01*
X1335187Y592920D01*
X1333089Y591311D01*
X1331480Y589213D01*
X1330468Y586771D01*
X1330291Y585420D01*
X1338980D01*
Y594109D01*
D02*
G37*
G36*
X907180D02*
X905829Y593932D01*
X903387Y592920D01*
X901289Y591311D01*
X899680Y589213D01*
X898668Y586771D01*
X898491Y585420D01*
X907180D01*
Y594109D01*
D02*
G37*
G36*
X705687Y591715D02*
X693957D01*
Y578320D01*
X720185D01*
X719853Y580846D01*
X718387Y584383D01*
X716057Y587420D01*
X713019Y589751D01*
X709482Y591216D01*
X705687Y591715D01*
D02*
G37*
G36*
X691417D02*
X679687D01*
X675891Y591216D01*
X672354Y589751D01*
X669317Y587420D01*
X666986Y584383D01*
X665521Y580846D01*
X665189Y578320D01*
X691417D01*
Y591715D01*
D02*
G37*
G36*
X1374650Y593150D02*
X1356650D01*
Y575150D01*
X1374650D01*
Y593150D01*
D02*
G37*
G36*
X959250Y593228D02*
X956900Y592918D01*
X954711Y592011D01*
X952831Y590569D01*
X951388Y588689D01*
X950482Y586499D01*
X950172Y584150D01*
X950482Y581800D01*
X951388Y579611D01*
X952831Y577731D01*
X954711Y576288D01*
X956900Y575382D01*
X959250Y575072D01*
X961600Y575382D01*
X963789Y576288D01*
X965669Y577731D01*
X967112Y579611D01*
X968018Y581800D01*
X968328Y584150D01*
X968018Y586499D01*
X967112Y588689D01*
X965669Y590569D01*
X963789Y592011D01*
X961600Y592918D01*
X959250Y593228D01*
D02*
G37*
G36*
X933850D02*
X931500Y592918D01*
X929311Y592011D01*
X927431Y590569D01*
X925988Y588689D01*
X925082Y586499D01*
X924772Y584150D01*
X925082Y581800D01*
X925988Y579611D01*
X927431Y577731D01*
X929311Y576288D01*
X931500Y575382D01*
X933850Y575072D01*
X936199Y575382D01*
X938389Y576288D01*
X940269Y577731D01*
X941712Y579611D01*
X942618Y581800D01*
X942928Y584150D01*
X942618Y586499D01*
X941712Y588689D01*
X940269Y590569D01*
X938389Y592011D01*
X936199Y592918D01*
X933850Y593228D01*
D02*
G37*
G36*
X883050D02*
X880701Y592918D01*
X878511Y592011D01*
X876631Y590569D01*
X875189Y588689D01*
X874282Y586499D01*
X873972Y584150D01*
X874282Y581800D01*
X875189Y579611D01*
X876631Y577731D01*
X878511Y576288D01*
X880701Y575382D01*
X883050Y575072D01*
X885399Y575382D01*
X887589Y576288D01*
X889469Y577731D01*
X890911Y579611D01*
X891818Y581800D01*
X892128Y584150D01*
X891818Y586499D01*
X890911Y588689D01*
X889469Y590569D01*
X887589Y592011D01*
X885399Y592918D01*
X883050Y593228D01*
D02*
G37*
G36*
X1338980Y582880D02*
X1330291D01*
X1330468Y581529D01*
X1331480Y579087D01*
X1333089Y576989D01*
X1335187Y575380D01*
X1337629Y574368D01*
X1338980Y574191D01*
Y582880D01*
D02*
G37*
G36*
X907180D02*
X898491D01*
X898668Y581529D01*
X899680Y579087D01*
X901289Y576989D01*
X903387Y575380D01*
X905829Y574368D01*
X907180Y574191D01*
Y582880D01*
D02*
G37*
G36*
X1350209D02*
X1341520D01*
Y574191D01*
X1342871Y574368D01*
X1345313Y575380D01*
X1347411Y576989D01*
X1349020Y579087D01*
X1350032Y581529D01*
X1350209Y582880D01*
D02*
G37*
G36*
X918409D02*
X909720D01*
Y574191D01*
X911071Y574368D01*
X913513Y575380D01*
X915611Y576989D01*
X917220Y579087D01*
X918232Y581529D01*
X918409Y582880D01*
D02*
G37*
G36*
X720185Y575780D02*
X693957D01*
Y562384D01*
X705687D01*
X709482Y562884D01*
X713019Y564349D01*
X716057Y566680D01*
X718387Y569717D01*
X719853Y573254D01*
X720185Y575780D01*
D02*
G37*
G36*
X691417D02*
X665189D01*
X665521Y573254D01*
X666986Y569717D01*
X669317Y566680D01*
X672354Y564349D01*
X675891Y562884D01*
X679687Y562384D01*
X691417D01*
Y575780D01*
D02*
G37*
G36*
X960520Y568709D02*
Y560020D01*
X969209D01*
X969032Y561371D01*
X968020Y563813D01*
X966411Y565911D01*
X964313Y567520D01*
X961871Y568532D01*
X960520Y568709D01*
D02*
G37*
G36*
X909720D02*
Y560020D01*
X918409D01*
X918232Y561371D01*
X917220Y563813D01*
X915611Y565911D01*
X913513Y567520D01*
X911071Y568532D01*
X909720Y568709D01*
D02*
G37*
G36*
X1341520D02*
Y560020D01*
X1350209D01*
X1350032Y561371D01*
X1349020Y563813D01*
X1347411Y565911D01*
X1345313Y567520D01*
X1342871Y568532D01*
X1341520Y568709D01*
D02*
G37*
G36*
X957980D02*
X956629Y568532D01*
X954187Y567520D01*
X952089Y565911D01*
X950480Y563813D01*
X949468Y561371D01*
X949291Y560020D01*
X957980D01*
Y568709D01*
D02*
G37*
G36*
X907180D02*
X905829Y568532D01*
X903387Y567520D01*
X901289Y565911D01*
X899680Y563813D01*
X898668Y561371D01*
X898491Y560020D01*
X907180D01*
Y568709D01*
D02*
G37*
G36*
X1338980D02*
X1337629Y568532D01*
X1335187Y567520D01*
X1333089Y565911D01*
X1331480Y563813D01*
X1330468Y561371D01*
X1330291Y560020D01*
X1338980D01*
Y568709D01*
D02*
G37*
G36*
X1420500Y606582D02*
X1416342Y606255D01*
X1412286Y605281D01*
X1408432Y603685D01*
X1404875Y601505D01*
X1401704Y598796D01*
X1398995Y595625D01*
X1396815Y592068D01*
X1395219Y588214D01*
X1394245Y584158D01*
X1393918Y580000D01*
X1394245Y575842D01*
X1395219Y571786D01*
X1396815Y567932D01*
X1398995Y564375D01*
X1401704Y561204D01*
X1404875Y558495D01*
X1408432Y556315D01*
X1412286Y554719D01*
X1416342Y553745D01*
X1420500Y553418D01*
X1424658Y553745D01*
X1428714Y554719D01*
X1432568Y556315D01*
X1436125Y558495D01*
X1439296Y561204D01*
X1442005Y564375D01*
X1444185Y567932D01*
X1445781Y571786D01*
X1446755Y575842D01*
X1447082Y580000D01*
X1446755Y584158D01*
X1445781Y588214D01*
X1444185Y592068D01*
X1442005Y595625D01*
X1439296Y598796D01*
X1436125Y601505D01*
X1432568Y603685D01*
X1428714Y605281D01*
X1424658Y606255D01*
X1420500Y606582D01*
D02*
G37*
G36*
X1365650Y567828D02*
X1363300Y567518D01*
X1361111Y566611D01*
X1359231Y565169D01*
X1357789Y563289D01*
X1356882Y561100D01*
X1356572Y558750D01*
X1356882Y556400D01*
X1357789Y554211D01*
X1359231Y552331D01*
X1361111Y550888D01*
X1363300Y549982D01*
X1365650Y549672D01*
X1368000Y549982D01*
X1370189Y550888D01*
X1372069Y552331D01*
X1373512Y554211D01*
X1374418Y556400D01*
X1374728Y558750D01*
X1374418Y561100D01*
X1373512Y563289D01*
X1372069Y565169D01*
X1370189Y566611D01*
X1368000Y567518D01*
X1365650Y567828D01*
D02*
G37*
G36*
X933850D02*
X931500Y567518D01*
X929311Y566611D01*
X927431Y565169D01*
X925988Y563289D01*
X925082Y561100D01*
X924772Y558750D01*
X925082Y556400D01*
X925988Y554211D01*
X927431Y552331D01*
X929311Y550888D01*
X931500Y549982D01*
X933850Y549672D01*
X936199Y549982D01*
X938389Y550888D01*
X940269Y552331D01*
X941712Y554211D01*
X942618Y556400D01*
X942928Y558750D01*
X942618Y561100D01*
X941712Y563289D01*
X940269Y565169D01*
X938389Y566611D01*
X936199Y567518D01*
X933850Y567828D01*
D02*
G37*
G36*
X883050D02*
X880701Y567518D01*
X878511Y566611D01*
X876631Y565169D01*
X875189Y563289D01*
X874282Y561100D01*
X873972Y558750D01*
X874282Y556400D01*
X875189Y554211D01*
X876631Y552331D01*
X878511Y550888D01*
X880701Y549982D01*
X883050Y549672D01*
X885399Y549982D01*
X887589Y550888D01*
X889469Y552331D01*
X890911Y554211D01*
X891818Y556400D01*
X892128Y558750D01*
X891818Y561100D01*
X890911Y563289D01*
X889469Y565169D01*
X887589Y566611D01*
X885399Y567518D01*
X883050Y567828D01*
D02*
G37*
G36*
X1338980Y557480D02*
X1330291D01*
X1330468Y556129D01*
X1331480Y553687D01*
X1333089Y551589D01*
X1335187Y549980D01*
X1337629Y548968D01*
X1338980Y548791D01*
Y557480D01*
D02*
G37*
G36*
X957980D02*
X949291D01*
X949468Y556129D01*
X950480Y553687D01*
X952089Y551589D01*
X954187Y549980D01*
X956629Y548968D01*
X957980Y548791D01*
Y557480D01*
D02*
G37*
G36*
X907180D02*
X898491D01*
X898668Y556129D01*
X899680Y553687D01*
X901289Y551589D01*
X903387Y549980D01*
X905829Y548968D01*
X907180Y548791D01*
Y557480D01*
D02*
G37*
G36*
X1350209D02*
X1341520D01*
Y548791D01*
X1342871Y548968D01*
X1345313Y549980D01*
X1347411Y551589D01*
X1349020Y553687D01*
X1350032Y556129D01*
X1350209Y557480D01*
D02*
G37*
G36*
X969209D02*
X960520D01*
Y548791D01*
X961871Y548968D01*
X964313Y549980D01*
X966411Y551589D01*
X968020Y553687D01*
X969032Y556129D01*
X969209Y557480D01*
D02*
G37*
G36*
X918409D02*
X909720D01*
Y548791D01*
X911071Y548968D01*
X913513Y549980D01*
X915611Y551589D01*
X917220Y553687D01*
X918232Y556129D01*
X918409Y557480D01*
D02*
G37*
%LPD*%
G36*
X1216808Y929303D02*
X1214940Y927434D01*
X1214328Y926518D01*
X1214113Y925437D01*
X1214113Y925437D01*
Y899569D01*
X1213640Y898862D01*
X1213368Y897496D01*
X1213640Y896131D01*
X1214414Y894973D01*
X1215571Y894200D01*
X1216937Y893928D01*
X1218303Y894200D01*
X1218463Y894307D01*
X1219733Y893628D01*
Y889982D01*
X1218826Y889074D01*
X1170787D01*
X1170787Y889074D01*
X1169706Y888859D01*
X1168789Y888247D01*
X1168789Y888247D01*
X1164873Y884331D01*
X1164261Y883414D01*
X1164046Y882334D01*
X1164046Y882333D01*
Y880416D01*
X1162776Y879530D01*
X1162100Y879664D01*
X1160734Y879393D01*
X1160068Y878947D01*
X1158798Y879566D01*
Y894122D01*
X1159022Y894242D01*
X1160068Y894667D01*
X1161250Y894431D01*
X1162616Y894703D01*
X1163773Y895477D01*
X1164727D01*
X1165884Y894703D01*
X1167250Y894431D01*
X1168616Y894703D01*
X1169773Y895477D01*
X1170547Y896634D01*
X1170819Y898000D01*
X1170547Y899366D01*
X1170074Y900073D01*
Y911880D01*
X1169859Y912961D01*
X1169247Y913877D01*
X1169247Y913877D01*
X1166878Y916247D01*
Y927734D01*
X1169620Y930476D01*
X1216322D01*
X1216808Y929303D01*
D02*
G37*
G36*
X1149399Y729427D02*
X1149711Y728875D01*
X1149811Y728437D01*
X1149436Y727876D01*
X1149221Y726795D01*
X1149221Y726795D01*
Y715255D01*
X1148748Y714547D01*
X1148477Y713182D01*
X1148748Y711816D01*
X1149230Y711094D01*
X1148658Y709824D01*
X1141260D01*
X1141112Y710002D01*
X1140697Y711094D01*
X1141252Y711924D01*
X1141524Y713290D01*
X1141252Y714656D01*
X1140779Y715363D01*
Y720990D01*
X1140779Y720990D01*
X1140564Y722071D01*
X1140074Y722804D01*
Y727830D01*
X1141920Y729676D01*
X1149144D01*
X1149399Y729427D01*
D02*
G37*
G36*
X1172926Y600527D02*
Y573220D01*
X1166514Y566808D01*
X1164799Y567518D01*
X1162450Y567828D01*
X1160100Y567518D01*
X1157911Y566611D01*
X1156031Y565169D01*
X1154588Y563289D01*
X1153682Y561100D01*
X1153372Y558750D01*
X1153682Y556400D01*
X1154588Y554211D01*
X1156031Y552331D01*
X1157911Y550888D01*
X1160100Y549982D01*
X1161144Y549844D01*
X1161061Y548574D01*
X1138439D01*
X1138356Y549844D01*
X1139399Y549982D01*
X1141589Y550888D01*
X1143469Y552331D01*
X1144911Y554211D01*
X1145818Y556400D01*
X1146128Y558750D01*
X1145818Y561100D01*
X1145386Y562142D01*
X1151747Y568503D01*
X1151747Y568503D01*
X1152359Y569419D01*
X1152574Y570500D01*
X1152574Y570500D01*
Y581155D01*
X1153844Y581408D01*
X1154588Y579611D01*
X1156031Y577731D01*
X1157911Y576288D01*
X1160100Y575382D01*
X1162450Y575072D01*
X1164799Y575382D01*
X1166989Y576288D01*
X1168869Y577731D01*
X1170312Y579611D01*
X1171218Y581800D01*
X1171528Y584150D01*
X1171218Y586499D01*
X1170312Y588689D01*
X1168869Y590569D01*
X1166989Y592011D01*
X1164799Y592918D01*
X1163459Y593095D01*
X1162859Y594431D01*
X1163243Y594958D01*
X1164391D01*
X1164391Y594958D01*
X1165472Y595173D01*
X1166388Y595785D01*
X1171656Y601053D01*
X1172926Y600527D01*
D02*
G37*
G36*
X1030855Y618025D02*
X1019253Y606423D01*
X1018641Y605507D01*
X1018426Y604426D01*
X1018426Y604426D01*
Y590105D01*
X1017156Y589674D01*
X1016469Y590569D01*
X1014589Y592011D01*
X1012400Y592918D01*
X1010050Y593228D01*
X1007701Y592918D01*
X1005511Y592011D01*
X1003631Y590569D01*
X1002188Y588689D01*
X1001594Y587254D01*
X1000324Y587507D01*
Y594580D01*
X1024942Y619198D01*
X1030369D01*
X1030855Y618025D01*
D02*
G37*
G36*
X1078930Y609907D02*
X1070503Y601480D01*
X1069891Y600563D01*
X1069676Y599482D01*
X1069676Y599482D01*
Y589518D01*
X1068406Y589087D01*
X1067269Y590569D01*
X1065389Y592011D01*
X1063199Y592918D01*
X1060850Y593228D01*
X1058501Y592918D01*
X1056311Y592011D01*
X1054431Y590569D01*
X1052989Y588689D01*
X1052082Y586499D01*
X1051844Y584696D01*
X1050574Y584779D01*
Y601397D01*
X1060257Y611080D01*
X1078444D01*
X1078930Y609907D01*
D02*
G37*
G36*
X1102612Y605585D02*
X1096253Y599226D01*
X1095641Y598310D01*
X1095426Y597229D01*
X1095426Y597229D01*
Y588835D01*
X1094156Y588582D01*
X1094111Y588689D01*
X1092669Y590569D01*
X1090789Y592011D01*
X1088599Y592918D01*
X1086250Y593228D01*
X1083901Y592918D01*
X1081711Y592011D01*
X1079831Y590569D01*
X1078389Y588689D01*
X1077482Y586499D01*
X1077172Y584150D01*
X1077482Y581800D01*
X1078389Y579611D01*
X1079831Y577731D01*
X1081711Y576288D01*
X1083901Y575382D01*
X1086250Y575072D01*
X1088599Y575382D01*
X1090789Y576288D01*
X1092669Y577731D01*
X1094111Y579611D01*
X1094156Y579718D01*
X1095426Y579465D01*
Y569420D01*
X1091823Y565818D01*
X1090789Y566611D01*
X1088599Y567518D01*
X1086250Y567828D01*
X1083901Y567518D01*
X1081711Y566611D01*
X1079831Y565169D01*
X1078389Y563289D01*
X1077482Y561100D01*
X1077172Y558750D01*
X1077482Y556400D01*
X1078389Y554211D01*
X1079831Y552331D01*
X1081711Y550888D01*
X1083901Y549982D01*
X1084944Y549844D01*
X1084861Y548574D01*
X1062239D01*
X1062156Y549844D01*
X1063199Y549982D01*
X1065389Y550888D01*
X1067269Y552331D01*
X1068711Y554211D01*
X1069618Y556400D01*
X1069928Y558750D01*
X1069618Y561100D01*
X1068908Y562814D01*
X1074497Y568403D01*
X1074497Y568403D01*
X1075109Y569319D01*
X1075324Y570400D01*
X1075324Y570400D01*
Y598313D01*
X1083770Y606759D01*
X1102126D01*
X1102612Y605585D01*
D02*
G37*
G36*
X1055136Y613946D02*
X1045753Y604564D01*
X1045141Y603647D01*
X1044926Y602566D01*
X1044926Y602566D01*
Y588110D01*
X1043656Y587858D01*
X1043311Y588689D01*
X1041869Y590569D01*
X1039989Y592011D01*
X1037800Y592918D01*
X1035450Y593228D01*
X1033101Y592918D01*
X1030911Y592011D01*
X1029031Y590569D01*
X1027589Y588689D01*
X1026682Y586499D01*
X1026372Y584150D01*
X1026682Y581800D01*
X1027589Y579611D01*
X1029031Y577731D01*
X1030911Y576288D01*
X1033101Y575382D01*
X1035450Y575072D01*
X1037800Y575382D01*
X1039989Y576288D01*
X1041869Y577731D01*
X1043311Y579611D01*
X1043656Y580442D01*
X1044926Y580190D01*
Y572799D01*
X1039104Y566978D01*
X1037800Y567518D01*
X1035450Y567828D01*
X1033101Y567518D01*
X1030911Y566611D01*
X1029031Y565169D01*
X1027589Y563289D01*
X1026682Y561100D01*
X1026372Y558750D01*
X1026682Y556400D01*
X1027589Y554211D01*
X1029031Y552331D01*
X1030911Y550888D01*
X1033101Y549982D01*
X1034144Y549844D01*
X1034061Y548574D01*
X1011439D01*
X1011356Y549844D01*
X1012400Y549982D01*
X1014589Y550888D01*
X1016469Y552331D01*
X1017912Y554211D01*
X1018818Y556400D01*
X1019128Y558750D01*
X1018818Y561100D01*
X1017912Y563289D01*
X1017856Y563362D01*
X1023247Y568753D01*
X1023247Y568753D01*
X1023859Y569669D01*
X1024074Y570750D01*
Y603256D01*
X1035938Y615120D01*
X1054650D01*
X1055136Y613946D01*
D02*
G37*
G36*
X1129056Y601545D02*
X1122253Y594742D01*
X1121641Y593826D01*
X1121426Y592745D01*
X1121426Y592745D01*
Y587386D01*
X1120156Y587133D01*
X1119511Y588689D01*
X1118069Y590569D01*
X1116189Y592011D01*
X1113999Y592918D01*
X1111650Y593228D01*
X1109301Y592918D01*
X1107111Y592011D01*
X1105231Y590569D01*
X1103789Y588689D01*
X1102882Y586499D01*
X1102572Y584150D01*
X1102882Y581800D01*
X1103789Y579611D01*
X1105231Y577731D01*
X1107111Y576288D01*
X1109301Y575382D01*
X1111650Y575072D01*
X1113999Y575382D01*
X1116189Y576288D01*
X1118069Y577731D01*
X1119511Y579611D01*
X1120156Y581167D01*
X1121426Y580914D01*
Y571670D01*
X1116290Y566534D01*
X1116189Y566611D01*
X1113999Y567518D01*
X1111650Y567828D01*
X1109301Y567518D01*
X1107111Y566611D01*
X1105231Y565169D01*
X1103789Y563289D01*
X1102882Y561100D01*
X1102572Y558750D01*
X1102882Y556400D01*
X1103789Y554211D01*
X1105231Y552331D01*
X1107111Y550888D01*
X1109301Y549982D01*
X1110344Y549844D01*
X1110261Y548574D01*
X1087639D01*
X1087556Y549844D01*
X1088599Y549982D01*
X1090789Y550888D01*
X1092669Y552331D01*
X1094111Y554211D01*
X1095018Y556400D01*
X1095328Y558750D01*
X1095027Y561033D01*
X1100247Y566253D01*
X1100247Y566253D01*
X1100859Y567169D01*
X1101074Y568250D01*
Y596059D01*
X1107734Y602719D01*
X1128570D01*
X1129056Y601545D01*
D02*
G37*
G36*
X1157287Y597505D02*
X1147753Y587971D01*
X1147141Y587055D01*
X1145887Y586601D01*
X1145762Y586635D01*
X1144911Y588689D01*
X1143469Y590569D01*
X1141589Y592011D01*
X1139399Y592918D01*
X1137050Y593228D01*
X1134700Y592918D01*
X1132511Y592011D01*
X1130631Y590569D01*
X1129189Y588689D01*
X1128282Y586499D01*
X1127074Y586755D01*
Y591575D01*
X1134178Y598679D01*
X1156801D01*
X1157287Y597505D01*
D02*
G37*
G36*
X1187086Y607676D02*
X1198176Y596586D01*
Y584399D01*
X1196906Y584316D01*
X1196618Y586499D01*
X1195712Y588689D01*
X1194269Y590569D01*
X1192389Y592011D01*
X1190200Y592918D01*
X1187850Y593228D01*
X1185500Y592918D01*
X1183311Y592011D01*
X1181431Y590569D01*
X1179988Y588689D01*
X1179844Y588340D01*
X1178574Y588593D01*
Y600960D01*
X1185371Y607756D01*
X1187086Y607676D01*
D02*
G37*
G36*
X1299176Y580793D02*
Y562107D01*
X1297906Y561854D01*
X1297312Y563289D01*
X1295869Y565169D01*
X1293989Y566611D01*
X1291799Y567518D01*
X1289450Y567828D01*
X1287101Y567518D01*
X1284911Y566611D01*
X1283031Y565169D01*
X1281588Y563289D01*
X1280682Y561100D01*
X1280372Y558750D01*
X1280682Y556400D01*
X1281588Y554211D01*
X1283031Y552331D01*
X1284911Y550888D01*
X1287101Y549982D01*
X1288144Y549844D01*
X1288061Y548574D01*
X1265439D01*
X1265356Y549844D01*
X1266400Y549982D01*
X1268589Y550888D01*
X1270469Y552331D01*
X1271911Y554211D01*
X1272818Y556400D01*
X1273128Y558750D01*
X1272818Y561100D01*
X1272108Y562814D01*
X1279247Y569953D01*
X1279859Y570869D01*
X1280074Y571950D01*
Y579948D01*
X1281344Y580201D01*
X1281588Y579611D01*
X1283031Y577731D01*
X1284911Y576288D01*
X1287101Y575382D01*
X1289450Y575072D01*
X1291799Y575382D01*
X1293989Y576288D01*
X1295869Y577731D01*
X1297312Y579611D01*
X1297906Y581046D01*
X1299176Y580793D01*
D02*
G37*
G36*
X1274426Y594580D02*
Y573120D01*
X1268114Y566808D01*
X1266400Y567518D01*
X1264050Y567828D01*
X1261701Y567518D01*
X1259511Y566611D01*
X1257631Y565169D01*
X1256189Y563289D01*
X1255282Y561100D01*
X1254972Y558750D01*
X1255282Y556400D01*
X1256189Y554211D01*
X1257631Y552331D01*
X1259511Y550888D01*
X1261701Y549982D01*
X1262744Y549844D01*
X1262661Y548574D01*
X1240039D01*
X1239956Y549844D01*
X1241000Y549982D01*
X1243189Y550888D01*
X1245069Y552331D01*
X1246512Y554211D01*
X1247418Y556400D01*
X1247728Y558750D01*
X1247418Y561100D01*
X1246708Y562814D01*
X1253997Y570103D01*
X1254609Y571019D01*
X1254824Y572100D01*
X1254824Y572100D01*
Y579586D01*
X1256094Y579839D01*
X1256189Y579611D01*
X1257631Y577731D01*
X1259511Y576288D01*
X1261701Y575382D01*
X1264050Y575072D01*
X1266400Y575382D01*
X1268589Y576288D01*
X1270469Y577731D01*
X1271911Y579611D01*
X1272818Y581800D01*
X1273128Y584150D01*
X1272818Y586499D01*
X1271911Y588689D01*
X1270469Y590569D01*
X1268589Y592011D01*
X1266400Y592918D01*
X1264050Y593228D01*
X1261701Y592918D01*
X1259511Y592011D01*
X1257631Y590569D01*
X1256189Y588689D01*
X1256094Y588461D01*
X1254824Y588714D01*
Y593177D01*
X1254609Y594258D01*
X1253997Y595174D01*
X1253997Y595175D01*
X1246892Y602279D01*
X1247378Y603452D01*
X1265553D01*
X1274426Y594580D01*
D02*
G37*
G36*
X1249176Y592008D02*
Y573270D01*
X1242714Y566808D01*
X1241000Y567518D01*
X1238650Y567828D01*
X1236301Y567518D01*
X1234111Y566611D01*
X1232231Y565169D01*
X1230788Y563289D01*
X1229882Y561100D01*
X1229572Y558750D01*
X1229882Y556400D01*
X1230788Y554211D01*
X1232231Y552331D01*
X1234111Y550888D01*
X1236301Y549982D01*
X1237344Y549844D01*
X1237261Y548574D01*
X1214639D01*
X1214556Y549844D01*
X1215600Y549982D01*
X1217789Y550888D01*
X1219669Y552331D01*
X1221112Y554211D01*
X1222018Y556400D01*
X1222328Y558750D01*
X1222018Y561100D01*
X1221308Y562814D01*
X1229747Y571253D01*
X1229747Y571253D01*
X1230359Y572169D01*
X1230574Y573250D01*
Y577804D01*
X1231844Y578235D01*
X1232231Y577731D01*
X1234111Y576288D01*
X1236301Y575382D01*
X1238650Y575072D01*
X1241000Y575382D01*
X1243189Y576288D01*
X1245069Y577731D01*
X1246512Y579611D01*
X1247418Y581800D01*
X1247728Y584150D01*
X1247418Y586499D01*
X1246512Y588689D01*
X1245069Y590569D01*
X1243189Y592011D01*
X1241000Y592918D01*
X1238650Y593228D01*
X1236301Y592918D01*
X1234111Y592011D01*
X1232231Y590569D01*
X1231833Y590050D01*
X1231494Y590043D01*
X1230500Y590399D01*
X1230359Y591105D01*
X1229747Y592021D01*
X1223605Y598163D01*
X1224091Y599336D01*
X1241847D01*
X1249176Y592008D01*
D02*
G37*
G36*
X1205415Y595365D02*
X1206495Y595150D01*
X1206496Y595150D01*
X1218630D01*
X1224926Y588854D01*
Y574420D01*
X1217314Y566808D01*
X1215600Y567518D01*
X1213250Y567828D01*
X1210900Y567518D01*
X1208711Y566611D01*
X1206831Y565169D01*
X1205388Y563289D01*
X1204482Y561100D01*
X1204172Y558750D01*
X1204482Y556400D01*
X1205388Y554211D01*
X1206831Y552331D01*
X1208711Y550888D01*
X1210900Y549982D01*
X1211944Y549844D01*
X1211861Y548574D01*
X1189239D01*
X1189156Y549844D01*
X1190200Y549982D01*
X1192389Y550888D01*
X1194269Y552331D01*
X1195712Y554211D01*
X1196618Y556400D01*
X1196928Y558750D01*
X1196618Y561100D01*
X1195806Y563061D01*
X1202997Y570253D01*
X1202997Y570253D01*
X1203609Y571169D01*
X1203824Y572250D01*
Y580069D01*
X1205094Y580322D01*
X1205388Y579611D01*
X1206831Y577731D01*
X1208711Y576288D01*
X1210900Y575382D01*
X1213250Y575072D01*
X1215600Y575382D01*
X1217789Y576288D01*
X1219669Y577731D01*
X1221112Y579611D01*
X1222018Y581800D01*
X1222328Y584150D01*
X1222018Y586499D01*
X1221112Y588689D01*
X1219669Y590569D01*
X1217789Y592011D01*
X1215600Y592918D01*
X1213250Y593228D01*
X1210900Y592918D01*
X1208711Y592011D01*
X1206831Y590569D01*
X1205388Y588689D01*
X1205094Y587978D01*
X1203824Y588231D01*
Y594900D01*
X1205094Y595579D01*
X1205415Y595365D01*
D02*
G37*
G36*
X1198176Y583900D02*
Y573420D01*
X1191666Y566911D01*
X1190200Y567518D01*
X1187850Y567828D01*
X1185500Y567518D01*
X1183311Y566611D01*
X1181431Y565169D01*
X1179988Y563289D01*
X1179082Y561100D01*
X1178772Y558750D01*
X1179082Y556400D01*
X1179988Y554211D01*
X1181431Y552331D01*
X1183311Y550888D01*
X1185500Y549982D01*
X1186544Y549844D01*
X1186461Y548574D01*
X1163839D01*
X1163756Y549844D01*
X1164799Y549982D01*
X1166989Y550888D01*
X1168869Y552331D01*
X1170312Y554211D01*
X1171218Y556400D01*
X1171528Y558750D01*
X1171218Y561100D01*
X1170508Y562814D01*
X1177747Y570053D01*
X1177747Y570053D01*
X1178359Y570969D01*
X1178574Y572050D01*
Y579707D01*
X1179844Y579959D01*
X1179988Y579611D01*
X1181431Y577731D01*
X1183311Y576288D01*
X1185500Y575382D01*
X1187850Y575072D01*
X1190200Y575382D01*
X1192389Y576288D01*
X1194269Y577731D01*
X1195712Y579611D01*
X1196618Y581800D01*
X1196906Y583984D01*
X1198176Y583900D01*
D02*
G37*
G36*
X1002188Y579611D02*
X1003631Y577731D01*
X1005511Y576288D01*
X1007701Y575382D01*
X1010050Y575072D01*
X1012400Y575382D01*
X1014589Y576288D01*
X1016469Y577731D01*
X1017156Y578626D01*
X1018426Y578195D01*
Y571920D01*
X1013548Y567042D01*
X1012400Y567518D01*
X1010050Y567828D01*
X1007701Y567518D01*
X1005511Y566611D01*
X1003631Y565169D01*
X1002188Y563289D01*
X1001594Y561854D01*
X1000324Y562107D01*
Y580793D01*
X1001594Y581046D01*
X1002188Y579611D01*
D02*
G37*
G36*
X1052082Y581800D02*
X1052989Y579611D01*
X1054431Y577731D01*
X1056311Y576288D01*
X1058501Y575382D01*
X1060850Y575072D01*
X1063199Y575382D01*
X1065389Y576288D01*
X1067269Y577731D01*
X1068406Y579213D01*
X1069676Y578782D01*
Y571570D01*
X1064914Y566808D01*
X1063199Y567518D01*
X1060850Y567828D01*
X1058501Y567518D01*
X1056311Y566611D01*
X1054431Y565169D01*
X1052989Y563289D01*
X1052082Y561100D01*
X1051772Y558750D01*
X1052082Y556400D01*
X1052989Y554211D01*
X1054431Y552331D01*
X1056311Y550888D01*
X1058501Y549982D01*
X1059544Y549844D01*
X1059461Y548574D01*
X1036839D01*
X1036756Y549844D01*
X1037800Y549982D01*
X1039989Y550888D01*
X1041869Y552331D01*
X1043311Y554211D01*
X1044218Y556400D01*
X1044528Y558750D01*
X1044218Y561100D01*
X1043338Y563224D01*
X1049747Y569632D01*
X1049747Y569632D01*
X1050359Y570549D01*
X1050574Y571629D01*
X1050574Y571629D01*
Y583521D01*
X1051844Y583604D01*
X1052082Y581800D01*
D02*
G37*
G36*
X1129189Y579611D02*
X1130631Y577731D01*
X1132511Y576288D01*
X1134700Y575382D01*
X1137050Y575072D01*
X1139399Y575382D01*
X1141589Y576288D01*
X1143469Y577731D01*
X1144911Y579611D01*
X1145656Y581408D01*
X1146926Y581155D01*
Y571670D01*
X1141746Y566491D01*
X1141589Y566611D01*
X1139399Y567518D01*
X1137050Y567828D01*
X1134700Y567518D01*
X1132511Y566611D01*
X1130631Y565169D01*
X1129189Y563289D01*
X1128282Y561100D01*
X1127972Y558750D01*
X1128282Y556400D01*
X1129189Y554211D01*
X1130631Y552331D01*
X1132511Y550888D01*
X1134700Y549982D01*
X1135744Y549844D01*
X1135661Y548574D01*
X1113039D01*
X1112956Y549844D01*
X1113999Y549982D01*
X1116189Y550888D01*
X1118069Y552331D01*
X1119511Y554211D01*
X1120418Y556400D01*
X1120728Y558750D01*
X1120418Y561100D01*
X1119957Y562213D01*
X1126247Y568503D01*
X1126247Y568503D01*
X1126859Y569419D01*
X1127074Y570500D01*
X1127074Y570500D01*
Y581545D01*
X1128282Y581800D01*
X1129189Y579611D01*
D02*
G37*
D12*
X700967Y879801D02*
G03*
X711221Y892358I-57082J57082D01*
G01*
X939378Y813940D02*
X1052309D01*
X937213Y816105D02*
Y897364D01*
Y816105D02*
X939378Y813940D01*
X933173Y814102D02*
X937457Y809817D01*
X937603Y904290D02*
X947040D01*
X933173Y899860D02*
X937603Y904290D01*
X933173Y814102D02*
Y899860D01*
X937457Y809817D02*
X1050718D01*
X1006270Y817980D02*
X1053982D01*
X1062910Y807000D02*
Y809052D01*
X1053982Y817980D02*
X1062910Y809052D01*
X1004750Y819500D02*
X1006270Y817980D01*
X1058870Y803907D02*
Y807378D01*
X1052309Y813940D02*
X1058870Y807378D01*
X1050718Y809817D02*
X1054830Y805705D01*
X1047233Y805777D02*
X1050790Y802220D01*
X934936Y805777D02*
X1047233D01*
X1046750Y795981D02*
Y799965D01*
X1045085Y801630D02*
X1046750Y799965D01*
X933370Y801630D02*
X1045085D01*
X1050790Y797974D02*
Y802220D01*
Y797974D02*
X1056276Y792488D01*
X1054830Y800673D02*
Y805705D01*
Y800673D02*
X1058975Y796528D01*
X1058870Y803907D02*
X1061955Y800822D01*
X1062910Y807000D02*
X1064463Y805447D01*
X1046750Y795981D02*
X1054368Y788363D01*
X1071415D01*
X925092Y809908D02*
X933370Y801630D01*
X929133Y811581D02*
X934936Y805777D01*
X929133Y811581D02*
Y902391D01*
X1124750Y863000D02*
X1128250Y866500D01*
X1130500D01*
X1137955Y713290D02*
Y720990D01*
X1137250Y721695D02*
X1137955Y720990D01*
X1137250Y721695D02*
Y729000D01*
X1166910Y937474D02*
X1395934D01*
X1402521Y700979D02*
Y930887D01*
X1395934Y937474D02*
X1402521Y930887D01*
X1168450Y933300D02*
X1392915D01*
X1398356Y689144D02*
Y927859D01*
X1392915Y933300D02*
X1398356Y927859D01*
X1220750Y929250D02*
X1389990D01*
X1394316Y680816D02*
Y924924D01*
X1389990Y929250D02*
X1394316Y924924D01*
X1387316Y925210D02*
X1390276Y922250D01*
Y682566D02*
Y922250D01*
X1223460Y925210D02*
X1387316D01*
X1273600Y669850D02*
X1280040Y676290D01*
X1273600Y651500D02*
Y669850D01*
X1280040Y676290D02*
X1384000D01*
X1390276Y682566D01*
X1221000Y922750D02*
X1223460Y925210D01*
X1221000Y904000D02*
X1222500Y902500D01*
X1221000Y904000D02*
Y922750D01*
X1222500Y902500D02*
X1231290D01*
X1233020Y900770D01*
X1231250Y893754D02*
X1233020Y895524D01*
Y900770D01*
X1223280Y878108D02*
X1231250Y886078D01*
Y893754D01*
X1228250Y897105D02*
Y897500D01*
X1227024Y895879D02*
X1228250Y897105D01*
X1227024Y887565D02*
Y895879D01*
X1202000Y875250D02*
X1204858Y878108D01*
X1223280D01*
X1202000Y866750D02*
Y875250D01*
X1324400Y651500D02*
X1325500Y652600D01*
Y664500D01*
X1333250Y672250D02*
X1385750D01*
X1325500Y664500D02*
X1333250Y672250D01*
X1385750D02*
X1394316Y680816D01*
X1216937Y897496D02*
Y925437D01*
X1220750Y929250D01*
X1172398Y882148D02*
X1221607D01*
X1170910Y880660D02*
X1172398Y882148D01*
X1170910Y872447D02*
Y880660D01*
X1221607Y882148D02*
X1227024Y887565D01*
X1166870Y874120D02*
Y882334D01*
X1170787Y886250D01*
X1219996D01*
X1222436Y897580D02*
X1222558Y897459D01*
X1219996Y886250D02*
X1222558Y888812D01*
Y897459D01*
X1273600Y605922D02*
Y626100D01*
Y605922D02*
X1282272Y597250D01*
X1296250D01*
X1120523Y707000D02*
X1152911D01*
X1117250Y710273D02*
Y723449D01*
Y710273D02*
X1120523Y707000D01*
X1155838Y623510D02*
Y704073D01*
X1152911Y707000D02*
X1155838Y704073D01*
X1159566Y601503D02*
X1159885Y601823D01*
X1159371Y609902D02*
X1168180Y618712D01*
X1154865Y613942D02*
X1157697D01*
X1153153Y617944D02*
X1153192Y617982D01*
X1133008Y601503D02*
X1159566D01*
X1082600Y609583D02*
X1156219D01*
X1059088Y613904D02*
X1154827D01*
X1149750Y585974D02*
X1161559Y597783D01*
X1157892Y605543D02*
X1158212Y605863D01*
X1153192Y617982D02*
X1156024D01*
X1180300Y613692D02*
Y827032D01*
X1172220Y617038D02*
Y830379D01*
X1154827Y613904D02*
X1154865Y613942D01*
X1161559Y597783D02*
X1164391D01*
X1158212Y605863D02*
X1161044D01*
X1160100Y622059D02*
Y864632D01*
X1162718Y601823D02*
X1176260Y615365D01*
X1023773Y622023D02*
X1154351D01*
X1156538Y609902D02*
X1159371D01*
X1159885Y601823D02*
X1162718D01*
X1156219Y609583D02*
X1156538Y609902D01*
X1175750Y572050D02*
Y602130D01*
X1156024Y617982D02*
X1160100Y622059D01*
X1154351Y622023D02*
X1155838Y623510D01*
X1176260Y615365D02*
Y828706D01*
X1161044Y605863D02*
X1172220Y617038D01*
X1157697Y613942D02*
X1164140Y620385D01*
Y862959D01*
X1175750Y602130D02*
X1184340Y610720D01*
X1164391Y597783D02*
X1180300Y613692D01*
X1106564Y605543D02*
X1157892D01*
X1149750Y570500D02*
Y585974D01*
X1168180Y618712D02*
Y861285D01*
X1034768Y617944D02*
X1153153D01*
X997500Y595750D02*
X1023773Y622023D01*
X1021250Y604426D02*
X1034768Y617944D01*
X1098250Y597229D02*
X1106564Y605543D01*
X1010050Y558750D02*
Y559550D01*
X1035450Y558750D02*
Y559329D01*
X1098250Y568250D02*
Y597229D01*
X1111650Y558750D02*
X1112500D01*
X1124250Y570500D01*
X1047750Y602566D02*
X1059088Y613904D01*
X1035450Y559329D02*
X1047750Y571629D01*
Y602566D01*
X1086250Y558750D02*
X1088750D01*
X1072500Y599482D02*
X1082600Y609583D01*
X1010050Y559550D02*
X1021250Y570750D01*
Y604426D01*
X1088750Y558750D02*
X1098250Y568250D01*
X1124250Y570500D02*
Y592745D01*
X1133008Y601503D01*
X1060850Y558750D02*
X1072500Y570400D01*
Y599482D01*
X997500Y549750D02*
Y595750D01*
X1001500Y545750D02*
X1295250D01*
X997500Y549750D02*
X1001500Y545750D01*
X1295250D02*
X1302000Y552500D01*
Y591500D01*
X1296250Y597250D02*
X1302000Y591500D01*
X1224170Y836080D02*
X1235145Y825105D01*
X1239891D01*
X1232290Y820488D02*
Y822173D01*
X1239221Y819029D02*
X1239500Y818750D01*
X1233748Y819029D02*
X1239221D01*
X1232290Y820488D02*
X1233748Y819029D01*
X1191021Y832040D02*
X1222423D01*
X1232290Y822173D01*
X1228250Y814738D02*
Y820500D01*
X1232434Y810554D02*
X1239993D01*
X1228250Y814738D02*
X1232434Y810554D01*
X1224000Y811500D02*
Y819037D01*
X1193908Y823500D02*
X1219537D01*
X1224000Y819037D01*
X1220750Y828000D02*
X1228250Y820500D01*
X1224000Y811500D02*
X1231000Y804500D01*
X1239500D01*
X1188380Y610376D02*
Y823686D01*
X1192420Y822012D02*
X1193908Y823500D01*
X1188380Y610376D02*
X1201000Y597756D01*
X1184340Y825359D02*
X1191021Y832040D01*
X1188127Y840572D02*
X1237783D01*
X1188380Y823686D02*
X1192694Y828000D01*
X1186961Y845120D02*
X1239617D01*
X1192694Y828000D02*
X1220750D01*
X1172220Y830379D02*
X1186961Y845120D01*
X1184340Y610720D02*
Y825359D01*
X1192420Y612049D02*
Y822012D01*
X1176260Y828706D02*
X1188127Y840572D01*
X1180300Y827032D02*
X1189348Y836080D01*
X1224170D01*
X1237783Y840572D02*
X1239105Y839250D01*
X1239500D01*
X1264050Y558750D02*
X1264050D01*
X1277250Y571950D02*
Y595750D01*
X1264050Y558750D02*
X1277250Y571950D01*
X1196460Y613723D02*
Y761930D01*
X1206495Y597974D02*
X1219800D01*
X1209619Y606277D02*
X1266723D01*
X1200500Y615396D02*
Y760257D01*
X1196460Y613723D02*
X1208022Y602161D01*
X1243017D01*
X1192420Y612049D02*
X1206495Y597974D01*
X1201000Y572250D02*
Y597756D01*
X1200500Y615396D02*
X1209619Y606277D01*
X1162450Y558750D02*
X1175750Y572050D01*
X1138000Y558750D02*
X1149750Y570500D01*
X1203524Y768994D02*
X1238099D01*
X1266723Y606277D02*
X1277250Y595750D01*
X1243017Y602161D02*
X1252000Y593177D01*
Y572100D02*
Y593177D01*
X1219800Y597974D02*
X1227750Y590024D01*
Y573250D02*
Y590024D01*
X1238099Y768994D02*
X1239105Y770000D01*
X1204720Y764477D02*
X1239167D01*
X1239105Y770000D02*
X1239500D01*
X1196460Y761930D02*
X1203524Y768994D01*
X1239167Y764477D02*
X1239343Y764301D01*
X1200500Y760257D02*
X1204720Y764477D01*
X1160100Y864632D02*
X1160464Y864996D01*
X1164140Y862959D02*
X1164783Y863602D01*
X1168180Y861285D02*
X1168823Y861929D01*
X1147119Y750079D02*
X1147894Y750854D01*
X1140568Y748690D02*
Y749085D01*
X1143079Y751596D02*
Y751752D01*
X1151934Y734906D02*
Y933924D01*
X1147894Y750854D02*
Y935598D01*
X1155974Y730724D02*
Y932251D01*
X1143079Y751752D02*
X1143854Y752527D01*
Y937271D01*
X1140568Y749085D02*
X1143079Y751596D01*
X1146839Y748216D02*
X1147119Y748495D01*
X1152045Y726795D02*
X1155974Y730724D01*
X1149527Y732500D02*
X1151934Y734906D01*
X1147119Y748495D02*
Y750079D01*
X1140750Y732500D02*
X1149527D01*
X1168823Y861929D02*
Y870360D01*
X1170910Y872447D01*
X1164783Y872033D02*
X1166870Y874120D01*
X1164783Y863602D02*
Y872033D01*
X1162100Y875701D02*
Y876096D01*
X1160464Y874065D02*
X1162100Y875701D01*
X1160464Y864996D02*
Y874065D01*
X1147894Y935598D02*
X1162006Y949710D01*
X1155974Y932251D02*
X1165237Y941514D01*
X1151934Y933924D02*
X1163564Y945554D01*
X1143854Y937271D02*
X1160333Y953750D01*
X1238650Y558750D02*
X1252000Y572100D01*
X1213250Y558750D02*
X1227750Y573250D01*
X1187850Y558750D02*
Y559100D01*
X1201000Y572250D01*
X1137050Y558750D02*
X1138000D01*
X1152045Y713182D02*
Y726795D01*
X1165237Y941514D02*
X1399332D01*
X1160014Y913403D02*
Y930577D01*
X1164054Y928904D02*
X1168450Y933300D01*
X1160014Y930577D02*
X1166910Y937474D01*
X1164054Y915077D02*
Y928904D01*
X1160014Y913403D02*
X1161250Y912167D01*
X1164054Y915077D02*
X1167250Y911880D01*
X1161250Y898000D02*
Y912167D01*
X1167250Y898000D02*
Y911880D01*
X1399332Y941514D02*
X1408060Y932786D01*
Y929060D02*
Y932786D01*
X1398356Y689144D02*
X1401000Y686500D01*
X1407031Y699039D02*
X1407310Y698760D01*
X1404461Y699039D02*
X1407031D01*
X1402521Y700979D02*
X1404461Y699039D01*
X1407070Y686500D02*
X1407310Y686260D01*
X1401000Y686500D02*
X1407070D01*
X1160333Y953750D02*
X1400750D01*
X1163564Y945554D02*
X1403837D01*
X1162006Y949710D02*
X1403710D01*
X1407832Y941560D02*
X1408060D01*
X1403837Y945554D02*
X1407832Y941560D01*
X1137250Y729000D02*
X1140750Y732500D01*
X1400750Y953750D02*
X1408060Y961060D01*
X1403710Y949710D02*
X1408060Y954060D01*
Y961060D02*
Y966560D01*
X1108750Y845250D02*
Y859250D01*
X1108500Y845000D02*
X1108750Y845250D01*
Y859250D02*
X1112500Y863000D01*
X1124750D01*
X1108500Y796000D02*
Y845000D01*
X1117502Y800500D02*
X1120079Y797923D01*
X1114250Y800500D02*
X1117502D01*
X1120079Y748579D02*
Y797923D01*
X1058975Y796528D02*
X1077086D01*
X1061955Y800822D02*
X1078504D01*
X1090551Y792250D02*
X1104750D01*
X1085023Y791629D02*
X1089147Y787505D01*
X1072903Y783034D02*
Y786875D01*
Y783034D02*
X1080557Y775380D01*
X1074262Y792488D02*
X1076943Y789807D01*
X1077086Y796528D02*
X1080983Y792630D01*
Y788747D02*
X1086264Y783465D01*
X1076943Y786232D02*
X1083750Y779425D01*
X1071415Y788363D02*
X1072903Y786875D01*
X1076943Y786232D02*
Y789807D01*
X1089063Y793738D02*
Y797227D01*
X1085023Y791629D02*
Y794304D01*
X1080983Y788747D02*
Y792630D01*
X1078504Y800822D02*
X1085023Y794304D01*
X1080842Y805447D02*
X1089063Y797227D01*
Y793738D02*
X1090551Y792250D01*
X1064463Y805447D02*
X1080842D01*
X1083750Y779425D02*
X1111596D01*
X1086264Y783465D02*
X1108679D01*
X1089147Y787505D02*
X1107005D01*
X1056276Y792488D02*
X1074262D01*
X1104750Y792250D02*
X1108500Y796000D01*
X1114039Y794539D02*
X1114554D01*
X1107005Y787505D02*
X1114039Y794539D01*
X925092Y809908D02*
Y904422D01*
X1117250Y723449D02*
Y745750D01*
X1110435Y723449D02*
X1117250D01*
X1111091Y729264D02*
X1112085Y728270D01*
X1112480D01*
X1108660Y725224D02*
X1110435Y723449D01*
X785471Y729264D02*
X1111091D01*
X918864Y725224D02*
X1108660D01*
X1117250Y745750D02*
X1120079Y748579D01*
X915959Y716209D02*
Y722320D01*
X918864Y725224D01*
X915680Y715930D02*
X915959Y716209D01*
X1112000Y738000D02*
Y744750D01*
X775070Y792328D02*
X782244Y785154D01*
Y738204D02*
X787144Y733304D01*
X782244Y738204D02*
Y785154D01*
X773435Y788250D02*
X778204Y783480D01*
Y736531D02*
Y783480D01*
Y736531D02*
X785471Y729264D01*
X1107304Y733304D02*
X1112000Y738000D01*
X787144Y733304D02*
X1107304D01*
X760688Y792328D02*
X775070D01*
X748000Y788250D02*
X773435D01*
X759200Y793816D02*
Y799500D01*
Y793816D02*
X760688Y792328D01*
X742750Y793500D02*
X748000Y788250D01*
X742750Y793500D02*
Y799500D01*
X642826Y1023500D02*
X659692D01*
X663250Y923750D02*
Y1019942D01*
X659692Y1023500D02*
X663250Y1019942D01*
X781750Y881407D02*
X786717Y876440D01*
X781750Y881407D02*
Y884250D01*
X785790Y883080D02*
X788390Y880480D01*
X785790Y883080D02*
Y892991D01*
X788390Y880480D02*
X861947D01*
X786717Y876440D02*
X789560D01*
X863746D01*
X781750Y884250D02*
Y891318D01*
X712738Y894445D02*
X778623D01*
X781750Y891318D01*
X780031Y898750D02*
X785790Y892991D01*
X712412Y898750D02*
X780031D01*
X933170Y912500D02*
X937181D01*
X925092Y904422D02*
X933170Y912500D01*
X929133Y902391D02*
X935201Y908460D01*
X942736D01*
X940099Y900250D02*
X949500D01*
X937213Y897364D02*
X940099Y900250D01*
X937181Y912500D02*
X939250Y914569D01*
Y926750D01*
X945558Y911283D02*
Y926777D01*
X942736Y908460D02*
X945558Y911283D01*
X1111596Y779425D02*
X1114583Y782412D01*
X1114242Y775380D02*
X1114514Y775652D01*
X1080557Y775380D02*
X1114242D01*
X1113033Y787182D02*
X1114330Y788479D01*
X1108679Y783465D02*
X1112396Y787182D01*
X1114330Y788479D02*
X1114725D01*
X1112396Y787182D02*
X1113033D01*
X947040Y904290D02*
X951750Y909000D01*
X949500Y900250D02*
X958000Y908750D01*
Y926750D01*
X951750Y909000D02*
Y926750D01*
X926732Y941441D02*
Y1039750D01*
X872827Y934290D02*
X919581D01*
X926732Y941441D01*
X861947Y880480D02*
X867500Y886033D01*
X850732Y885250D02*
X860878D01*
X863460Y887832D01*
Y924923D01*
X867500Y886033D02*
Y923250D01*
X863746Y876440D02*
X871540Y884233D01*
Y921040D01*
X875250Y924750D02*
X903037D01*
X871540Y921040D02*
X875250Y924750D01*
X867500Y923250D02*
X873750Y929500D01*
X906230D01*
X863460Y924923D02*
X872827Y934290D01*
X913127Y924345D02*
X915750Y926968D01*
X906230Y929500D02*
X906250Y929520D01*
X903442Y924345D02*
X913127D01*
X903037Y924750D02*
X903442Y924345D01*
X915750Y926968D02*
Y927000D01*
X667843Y919157D02*
X700545D01*
X663250Y923750D02*
X667843Y919157D01*
X642476Y890650D02*
X670850D01*
X681699Y879801D01*
X700967D01*
X711221Y892358D02*
X711250Y892957D01*
X712738Y894445D01*
X710924Y900238D02*
Y908778D01*
X700545Y919157D02*
X710924Y908778D01*
Y900238D02*
X712412Y898750D01*
X642476Y1023150D02*
X642826Y1023500D01*
X680450Y763700D02*
Y774750D01*
X674500Y757750D02*
X680450Y763700D01*
X645000Y757750D02*
X674500D01*
D78*
X995250Y636500D02*
D03*
Y1044750D02*
D03*
X1421250D02*
D03*
X1420500Y580000D02*
D03*
D79*
X1273600Y626100D02*
D03*
X1365650Y584150D02*
D03*
D80*
X1299000Y626100D02*
D03*
X1324400D02*
D03*
X1349800D02*
D03*
X1273600Y651500D02*
D03*
X1299000D02*
D03*
X1324400D02*
D03*
X1349800D02*
D03*
X1340250Y584150D02*
D03*
X1314850D02*
D03*
X1289450D02*
D03*
X1264050D02*
D03*
X1238650D02*
D03*
X1213250D02*
D03*
X1187850D02*
D03*
X1162450D02*
D03*
X1137050D02*
D03*
X1111650D02*
D03*
X1086250D02*
D03*
X1060850D02*
D03*
X1035450D02*
D03*
X1010050D02*
D03*
X984650D02*
D03*
X959250D02*
D03*
X933850D02*
D03*
X908450D02*
D03*
X883050D02*
D03*
X1365650Y558750D02*
D03*
X1340250D02*
D03*
X1314850D02*
D03*
X1289450D02*
D03*
X1264050D02*
D03*
X1238650D02*
D03*
X1213250D02*
D03*
X1187850D02*
D03*
X1162450D02*
D03*
X1137050D02*
D03*
X1111650D02*
D03*
X1086250D02*
D03*
X1060850D02*
D03*
X1035450D02*
D03*
X1010050D02*
D03*
X984650D02*
D03*
X959250D02*
D03*
X933850D02*
D03*
X908450D02*
D03*
X883050D02*
D03*
D81*
X692687Y577050D02*
D03*
D82*
X717687Y625050D02*
D03*
X657687D02*
D03*
D83*
X754976Y1001400D02*
D03*
D84*
X780376Y988700D02*
D03*
X754976Y976000D02*
D03*
X780376Y963300D02*
D03*
X754976Y950600D02*
D03*
X780376Y937900D02*
D03*
X754976Y925200D02*
D03*
X780376Y912500D02*
D03*
D85*
X642476Y1023150D02*
D03*
Y997750D02*
D03*
Y890650D02*
D03*
Y916050D02*
D03*
D86*
X721976Y1034350D02*
D03*
Y879450D02*
D03*
D87*
X691476Y899750D02*
D03*
Y1014050D02*
D03*
D88*
X639090Y795740D02*
D03*
X646170Y736360D02*
D03*
D89*
X650970Y808510D02*
D03*
Y722010D02*
D03*
D90*
X609170Y808510D02*
D03*
Y722010D02*
D03*
D91*
X1047500Y822750D02*
D03*
X738812Y767000D02*
D03*
Y760938D02*
D03*
Y754875D02*
D03*
X1130500Y866500D02*
D03*
X876310Y899000D02*
D03*
X1137955Y713290D02*
D03*
X1228250Y897500D02*
D03*
X1222436Y897580D02*
D03*
X1216937Y897496D02*
D03*
X1239891Y825105D02*
D03*
X1239343Y764301D02*
D03*
X1239993Y810554D02*
D03*
X1239617Y845120D02*
D03*
X1146839Y748216D02*
D03*
X1162100Y876096D02*
D03*
X1239500Y804500D02*
D03*
X1152045Y713182D02*
D03*
X1239500Y839250D02*
D03*
X1202000Y866750D02*
D03*
X1239500Y770000D02*
D03*
Y818750D02*
D03*
X1140568Y748690D02*
D03*
X1408254Y686260D02*
D03*
X1167250Y898000D02*
D03*
X1161250D02*
D03*
X1408254Y698760D02*
D03*
X1408060Y929060D02*
D03*
Y941560D02*
D03*
Y954060D02*
D03*
Y966560D02*
D03*
X1122250Y868250D02*
D03*
X1114750Y819750D02*
D03*
X1114250Y800500D02*
D03*
X1114554Y794539D02*
D03*
X1004750Y819500D02*
D03*
X1112480Y728270D02*
D03*
X1112000Y744750D02*
D03*
X915680Y715930D02*
D03*
X742750Y799500D02*
D03*
X759200Y799500D02*
D03*
X1114514Y775652D02*
D03*
X1114725Y788479D02*
D03*
X1114583Y782412D02*
D03*
X945558Y926777D02*
D03*
X939250Y926750D02*
D03*
X944500Y835250D02*
D03*
X958000Y926750D02*
D03*
X951750D02*
D03*
X1114250Y769750D02*
D03*
X1122250Y742000D02*
D03*
X906250Y929520D02*
D03*
X850732Y885250D02*
D03*
X926732Y1039750D02*
D03*
X915750Y927000D02*
D03*
X645000Y757750D02*
D03*
X680450Y774750D02*
D03*
X903948Y968770D02*
D03*
X1098750Y708500D02*
D03*
X904500Y953750D02*
D03*
X951250Y985750D02*
D03*
X963000Y984000D02*
D03*
X926250Y927250D02*
D03*
X904250Y979000D02*
D03*
X921250Y985500D02*
D03*
X1433860Y876560D02*
D03*
X719520Y766000D02*
D03*
X954482Y1039750D02*
D03*
X912732D02*
D03*
X1022982Y906500D02*
D03*
Y920500D02*
D03*
Y962250D02*
D03*
Y948500D02*
D03*
Y934500D02*
D03*
X1239500Y859750D02*
D03*
X1289223Y731500D02*
D03*
X1300500Y715250D02*
D03*
X1433110Y633760D02*
D03*
X1408254Y661260D02*
D03*
X1433110Y726260D02*
D03*
X1408060Y904060D02*
D03*
X1433860Y994060D02*
D03*
X1433110Y846270D02*
D03*
Y753770D02*
D03*
X1407310Y781270D02*
D03*
X1363850Y777000D02*
D03*
X1363750Y821000D02*
D03*
X1300500Y854750D02*
D03*
X1289223Y871000D02*
D03*
X1097250Y901000D02*
D03*
X1046780Y837610D02*
D03*
X1031280Y778360D02*
D03*
X1065000Y755000D02*
D03*
Y769000D02*
D03*
X1065500Y814500D02*
D03*
X1065000Y783000D02*
D03*
X1030530Y796860D02*
D03*
X844500Y740000D02*
D03*
X844430Y722930D02*
D03*
X767500Y606250D02*
D03*
X764250Y631500D02*
D03*
X801000Y651000D02*
D03*
X762500Y655000D02*
D03*
X756625Y754875D02*
D03*
Y773063D02*
D03*
Y767000D02*
D03*
Y760938D02*
D03*
Y748812D02*
D03*
X744750Y754875D02*
D03*
X750687D02*
D03*
X762562D02*
D03*
X738812Y748812D02*
D03*
X744750D02*
D03*
X750687D02*
D03*
X762562D02*
D03*
X744750Y760938D02*
D03*
X750687D02*
D03*
X762562D02*
D03*
X744750Y767000D02*
D03*
X750687D02*
D03*
X762562D02*
D03*
Y773063D02*
D03*
X750687D02*
D03*
X744750D02*
D03*
X738812D02*
D03*
X728750Y801250D02*
D03*
X773250Y801500D02*
D03*
X705550Y765250D02*
D03*
X674750Y721750D02*
D03*
X656870Y731760D02*
D03*
Y798760D02*
D03*
X674500Y808250D02*
D03*
X687500Y865750D02*
D03*
X690500Y1048250D02*
D03*
X773500Y866250D02*
D03*
X809482Y901000D02*
D03*
X825000Y977500D02*
D03*
X808732Y1024500D02*
D03*
X865732Y1025250D02*
D03*
X850732Y997250D02*
D03*
Y983000D02*
D03*
X850750Y955000D02*
D03*
X825000Y949750D02*
D03*
X850750Y969000D02*
D03*
X850732Y941000D02*
D03*
Y927000D02*
D03*
X902250Y868750D02*
D03*
X941982Y878000D02*
D03*
X919983Y895000D02*
D03*
X974000Y903500D02*
D03*
X916750Y835250D02*
D03*
X834000Y791000D02*
D03*
Y815000D02*
D03*
M02*
